%TF.GenerationSoftware,KiCad,Pcbnew,8.0.4*%
%TF.CreationDate,2024-08-08T16:53:51-05:00*%
%TF.ProjectId,GP2040-RE,47503230-3430-42d5-9245-2e6b69636164,rev?*%
%TF.SameCoordinates,Original*%
%TF.FileFunction,Legend,Top*%
%TF.FilePolarity,Positive*%
%FSLAX46Y46*%
G04 Gerber Fmt 4.6, Leading zero omitted, Abs format (unit mm)*
G04 Created by KiCad (PCBNEW 8.0.4) date 2024-08-08 16:53:51*
%MOMM*%
%LPD*%
G01*
G04 APERTURE LIST*
%ADD10C,0.100000*%
%ADD11C,0.150000*%
%ADD12C,0.120000*%
%ADD13C,0.200000*%
%ADD14C,0.220000*%
G04 APERTURE END LIST*
D10*
X171550684Y-91414019D02*
X171550684Y-90414019D01*
X171550684Y-90414019D02*
X172122112Y-91414019D01*
X172122112Y-91414019D02*
X172122112Y-90414019D01*
X173169731Y-91318780D02*
X173122112Y-91366400D01*
X173122112Y-91366400D02*
X172979255Y-91414019D01*
X172979255Y-91414019D02*
X172884017Y-91414019D01*
X172884017Y-91414019D02*
X172741160Y-91366400D01*
X172741160Y-91366400D02*
X172645922Y-91271161D01*
X172645922Y-91271161D02*
X172598303Y-91175923D01*
X172598303Y-91175923D02*
X172550684Y-90985447D01*
X172550684Y-90985447D02*
X172550684Y-90842590D01*
X172550684Y-90842590D02*
X172598303Y-90652114D01*
X172598303Y-90652114D02*
X172645922Y-90556876D01*
X172645922Y-90556876D02*
X172741160Y-90461638D01*
X172741160Y-90461638D02*
X172884017Y-90414019D01*
X172884017Y-90414019D02*
X172979255Y-90414019D01*
X172979255Y-90414019D02*
X173122112Y-90461638D01*
X173122112Y-90461638D02*
X173169731Y-90509257D01*
X168808400Y-91541600D02*
X178892200Y-91541600D01*
X178892200Y-94208600D01*
X168808400Y-94208600D01*
X168808400Y-91541600D01*
X175516600Y-84151115D02*
X175564219Y-84008258D01*
X175564219Y-84008258D02*
X175564219Y-83770163D01*
X175564219Y-83770163D02*
X175516600Y-83674925D01*
X175516600Y-83674925D02*
X175468980Y-83627306D01*
X175468980Y-83627306D02*
X175373742Y-83579687D01*
X175373742Y-83579687D02*
X175278504Y-83579687D01*
X175278504Y-83579687D02*
X175183266Y-83627306D01*
X175183266Y-83627306D02*
X175135647Y-83674925D01*
X175135647Y-83674925D02*
X175088028Y-83770163D01*
X175088028Y-83770163D02*
X175040409Y-83960639D01*
X175040409Y-83960639D02*
X174992790Y-84055877D01*
X174992790Y-84055877D02*
X174945171Y-84103496D01*
X174945171Y-84103496D02*
X174849933Y-84151115D01*
X174849933Y-84151115D02*
X174754695Y-84151115D01*
X174754695Y-84151115D02*
X174659457Y-84103496D01*
X174659457Y-84103496D02*
X174611838Y-84055877D01*
X174611838Y-84055877D02*
X174564219Y-83960639D01*
X174564219Y-83960639D02*
X174564219Y-83722544D01*
X174564219Y-83722544D02*
X174611838Y-83579687D01*
X175564219Y-83151115D02*
X174564219Y-83151115D01*
X174564219Y-83151115D02*
X174564219Y-82913020D01*
X174564219Y-82913020D02*
X174611838Y-82770163D01*
X174611838Y-82770163D02*
X174707076Y-82674925D01*
X174707076Y-82674925D02*
X174802314Y-82627306D01*
X174802314Y-82627306D02*
X174992790Y-82579687D01*
X174992790Y-82579687D02*
X175135647Y-82579687D01*
X175135647Y-82579687D02*
X175326123Y-82627306D01*
X175326123Y-82627306D02*
X175421361Y-82674925D01*
X175421361Y-82674925D02*
X175516600Y-82770163D01*
X175516600Y-82770163D02*
X175564219Y-82913020D01*
X175564219Y-82913020D02*
X175564219Y-83151115D01*
X175278504Y-82198734D02*
X175278504Y-81722544D01*
X175564219Y-82293972D02*
X174564219Y-81960639D01*
X174564219Y-81960639D02*
X175564219Y-81627306D01*
X172934266Y-84103496D02*
X172981885Y-83960639D01*
X172981885Y-83960639D02*
X172981885Y-83722544D01*
X172981885Y-83722544D02*
X172934266Y-83627306D01*
X172934266Y-83627306D02*
X172886646Y-83579687D01*
X172886646Y-83579687D02*
X172791408Y-83532068D01*
X172791408Y-83532068D02*
X172696170Y-83532068D01*
X172696170Y-83532068D02*
X172600932Y-83579687D01*
X172600932Y-83579687D02*
X172553313Y-83627306D01*
X172553313Y-83627306D02*
X172505694Y-83722544D01*
X172505694Y-83722544D02*
X172458075Y-83913020D01*
X172458075Y-83913020D02*
X172410456Y-84008258D01*
X172410456Y-84008258D02*
X172362837Y-84055877D01*
X172362837Y-84055877D02*
X172267599Y-84103496D01*
X172267599Y-84103496D02*
X172172361Y-84103496D01*
X172172361Y-84103496D02*
X172077123Y-84055877D01*
X172077123Y-84055877D02*
X172029504Y-84008258D01*
X172029504Y-84008258D02*
X171981885Y-83913020D01*
X171981885Y-83913020D02*
X171981885Y-83674925D01*
X171981885Y-83674925D02*
X172029504Y-83532068D01*
X172886646Y-82532068D02*
X172934266Y-82579687D01*
X172934266Y-82579687D02*
X172981885Y-82722544D01*
X172981885Y-82722544D02*
X172981885Y-82817782D01*
X172981885Y-82817782D02*
X172934266Y-82960639D01*
X172934266Y-82960639D02*
X172839027Y-83055877D01*
X172839027Y-83055877D02*
X172743789Y-83103496D01*
X172743789Y-83103496D02*
X172553313Y-83151115D01*
X172553313Y-83151115D02*
X172410456Y-83151115D01*
X172410456Y-83151115D02*
X172219980Y-83103496D01*
X172219980Y-83103496D02*
X172124742Y-83055877D01*
X172124742Y-83055877D02*
X172029504Y-82960639D01*
X172029504Y-82960639D02*
X171981885Y-82817782D01*
X171981885Y-82817782D02*
X171981885Y-82722544D01*
X171981885Y-82722544D02*
X172029504Y-82579687D01*
X172029504Y-82579687D02*
X172077123Y-82532068D01*
X172981885Y-81627306D02*
X172981885Y-82103496D01*
X172981885Y-82103496D02*
X171981885Y-82103496D01*
X169447171Y-83817782D02*
X169399552Y-83913020D01*
X169399552Y-83913020D02*
X169399552Y-84055877D01*
X169399552Y-84055877D02*
X169447171Y-84198734D01*
X169447171Y-84198734D02*
X169542409Y-84293972D01*
X169542409Y-84293972D02*
X169637647Y-84341591D01*
X169637647Y-84341591D02*
X169828123Y-84389210D01*
X169828123Y-84389210D02*
X169970980Y-84389210D01*
X169970980Y-84389210D02*
X170161456Y-84341591D01*
X170161456Y-84341591D02*
X170256694Y-84293972D01*
X170256694Y-84293972D02*
X170351933Y-84198734D01*
X170351933Y-84198734D02*
X170399552Y-84055877D01*
X170399552Y-84055877D02*
X170399552Y-83960639D01*
X170399552Y-83960639D02*
X170351933Y-83817782D01*
X170351933Y-83817782D02*
X170304313Y-83770163D01*
X170304313Y-83770163D02*
X169970980Y-83770163D01*
X169970980Y-83770163D02*
X169970980Y-83960639D01*
X170399552Y-83341591D02*
X169399552Y-83341591D01*
X169399552Y-83341591D02*
X170399552Y-82770163D01*
X170399552Y-82770163D02*
X169399552Y-82770163D01*
X170399552Y-82293972D02*
X169399552Y-82293972D01*
X169399552Y-82293972D02*
X169399552Y-82055877D01*
X169399552Y-82055877D02*
X169447171Y-81913020D01*
X169447171Y-81913020D02*
X169542409Y-81817782D01*
X169542409Y-81817782D02*
X169637647Y-81770163D01*
X169637647Y-81770163D02*
X169828123Y-81722544D01*
X169828123Y-81722544D02*
X169970980Y-81722544D01*
X169970980Y-81722544D02*
X170161456Y-81770163D01*
X170161456Y-81770163D02*
X170256694Y-81817782D01*
X170256694Y-81817782D02*
X170351933Y-81913020D01*
X170351933Y-81913020D02*
X170399552Y-82055877D01*
X170399552Y-82055877D02*
X170399552Y-82293972D01*
X166817219Y-84293972D02*
X167817219Y-83960639D01*
X167817219Y-83960639D02*
X166817219Y-83627306D01*
X167721980Y-82722544D02*
X167769600Y-82770163D01*
X167769600Y-82770163D02*
X167817219Y-82913020D01*
X167817219Y-82913020D02*
X167817219Y-83008258D01*
X167817219Y-83008258D02*
X167769600Y-83151115D01*
X167769600Y-83151115D02*
X167674361Y-83246353D01*
X167674361Y-83246353D02*
X167579123Y-83293972D01*
X167579123Y-83293972D02*
X167388647Y-83341591D01*
X167388647Y-83341591D02*
X167245790Y-83341591D01*
X167245790Y-83341591D02*
X167055314Y-83293972D01*
X167055314Y-83293972D02*
X166960076Y-83246353D01*
X166960076Y-83246353D02*
X166864838Y-83151115D01*
X166864838Y-83151115D02*
X166817219Y-83008258D01*
X166817219Y-83008258D02*
X166817219Y-82913020D01*
X166817219Y-82913020D02*
X166864838Y-82770163D01*
X166864838Y-82770163D02*
X166912457Y-82722544D01*
X167721980Y-81722544D02*
X167769600Y-81770163D01*
X167769600Y-81770163D02*
X167817219Y-81913020D01*
X167817219Y-81913020D02*
X167817219Y-82008258D01*
X167817219Y-82008258D02*
X167769600Y-82151115D01*
X167769600Y-82151115D02*
X167674361Y-82246353D01*
X167674361Y-82246353D02*
X167579123Y-82293972D01*
X167579123Y-82293972D02*
X167388647Y-82341591D01*
X167388647Y-82341591D02*
X167245790Y-82341591D01*
X167245790Y-82341591D02*
X167055314Y-82293972D01*
X167055314Y-82293972D02*
X166960076Y-82246353D01*
X166960076Y-82246353D02*
X166864838Y-82151115D01*
X166864838Y-82151115D02*
X166817219Y-82008258D01*
X166817219Y-82008258D02*
X166817219Y-81913020D01*
X166817219Y-81913020D02*
X166864838Y-81770163D01*
X166864838Y-81770163D02*
X166912457Y-81722544D01*
X156694865Y-81134000D02*
X156837722Y-81181619D01*
X156837722Y-81181619D02*
X157075817Y-81181619D01*
X157075817Y-81181619D02*
X157171055Y-81134000D01*
X157171055Y-81134000D02*
X157218674Y-81086380D01*
X157218674Y-81086380D02*
X157266293Y-80991142D01*
X157266293Y-80991142D02*
X157266293Y-80895904D01*
X157266293Y-80895904D02*
X157218674Y-80800666D01*
X157218674Y-80800666D02*
X157171055Y-80753047D01*
X157171055Y-80753047D02*
X157075817Y-80705428D01*
X157075817Y-80705428D02*
X156885341Y-80657809D01*
X156885341Y-80657809D02*
X156790103Y-80610190D01*
X156790103Y-80610190D02*
X156742484Y-80562571D01*
X156742484Y-80562571D02*
X156694865Y-80467333D01*
X156694865Y-80467333D02*
X156694865Y-80372095D01*
X156694865Y-80372095D02*
X156742484Y-80276857D01*
X156742484Y-80276857D02*
X156790103Y-80229238D01*
X156790103Y-80229238D02*
X156885341Y-80181619D01*
X156885341Y-80181619D02*
X157123436Y-80181619D01*
X157123436Y-80181619D02*
X157266293Y-80229238D01*
X157599627Y-80181619D02*
X157837722Y-81181619D01*
X157837722Y-81181619D02*
X158028198Y-80467333D01*
X158028198Y-80467333D02*
X158218674Y-81181619D01*
X158218674Y-81181619D02*
X158456770Y-80181619D01*
X158837722Y-81181619D02*
X158837722Y-80181619D01*
X158837722Y-80181619D02*
X159075817Y-80181619D01*
X159075817Y-80181619D02*
X159218674Y-80229238D01*
X159218674Y-80229238D02*
X159313912Y-80324476D01*
X159313912Y-80324476D02*
X159361531Y-80419714D01*
X159361531Y-80419714D02*
X159409150Y-80610190D01*
X159409150Y-80610190D02*
X159409150Y-80753047D01*
X159409150Y-80753047D02*
X159361531Y-80943523D01*
X159361531Y-80943523D02*
X159313912Y-81038761D01*
X159313912Y-81038761D02*
X159218674Y-81134000D01*
X159218674Y-81134000D02*
X159075817Y-81181619D01*
X159075817Y-81181619D02*
X158837722Y-81181619D01*
X159837722Y-81181619D02*
X159837722Y-80181619D01*
X160504388Y-80181619D02*
X160694864Y-80181619D01*
X160694864Y-80181619D02*
X160790102Y-80229238D01*
X160790102Y-80229238D02*
X160885340Y-80324476D01*
X160885340Y-80324476D02*
X160932959Y-80514952D01*
X160932959Y-80514952D02*
X160932959Y-80848285D01*
X160932959Y-80848285D02*
X160885340Y-81038761D01*
X160885340Y-81038761D02*
X160790102Y-81134000D01*
X160790102Y-81134000D02*
X160694864Y-81181619D01*
X160694864Y-81181619D02*
X160504388Y-81181619D01*
X160504388Y-81181619D02*
X160409150Y-81134000D01*
X160409150Y-81134000D02*
X160313912Y-81038761D01*
X160313912Y-81038761D02*
X160266293Y-80848285D01*
X160266293Y-80848285D02*
X160266293Y-80514952D01*
X160266293Y-80514952D02*
X160313912Y-80324476D01*
X160313912Y-80324476D02*
X160409150Y-80229238D01*
X160409150Y-80229238D02*
X160504388Y-80181619D01*
X157266293Y-77803538D02*
X157171055Y-77755919D01*
X157171055Y-77755919D02*
X157028198Y-77755919D01*
X157028198Y-77755919D02*
X156885341Y-77803538D01*
X156885341Y-77803538D02*
X156790103Y-77898776D01*
X156790103Y-77898776D02*
X156742484Y-77994014D01*
X156742484Y-77994014D02*
X156694865Y-78184490D01*
X156694865Y-78184490D02*
X156694865Y-78327347D01*
X156694865Y-78327347D02*
X156742484Y-78517823D01*
X156742484Y-78517823D02*
X156790103Y-78613061D01*
X156790103Y-78613061D02*
X156885341Y-78708300D01*
X156885341Y-78708300D02*
X157028198Y-78755919D01*
X157028198Y-78755919D02*
X157123436Y-78755919D01*
X157123436Y-78755919D02*
X157266293Y-78708300D01*
X157266293Y-78708300D02*
X157313912Y-78660680D01*
X157313912Y-78660680D02*
X157313912Y-78327347D01*
X157313912Y-78327347D02*
X157123436Y-78327347D01*
X157742484Y-78755919D02*
X157742484Y-77755919D01*
X157742484Y-77755919D02*
X158313912Y-78755919D01*
X158313912Y-78755919D02*
X158313912Y-77755919D01*
X158790103Y-78755919D02*
X158790103Y-77755919D01*
X158790103Y-77755919D02*
X159028198Y-77755919D01*
X159028198Y-77755919D02*
X159171055Y-77803538D01*
X159171055Y-77803538D02*
X159266293Y-77898776D01*
X159266293Y-77898776D02*
X159313912Y-77994014D01*
X159313912Y-77994014D02*
X159361531Y-78184490D01*
X159361531Y-78184490D02*
X159361531Y-78327347D01*
X159361531Y-78327347D02*
X159313912Y-78517823D01*
X159313912Y-78517823D02*
X159266293Y-78613061D01*
X159266293Y-78613061D02*
X159171055Y-78708300D01*
X159171055Y-78708300D02*
X159028198Y-78755919D01*
X159028198Y-78755919D02*
X158790103Y-78755919D01*
X156694865Y-76282600D02*
X156837722Y-76330219D01*
X156837722Y-76330219D02*
X157075817Y-76330219D01*
X157075817Y-76330219D02*
X157171055Y-76282600D01*
X157171055Y-76282600D02*
X157218674Y-76234980D01*
X157218674Y-76234980D02*
X157266293Y-76139742D01*
X157266293Y-76139742D02*
X157266293Y-76044504D01*
X157266293Y-76044504D02*
X157218674Y-75949266D01*
X157218674Y-75949266D02*
X157171055Y-75901647D01*
X157171055Y-75901647D02*
X157075817Y-75854028D01*
X157075817Y-75854028D02*
X156885341Y-75806409D01*
X156885341Y-75806409D02*
X156790103Y-75758790D01*
X156790103Y-75758790D02*
X156742484Y-75711171D01*
X156742484Y-75711171D02*
X156694865Y-75615933D01*
X156694865Y-75615933D02*
X156694865Y-75520695D01*
X156694865Y-75520695D02*
X156742484Y-75425457D01*
X156742484Y-75425457D02*
X156790103Y-75377838D01*
X156790103Y-75377838D02*
X156885341Y-75330219D01*
X156885341Y-75330219D02*
X157123436Y-75330219D01*
X157123436Y-75330219D02*
X157266293Y-75377838D01*
X157599627Y-75330219D02*
X157837722Y-76330219D01*
X157837722Y-76330219D02*
X158028198Y-75615933D01*
X158028198Y-75615933D02*
X158218674Y-76330219D01*
X158218674Y-76330219D02*
X158456770Y-75330219D01*
X159409150Y-76234980D02*
X159361531Y-76282600D01*
X159361531Y-76282600D02*
X159218674Y-76330219D01*
X159218674Y-76330219D02*
X159123436Y-76330219D01*
X159123436Y-76330219D02*
X158980579Y-76282600D01*
X158980579Y-76282600D02*
X158885341Y-76187361D01*
X158885341Y-76187361D02*
X158837722Y-76092123D01*
X158837722Y-76092123D02*
X158790103Y-75901647D01*
X158790103Y-75901647D02*
X158790103Y-75758790D01*
X158790103Y-75758790D02*
X158837722Y-75568314D01*
X158837722Y-75568314D02*
X158885341Y-75473076D01*
X158885341Y-75473076D02*
X158980579Y-75377838D01*
X158980579Y-75377838D02*
X159123436Y-75330219D01*
X159123436Y-75330219D02*
X159218674Y-75330219D01*
X159218674Y-75330219D02*
X159361531Y-75377838D01*
X159361531Y-75377838D02*
X159409150Y-75425457D01*
X160313912Y-76330219D02*
X159837722Y-76330219D01*
X159837722Y-76330219D02*
X159837722Y-75330219D01*
X160647246Y-76330219D02*
X160647246Y-75330219D01*
X161218674Y-76330219D02*
X160790103Y-75758790D01*
X161218674Y-75330219D02*
X160647246Y-75901647D01*
X157266293Y-67199038D02*
X157171055Y-67151419D01*
X157171055Y-67151419D02*
X157028198Y-67151419D01*
X157028198Y-67151419D02*
X156885341Y-67199038D01*
X156885341Y-67199038D02*
X156790103Y-67294276D01*
X156790103Y-67294276D02*
X156742484Y-67389514D01*
X156742484Y-67389514D02*
X156694865Y-67579990D01*
X156694865Y-67579990D02*
X156694865Y-67722847D01*
X156694865Y-67722847D02*
X156742484Y-67913323D01*
X156742484Y-67913323D02*
X156790103Y-68008561D01*
X156790103Y-68008561D02*
X156885341Y-68103800D01*
X156885341Y-68103800D02*
X157028198Y-68151419D01*
X157028198Y-68151419D02*
X157123436Y-68151419D01*
X157123436Y-68151419D02*
X157266293Y-68103800D01*
X157266293Y-68103800D02*
X157313912Y-68056180D01*
X157313912Y-68056180D02*
X157313912Y-67722847D01*
X157313912Y-67722847D02*
X157123436Y-67722847D01*
X157742484Y-68151419D02*
X157742484Y-67151419D01*
X157742484Y-67151419D02*
X158313912Y-68151419D01*
X158313912Y-68151419D02*
X158313912Y-67151419D01*
X158790103Y-68151419D02*
X158790103Y-67151419D01*
X158790103Y-67151419D02*
X159028198Y-67151419D01*
X159028198Y-67151419D02*
X159171055Y-67199038D01*
X159171055Y-67199038D02*
X159266293Y-67294276D01*
X159266293Y-67294276D02*
X159313912Y-67389514D01*
X159313912Y-67389514D02*
X159361531Y-67579990D01*
X159361531Y-67579990D02*
X159361531Y-67722847D01*
X159361531Y-67722847D02*
X159313912Y-67913323D01*
X159313912Y-67913323D02*
X159266293Y-68008561D01*
X159266293Y-68008561D02*
X159171055Y-68103800D01*
X159171055Y-68103800D02*
X159028198Y-68151419D01*
X159028198Y-68151419D02*
X158790103Y-68151419D01*
X157313912Y-65535219D02*
X156980579Y-65059028D01*
X156742484Y-65535219D02*
X156742484Y-64535219D01*
X156742484Y-64535219D02*
X157123436Y-64535219D01*
X157123436Y-64535219D02*
X157218674Y-64582838D01*
X157218674Y-64582838D02*
X157266293Y-64630457D01*
X157266293Y-64630457D02*
X157313912Y-64725695D01*
X157313912Y-64725695D02*
X157313912Y-64868552D01*
X157313912Y-64868552D02*
X157266293Y-64963790D01*
X157266293Y-64963790D02*
X157218674Y-65011409D01*
X157218674Y-65011409D02*
X157123436Y-65059028D01*
X157123436Y-65059028D02*
X156742484Y-65059028D01*
X157647246Y-64535219D02*
X158313912Y-65535219D01*
X158313912Y-64535219D02*
X157647246Y-65535219D01*
X156599627Y-61919019D02*
X157171055Y-61919019D01*
X156885341Y-62919019D02*
X156885341Y-61919019D01*
X157409151Y-61919019D02*
X158075817Y-62919019D01*
X158075817Y-61919019D02*
X157409151Y-62919019D01*
X190301693Y-54977438D02*
X190206455Y-54929819D01*
X190206455Y-54929819D02*
X190063598Y-54929819D01*
X190063598Y-54929819D02*
X189920741Y-54977438D01*
X189920741Y-54977438D02*
X189825503Y-55072676D01*
X189825503Y-55072676D02*
X189777884Y-55167914D01*
X189777884Y-55167914D02*
X189730265Y-55358390D01*
X189730265Y-55358390D02*
X189730265Y-55501247D01*
X189730265Y-55501247D02*
X189777884Y-55691723D01*
X189777884Y-55691723D02*
X189825503Y-55786961D01*
X189825503Y-55786961D02*
X189920741Y-55882200D01*
X189920741Y-55882200D02*
X190063598Y-55929819D01*
X190063598Y-55929819D02*
X190158836Y-55929819D01*
X190158836Y-55929819D02*
X190301693Y-55882200D01*
X190301693Y-55882200D02*
X190349312Y-55834580D01*
X190349312Y-55834580D02*
X190349312Y-55501247D01*
X190349312Y-55501247D02*
X190158836Y-55501247D01*
X190777884Y-55929819D02*
X190777884Y-54929819D01*
X190777884Y-54929819D02*
X191349312Y-55929819D01*
X191349312Y-55929819D02*
X191349312Y-54929819D01*
X191825503Y-55929819D02*
X191825503Y-54929819D01*
X191825503Y-54929819D02*
X192063598Y-54929819D01*
X192063598Y-54929819D02*
X192206455Y-54977438D01*
X192206455Y-54977438D02*
X192301693Y-55072676D01*
X192301693Y-55072676D02*
X192349312Y-55167914D01*
X192349312Y-55167914D02*
X192396931Y-55358390D01*
X192396931Y-55358390D02*
X192396931Y-55501247D01*
X192396931Y-55501247D02*
X192349312Y-55691723D01*
X192349312Y-55691723D02*
X192301693Y-55786961D01*
X192301693Y-55786961D02*
X192206455Y-55882200D01*
X192206455Y-55882200D02*
X192063598Y-55929819D01*
X192063598Y-55929819D02*
X191825503Y-55929819D01*
X186780684Y-55882200D02*
X186923541Y-55929819D01*
X186923541Y-55929819D02*
X187161636Y-55929819D01*
X187161636Y-55929819D02*
X187256874Y-55882200D01*
X187256874Y-55882200D02*
X187304493Y-55834580D01*
X187304493Y-55834580D02*
X187352112Y-55739342D01*
X187352112Y-55739342D02*
X187352112Y-55644104D01*
X187352112Y-55644104D02*
X187304493Y-55548866D01*
X187304493Y-55548866D02*
X187256874Y-55501247D01*
X187256874Y-55501247D02*
X187161636Y-55453628D01*
X187161636Y-55453628D02*
X186971160Y-55406009D01*
X186971160Y-55406009D02*
X186875922Y-55358390D01*
X186875922Y-55358390D02*
X186828303Y-55310771D01*
X186828303Y-55310771D02*
X186780684Y-55215533D01*
X186780684Y-55215533D02*
X186780684Y-55120295D01*
X186780684Y-55120295D02*
X186828303Y-55025057D01*
X186828303Y-55025057D02*
X186875922Y-54977438D01*
X186875922Y-54977438D02*
X186971160Y-54929819D01*
X186971160Y-54929819D02*
X187209255Y-54929819D01*
X187209255Y-54929819D02*
X187352112Y-54977438D01*
X188352112Y-55834580D02*
X188304493Y-55882200D01*
X188304493Y-55882200D02*
X188161636Y-55929819D01*
X188161636Y-55929819D02*
X188066398Y-55929819D01*
X188066398Y-55929819D02*
X187923541Y-55882200D01*
X187923541Y-55882200D02*
X187828303Y-55786961D01*
X187828303Y-55786961D02*
X187780684Y-55691723D01*
X187780684Y-55691723D02*
X187733065Y-55501247D01*
X187733065Y-55501247D02*
X187733065Y-55358390D01*
X187733065Y-55358390D02*
X187780684Y-55167914D01*
X187780684Y-55167914D02*
X187828303Y-55072676D01*
X187828303Y-55072676D02*
X187923541Y-54977438D01*
X187923541Y-54977438D02*
X188066398Y-54929819D01*
X188066398Y-54929819D02*
X188161636Y-54929819D01*
X188161636Y-54929819D02*
X188304493Y-54977438D01*
X188304493Y-54977438D02*
X188352112Y-55025057D01*
X189256874Y-55929819D02*
X188780684Y-55929819D01*
X188780684Y-55929819D02*
X188780684Y-54929819D01*
X183783484Y-55882200D02*
X183926341Y-55929819D01*
X183926341Y-55929819D02*
X184164436Y-55929819D01*
X184164436Y-55929819D02*
X184259674Y-55882200D01*
X184259674Y-55882200D02*
X184307293Y-55834580D01*
X184307293Y-55834580D02*
X184354912Y-55739342D01*
X184354912Y-55739342D02*
X184354912Y-55644104D01*
X184354912Y-55644104D02*
X184307293Y-55548866D01*
X184307293Y-55548866D02*
X184259674Y-55501247D01*
X184259674Y-55501247D02*
X184164436Y-55453628D01*
X184164436Y-55453628D02*
X183973960Y-55406009D01*
X183973960Y-55406009D02*
X183878722Y-55358390D01*
X183878722Y-55358390D02*
X183831103Y-55310771D01*
X183831103Y-55310771D02*
X183783484Y-55215533D01*
X183783484Y-55215533D02*
X183783484Y-55120295D01*
X183783484Y-55120295D02*
X183831103Y-55025057D01*
X183831103Y-55025057D02*
X183878722Y-54977438D01*
X183878722Y-54977438D02*
X183973960Y-54929819D01*
X183973960Y-54929819D02*
X184212055Y-54929819D01*
X184212055Y-54929819D02*
X184354912Y-54977438D01*
X184783484Y-55929819D02*
X184783484Y-54929819D01*
X184783484Y-54929819D02*
X185021579Y-54929819D01*
X185021579Y-54929819D02*
X185164436Y-54977438D01*
X185164436Y-54977438D02*
X185259674Y-55072676D01*
X185259674Y-55072676D02*
X185307293Y-55167914D01*
X185307293Y-55167914D02*
X185354912Y-55358390D01*
X185354912Y-55358390D02*
X185354912Y-55501247D01*
X185354912Y-55501247D02*
X185307293Y-55691723D01*
X185307293Y-55691723D02*
X185259674Y-55786961D01*
X185259674Y-55786961D02*
X185164436Y-55882200D01*
X185164436Y-55882200D02*
X185021579Y-55929819D01*
X185021579Y-55929819D02*
X184783484Y-55929819D01*
X185735865Y-55644104D02*
X186212055Y-55644104D01*
X185640627Y-55929819D02*
X185973960Y-54929819D01*
X185973960Y-54929819D02*
X186307293Y-55929819D01*
X180643427Y-54929819D02*
X180976760Y-55929819D01*
X180976760Y-55929819D02*
X181310093Y-54929819D01*
X182214855Y-55834580D02*
X182167236Y-55882200D01*
X182167236Y-55882200D02*
X182024379Y-55929819D01*
X182024379Y-55929819D02*
X181929141Y-55929819D01*
X181929141Y-55929819D02*
X181786284Y-55882200D01*
X181786284Y-55882200D02*
X181691046Y-55786961D01*
X181691046Y-55786961D02*
X181643427Y-55691723D01*
X181643427Y-55691723D02*
X181595808Y-55501247D01*
X181595808Y-55501247D02*
X181595808Y-55358390D01*
X181595808Y-55358390D02*
X181643427Y-55167914D01*
X181643427Y-55167914D02*
X181691046Y-55072676D01*
X181691046Y-55072676D02*
X181786284Y-54977438D01*
X181786284Y-54977438D02*
X181929141Y-54929819D01*
X181929141Y-54929819D02*
X182024379Y-54929819D01*
X182024379Y-54929819D02*
X182167236Y-54977438D01*
X182167236Y-54977438D02*
X182214855Y-55025057D01*
X183214855Y-55834580D02*
X183167236Y-55882200D01*
X183167236Y-55882200D02*
X183024379Y-55929819D01*
X183024379Y-55929819D02*
X182929141Y-55929819D01*
X182929141Y-55929819D02*
X182786284Y-55882200D01*
X182786284Y-55882200D02*
X182691046Y-55786961D01*
X182691046Y-55786961D02*
X182643427Y-55691723D01*
X182643427Y-55691723D02*
X182595808Y-55501247D01*
X182595808Y-55501247D02*
X182595808Y-55358390D01*
X182595808Y-55358390D02*
X182643427Y-55167914D01*
X182643427Y-55167914D02*
X182691046Y-55072676D01*
X182691046Y-55072676D02*
X182786284Y-54977438D01*
X182786284Y-54977438D02*
X182929141Y-54929819D01*
X182929141Y-54929819D02*
X183024379Y-54929819D01*
X183024379Y-54929819D02*
X183167236Y-54977438D01*
X183167236Y-54977438D02*
X183214855Y-55025057D01*
X174807693Y-54977438D02*
X174712455Y-54929819D01*
X174712455Y-54929819D02*
X174569598Y-54929819D01*
X174569598Y-54929819D02*
X174426741Y-54977438D01*
X174426741Y-54977438D02*
X174331503Y-55072676D01*
X174331503Y-55072676D02*
X174283884Y-55167914D01*
X174283884Y-55167914D02*
X174236265Y-55358390D01*
X174236265Y-55358390D02*
X174236265Y-55501247D01*
X174236265Y-55501247D02*
X174283884Y-55691723D01*
X174283884Y-55691723D02*
X174331503Y-55786961D01*
X174331503Y-55786961D02*
X174426741Y-55882200D01*
X174426741Y-55882200D02*
X174569598Y-55929819D01*
X174569598Y-55929819D02*
X174664836Y-55929819D01*
X174664836Y-55929819D02*
X174807693Y-55882200D01*
X174807693Y-55882200D02*
X174855312Y-55834580D01*
X174855312Y-55834580D02*
X174855312Y-55501247D01*
X174855312Y-55501247D02*
X174664836Y-55501247D01*
X175283884Y-55929819D02*
X175283884Y-54929819D01*
X175283884Y-54929819D02*
X175855312Y-55929819D01*
X175855312Y-55929819D02*
X175855312Y-54929819D01*
X176331503Y-55929819D02*
X176331503Y-54929819D01*
X176331503Y-54929819D02*
X176569598Y-54929819D01*
X176569598Y-54929819D02*
X176712455Y-54977438D01*
X176712455Y-54977438D02*
X176807693Y-55072676D01*
X176807693Y-55072676D02*
X176855312Y-55167914D01*
X176855312Y-55167914D02*
X176902931Y-55358390D01*
X176902931Y-55358390D02*
X176902931Y-55501247D01*
X176902931Y-55501247D02*
X176855312Y-55691723D01*
X176855312Y-55691723D02*
X176807693Y-55786961D01*
X176807693Y-55786961D02*
X176712455Y-55882200D01*
X176712455Y-55882200D02*
X176569598Y-55929819D01*
X176569598Y-55929819D02*
X176331503Y-55929819D01*
X172201084Y-55929819D02*
X172201084Y-54929819D01*
X172201084Y-54929819D02*
X172439179Y-54929819D01*
X172439179Y-54929819D02*
X172582036Y-54977438D01*
X172582036Y-54977438D02*
X172677274Y-55072676D01*
X172677274Y-55072676D02*
X172724893Y-55167914D01*
X172724893Y-55167914D02*
X172772512Y-55358390D01*
X172772512Y-55358390D02*
X172772512Y-55501247D01*
X172772512Y-55501247D02*
X172724893Y-55691723D01*
X172724893Y-55691723D02*
X172677274Y-55786961D01*
X172677274Y-55786961D02*
X172582036Y-55882200D01*
X172582036Y-55882200D02*
X172439179Y-55929819D01*
X172439179Y-55929819D02*
X172201084Y-55929819D01*
X173201084Y-55548866D02*
X173962989Y-55548866D01*
X169635684Y-55929819D02*
X169635684Y-54929819D01*
X169635684Y-54929819D02*
X169873779Y-54929819D01*
X169873779Y-54929819D02*
X170016636Y-54977438D01*
X170016636Y-54977438D02*
X170111874Y-55072676D01*
X170111874Y-55072676D02*
X170159493Y-55167914D01*
X170159493Y-55167914D02*
X170207112Y-55358390D01*
X170207112Y-55358390D02*
X170207112Y-55501247D01*
X170207112Y-55501247D02*
X170159493Y-55691723D01*
X170159493Y-55691723D02*
X170111874Y-55786961D01*
X170111874Y-55786961D02*
X170016636Y-55882200D01*
X170016636Y-55882200D02*
X169873779Y-55929819D01*
X169873779Y-55929819D02*
X169635684Y-55929819D01*
X170635684Y-55548866D02*
X171397589Y-55548866D01*
X171016636Y-55929819D02*
X171016636Y-55167914D01*
X165022427Y-54929819D02*
X165355760Y-55929819D01*
X165355760Y-55929819D02*
X165689093Y-54929819D01*
X166355760Y-55406009D02*
X166498617Y-55453628D01*
X166498617Y-55453628D02*
X166546236Y-55501247D01*
X166546236Y-55501247D02*
X166593855Y-55596485D01*
X166593855Y-55596485D02*
X166593855Y-55739342D01*
X166593855Y-55739342D02*
X166546236Y-55834580D01*
X166546236Y-55834580D02*
X166498617Y-55882200D01*
X166498617Y-55882200D02*
X166403379Y-55929819D01*
X166403379Y-55929819D02*
X166022427Y-55929819D01*
X166022427Y-55929819D02*
X166022427Y-54929819D01*
X166022427Y-54929819D02*
X166355760Y-54929819D01*
X166355760Y-54929819D02*
X166450998Y-54977438D01*
X166450998Y-54977438D02*
X166498617Y-55025057D01*
X166498617Y-55025057D02*
X166546236Y-55120295D01*
X166546236Y-55120295D02*
X166546236Y-55215533D01*
X166546236Y-55215533D02*
X166498617Y-55310771D01*
X166498617Y-55310771D02*
X166450998Y-55358390D01*
X166450998Y-55358390D02*
X166355760Y-55406009D01*
X166355760Y-55406009D02*
X166022427Y-55406009D01*
X167022427Y-54929819D02*
X167022427Y-55739342D01*
X167022427Y-55739342D02*
X167070046Y-55834580D01*
X167070046Y-55834580D02*
X167117665Y-55882200D01*
X167117665Y-55882200D02*
X167212903Y-55929819D01*
X167212903Y-55929819D02*
X167403379Y-55929819D01*
X167403379Y-55929819D02*
X167498617Y-55882200D01*
X167498617Y-55882200D02*
X167546236Y-55834580D01*
X167546236Y-55834580D02*
X167593855Y-55739342D01*
X167593855Y-55739342D02*
X167593855Y-54929819D01*
X168022427Y-55882200D02*
X168165284Y-55929819D01*
X168165284Y-55929819D02*
X168403379Y-55929819D01*
X168403379Y-55929819D02*
X168498617Y-55882200D01*
X168498617Y-55882200D02*
X168546236Y-55834580D01*
X168546236Y-55834580D02*
X168593855Y-55739342D01*
X168593855Y-55739342D02*
X168593855Y-55644104D01*
X168593855Y-55644104D02*
X168546236Y-55548866D01*
X168546236Y-55548866D02*
X168498617Y-55501247D01*
X168498617Y-55501247D02*
X168403379Y-55453628D01*
X168403379Y-55453628D02*
X168212903Y-55406009D01*
X168212903Y-55406009D02*
X168117665Y-55358390D01*
X168117665Y-55358390D02*
X168070046Y-55310771D01*
X168070046Y-55310771D02*
X168022427Y-55215533D01*
X168022427Y-55215533D02*
X168022427Y-55120295D01*
X168022427Y-55120295D02*
X168070046Y-55025057D01*
X168070046Y-55025057D02*
X168117665Y-54977438D01*
X168117665Y-54977438D02*
X168212903Y-54929819D01*
X168212903Y-54929819D02*
X168450998Y-54929819D01*
X168450998Y-54929819D02*
X168593855Y-54977438D01*
D11*
X164324819Y-53870123D02*
X165039104Y-53870123D01*
X165039104Y-53870123D02*
X165181961Y-53917742D01*
X165181961Y-53917742D02*
X165277200Y-54012980D01*
X165277200Y-54012980D02*
X165324819Y-54155837D01*
X165324819Y-54155837D02*
X165324819Y-54251075D01*
X165324819Y-52870123D02*
X165324819Y-53441551D01*
X165324819Y-53155837D02*
X164324819Y-53155837D01*
X164324819Y-53155837D02*
X164467676Y-53251075D01*
X164467676Y-53251075D02*
X164562914Y-53346313D01*
X164562914Y-53346313D02*
X164610533Y-53441551D01*
X164324819Y-52536789D02*
X164324819Y-51917742D01*
X164324819Y-51917742D02*
X164705771Y-52251075D01*
X164705771Y-52251075D02*
X164705771Y-52108218D01*
X164705771Y-52108218D02*
X164753390Y-52012980D01*
X164753390Y-52012980D02*
X164801009Y-51965361D01*
X164801009Y-51965361D02*
X164896247Y-51917742D01*
X164896247Y-51917742D02*
X165134342Y-51917742D01*
X165134342Y-51917742D02*
X165229580Y-51965361D01*
X165229580Y-51965361D02*
X165277200Y-52012980D01*
X165277200Y-52012980D02*
X165324819Y-52108218D01*
X165324819Y-52108218D02*
X165324819Y-52393932D01*
X165324819Y-52393932D02*
X165277200Y-52489170D01*
X165277200Y-52489170D02*
X165229580Y-52536789D01*
X177484819Y-54322504D02*
X178294342Y-54322504D01*
X178294342Y-54322504D02*
X178389580Y-54274885D01*
X178389580Y-54274885D02*
X178437200Y-54227266D01*
X178437200Y-54227266D02*
X178484819Y-54132028D01*
X178484819Y-54132028D02*
X178484819Y-53941552D01*
X178484819Y-53941552D02*
X178437200Y-53846314D01*
X178437200Y-53846314D02*
X178389580Y-53798695D01*
X178389580Y-53798695D02*
X178294342Y-53751076D01*
X178294342Y-53751076D02*
X177484819Y-53751076D01*
X178437200Y-53322504D02*
X178484819Y-53179647D01*
X178484819Y-53179647D02*
X178484819Y-52941552D01*
X178484819Y-52941552D02*
X178437200Y-52846314D01*
X178437200Y-52846314D02*
X178389580Y-52798695D01*
X178389580Y-52798695D02*
X178294342Y-52751076D01*
X178294342Y-52751076D02*
X178199104Y-52751076D01*
X178199104Y-52751076D02*
X178103866Y-52798695D01*
X178103866Y-52798695D02*
X178056247Y-52846314D01*
X178056247Y-52846314D02*
X178008628Y-52941552D01*
X178008628Y-52941552D02*
X177961009Y-53132028D01*
X177961009Y-53132028D02*
X177913390Y-53227266D01*
X177913390Y-53227266D02*
X177865771Y-53274885D01*
X177865771Y-53274885D02*
X177770533Y-53322504D01*
X177770533Y-53322504D02*
X177675295Y-53322504D01*
X177675295Y-53322504D02*
X177580057Y-53274885D01*
X177580057Y-53274885D02*
X177532438Y-53227266D01*
X177532438Y-53227266D02*
X177484819Y-53132028D01*
X177484819Y-53132028D02*
X177484819Y-52893933D01*
X177484819Y-52893933D02*
X177532438Y-52751076D01*
X177961009Y-51989171D02*
X178008628Y-51846314D01*
X178008628Y-51846314D02*
X178056247Y-51798695D01*
X178056247Y-51798695D02*
X178151485Y-51751076D01*
X178151485Y-51751076D02*
X178294342Y-51751076D01*
X178294342Y-51751076D02*
X178389580Y-51798695D01*
X178389580Y-51798695D02*
X178437200Y-51846314D01*
X178437200Y-51846314D02*
X178484819Y-51941552D01*
X178484819Y-51941552D02*
X178484819Y-52322504D01*
X178484819Y-52322504D02*
X177484819Y-52322504D01*
X177484819Y-52322504D02*
X177484819Y-51989171D01*
X177484819Y-51989171D02*
X177532438Y-51893933D01*
X177532438Y-51893933D02*
X177580057Y-51846314D01*
X177580057Y-51846314D02*
X177675295Y-51798695D01*
X177675295Y-51798695D02*
X177770533Y-51798695D01*
X177770533Y-51798695D02*
X177865771Y-51846314D01*
X177865771Y-51846314D02*
X177913390Y-51893933D01*
X177913390Y-51893933D02*
X177961009Y-51989171D01*
X177961009Y-51989171D02*
X177961009Y-52322504D01*
D10*
X190246095Y-65044019D02*
X190246095Y-65853542D01*
X190246095Y-65853542D02*
X190293714Y-65948780D01*
X190293714Y-65948780D02*
X190341333Y-65996400D01*
X190341333Y-65996400D02*
X190436571Y-66044019D01*
X190436571Y-66044019D02*
X190627047Y-66044019D01*
X190627047Y-66044019D02*
X190722285Y-65996400D01*
X190722285Y-65996400D02*
X190769904Y-65948780D01*
X190769904Y-65948780D02*
X190817523Y-65853542D01*
X190817523Y-65853542D02*
X190817523Y-65044019D01*
X191198476Y-65044019D02*
X191817523Y-65044019D01*
X191817523Y-65044019D02*
X191484190Y-65424971D01*
X191484190Y-65424971D02*
X191627047Y-65424971D01*
X191627047Y-65424971D02*
X191722285Y-65472590D01*
X191722285Y-65472590D02*
X191769904Y-65520209D01*
X191769904Y-65520209D02*
X191817523Y-65615447D01*
X191817523Y-65615447D02*
X191817523Y-65853542D01*
X191817523Y-65853542D02*
X191769904Y-65948780D01*
X191769904Y-65948780D02*
X191722285Y-65996400D01*
X191722285Y-65996400D02*
X191627047Y-66044019D01*
X191627047Y-66044019D02*
X191341333Y-66044019D01*
X191341333Y-66044019D02*
X191246095Y-65996400D01*
X191246095Y-65996400D02*
X191198476Y-65948780D01*
D11*
X188293713Y-69212619D02*
X187817523Y-69212619D01*
X187817523Y-69212619D02*
X187817523Y-68212619D01*
X188484190Y-68212619D02*
X188817523Y-69212619D01*
X188817523Y-69212619D02*
X189150856Y-68212619D01*
X189960380Y-69212619D02*
X189484190Y-69212619D01*
X189484190Y-69212619D02*
X189484190Y-68212619D01*
X191008000Y-69165000D02*
X191150857Y-69212619D01*
X191150857Y-69212619D02*
X191388952Y-69212619D01*
X191388952Y-69212619D02*
X191484190Y-69165000D01*
X191484190Y-69165000D02*
X191531809Y-69117380D01*
X191531809Y-69117380D02*
X191579428Y-69022142D01*
X191579428Y-69022142D02*
X191579428Y-68926904D01*
X191579428Y-68926904D02*
X191531809Y-68831666D01*
X191531809Y-68831666D02*
X191484190Y-68784047D01*
X191484190Y-68784047D02*
X191388952Y-68736428D01*
X191388952Y-68736428D02*
X191198476Y-68688809D01*
X191198476Y-68688809D02*
X191103238Y-68641190D01*
X191103238Y-68641190D02*
X191055619Y-68593571D01*
X191055619Y-68593571D02*
X191008000Y-68498333D01*
X191008000Y-68498333D02*
X191008000Y-68403095D01*
X191008000Y-68403095D02*
X191055619Y-68307857D01*
X191055619Y-68307857D02*
X191103238Y-68260238D01*
X191103238Y-68260238D02*
X191198476Y-68212619D01*
X191198476Y-68212619D02*
X191436571Y-68212619D01*
X191436571Y-68212619D02*
X191579428Y-68260238D01*
X192008000Y-69212619D02*
X192008000Y-68212619D01*
X192008000Y-68688809D02*
X192579428Y-68688809D01*
X192579428Y-69212619D02*
X192579428Y-68212619D01*
X193388952Y-68688809D02*
X193055619Y-68688809D01*
X193055619Y-69212619D02*
X193055619Y-68212619D01*
X193055619Y-68212619D02*
X193531809Y-68212619D01*
X193769905Y-68212619D02*
X194341333Y-68212619D01*
X194055619Y-69212619D02*
X194055619Y-68212619D01*
X243294819Y-68936123D02*
X244009104Y-68936123D01*
X244009104Y-68936123D02*
X244151961Y-68983742D01*
X244151961Y-68983742D02*
X244247200Y-69078980D01*
X244247200Y-69078980D02*
X244294819Y-69221837D01*
X244294819Y-69221837D02*
X244294819Y-69317075D01*
X244294819Y-67936123D02*
X244294819Y-68507551D01*
X244294819Y-68221837D02*
X243294819Y-68221837D01*
X243294819Y-68221837D02*
X243437676Y-68317075D01*
X243437676Y-68317075D02*
X243532914Y-68412313D01*
X243532914Y-68412313D02*
X243580533Y-68507551D01*
X243294819Y-67317075D02*
X243294819Y-67221837D01*
X243294819Y-67221837D02*
X243342438Y-67126599D01*
X243342438Y-67126599D02*
X243390057Y-67078980D01*
X243390057Y-67078980D02*
X243485295Y-67031361D01*
X243485295Y-67031361D02*
X243675771Y-66983742D01*
X243675771Y-66983742D02*
X243913866Y-66983742D01*
X243913866Y-66983742D02*
X244104342Y-67031361D01*
X244104342Y-67031361D02*
X244199580Y-67078980D01*
X244199580Y-67078980D02*
X244247200Y-67126599D01*
X244247200Y-67126599D02*
X244294819Y-67221837D01*
X244294819Y-67221837D02*
X244294819Y-67317075D01*
X244294819Y-67317075D02*
X244247200Y-67412313D01*
X244247200Y-67412313D02*
X244199580Y-67459932D01*
X244199580Y-67459932D02*
X244104342Y-67507551D01*
X244104342Y-67507551D02*
X243913866Y-67555170D01*
X243913866Y-67555170D02*
X243675771Y-67555170D01*
X243675771Y-67555170D02*
X243485295Y-67507551D01*
X243485295Y-67507551D02*
X243390057Y-67459932D01*
X243390057Y-67459932D02*
X243342438Y-67412313D01*
X243342438Y-67412313D02*
X243294819Y-67317075D01*
X153978076Y-72431419D02*
X153978076Y-73145704D01*
X153978076Y-73145704D02*
X153930457Y-73288561D01*
X153930457Y-73288561D02*
X153835219Y-73383800D01*
X153835219Y-73383800D02*
X153692362Y-73431419D01*
X153692362Y-73431419D02*
X153597124Y-73431419D01*
X154978076Y-73431419D02*
X154406648Y-73431419D01*
X154692362Y-73431419D02*
X154692362Y-72431419D01*
X154692362Y-72431419D02*
X154597124Y-72574276D01*
X154597124Y-72574276D02*
X154501886Y-72669514D01*
X154501886Y-72669514D02*
X154406648Y-72717133D01*
X155930457Y-73431419D02*
X155359029Y-73431419D01*
X155644743Y-73431419D02*
X155644743Y-72431419D01*
X155644743Y-72431419D02*
X155549505Y-72574276D01*
X155549505Y-72574276D02*
X155454267Y-72669514D01*
X155454267Y-72669514D02*
X155359029Y-72717133D01*
X153108305Y-84050019D02*
X153108305Y-83050019D01*
X153108305Y-83050019D02*
X153346400Y-83050019D01*
X153346400Y-83050019D02*
X153489257Y-83097638D01*
X153489257Y-83097638D02*
X153584495Y-83192876D01*
X153584495Y-83192876D02*
X153632114Y-83288114D01*
X153632114Y-83288114D02*
X153679733Y-83478590D01*
X153679733Y-83478590D02*
X153679733Y-83621447D01*
X153679733Y-83621447D02*
X153632114Y-83811923D01*
X153632114Y-83811923D02*
X153584495Y-83907161D01*
X153584495Y-83907161D02*
X153489257Y-84002400D01*
X153489257Y-84002400D02*
X153346400Y-84050019D01*
X153346400Y-84050019D02*
X153108305Y-84050019D01*
X154108305Y-83526209D02*
X154441638Y-83526209D01*
X154584495Y-84050019D02*
X154108305Y-84050019D01*
X154108305Y-84050019D02*
X154108305Y-83050019D01*
X154108305Y-83050019D02*
X154584495Y-83050019D01*
X155346400Y-83526209D02*
X155489257Y-83573828D01*
X155489257Y-83573828D02*
X155536876Y-83621447D01*
X155536876Y-83621447D02*
X155584495Y-83716685D01*
X155584495Y-83716685D02*
X155584495Y-83859542D01*
X155584495Y-83859542D02*
X155536876Y-83954780D01*
X155536876Y-83954780D02*
X155489257Y-84002400D01*
X155489257Y-84002400D02*
X155394019Y-84050019D01*
X155394019Y-84050019D02*
X155013067Y-84050019D01*
X155013067Y-84050019D02*
X155013067Y-83050019D01*
X155013067Y-83050019D02*
X155346400Y-83050019D01*
X155346400Y-83050019D02*
X155441638Y-83097638D01*
X155441638Y-83097638D02*
X155489257Y-83145257D01*
X155489257Y-83145257D02*
X155536876Y-83240495D01*
X155536876Y-83240495D02*
X155536876Y-83335733D01*
X155536876Y-83335733D02*
X155489257Y-83430971D01*
X155489257Y-83430971D02*
X155441638Y-83478590D01*
X155441638Y-83478590D02*
X155346400Y-83526209D01*
X155346400Y-83526209D02*
X155013067Y-83526209D01*
X156013067Y-83050019D02*
X156013067Y-83859542D01*
X156013067Y-83859542D02*
X156060686Y-83954780D01*
X156060686Y-83954780D02*
X156108305Y-84002400D01*
X156108305Y-84002400D02*
X156203543Y-84050019D01*
X156203543Y-84050019D02*
X156394019Y-84050019D01*
X156394019Y-84050019D02*
X156489257Y-84002400D01*
X156489257Y-84002400D02*
X156536876Y-83954780D01*
X156536876Y-83954780D02*
X156584495Y-83859542D01*
X156584495Y-83859542D02*
X156584495Y-83050019D01*
X157584495Y-83097638D02*
X157489257Y-83050019D01*
X157489257Y-83050019D02*
X157346400Y-83050019D01*
X157346400Y-83050019D02*
X157203543Y-83097638D01*
X157203543Y-83097638D02*
X157108305Y-83192876D01*
X157108305Y-83192876D02*
X157060686Y-83288114D01*
X157060686Y-83288114D02*
X157013067Y-83478590D01*
X157013067Y-83478590D02*
X157013067Y-83621447D01*
X157013067Y-83621447D02*
X157060686Y-83811923D01*
X157060686Y-83811923D02*
X157108305Y-83907161D01*
X157108305Y-83907161D02*
X157203543Y-84002400D01*
X157203543Y-84002400D02*
X157346400Y-84050019D01*
X157346400Y-84050019D02*
X157441638Y-84050019D01*
X157441638Y-84050019D02*
X157584495Y-84002400D01*
X157584495Y-84002400D02*
X157632114Y-83954780D01*
X157632114Y-83954780D02*
X157632114Y-83621447D01*
X157632114Y-83621447D02*
X157441638Y-83621447D01*
X153952276Y-59136819D02*
X153952276Y-59851104D01*
X153952276Y-59851104D02*
X153904657Y-59993961D01*
X153904657Y-59993961D02*
X153809419Y-60089200D01*
X153809419Y-60089200D02*
X153666562Y-60136819D01*
X153666562Y-60136819D02*
X153571324Y-60136819D01*
X154952276Y-60136819D02*
X154380848Y-60136819D01*
X154666562Y-60136819D02*
X154666562Y-59136819D01*
X154666562Y-59136819D02*
X154571324Y-59279676D01*
X154571324Y-59279676D02*
X154476086Y-59374914D01*
X154476086Y-59374914D02*
X154380848Y-59422533D01*
X155333229Y-59232057D02*
X155380848Y-59184438D01*
X155380848Y-59184438D02*
X155476086Y-59136819D01*
X155476086Y-59136819D02*
X155714181Y-59136819D01*
X155714181Y-59136819D02*
X155809419Y-59184438D01*
X155809419Y-59184438D02*
X155857038Y-59232057D01*
X155857038Y-59232057D02*
X155904657Y-59327295D01*
X155904657Y-59327295D02*
X155904657Y-59422533D01*
X155904657Y-59422533D02*
X155857038Y-59565390D01*
X155857038Y-59565390D02*
X155285610Y-60136819D01*
X155285610Y-60136819D02*
X155904657Y-60136819D01*
X153166562Y-69756819D02*
X153166562Y-70566342D01*
X153166562Y-70566342D02*
X153214181Y-70661580D01*
X153214181Y-70661580D02*
X153261800Y-70709200D01*
X153261800Y-70709200D02*
X153357038Y-70756819D01*
X153357038Y-70756819D02*
X153547514Y-70756819D01*
X153547514Y-70756819D02*
X153642752Y-70709200D01*
X153642752Y-70709200D02*
X153690371Y-70661580D01*
X153690371Y-70661580D02*
X153737990Y-70566342D01*
X153737990Y-70566342D02*
X153737990Y-69756819D01*
X154166562Y-70471104D02*
X154642752Y-70471104D01*
X154071324Y-70756819D02*
X154404657Y-69756819D01*
X154404657Y-69756819D02*
X154737990Y-70756819D01*
X155642752Y-70756819D02*
X155309419Y-70280628D01*
X155071324Y-70756819D02*
X155071324Y-69756819D01*
X155071324Y-69756819D02*
X155452276Y-69756819D01*
X155452276Y-69756819D02*
X155547514Y-69804438D01*
X155547514Y-69804438D02*
X155595133Y-69852057D01*
X155595133Y-69852057D02*
X155642752Y-69947295D01*
X155642752Y-69947295D02*
X155642752Y-70090152D01*
X155642752Y-70090152D02*
X155595133Y-70185390D01*
X155595133Y-70185390D02*
X155547514Y-70233009D01*
X155547514Y-70233009D02*
X155452276Y-70280628D01*
X155452276Y-70280628D02*
X155071324Y-70280628D01*
X155928467Y-69756819D02*
X156499895Y-69756819D01*
X156214181Y-70756819D02*
X156214181Y-69756819D01*
X208394467Y-52480000D02*
X208537324Y-52527619D01*
X208537324Y-52527619D02*
X208775419Y-52527619D01*
X208775419Y-52527619D02*
X208870657Y-52480000D01*
X208870657Y-52480000D02*
X208918276Y-52432380D01*
X208918276Y-52432380D02*
X208965895Y-52337142D01*
X208965895Y-52337142D02*
X208965895Y-52241904D01*
X208965895Y-52241904D02*
X208918276Y-52146666D01*
X208918276Y-52146666D02*
X208870657Y-52099047D01*
X208870657Y-52099047D02*
X208775419Y-52051428D01*
X208775419Y-52051428D02*
X208584943Y-52003809D01*
X208584943Y-52003809D02*
X208489705Y-51956190D01*
X208489705Y-51956190D02*
X208442086Y-51908571D01*
X208442086Y-51908571D02*
X208394467Y-51813333D01*
X208394467Y-51813333D02*
X208394467Y-51718095D01*
X208394467Y-51718095D02*
X208442086Y-51622857D01*
X208442086Y-51622857D02*
X208489705Y-51575238D01*
X208489705Y-51575238D02*
X208584943Y-51527619D01*
X208584943Y-51527619D02*
X208823038Y-51527619D01*
X208823038Y-51527619D02*
X208965895Y-51575238D01*
X209299229Y-51527619D02*
X209537324Y-52527619D01*
X209537324Y-52527619D02*
X209727800Y-51813333D01*
X209727800Y-51813333D02*
X209918276Y-52527619D01*
X209918276Y-52527619D02*
X210156372Y-51527619D01*
X211061133Y-52527619D02*
X210489705Y-52527619D01*
X210775419Y-52527619D02*
X210775419Y-51527619D01*
X210775419Y-51527619D02*
X210680181Y-51670476D01*
X210680181Y-51670476D02*
X210584943Y-51765714D01*
X210584943Y-51765714D02*
X210489705Y-51813333D01*
X215124819Y-54461133D02*
X215839104Y-54461133D01*
X215839104Y-54461133D02*
X215981961Y-54508752D01*
X215981961Y-54508752D02*
X216077200Y-54603990D01*
X216077200Y-54603990D02*
X216124819Y-54746847D01*
X216124819Y-54746847D02*
X216124819Y-54842085D01*
X215553390Y-53842085D02*
X215505771Y-53937323D01*
X215505771Y-53937323D02*
X215458152Y-53984942D01*
X215458152Y-53984942D02*
X215362914Y-54032561D01*
X215362914Y-54032561D02*
X215315295Y-54032561D01*
X215315295Y-54032561D02*
X215220057Y-53984942D01*
X215220057Y-53984942D02*
X215172438Y-53937323D01*
X215172438Y-53937323D02*
X215124819Y-53842085D01*
X215124819Y-53842085D02*
X215124819Y-53651609D01*
X215124819Y-53651609D02*
X215172438Y-53556371D01*
X215172438Y-53556371D02*
X215220057Y-53508752D01*
X215220057Y-53508752D02*
X215315295Y-53461133D01*
X215315295Y-53461133D02*
X215362914Y-53461133D01*
X215362914Y-53461133D02*
X215458152Y-53508752D01*
X215458152Y-53508752D02*
X215505771Y-53556371D01*
X215505771Y-53556371D02*
X215553390Y-53651609D01*
X215553390Y-53651609D02*
X215553390Y-53842085D01*
X215553390Y-53842085D02*
X215601009Y-53937323D01*
X215601009Y-53937323D02*
X215648628Y-53984942D01*
X215648628Y-53984942D02*
X215743866Y-54032561D01*
X215743866Y-54032561D02*
X215934342Y-54032561D01*
X215934342Y-54032561D02*
X216029580Y-53984942D01*
X216029580Y-53984942D02*
X216077200Y-53937323D01*
X216077200Y-53937323D02*
X216124819Y-53842085D01*
X216124819Y-53842085D02*
X216124819Y-53651609D01*
X216124819Y-53651609D02*
X216077200Y-53556371D01*
X216077200Y-53556371D02*
X216029580Y-53508752D01*
X216029580Y-53508752D02*
X215934342Y-53461133D01*
X215934342Y-53461133D02*
X215743866Y-53461133D01*
X215743866Y-53461133D02*
X215648628Y-53508752D01*
X215648628Y-53508752D02*
X215601009Y-53556371D01*
X215601009Y-53556371D02*
X215553390Y-53651609D01*
D10*
X204978095Y-64790019D02*
X204978095Y-65599542D01*
X204978095Y-65599542D02*
X205025714Y-65694780D01*
X205025714Y-65694780D02*
X205073333Y-65742400D01*
X205073333Y-65742400D02*
X205168571Y-65790019D01*
X205168571Y-65790019D02*
X205359047Y-65790019D01*
X205359047Y-65790019D02*
X205454285Y-65742400D01*
X205454285Y-65742400D02*
X205501904Y-65694780D01*
X205501904Y-65694780D02*
X205549523Y-65599542D01*
X205549523Y-65599542D02*
X205549523Y-64790019D01*
X205978095Y-64885257D02*
X206025714Y-64837638D01*
X206025714Y-64837638D02*
X206120952Y-64790019D01*
X206120952Y-64790019D02*
X206359047Y-64790019D01*
X206359047Y-64790019D02*
X206454285Y-64837638D01*
X206454285Y-64837638D02*
X206501904Y-64885257D01*
X206501904Y-64885257D02*
X206549523Y-64980495D01*
X206549523Y-64980495D02*
X206549523Y-65075733D01*
X206549523Y-65075733D02*
X206501904Y-65218590D01*
X206501904Y-65218590D02*
X205930476Y-65790019D01*
X205930476Y-65790019D02*
X206549523Y-65790019D01*
D11*
X203381313Y-71121419D02*
X202905123Y-71121419D01*
X202905123Y-71121419D02*
X202905123Y-70121419D01*
X203571790Y-70121419D02*
X203905123Y-71121419D01*
X203905123Y-71121419D02*
X204238456Y-70121419D01*
X205047980Y-71121419D02*
X204571790Y-71121419D01*
X204571790Y-71121419D02*
X204571790Y-70121419D01*
X206095600Y-71073800D02*
X206238457Y-71121419D01*
X206238457Y-71121419D02*
X206476552Y-71121419D01*
X206476552Y-71121419D02*
X206571790Y-71073800D01*
X206571790Y-71073800D02*
X206619409Y-71026180D01*
X206619409Y-71026180D02*
X206667028Y-70930942D01*
X206667028Y-70930942D02*
X206667028Y-70835704D01*
X206667028Y-70835704D02*
X206619409Y-70740466D01*
X206619409Y-70740466D02*
X206571790Y-70692847D01*
X206571790Y-70692847D02*
X206476552Y-70645228D01*
X206476552Y-70645228D02*
X206286076Y-70597609D01*
X206286076Y-70597609D02*
X206190838Y-70549990D01*
X206190838Y-70549990D02*
X206143219Y-70502371D01*
X206143219Y-70502371D02*
X206095600Y-70407133D01*
X206095600Y-70407133D02*
X206095600Y-70311895D01*
X206095600Y-70311895D02*
X206143219Y-70216657D01*
X206143219Y-70216657D02*
X206190838Y-70169038D01*
X206190838Y-70169038D02*
X206286076Y-70121419D01*
X206286076Y-70121419D02*
X206524171Y-70121419D01*
X206524171Y-70121419D02*
X206667028Y-70169038D01*
X207095600Y-71121419D02*
X207095600Y-70121419D01*
X207095600Y-70597609D02*
X207667028Y-70597609D01*
X207667028Y-71121419D02*
X207667028Y-70121419D01*
X208476552Y-70597609D02*
X208143219Y-70597609D01*
X208143219Y-71121419D02*
X208143219Y-70121419D01*
X208143219Y-70121419D02*
X208619409Y-70121419D01*
X208857505Y-70121419D02*
X209428933Y-70121419D01*
X209143219Y-71121419D02*
X209143219Y-70121419D01*
X182800619Y-83620333D02*
X183514904Y-83620333D01*
X183514904Y-83620333D02*
X183657761Y-83667952D01*
X183657761Y-83667952D02*
X183753000Y-83763190D01*
X183753000Y-83763190D02*
X183800619Y-83906047D01*
X183800619Y-83906047D02*
X183800619Y-84001285D01*
X183800619Y-83096523D02*
X183800619Y-82906047D01*
X183800619Y-82906047D02*
X183753000Y-82810809D01*
X183753000Y-82810809D02*
X183705380Y-82763190D01*
X183705380Y-82763190D02*
X183562523Y-82667952D01*
X183562523Y-82667952D02*
X183372047Y-82620333D01*
X183372047Y-82620333D02*
X182991095Y-82620333D01*
X182991095Y-82620333D02*
X182895857Y-82667952D01*
X182895857Y-82667952D02*
X182848238Y-82715571D01*
X182848238Y-82715571D02*
X182800619Y-82810809D01*
X182800619Y-82810809D02*
X182800619Y-83001285D01*
X182800619Y-83001285D02*
X182848238Y-83096523D01*
X182848238Y-83096523D02*
X182895857Y-83144142D01*
X182895857Y-83144142D02*
X182991095Y-83191761D01*
X182991095Y-83191761D02*
X183229190Y-83191761D01*
X183229190Y-83191761D02*
X183324428Y-83144142D01*
X183324428Y-83144142D02*
X183372047Y-83096523D01*
X183372047Y-83096523D02*
X183419666Y-83001285D01*
X183419666Y-83001285D02*
X183419666Y-82810809D01*
X183419666Y-82810809D02*
X183372047Y-82715571D01*
X183372047Y-82715571D02*
X183324428Y-82667952D01*
X183324428Y-82667952D02*
X183229190Y-82620333D01*
D10*
X158772219Y-88544304D02*
X159581742Y-88544304D01*
X159581742Y-88544304D02*
X159676980Y-88496685D01*
X159676980Y-88496685D02*
X159724600Y-88449066D01*
X159724600Y-88449066D02*
X159772219Y-88353828D01*
X159772219Y-88353828D02*
X159772219Y-88163352D01*
X159772219Y-88163352D02*
X159724600Y-88068114D01*
X159724600Y-88068114D02*
X159676980Y-88020495D01*
X159676980Y-88020495D02*
X159581742Y-87972876D01*
X159581742Y-87972876D02*
X158772219Y-87972876D01*
X159105552Y-87068114D02*
X159772219Y-87068114D01*
X158724600Y-87306209D02*
X159438885Y-87544304D01*
X159438885Y-87544304D02*
X159438885Y-86925257D01*
D11*
X161269619Y-90139542D02*
X160269619Y-90139542D01*
X160364857Y-89710971D02*
X160317238Y-89663352D01*
X160317238Y-89663352D02*
X160269619Y-89568114D01*
X160269619Y-89568114D02*
X160269619Y-89330019D01*
X160269619Y-89330019D02*
X160317238Y-89234781D01*
X160317238Y-89234781D02*
X160364857Y-89187162D01*
X160364857Y-89187162D02*
X160460095Y-89139543D01*
X160460095Y-89139543D02*
X160555333Y-89139543D01*
X160555333Y-89139543D02*
X160698190Y-89187162D01*
X160698190Y-89187162D02*
X161269619Y-89758590D01*
X161269619Y-89758590D02*
X161269619Y-89139543D01*
X161174380Y-88139543D02*
X161222000Y-88187162D01*
X161222000Y-88187162D02*
X161269619Y-88330019D01*
X161269619Y-88330019D02*
X161269619Y-88425257D01*
X161269619Y-88425257D02*
X161222000Y-88568114D01*
X161222000Y-88568114D02*
X161126761Y-88663352D01*
X161126761Y-88663352D02*
X161031523Y-88710971D01*
X161031523Y-88710971D02*
X160841047Y-88758590D01*
X160841047Y-88758590D02*
X160698190Y-88758590D01*
X160698190Y-88758590D02*
X160507714Y-88710971D01*
X160507714Y-88710971D02*
X160412476Y-88663352D01*
X160412476Y-88663352D02*
X160317238Y-88568114D01*
X160317238Y-88568114D02*
X160269619Y-88425257D01*
X160269619Y-88425257D02*
X160269619Y-88330019D01*
X160269619Y-88330019D02*
X160317238Y-88187162D01*
X160317238Y-88187162D02*
X160364857Y-88139543D01*
X161269619Y-86949066D02*
X160269619Y-86949066D01*
X160745809Y-86949066D02*
X160745809Y-86377638D01*
X161269619Y-86377638D02*
X160269619Y-86377638D01*
X161222000Y-85949066D02*
X161269619Y-85806209D01*
X161269619Y-85806209D02*
X161269619Y-85568114D01*
X161269619Y-85568114D02*
X161222000Y-85472876D01*
X161222000Y-85472876D02*
X161174380Y-85425257D01*
X161174380Y-85425257D02*
X161079142Y-85377638D01*
X161079142Y-85377638D02*
X160983904Y-85377638D01*
X160983904Y-85377638D02*
X160888666Y-85425257D01*
X160888666Y-85425257D02*
X160841047Y-85472876D01*
X160841047Y-85472876D02*
X160793428Y-85568114D01*
X160793428Y-85568114D02*
X160745809Y-85758590D01*
X160745809Y-85758590D02*
X160698190Y-85853828D01*
X160698190Y-85853828D02*
X160650571Y-85901447D01*
X160650571Y-85901447D02*
X160555333Y-85949066D01*
X160555333Y-85949066D02*
X160460095Y-85949066D01*
X160460095Y-85949066D02*
X160364857Y-85901447D01*
X160364857Y-85901447D02*
X160317238Y-85853828D01*
X160317238Y-85853828D02*
X160269619Y-85758590D01*
X160269619Y-85758590D02*
X160269619Y-85520495D01*
X160269619Y-85520495D02*
X160317238Y-85377638D01*
X179564819Y-53393933D02*
X180279104Y-53393933D01*
X180279104Y-53393933D02*
X180421961Y-53441552D01*
X180421961Y-53441552D02*
X180517200Y-53536790D01*
X180517200Y-53536790D02*
X180564819Y-53679647D01*
X180564819Y-53679647D02*
X180564819Y-53774885D01*
X180564819Y-52393933D02*
X180564819Y-52965361D01*
X180564819Y-52679647D02*
X179564819Y-52679647D01*
X179564819Y-52679647D02*
X179707676Y-52774885D01*
X179707676Y-52774885D02*
X179802914Y-52870123D01*
X179802914Y-52870123D02*
X179850533Y-52965361D01*
X193724819Y-54036789D02*
X192724819Y-54036789D01*
X192820057Y-53608218D02*
X192772438Y-53560599D01*
X192772438Y-53560599D02*
X192724819Y-53465361D01*
X192724819Y-53465361D02*
X192724819Y-53227266D01*
X192724819Y-53227266D02*
X192772438Y-53132028D01*
X192772438Y-53132028D02*
X192820057Y-53084409D01*
X192820057Y-53084409D02*
X192915295Y-53036790D01*
X192915295Y-53036790D02*
X193010533Y-53036790D01*
X193010533Y-53036790D02*
X193153390Y-53084409D01*
X193153390Y-53084409D02*
X193724819Y-53655837D01*
X193724819Y-53655837D02*
X193724819Y-53036790D01*
X193629580Y-52036790D02*
X193677200Y-52084409D01*
X193677200Y-52084409D02*
X193724819Y-52227266D01*
X193724819Y-52227266D02*
X193724819Y-52322504D01*
X193724819Y-52322504D02*
X193677200Y-52465361D01*
X193677200Y-52465361D02*
X193581961Y-52560599D01*
X193581961Y-52560599D02*
X193486723Y-52608218D01*
X193486723Y-52608218D02*
X193296247Y-52655837D01*
X193296247Y-52655837D02*
X193153390Y-52655837D01*
X193153390Y-52655837D02*
X192962914Y-52608218D01*
X192962914Y-52608218D02*
X192867676Y-52560599D01*
X192867676Y-52560599D02*
X192772438Y-52465361D01*
X192772438Y-52465361D02*
X192724819Y-52322504D01*
X192724819Y-52322504D02*
X192724819Y-52227266D01*
X192724819Y-52227266D02*
X192772438Y-52084409D01*
X192772438Y-52084409D02*
X192820057Y-52036790D01*
X170863380Y-66848326D02*
X170863380Y-67876421D01*
X170863380Y-67876421D02*
X170923857Y-67997373D01*
X170923857Y-67997373D02*
X170984333Y-68057850D01*
X170984333Y-68057850D02*
X171105285Y-68118326D01*
X171105285Y-68118326D02*
X171347190Y-68118326D01*
X171347190Y-68118326D02*
X171468142Y-68057850D01*
X171468142Y-68057850D02*
X171528619Y-67997373D01*
X171528619Y-67997373D02*
X171589095Y-67876421D01*
X171589095Y-67876421D02*
X171589095Y-66848326D01*
X172859095Y-68118326D02*
X172133380Y-68118326D01*
X172496237Y-68118326D02*
X172496237Y-66848326D01*
X172496237Y-66848326D02*
X172375285Y-67029754D01*
X172375285Y-67029754D02*
X172254333Y-67150707D01*
X172254333Y-67150707D02*
X172133380Y-67211183D01*
X198056667Y-52505400D02*
X198199524Y-52553019D01*
X198199524Y-52553019D02*
X198437619Y-52553019D01*
X198437619Y-52553019D02*
X198532857Y-52505400D01*
X198532857Y-52505400D02*
X198580476Y-52457780D01*
X198580476Y-52457780D02*
X198628095Y-52362542D01*
X198628095Y-52362542D02*
X198628095Y-52267304D01*
X198628095Y-52267304D02*
X198580476Y-52172066D01*
X198580476Y-52172066D02*
X198532857Y-52124447D01*
X198532857Y-52124447D02*
X198437619Y-52076828D01*
X198437619Y-52076828D02*
X198247143Y-52029209D01*
X198247143Y-52029209D02*
X198151905Y-51981590D01*
X198151905Y-51981590D02*
X198104286Y-51933971D01*
X198104286Y-51933971D02*
X198056667Y-51838733D01*
X198056667Y-51838733D02*
X198056667Y-51743495D01*
X198056667Y-51743495D02*
X198104286Y-51648257D01*
X198104286Y-51648257D02*
X198151905Y-51600638D01*
X198151905Y-51600638D02*
X198247143Y-51553019D01*
X198247143Y-51553019D02*
X198485238Y-51553019D01*
X198485238Y-51553019D02*
X198628095Y-51600638D01*
X198961429Y-51553019D02*
X199199524Y-52553019D01*
X199199524Y-52553019D02*
X199390000Y-51838733D01*
X199390000Y-51838733D02*
X199580476Y-52553019D01*
X199580476Y-52553019D02*
X199818572Y-51553019D01*
X200151905Y-51648257D02*
X200199524Y-51600638D01*
X200199524Y-51600638D02*
X200294762Y-51553019D01*
X200294762Y-51553019D02*
X200532857Y-51553019D01*
X200532857Y-51553019D02*
X200628095Y-51600638D01*
X200628095Y-51600638D02*
X200675714Y-51648257D01*
X200675714Y-51648257D02*
X200723333Y-51743495D01*
X200723333Y-51743495D02*
X200723333Y-51838733D01*
X200723333Y-51838733D02*
X200675714Y-51981590D01*
X200675714Y-51981590D02*
X200104286Y-52553019D01*
X200104286Y-52553019D02*
X200723333Y-52553019D01*
D12*
%TO.C,J13*%
X168910000Y-54390600D02*
X176590000Y-54390600D01*
X168910000Y-54390600D02*
X168910000Y-51730600D01*
X176590000Y-54390600D02*
X176590000Y-51730600D01*
X166310000Y-53060600D02*
X166310000Y-51730600D01*
X166310000Y-51730600D02*
X167640000Y-51730600D01*
X168910000Y-51730600D02*
X176590000Y-51730600D01*
%TO.C,J10*%
X247685000Y-84636600D02*
X247685000Y-61716600D01*
X247685000Y-84636600D02*
X245025000Y-84636600D01*
X247685000Y-61716600D02*
X245025000Y-61716600D01*
X246355000Y-87236600D02*
X245025000Y-87236600D01*
X245025000Y-87236600D02*
X245025000Y-85906600D01*
X245025000Y-84636600D02*
X245025000Y-61716600D01*
%TO.C,J11*%
X153457600Y-77016600D02*
X153457600Y-82156600D01*
X153457600Y-77016600D02*
X156117600Y-77016600D01*
X153457600Y-82156600D02*
X156117600Y-82156600D01*
X154787600Y-74416600D02*
X156117600Y-74416600D01*
X156117600Y-74416600D02*
X156117600Y-75746600D01*
X156117600Y-77016600D02*
X156117600Y-82156600D01*
%TO.C,J12*%
X153431800Y-63722000D02*
X153431800Y-68862000D01*
X153431800Y-63722000D02*
X156091800Y-63722000D01*
X153431800Y-68862000D02*
X156091800Y-68862000D01*
X154761800Y-61122000D02*
X156091800Y-61122000D01*
X156091800Y-61122000D02*
X156091800Y-62452000D01*
X156091800Y-63722000D02*
X156091800Y-68862000D01*
%TO.C,SW1*%
X205917800Y-52882800D02*
X205917800Y-53182800D01*
X205917800Y-52882800D02*
X213537800Y-52882800D01*
X205917800Y-55122800D02*
X205917800Y-58262800D01*
X205917800Y-60202800D02*
X205917800Y-60502800D01*
X213537800Y-52882800D02*
X213537800Y-53182800D01*
X213537800Y-55122800D02*
X213537800Y-58262800D01*
X213537800Y-60202800D02*
X213537800Y-60502800D01*
X213537800Y-60502800D02*
X205917800Y-60502800D01*
X212267800Y-56692800D02*
G75*
G02*
X207187800Y-56692800I-2540000J0D01*
G01*
X207187800Y-56692800D02*
G75*
G02*
X212267800Y-56692800I2540000J0D01*
G01*
%TO.C,J8*%
X219710000Y-52797800D02*
X237550000Y-52797800D01*
X217110000Y-52797800D02*
X218440000Y-52797800D01*
X217110000Y-54127800D02*
X217110000Y-52797800D01*
X237550000Y-55457800D02*
X237550000Y-52797800D01*
X219710000Y-55457800D02*
X219710000Y-52797800D01*
X219710000Y-55457800D02*
X237550000Y-55457800D01*
%TO.C,J9*%
X187385800Y-84617000D02*
X207765800Y-84617000D01*
X187385800Y-84617000D02*
X187385800Y-81957000D01*
X207765800Y-84617000D02*
X207765800Y-81957000D01*
X184785800Y-83287000D02*
X184785800Y-81957000D01*
X184785800Y-81957000D02*
X186115800Y-81957000D01*
X187385800Y-81957000D02*
X207765800Y-81957000D01*
%TO.C,J1*%
X184150000Y-51730600D02*
X191830000Y-51730600D01*
X181550000Y-51730600D02*
X182880000Y-51730600D01*
X181550000Y-53060600D02*
X181550000Y-51730600D01*
X191830000Y-54390600D02*
X191830000Y-51730600D01*
X184150000Y-54390600D02*
X184150000Y-51730600D01*
X184150000Y-54390600D02*
X191830000Y-54390600D01*
D13*
%TO.C,U1*%
X181991000Y-76428600D02*
G75*
G02*
X180721000Y-77698600I-1270000J0D01*
G01*
X180721000Y-57378600D02*
G75*
G02*
X181991000Y-58648600I0J-1270000D01*
G01*
X162941000Y-77698600D02*
G75*
G02*
X161671000Y-76428600I-1J1269999D01*
G01*
X161671000Y-57878600D02*
G75*
G02*
X162171000Y-57378600I500001J-1D01*
G01*
X181991000Y-58648600D02*
X181991000Y-76428600D01*
X180721000Y-77698600D02*
X162941000Y-77698600D01*
D14*
X162306000Y-57713600D02*
X162006000Y-58013600D01*
D13*
X162171000Y-57378600D02*
X180721000Y-57378600D01*
D14*
X162006000Y-57713600D02*
X162306000Y-57713600D01*
X162006000Y-57713600D02*
X162006000Y-58013600D01*
D13*
X161671000Y-76428600D02*
X161671000Y-57878600D01*
D12*
%TO.C,SW2*%
X195580000Y-52908200D02*
X195580000Y-53208200D01*
X195580000Y-52908200D02*
X203200000Y-52908200D01*
X195580000Y-55148200D02*
X195580000Y-58288200D01*
X195580000Y-60228200D02*
X195580000Y-60528200D01*
X203200000Y-52908200D02*
X203200000Y-53208200D01*
X203200000Y-55148200D02*
X203200000Y-58288200D01*
X203200000Y-60228200D02*
X203200000Y-60528200D01*
X203200000Y-60528200D02*
X195580000Y-60528200D01*
X201930000Y-56718200D02*
G75*
G02*
X196850000Y-56718200I-2540000J0D01*
G01*
X196850000Y-56718200D02*
G75*
G02*
X201930000Y-56718200I2540000J0D01*
G01*
%TD*%
M02*
