M48
; DRILL file {KiCad 8.0.4} date 2024-08-08T16:53:40-0500
; FORMAT={-:-/ absolute / inch / decimal}
; #@! TF.CreationDate,2024-08-08T16:53:40-05:00
; #@! TF.GenerationSoftware,Kicad,Pcbnew,8.0.4
; #@! TF.FileFunction,Plated,1,2,PTH
FMAT,2
INCH
; #@! TA.AperFunction,Plated,PTH,ViaDrill
T1C0.0118
; #@! TA.AperFunction,Plated,PTH,ComponentDrill
T2C0.0300
; #@! TA.AperFunction,Plated,PTH,ComponentDrill
T3C0.0320
; #@! TA.AperFunction,Plated,PTH,ComponentDrill
T4C0.0394
; #@! TA.AperFunction,Plated,PTH,ComponentDrill
T5C0.0400
%
G90
G05
T1
X6.25Y-2.9121
X6.323Y-2.75
X6.378Y-3.149
X6.443Y-3.252
X6.45Y-3.1621
X6.465Y-2.858
X6.588Y-2.7794
X6.598Y-2.511
X6.602Y-2.844
X6.618Y-2.604
X6.62Y-3.2321
X6.644Y-2.715
X6.67Y-3.3221
X6.71Y-3.2985
X6.731Y-2.629
X6.7778Y-3.2844
X6.78Y-3.0921
X6.918Y-2.7966
X6.922Y-2.723
X6.963Y-2.88
X6.97Y-3.2121
X7.05Y-3.0821
X7.21Y-2.9321
X7.26Y-3.1421
X7.2807Y-2.7794
X7.39Y-2.9321
X7.4Y-3.1221
X7.453Y-3.166
X7.467Y-2.8124
X7.5Y-3.0463
X7.525Y-3.124
X7.54Y-2.8421
X7.584Y-2.462
X7.624Y-2.462
X7.631Y-3.142
X7.661Y-2.465
X7.8Y-3.6021
X7.81Y-3.4121
X8.15Y-3.4121
X8.33Y-3.4121
X8.33Y-3.5921
T2
X6.4919Y-3.656
X6.5919Y-3.156
X6.5919Y-3.656
X6.6919Y-3.156
X6.6919Y-3.656
X6.7919Y-3.156
X6.7919Y-3.656
X6.8919Y-3.156
X6.8919Y-3.656
X6.9919Y-3.656
X7.32Y-2.5469
X7.32Y-2.6469
X7.32Y-2.7469
X7.32Y-2.8469
X7.32Y-2.9469
X7.32Y-3.0469
X7.72Y-2.5469
X7.72Y-2.6469
X7.72Y-2.7469
X7.72Y-2.8469
X7.72Y-2.9469
X7.72Y-3.0469
X7.914Y-2.5469
X7.914Y-2.6469
X7.914Y-2.7469
X7.914Y-2.8469
X7.914Y-2.9469
X7.914Y-3.0469
X8.314Y-2.5469
X8.314Y-2.6469
X8.314Y-2.7469
X8.314Y-2.8469
X8.314Y-2.9469
X8.314Y-3.0469
T3
X7.7Y-2.133
X7.7Y-2.333
X8.0Y-2.133
X8.0Y-2.333
X8.107Y-2.132
X8.107Y-2.332
X8.407Y-2.132
X8.407Y-2.332
T4
X6.093Y-2.4587
X6.093Y-2.5587
X6.093Y-2.6587
X6.094Y-2.9821
X6.094Y-3.0821
X6.094Y-3.1821
X6.6Y-2.089
X6.7Y-2.089
X6.8Y-2.089
X6.9Y-2.089
X7.2Y-2.089
X7.3Y-2.089
X7.3274Y-3.279
X7.4Y-2.089
X7.4274Y-3.279
X7.5Y-2.089
X7.5274Y-3.279
X7.6274Y-3.279
X7.7274Y-3.279
X7.8274Y-3.279
X7.9274Y-3.279
X8.0274Y-3.279
X8.1274Y-3.279
X8.6Y-2.131
X8.7Y-2.131
X8.8Y-2.131
X8.9Y-2.131
X9.0Y-2.131
X9.1Y-2.131
X9.2Y-2.131
X9.3Y-2.131
X9.699Y-2.4821
X9.699Y-2.5821
X9.699Y-2.6821
X9.699Y-2.7821
X9.699Y-2.8821
X9.699Y-2.9821
X9.699Y-3.0821
X9.699Y-3.1821
X9.699Y-3.2821
X9.699Y-3.3821
T5
X6.415Y-2.309
X6.415Y-2.409
X6.415Y-2.509
X6.415Y-2.609
X6.415Y-2.709
X6.415Y-2.809
X6.415Y-2.909
X6.415Y-3.009
X6.515Y-2.309
X6.515Y-2.409
X6.515Y-2.509
X6.515Y-2.609
X6.515Y-2.709
X6.515Y-2.809
X6.515Y-2.909
X6.515Y-3.009
X6.615Y-2.309
X6.615Y-2.409
X6.615Y-2.909
X6.615Y-3.009
X6.715Y-2.309
X6.715Y-2.409
X6.715Y-2.909
X6.715Y-3.009
X6.815Y-2.309
X6.815Y-2.409
X6.815Y-2.909
X6.815Y-3.009
X6.915Y-2.309
X6.915Y-2.409
X6.915Y-2.909
X6.915Y-3.009
X7.015Y-2.309
X7.015Y-2.409
X7.015Y-2.509
X7.015Y-2.609
X7.015Y-2.709
X7.015Y-2.809
X7.015Y-2.909
X7.015Y-3.009
X7.115Y-2.309
X7.115Y-2.409
X7.115Y-2.509
X7.115Y-2.609
X7.115Y-2.709
X7.115Y-2.809
X7.115Y-2.909
X7.115Y-3.009
M30
