%TF.GenerationSoftware,KiCad,Pcbnew,8.0.4*%
%TF.CreationDate,2024-08-08T16:53:51-05:00*%
%TF.ProjectId,GP2040-RE,47503230-3430-42d5-9245-2e6b69636164,rev?*%
%TF.SameCoordinates,Original*%
%TF.FileFunction,Copper,L2,Bot*%
%TF.FilePolarity,Positive*%
%FSLAX46Y46*%
G04 Gerber Fmt 4.6, Leading zero omitted, Abs format (unit mm)*
G04 Created by KiCad (PCBNEW 8.0.4) date 2024-08-08 16:53:51*
%MOMM*%
%LPD*%
G01*
G04 APERTURE LIST*
%TA.AperFunction,ComponentPad*%
%ADD10R,1.700000X1.700000*%
%TD*%
%TA.AperFunction,ComponentPad*%
%ADD11O,1.700000X1.700000*%
%TD*%
%TA.AperFunction,ComponentPad*%
%ADD12C,1.524000*%
%TD*%
%TA.AperFunction,ComponentPad*%
%ADD13C,1.397000*%
%TD*%
%TA.AperFunction,ComponentPad*%
%ADD14C,1.778000*%
%TD*%
%TA.AperFunction,ViaPad*%
%ADD15C,0.600000*%
%TD*%
%TA.AperFunction,Conductor*%
%ADD16C,0.200000*%
%TD*%
G04 APERTURE END LIST*
D10*
%TO.P,J13,1,Pin_1*%
%TO.N,VBUS*%
X167640000Y-53060600D03*
D11*
%TO.P,J13,2,Pin_2*%
%TO.N,/D+*%
X170180000Y-53060600D03*
%TO.P,J13,3,Pin_3*%
%TO.N,/D-*%
X172720000Y-53060600D03*
%TO.P,J13,4,Pin_4*%
%TO.N,GND*%
X175260000Y-53060600D03*
%TD*%
D12*
%TO.P,U3,1,LV*%
%TO.N,VCC*%
X185928000Y-64691800D03*
%TO.P,U3,2,A1*%
%TO.N,/3v3_BlueSolid*%
X185928000Y-67231800D03*
%TO.P,U3,3,A2*%
%TO.N,/3v3_GreenStripe*%
X185928000Y-69771800D03*
%TO.P,U3,4,A3*%
%TO.N,/3v3_OrangeSolid*%
X185928000Y-72311800D03*
%TO.P,U3,5,A4*%
%TO.N,unconnected-(U3-A4-Pad5)*%
X185928000Y-74851800D03*
%TO.P,U3,6,GND*%
%TO.N,GND*%
X185928000Y-77391800D03*
%TO.P,U3,7,HV*%
%TO.N,/ConsoleVoltage*%
X196088000Y-64691800D03*
%TO.P,U3,8,B1*%
%TO.N,/BlueSolid*%
X196088000Y-67231800D03*
%TO.P,U3,9,B2*%
%TO.N,/GreenStripe*%
X196088000Y-69771800D03*
%TO.P,U3,10,B3*%
%TO.N,/OrangeSolid*%
X196088000Y-72311800D03*
%TO.P,U3,11,B4*%
%TO.N,unconnected-(U3-B4-Pad11)*%
X196088000Y-74851800D03*
%TO.P,U3,12,GND*%
%TO.N,GND*%
X196088000Y-77391800D03*
%TD*%
D10*
%TO.P,J10,1,Pin_1*%
%TO.N,unconnected-(J10-Pin_1-Pad1)*%
X246355000Y-85906600D03*
D11*
%TO.P,J10,2,Pin_2*%
%TO.N,unconnected-(J10-Pin_2-Pad2)*%
X246355000Y-83366600D03*
%TO.P,J10,3,Pin_3*%
%TO.N,/LCD_MOSI*%
X246355000Y-80826600D03*
%TO.P,J10,4,Pin_4*%
%TO.N,/LCD_CLOCK*%
X246355000Y-78286600D03*
%TO.P,J10,5,Pin_5*%
%TO.N,/LCD_COMMAND*%
X246355000Y-75746600D03*
%TO.P,J10,6,Pin_6*%
%TO.N,/LCD_RESET*%
X246355000Y-73206600D03*
%TO.P,J10,7,Pin_7*%
%TO.N,/LCD_CS*%
X246355000Y-70666600D03*
%TO.P,J10,8,Pin_8*%
%TO.N,unconnected-(J10-Pin_8-Pad8)*%
X246355000Y-68126600D03*
%TO.P,J10,9,Pin_9*%
%TO.N,VCC*%
X246355000Y-65586600D03*
%TO.P,J10,10,Pin_10*%
%TO.N,GND*%
X246355000Y-63046600D03*
%TD*%
D10*
%TO.P,J11,1,Pin_1*%
%TO.N,/SWCLK*%
X154787600Y-75746600D03*
D11*
%TO.P,J11,2,Pin_2*%
%TO.N,GND*%
X154787600Y-78286600D03*
%TO.P,J11,3,Pin_3*%
%TO.N,/SWDIO*%
X154787600Y-80826600D03*
%TD*%
D10*
%TO.P,J12,1,Pin_1*%
%TO.N,/UART0_TX*%
X154761800Y-62452000D03*
D11*
%TO.P,J12,2,Pin_2*%
%TO.N,/UART0_RX*%
X154761800Y-64992000D03*
%TO.P,J12,3,Pin_3*%
%TO.N,GND*%
X154761800Y-67532000D03*
%TD*%
D13*
%TO.P,SW1,1,A*%
%TO.N,GND*%
X205917800Y-54152800D03*
X213537800Y-54152800D03*
%TO.P,SW1,2,B*%
%TO.N,Net-(SW1-B)*%
X205917800Y-59232800D03*
X213537800Y-59232800D03*
%TD*%
D11*
%TO.P,J8,8,Pin_8*%
%TO.N,/ConsoleVoltage*%
X236220000Y-54127800D03*
%TO.P,J8,7,Pin_7*%
%TO.N,/BrownStripe*%
X233680000Y-54127800D03*
%TO.P,J8,6,Pin_6*%
%TO.N,/GreenSolid*%
X231140000Y-54127800D03*
%TO.P,J8,5,Pin_5*%
%TO.N,/BlueStripe*%
X228600000Y-54127800D03*
%TO.P,J8,4,Pin_4*%
%TO.N,/BlueSolid*%
X226060000Y-54127800D03*
%TO.P,J8,3,Pin_3*%
%TO.N,/GreenStripe*%
X223520000Y-54127800D03*
%TO.P,J8,2,Pin_2*%
%TO.N,/OrangeSolid*%
X220980000Y-54127800D03*
D10*
%TO.P,J8,1,Pin_1*%
%TO.N,GND*%
X218440000Y-54127800D03*
%TD*%
D12*
%TO.P,U2,1,LV*%
%TO.N,VCC*%
X201015600Y-64691800D03*
%TO.P,U2,2,A1*%
%TO.N,/3v3_BrownStripe*%
X201015600Y-67231800D03*
%TO.P,U2,3,A2*%
%TO.N,/3v3_GreenSolid*%
X201015600Y-69771800D03*
%TO.P,U2,4,A3*%
%TO.N,/3v3_BlueStripe*%
X201015600Y-72311800D03*
%TO.P,U2,5,A4*%
%TO.N,unconnected-(U2-A4-Pad5)*%
X201015600Y-74851800D03*
%TO.P,U2,6,GND*%
%TO.N,GND*%
X201015600Y-77391800D03*
%TO.P,U2,7,HV*%
%TO.N,/ConsoleVoltage*%
X211175600Y-64691800D03*
%TO.P,U2,8,B1*%
%TO.N,/BrownStripe*%
X211175600Y-67231800D03*
%TO.P,U2,9,B2*%
%TO.N,/GreenSolid*%
X211175600Y-69771800D03*
%TO.P,U2,10,B3*%
%TO.N,/BlueStripe*%
X211175600Y-72311800D03*
%TO.P,U2,11,B4*%
%TO.N,unconnected-(U2-B4-Pad11)*%
X211175600Y-74851800D03*
%TO.P,U2,12,GND*%
%TO.N,GND*%
X211175600Y-77391800D03*
%TD*%
D10*
%TO.P,J9,1,Pin_1*%
%TO.N,/SD_DETECT*%
X186115800Y-83287000D03*
D11*
%TO.P,J9,2,Pin_2*%
%TO.N,/SD_DATA2*%
X188655800Y-83287000D03*
%TO.P,J9,3,Pin_3*%
%TO.N,/SD_DATA1*%
X191195800Y-83287000D03*
%TO.P,J9,4,Pin_4*%
%TO.N,/SD_DATA3*%
X193735800Y-83287000D03*
%TO.P,J9,5,Pin_5*%
%TO.N,/SD_COMMAND*%
X196275800Y-83287000D03*
%TO.P,J9,6,Pin_6*%
%TO.N,/SD_DATA0*%
X198815800Y-83287000D03*
%TO.P,J9,7,Pin_7*%
%TO.N,/SD_CLOCK*%
X201355800Y-83287000D03*
%TO.P,J9,8,Pin_8*%
%TO.N,GND*%
X203895800Y-83287000D03*
%TO.P,J9,9,Pin_9*%
%TO.N,VCC*%
X206435800Y-83287000D03*
%TD*%
D12*
%TO.P,U4,1,VCC_IN*%
%TO.N,VCC*%
X164894800Y-92862400D03*
%TO.P,U4,2,GND_IN*%
%TO.N,GND*%
X167434800Y-92862400D03*
%TO.P,U4,3,SCL_IN*%
%TO.N,unconnected-(U4-SCL_IN-Pad3)*%
X169974800Y-92862400D03*
%TO.P,U4,4,SDA_IN*%
%TO.N,unconnected-(U4-SDA_IN-Pad4)*%
X172514800Y-92862400D03*
%TO.P,U4,5,EN*%
%TO.N,unconnected-(U4-EN-Pad5)*%
X175054800Y-92862400D03*
%TO.P,U4,6,RDY*%
%TO.N,unconnected-(U4-RDY-Pad6)*%
X177594800Y-92862400D03*
%TO.P,U4,7,VCC_OUT*%
%TO.N,VCC*%
X167434800Y-80162400D03*
%TO.P,U4,8,GND_OUT*%
%TO.N,GND*%
X169974800Y-80162400D03*
%TO.P,U4,9,SCL_OUT*%
%TO.N,/SCL*%
X172514800Y-80162400D03*
%TO.P,U4,10,SDA_OUT*%
%TO.N,/SDA*%
X175054800Y-80162400D03*
%TD*%
D11*
%TO.P,J1,4,Pin_4*%
%TO.N,GND*%
X190500000Y-53060600D03*
%TO.P,J1,3,Pin_3*%
%TO.N,/SCL_1*%
X187960000Y-53060600D03*
%TO.P,J1,2,Pin_2*%
%TO.N,/SDA_1*%
X185420000Y-53060600D03*
D10*
%TO.P,J1,1,Pin_1*%
%TO.N,VCC*%
X182880000Y-53060600D03*
%TD*%
D14*
%TO.P,U1,H8,GND*%
%TO.N,GND*%
X180721000Y-76428600D03*
%TO.P,U1,H7,GPIO19*%
%TO.N,/SD_COMMAND*%
X178181000Y-76428600D03*
%TO.P,U1,H6,GPIO17*%
%TO.N,/SCL*%
X175641000Y-76428600D03*
%TO.P,U1,H5,GPIO15*%
%TO.N,unconnected-(U1-GPIO15-PadH5)*%
X173101000Y-76428600D03*
%TO.P,U1,H4,GPIO13*%
%TO.N,/LCD_RESET*%
X170561000Y-76428600D03*
%TO.P,U1,H3,GPIO11*%
%TO.N,/LCD_MOSI*%
X168021000Y-76428600D03*
%TO.P,U1,H2,GPIO10*%
%TO.N,/LCD_CLOCK*%
X165481000Y-76428600D03*
%TO.P,U1,H1,GND*%
%TO.N,GND*%
X162941000Y-76428600D03*
%TO.P,U1,G8,GPIO20*%
%TO.N,/SD_DATA0*%
X180721000Y-73888600D03*
%TO.P,U1,G7,GND*%
%TO.N,GND*%
X178181000Y-73888600D03*
%TO.P,U1,G6,GPIO18*%
%TO.N,/SD_CLOCK*%
X175641000Y-73888600D03*
%TO.P,U1,G5,GPIO16*%
%TO.N,/SDA*%
X173101000Y-73888600D03*
%TO.P,U1,G4,GPIO14*%
%TO.N,/LCD_CS*%
X170561000Y-73888600D03*
%TO.P,U1,G3,GPIO12*%
%TO.N,/LCD_COMMAND*%
X168021000Y-73888600D03*
%TO.P,U1,G2,GND*%
%TO.N,GND*%
X165481000Y-73888600D03*
%TO.P,U1,G1,GPIO9*%
%TO.N,unconnected-(U1-GPIO9-PadG1)*%
X162941000Y-73888600D03*
%TO.P,U1,F8,GPIO21*%
%TO.N,/SD_DATA1*%
X180721000Y-71348600D03*
%TO.P,U1,F7,GPIO22*%
%TO.N,/SD_DATA2*%
X178181000Y-71348600D03*
%TO.P,U1,F2,GPIO8*%
%TO.N,unconnected-(U1-GPIO8-PadF2)*%
X165481000Y-71348600D03*
%TO.P,U1,F1,GPIO7*%
%TO.N,/3v3_BrownStripe*%
X162941000Y-71348600D03*
%TO.P,U1,E8,GPIO23*%
%TO.N,/SD_DATA3*%
X180721000Y-68808600D03*
%TO.P,U1,E7,GPIO24*%
%TO.N,/SD_DETECT*%
X178181000Y-68808600D03*
%TO.P,U1,E2,GPIO6*%
%TO.N,/3v3_GreenSolid*%
X165481000Y-68808600D03*
%TO.P,U1,E1,GPIO5*%
%TO.N,/3v3_BlueStripe*%
X162941000Y-68808600D03*
%TO.P,U1,D8,GPIO25*%
%TO.N,unconnected-(U1-GPIO25-PadD8)*%
X180721000Y-66268600D03*
%TO.P,U1,D7,GPIO26/ADC0*%
%TO.N,/SDA_1*%
X178181000Y-66268600D03*
%TO.P,U1,D2,GPIO4*%
%TO.N,/3v3_BlueSolid*%
X165481000Y-66268600D03*
%TO.P,U1,D1,GPIO3*%
%TO.N,/3v3_GreenStripe*%
X162941000Y-66268600D03*
%TO.P,U1,C8,GPIO27/ADC1*%
%TO.N,/SCL_1*%
X180721000Y-63728600D03*
%TO.P,U1,C7,GPIO28/ADC2*%
%TO.N,unconnected-(U1-GPIO28{slash}ADC2-PadC7)*%
X178181000Y-63728600D03*
%TO.P,U1,C2,GPIO2*%
%TO.N,/3v3_OrangeSolid*%
X165481000Y-63728600D03*
%TO.P,U1,C1,GPIO1*%
%TO.N,/UART0_RX*%
X162941000Y-63728600D03*
%TO.P,U1,B8,GPIO29/ADC3*%
%TO.N,unconnected-(U1-GPIO29{slash}ADC3-PadB8)*%
X180721000Y-61188600D03*
%TO.P,U1,B7,GND*%
%TO.N,GND*%
X178181000Y-61188600D03*
%TO.P,U1,B6,SWDIO*%
%TO.N,/SWDIO*%
X175641000Y-61188600D03*
%TO.P,U1,B5,SWCLK*%
%TO.N,/SWCLK*%
X173101000Y-61188600D03*
%TO.P,U1,B4,ADC_VREF*%
%TO.N,unconnected-(U1-ADC_VREF-PadB4)*%
X170561000Y-61188600D03*
%TO.P,U1,B3,3V3*%
%TO.N,VCC*%
X168021000Y-61188600D03*
%TO.P,U1,B2,GND*%
%TO.N,GND*%
X165481000Y-61188600D03*
%TO.P,U1,B1,GPIO0*%
%TO.N,/UART0_TX*%
X162941000Y-61188600D03*
%TO.P,U1,A8,GND*%
%TO.N,GND*%
X180721000Y-58648600D03*
%TO.P,U1,A7,BOOTSEL*%
%TO.N,Net-(SW2-B)*%
X178181000Y-58648600D03*
%TO.P,U1,A6,USB_DM*%
%TO.N,/D-*%
X175641000Y-58648600D03*
%TO.P,U1,A5,USB_DP*%
%TO.N,/D+*%
X173101000Y-58648600D03*
%TO.P,U1,A4,RUN*%
%TO.N,Net-(SW1-B)*%
X170561000Y-58648600D03*
%TO.P,U1,A3,3V3_EN*%
%TO.N,unconnected-(U1-3V3_EN-PadA3)*%
X168021000Y-58648600D03*
%TO.P,U1,A2,VBUS*%
%TO.N,VBUS*%
X165481000Y-58648600D03*
%TO.P,U1,A1,GND*%
%TO.N,GND*%
X162941000Y-58648600D03*
%TD*%
D13*
%TO.P,SW2,1,A*%
%TO.N,GND*%
X195580000Y-54178200D03*
X203200000Y-54178200D03*
%TO.P,SW2,2,B*%
%TO.N,Net-(SW2-B)*%
X195580000Y-59258200D03*
X203200000Y-59258200D03*
%TD*%
D15*
%TO.N,GND*%
X168148000Y-82096600D03*
X163830000Y-80318600D03*
X172212000Y-78540600D03*
X177038000Y-81588600D03*
X179070000Y-78286600D03*
X187706000Y-74476600D03*
X187960000Y-79302600D03*
X184404000Y-79810600D03*
X198120000Y-91494600D03*
X211582000Y-91240600D03*
X211582000Y-86668600D03*
X198374000Y-86668600D03*
X207010000Y-86668600D03*
X158750000Y-73968600D03*
X191516000Y-72190600D03*
X183134000Y-74476600D03*
%TO.N,/LCD_CLOCK*%
X163652200Y-82600800D03*
%TO.N,/LCD_COMMAND*%
X169418000Y-84382600D03*
%TO.N,/LCD_RESET*%
X170434000Y-83782600D03*
%TO.N,/LCD_CS*%
X172155565Y-83423035D03*
%TO.N,/OrangeSolid*%
X192633600Y-62534800D03*
%TO.N,/GreenStripe*%
X193649600Y-62534800D03*
%TO.N,/BlueSolid*%
X194589400Y-62611000D03*
%TO.N,/SD_DATA0*%
X189306200Y-80416400D03*
X193827400Y-79806800D03*
%TO.N,/SD_COMMAND*%
X191135000Y-79349600D03*
%TO.N,/SD_DATA3*%
X190500000Y-77375935D03*
%TO.N,/SD_DETECT*%
X175818800Y-69164200D03*
X176860200Y-73152000D03*
X175717200Y-71034200D03*
%TO.N,/3v3_BlueStripe*%
X162001200Y-79984600D03*
%TO.N,/3v3_GreenSolid*%
X168757600Y-68961000D03*
X189661800Y-71433800D03*
X184929170Y-70597600D03*
%TO.N,/3v3_BrownStripe*%
X164211000Y-72593200D03*
X167690800Y-72237600D03*
%TO.N,/3v3_OrangeSolid*%
X167589200Y-63779400D03*
X167335200Y-70597600D03*
%TO.N,/3v3_GreenStripe*%
X160604200Y-69850000D03*
%TO.N,/3v3_BlueSolid*%
X168097200Y-66141600D03*
X170967400Y-66776600D03*
%TD*%
D16*
%TO.N,/LCD_CS*%
X171750000Y-75077600D02*
X170561000Y-73888600D01*
X171750000Y-76921100D02*
X171750000Y-75077600D01*
X171450000Y-77221100D02*
X171750000Y-76921100D01*
X171450000Y-82717470D02*
X171450000Y-77221100D01*
X172155565Y-83423035D02*
X171450000Y-82717470D01*
%TO.N,/LCD_RESET*%
X171050000Y-80589095D02*
X171050000Y-76917600D01*
X170434000Y-81205095D02*
X171050000Y-80589095D01*
X170434000Y-83782600D02*
X170434000Y-81205095D01*
X171050000Y-76917600D02*
X170561000Y-76428600D01*
%TO.N,/LCD_COMMAND*%
X169214800Y-75082400D02*
X168021000Y-73888600D01*
X169214800Y-76916300D02*
X169214800Y-75082400D01*
X168912800Y-77218300D02*
X169214800Y-76916300D01*
X168912800Y-83877400D02*
X168912800Y-77218300D01*
X169418000Y-84382600D02*
X168912800Y-83877400D01*
%TO.N,Net-(SW2-B)*%
X180641000Y-56188600D02*
X178181000Y-58648600D01*
X192510400Y-56188600D02*
X180641000Y-56188600D01*
X195580000Y-59258200D02*
X192510400Y-56188600D01*
%TO.N,Net-(SW1-B)*%
X173529000Y-55680600D02*
X202365600Y-55680600D01*
X202365600Y-55680600D02*
X205917800Y-59232800D01*
X170561000Y-58648600D02*
X173529000Y-55680600D01*
%TO.N,VCC*%
X169210000Y-58297800D02*
X172335200Y-55172600D01*
X169210000Y-59999600D02*
X169210000Y-58297800D01*
X180768000Y-55172600D02*
X182880000Y-53060600D01*
X168021000Y-61188600D02*
X169210000Y-59999600D01*
X172335200Y-55172600D02*
X180768000Y-55172600D01*
%TO.N,/3v3_BlueStripe*%
X160274000Y-71475600D02*
X160274000Y-78257400D01*
X160274000Y-78257400D02*
X162001200Y-79984600D01*
X162941000Y-68808600D02*
X160274000Y-71475600D01*
%TO.N,/SD_DATA2*%
X188655800Y-81268400D02*
X188655800Y-83287000D01*
X187285019Y-80816400D02*
X188203800Y-80816400D01*
X184466000Y-77997381D02*
X187285019Y-80816400D01*
X184466000Y-77390286D02*
X184466000Y-77997381D01*
X182315314Y-75239600D02*
X184466000Y-77390286D01*
X180228500Y-75239600D02*
X182315314Y-75239600D01*
X179532000Y-74543100D02*
X180228500Y-75239600D01*
X188203800Y-80816400D02*
X188655800Y-81268400D01*
X179532000Y-72699600D02*
X179532000Y-74543100D01*
X178181000Y-71348600D02*
X179532000Y-72699600D01*
%TO.N,/SD_DATA0*%
X184866000Y-77831695D02*
X187450705Y-80416400D01*
X184866000Y-77224600D02*
X184866000Y-77831695D01*
X187450705Y-80416400D02*
X189306200Y-80416400D01*
X181530000Y-73888600D02*
X184866000Y-77224600D01*
X180721000Y-73888600D02*
X181530000Y-73888600D01*
%TO.N,/SD_DATA1*%
X188735600Y-73982200D02*
X188735600Y-78394556D01*
X187960000Y-73206600D02*
X188735600Y-73982200D01*
X186535095Y-73206600D02*
X187960000Y-73206600D01*
X188735600Y-78394556D02*
X191195800Y-80854756D01*
X182746200Y-73373800D02*
X186367895Y-73373800D01*
X180721000Y-71348600D02*
X182746200Y-73373800D01*
X186367895Y-73373800D02*
X186535095Y-73206600D01*
X191195800Y-80854756D02*
X191195800Y-83287000D01*
%TO.N,/SD_DATA3*%
X193735800Y-82829070D02*
X193735800Y-83287000D01*
X190500000Y-79593270D02*
X193735800Y-82829070D01*
X190500000Y-77375935D02*
X190500000Y-79593270D01*
%TO.N,Net-(SW1-B)*%
X205917800Y-59232800D02*
X213537800Y-59232800D01*
%TO.N,Net-(SW2-B)*%
X195580000Y-59258200D02*
X203200000Y-59258200D01*
%TO.N,/OrangeSolid*%
X193567000Y-61601400D02*
X192633600Y-62534800D01*
X213506400Y-61601400D02*
X193567000Y-61601400D01*
X220980000Y-54127800D02*
X213506400Y-61601400D01*
%TO.N,/GreenStripe*%
X194183000Y-62001400D02*
X193649600Y-62534800D01*
X215646400Y-62001400D02*
X194183000Y-62001400D01*
X223520000Y-54127800D02*
X215646400Y-62001400D01*
%TO.N,/BlueSolid*%
X217576800Y-62611000D02*
X194589400Y-62611000D01*
X226060000Y-54127800D02*
X217576800Y-62611000D01*
%TO.N,/BlueStripe*%
X209448400Y-66891419D02*
X209448400Y-70584600D01*
X210570019Y-65769800D02*
X209448400Y-66891419D01*
X228600000Y-54127800D02*
X216958000Y-65769800D01*
X216958000Y-65769800D02*
X210570019Y-65769800D01*
X209448400Y-70584600D02*
X211175600Y-72311800D01*
%TO.N,/GreenSolid*%
X210735705Y-66169800D02*
X210108800Y-66796705D01*
X210108800Y-66796705D02*
X210108800Y-68705000D01*
X231140000Y-54127800D02*
X219098000Y-66169800D01*
X219098000Y-66169800D02*
X210735705Y-66169800D01*
X210108800Y-68705000D02*
X211175600Y-69771800D01*
%TO.N,/BrownStripe*%
X220576000Y-67231800D02*
X211175600Y-67231800D01*
X233680000Y-54127800D02*
X220576000Y-67231800D01*
%TO.N,/LCD_CLOCK*%
X163652200Y-82600800D02*
X165481000Y-80772000D01*
X165481000Y-80772000D02*
X165481000Y-76428600D01*
%TO.N,/SD_DATA0*%
X193827400Y-79806800D02*
X195335600Y-79806800D01*
X195335600Y-79806800D02*
X198815800Y-83287000D01*
%TO.N,/SD_COMMAND*%
X192338400Y-79349600D02*
X191135000Y-79349600D01*
X196275800Y-83287000D02*
X192338400Y-79349600D01*
%TO.N,/SD_CLOCK*%
X174452000Y-77017600D02*
X181940200Y-84505800D01*
X174452000Y-75077600D02*
X174452000Y-77017600D01*
X181940200Y-84505800D02*
X200137000Y-84505800D01*
X175641000Y-73888600D02*
X174452000Y-75077600D01*
X200137000Y-84505800D02*
X201355800Y-83287000D01*
%TO.N,/3v3_BrownStripe*%
X197413600Y-70833800D02*
X201015600Y-67231800D01*
X185177699Y-71197600D02*
X185541499Y-70833800D01*
X184680641Y-71197600D02*
X185177699Y-71197600D01*
X183637841Y-70154800D02*
X184680641Y-71197600D01*
X185541499Y-70833800D02*
X197413600Y-70833800D01*
X177445129Y-70154800D02*
X183637841Y-70154800D01*
X168097200Y-71831200D02*
X175768729Y-71831200D01*
X175768729Y-71831200D02*
X177445129Y-70154800D01*
X167690800Y-72237600D02*
X168097200Y-71831200D01*
%TO.N,/3v3_GreenSolid*%
X170099000Y-67619600D02*
X168757600Y-68961000D01*
X181951170Y-67619600D02*
X170099000Y-67619600D01*
X184929170Y-70597600D02*
X181951170Y-67619600D01*
%TO.N,/SD_DETECT*%
X175717200Y-69265800D02*
X175818800Y-69164200D01*
X175717200Y-71034200D02*
X175717200Y-69265800D01*
X176845800Y-73137600D02*
X176860200Y-73152000D01*
X176809470Y-73137600D02*
X176845800Y-73137600D01*
X176992000Y-73320130D02*
X176809470Y-73137600D01*
X176992000Y-78059000D02*
X176992000Y-73320130D01*
X177495200Y-78562200D02*
X176992000Y-78059000D01*
X182220000Y-83287000D02*
X177495200Y-78562200D01*
X186115800Y-83287000D02*
X182220000Y-83287000D01*
%TO.N,/3v3_GreenSolid*%
X189845800Y-71249800D02*
X189661800Y-71433800D01*
X199537600Y-71249800D02*
X189845800Y-71249800D01*
X201015600Y-69771800D02*
X199537600Y-71249800D01*
%TO.N,/3v3_BrownStripe*%
X162966400Y-71348600D02*
X164211000Y-72593200D01*
X162941000Y-71348600D02*
X162966400Y-71348600D01*
%TO.N,/3v3_OrangeSolid*%
X167589200Y-63804800D02*
X167589200Y-63779400D01*
X167513000Y-63881000D02*
X167589200Y-63804800D01*
X167335200Y-70597600D02*
X167335200Y-64058800D01*
X167335200Y-64058800D02*
X167513000Y-63881000D01*
%TO.N,/3v3_GreenStripe*%
X160604200Y-69850000D02*
X160604200Y-68605400D01*
X160604200Y-68605400D02*
X162941000Y-66268600D01*
%TO.N,/3v3_BlueSolid*%
X170332400Y-66141600D02*
X168097200Y-66141600D01*
X170967400Y-66776600D02*
X170332400Y-66141600D01*
%TO.N,VCC*%
X186990000Y-63629800D02*
X185928000Y-64691800D01*
X199953600Y-63629800D02*
X186990000Y-63629800D01*
X201015600Y-64691800D02*
X199953600Y-63629800D01*
X183644000Y-62407800D02*
X169240200Y-62407800D01*
X169240200Y-62407800D02*
X168021000Y-61188600D01*
X185928000Y-64691800D02*
X183644000Y-62407800D01*
X166672801Y-62536799D02*
X168021000Y-61188600D01*
X166672801Y-79400401D02*
X166672801Y-62536799D01*
X167434800Y-80162400D02*
X166672801Y-79400401D01*
X164894800Y-82702400D02*
X167434800Y-80162400D01*
X164894800Y-92862400D02*
X164894800Y-82702400D01*
%TO.N,GND*%
X178181000Y-73888600D02*
X180721000Y-76428600D01*
X165481000Y-73888600D02*
X162941000Y-76428600D01*
X165481000Y-61188600D02*
X162941000Y-58648600D01*
X178181000Y-61188600D02*
X180721000Y-58648600D01*
%TD*%
%TA.AperFunction,Conductor*%
%TO.N,GND*%
G36*
X182270340Y-76052732D02*
G01*
X182302310Y-76075831D01*
X183829181Y-77602702D01*
X183862666Y-77664025D01*
X183865500Y-77690383D01*
X183865500Y-77910711D01*
X183865499Y-77910729D01*
X183865499Y-78076435D01*
X183865498Y-78076435D01*
X183906423Y-78229166D01*
X183935358Y-78279281D01*
X183935359Y-78279285D01*
X183935360Y-78279285D01*
X183956265Y-78315495D01*
X183985479Y-78366095D01*
X183985481Y-78366098D01*
X184104349Y-78484966D01*
X184104355Y-78484971D01*
X186800158Y-81180774D01*
X186800168Y-81180785D01*
X186804498Y-81185115D01*
X186804499Y-81185116D01*
X186916303Y-81296920D01*
X186989030Y-81338908D01*
X187003114Y-81347039D01*
X187003116Y-81347041D01*
X187041170Y-81369011D01*
X187053234Y-81375977D01*
X187205962Y-81416901D01*
X187205965Y-81416901D01*
X187371672Y-81416901D01*
X187371688Y-81416900D01*
X187903703Y-81416900D01*
X187970742Y-81436585D01*
X187991384Y-81453219D01*
X188018981Y-81480816D01*
X188052466Y-81542139D01*
X188055300Y-81568497D01*
X188055300Y-81997908D01*
X188035615Y-82064947D01*
X187983714Y-82110286D01*
X187977973Y-82112963D01*
X187977969Y-82112965D01*
X187784400Y-82248503D01*
X187662473Y-82370430D01*
X187601150Y-82403914D01*
X187531458Y-82398930D01*
X187475525Y-82357058D01*
X187458610Y-82326081D01*
X187409597Y-82194671D01*
X187409593Y-82194664D01*
X187323347Y-82079455D01*
X187323344Y-82079452D01*
X187208135Y-81993206D01*
X187208128Y-81993202D01*
X187073282Y-81942908D01*
X187073283Y-81942908D01*
X187013683Y-81936501D01*
X187013681Y-81936500D01*
X187013673Y-81936500D01*
X187013664Y-81936500D01*
X185217929Y-81936500D01*
X185217923Y-81936501D01*
X185158316Y-81942908D01*
X185023471Y-81993202D01*
X185023464Y-81993206D01*
X184908255Y-82079452D01*
X184908252Y-82079455D01*
X184822006Y-82194664D01*
X184822002Y-82194671D01*
X184771708Y-82329517D01*
X184765301Y-82389116D01*
X184765300Y-82389135D01*
X184765300Y-82562500D01*
X184745615Y-82629539D01*
X184692811Y-82675294D01*
X184641300Y-82686500D01*
X182520097Y-82686500D01*
X182453058Y-82666815D01*
X182432416Y-82650181D01*
X177780792Y-77998557D01*
X177747307Y-77937234D01*
X177752291Y-77867542D01*
X177794163Y-77811609D01*
X177859627Y-77787192D01*
X177888881Y-77788566D01*
X178065863Y-77818100D01*
X178065864Y-77818100D01*
X178296136Y-77818100D01*
X178296137Y-77818100D01*
X178523271Y-77780198D01*
X178524693Y-77779710D01*
X178544821Y-77772800D01*
X178741069Y-77705428D01*
X178943589Y-77595829D01*
X179125308Y-77454392D01*
X179281269Y-77284973D01*
X179347490Y-77183613D01*
X179400636Y-77138257D01*
X179469868Y-77128833D01*
X179533203Y-77158335D01*
X179555108Y-77183614D01*
X179621126Y-77284662D01*
X179777029Y-77454019D01*
X179777039Y-77454028D01*
X179958677Y-77595403D01*
X179958683Y-77595407D01*
X180161131Y-77704967D01*
X180161140Y-77704970D01*
X180378849Y-77779710D01*
X180470999Y-77795087D01*
X180471000Y-77795087D01*
X180471000Y-76870851D01*
X180524919Y-76901981D01*
X180654120Y-76936600D01*
X180787880Y-76936600D01*
X180917081Y-76901981D01*
X180971000Y-76870851D01*
X180971000Y-77795087D01*
X181063150Y-77779710D01*
X181280859Y-77704970D01*
X181280868Y-77704967D01*
X181483316Y-77595407D01*
X181483322Y-77595403D01*
X181664960Y-77454028D01*
X181664970Y-77454019D01*
X181820873Y-77284662D01*
X181946775Y-77091955D01*
X182039242Y-76881153D01*
X182090535Y-76678600D01*
X181163251Y-76678600D01*
X181194381Y-76624681D01*
X181229000Y-76495480D01*
X181229000Y-76361720D01*
X181194381Y-76232519D01*
X181163251Y-76178600D01*
X182090536Y-76178600D01*
X182095227Y-76172571D01*
X182097048Y-76124133D01*
X182137003Y-76066815D01*
X182201604Y-76040198D01*
X182270340Y-76052732D01*
G37*
%TD.AperFunction*%
%TA.AperFunction,Conductor*%
G36*
X187726942Y-73826785D02*
G01*
X187747584Y-73843419D01*
X188098781Y-74194616D01*
X188132266Y-74255939D01*
X188135100Y-74282297D01*
X188135100Y-78307886D01*
X188135099Y-78307904D01*
X188135099Y-78473610D01*
X188135098Y-78473610D01*
X188148067Y-78522008D01*
X188176023Y-78626341D01*
X188184633Y-78641254D01*
X188184634Y-78641257D01*
X188184635Y-78641257D01*
X188255077Y-78763268D01*
X188255081Y-78763273D01*
X188373949Y-78882141D01*
X188373955Y-78882146D01*
X188985468Y-79493659D01*
X189018953Y-79554982D01*
X189013969Y-79624674D01*
X188972097Y-79680607D01*
X188962341Y-79686536D01*
X188962574Y-79686906D01*
X188803936Y-79786585D01*
X188801103Y-79788845D01*
X188798924Y-79789734D01*
X188798042Y-79790289D01*
X188797944Y-79790134D01*
X188736417Y-79815255D01*
X188723788Y-79815900D01*
X187750802Y-79815900D01*
X187683763Y-79796215D01*
X187663121Y-79779581D01*
X186554758Y-78671218D01*
X186521273Y-78609895D01*
X186526257Y-78540203D01*
X186568129Y-78484270D01*
X186571316Y-78481962D01*
X186626187Y-78443540D01*
X185955447Y-77772800D01*
X185978160Y-77772800D01*
X186075061Y-77746836D01*
X186161940Y-77696676D01*
X186232876Y-77625740D01*
X186283036Y-77538861D01*
X186309000Y-77441960D01*
X186309000Y-77419247D01*
X186979741Y-78089988D01*
X187025094Y-78025217D01*
X187025100Y-78025207D01*
X187118419Y-77825084D01*
X187118424Y-77825070D01*
X187175573Y-77611786D01*
X187175575Y-77611776D01*
X187194821Y-77391800D01*
X187194821Y-77391799D01*
X187175575Y-77171823D01*
X187175573Y-77171813D01*
X187118424Y-76958529D01*
X187118420Y-76958520D01*
X187025096Y-76758386D01*
X186979741Y-76693611D01*
X186979740Y-76693610D01*
X186309000Y-77364351D01*
X186309000Y-77341640D01*
X186283036Y-77244739D01*
X186232876Y-77157860D01*
X186161940Y-77086924D01*
X186075061Y-77036764D01*
X185978160Y-77010800D01*
X185955448Y-77010800D01*
X186626188Y-76340059D01*
X186626187Y-76340058D01*
X186561411Y-76294701D01*
X186561405Y-76294698D01*
X186432219Y-76234458D01*
X186379779Y-76188286D01*
X186360627Y-76121093D01*
X186380843Y-76054211D01*
X186432219Y-76009694D01*
X186491581Y-75982013D01*
X186561662Y-75949334D01*
X186742620Y-75822626D01*
X186898826Y-75666420D01*
X187025534Y-75485462D01*
X187118894Y-75285250D01*
X187176070Y-75071868D01*
X187195323Y-74851800D01*
X187195054Y-74848729D01*
X187182752Y-74708106D01*
X187176070Y-74631732D01*
X187118894Y-74418350D01*
X187025534Y-74218139D01*
X186898826Y-74037180D01*
X186898824Y-74037177D01*
X186880428Y-74018781D01*
X186846943Y-73957458D01*
X186851927Y-73887766D01*
X186893799Y-73831833D01*
X186959263Y-73807416D01*
X186968109Y-73807100D01*
X187659903Y-73807100D01*
X187726942Y-73826785D01*
G37*
%TD.AperFunction*%
%TA.AperFunction,Conductor*%
G36*
X174089193Y-77512089D02*
G01*
X174119503Y-77534338D01*
X175280129Y-78694964D01*
X175313614Y-78756287D01*
X175308630Y-78825979D01*
X175266758Y-78881912D01*
X175201294Y-78906329D01*
X175181642Y-78906173D01*
X175054803Y-78895077D01*
X175054798Y-78895077D01*
X174834737Y-78914329D01*
X174834729Y-78914330D01*
X174621354Y-78971504D01*
X174621348Y-78971507D01*
X174421140Y-79064865D01*
X174421138Y-79064866D01*
X174240177Y-79191575D01*
X174083975Y-79347777D01*
X173957266Y-79528738D01*
X173957265Y-79528740D01*
X173897182Y-79657589D01*
X173851009Y-79710028D01*
X173783816Y-79729180D01*
X173716935Y-79708964D01*
X173672418Y-79657589D01*
X173635818Y-79579100D01*
X173612334Y-79528739D01*
X173485626Y-79347780D01*
X173329420Y-79191574D01*
X173329416Y-79191571D01*
X173329415Y-79191570D01*
X173148466Y-79064868D01*
X173148462Y-79064866D01*
X173055317Y-79021432D01*
X172948250Y-78971506D01*
X172948247Y-78971505D01*
X172948245Y-78971504D01*
X172734870Y-78914330D01*
X172734862Y-78914329D01*
X172514802Y-78895077D01*
X172514798Y-78895077D01*
X172294737Y-78914329D01*
X172294726Y-78914331D01*
X172206593Y-78937946D01*
X172136743Y-78936283D01*
X172078880Y-78897120D01*
X172051377Y-78832891D01*
X172050500Y-78818171D01*
X172050500Y-77625385D01*
X172070185Y-77558346D01*
X172122989Y-77512591D01*
X172192147Y-77502647D01*
X172250662Y-77527531D01*
X172259407Y-77534338D01*
X172337868Y-77595407D01*
X172338411Y-77595829D01*
X172540931Y-77705428D01*
X172599274Y-77725457D01*
X172758725Y-77780197D01*
X172758727Y-77780197D01*
X172758729Y-77780198D01*
X172985863Y-77818100D01*
X172985864Y-77818100D01*
X173216136Y-77818100D01*
X173216137Y-77818100D01*
X173443271Y-77780198D01*
X173444693Y-77779710D01*
X173464821Y-77772800D01*
X173661069Y-77705428D01*
X173863589Y-77595829D01*
X173955663Y-77524164D01*
X174020653Y-77498523D01*
X174089193Y-77512089D01*
G37*
%TD.AperFunction*%
%TA.AperFunction,Conductor*%
G36*
X184830041Y-73993985D02*
G01*
X184875796Y-74046789D01*
X184885740Y-74115947D01*
X184864579Y-74169419D01*
X184830466Y-74218139D01*
X184830466Y-74218140D01*
X184830464Y-74218143D01*
X184737107Y-74418348D01*
X184737104Y-74418354D01*
X184679930Y-74631729D01*
X184679929Y-74631737D01*
X184660677Y-74851797D01*
X184660677Y-74851802D01*
X184679929Y-75071862D01*
X184679930Y-75071870D01*
X184737104Y-75285245D01*
X184737105Y-75285247D01*
X184737106Y-75285250D01*
X184812180Y-75446247D01*
X184830466Y-75485462D01*
X184830468Y-75485466D01*
X184957170Y-75666415D01*
X184957175Y-75666421D01*
X185113378Y-75822624D01*
X185113384Y-75822629D01*
X185294333Y-75949331D01*
X185294335Y-75949332D01*
X185294338Y-75949334D01*
X185364408Y-75982008D01*
X185423781Y-76009694D01*
X185476220Y-76055866D01*
X185495372Y-76123060D01*
X185475156Y-76189941D01*
X185423781Y-76234458D01*
X185294590Y-76294701D01*
X185229811Y-76340058D01*
X185900553Y-77010800D01*
X185877840Y-77010800D01*
X185780939Y-77036764D01*
X185694060Y-77086924D01*
X185623124Y-77157860D01*
X185572964Y-77244739D01*
X185547000Y-77341640D01*
X185547000Y-77364353D01*
X185502819Y-77320172D01*
X185469334Y-77258849D01*
X185466500Y-77232491D01*
X185466500Y-77145545D01*
X185466500Y-77145543D01*
X185425577Y-76992816D01*
X185405782Y-76958529D01*
X185346524Y-76855890D01*
X185346521Y-76855886D01*
X185346520Y-76855884D01*
X185234716Y-76744080D01*
X185234715Y-76744079D01*
X185230385Y-76739749D01*
X185230374Y-76739739D01*
X182676616Y-74185981D01*
X182643131Y-74124658D01*
X182648115Y-74054966D01*
X182689987Y-73999033D01*
X182755451Y-73974616D01*
X182764297Y-73974300D01*
X184763002Y-73974300D01*
X184830041Y-73993985D01*
G37*
%TD.AperFunction*%
%TA.AperFunction,Conductor*%
G36*
X164293203Y-74618335D02*
G01*
X164315108Y-74643614D01*
X164381126Y-74744662D01*
X164537029Y-74914019D01*
X164537039Y-74914028D01*
X164722733Y-75058560D01*
X164721789Y-75059772D01*
X164762639Y-75107643D01*
X164772060Y-75176874D01*
X164742556Y-75240209D01*
X164722181Y-75257863D01*
X164722459Y-75258220D01*
X164536694Y-75402806D01*
X164536689Y-75402811D01*
X164380727Y-75572231D01*
X164314508Y-75673586D01*
X164261361Y-75718943D01*
X164192130Y-75728366D01*
X164128795Y-75698863D01*
X164106891Y-75673585D01*
X164040873Y-75572537D01*
X163884970Y-75403180D01*
X163884960Y-75403171D01*
X163699267Y-75258640D01*
X163700209Y-75257429D01*
X163659355Y-75209547D01*
X163649941Y-75140314D01*
X163679450Y-75076982D01*
X163699820Y-75059338D01*
X163699541Y-75058980D01*
X163744971Y-75023620D01*
X163885308Y-74914392D01*
X164041269Y-74744973D01*
X164107490Y-74643613D01*
X164160636Y-74598257D01*
X164229868Y-74588833D01*
X164293203Y-74618335D01*
G37*
%TD.AperFunction*%
%TA.AperFunction,Conductor*%
G36*
X192277342Y-56808785D02*
G01*
X192297984Y-56825419D01*
X194369899Y-58897334D01*
X194403384Y-58958657D01*
X194401485Y-59018946D01*
X194396366Y-59036937D01*
X194396365Y-59036940D01*
X194375863Y-59258199D01*
X194375863Y-59258200D01*
X194396365Y-59479459D01*
X194396366Y-59479461D01*
X194457174Y-59693179D01*
X194457180Y-59693194D01*
X194556222Y-59892096D01*
X194690133Y-60069424D01*
X194854344Y-60219121D01*
X194854346Y-60219123D01*
X195043266Y-60336097D01*
X195043272Y-60336100D01*
X195072206Y-60347309D01*
X195250472Y-60416370D01*
X195468896Y-60457200D01*
X195468899Y-60457200D01*
X195691101Y-60457200D01*
X195691104Y-60457200D01*
X195909528Y-60416370D01*
X196116730Y-60336099D01*
X196305655Y-60219122D01*
X196469868Y-60069422D01*
X196591788Y-59907972D01*
X196647897Y-59866337D01*
X196690742Y-59858700D01*
X202089258Y-59858700D01*
X202156297Y-59878385D01*
X202188211Y-59907972D01*
X202231417Y-59965186D01*
X202310133Y-60069424D01*
X202474344Y-60219121D01*
X202474346Y-60219123D01*
X202663266Y-60336097D01*
X202663272Y-60336100D01*
X202692206Y-60347309D01*
X202870472Y-60416370D01*
X203088896Y-60457200D01*
X203088899Y-60457200D01*
X203311101Y-60457200D01*
X203311104Y-60457200D01*
X203529528Y-60416370D01*
X203736730Y-60336099D01*
X203925655Y-60219122D01*
X204089868Y-60069422D01*
X204223778Y-59892096D01*
X204322824Y-59693184D01*
X204383634Y-59479460D01*
X204404137Y-59258200D01*
X204383634Y-59036940D01*
X204322824Y-58823216D01*
X204322819Y-58823207D01*
X204322586Y-58822602D01*
X204322559Y-58822286D01*
X204321255Y-58817702D01*
X204322152Y-58817446D01*
X204316725Y-58752978D01*
X204349436Y-58691239D01*
X204410333Y-58656985D01*
X204480082Y-58661092D01*
X204525894Y-58690129D01*
X204707699Y-58871934D01*
X204741184Y-58933257D01*
X204739285Y-58993546D01*
X204734166Y-59011537D01*
X204734165Y-59011540D01*
X204713663Y-59232799D01*
X204713663Y-59232800D01*
X204734165Y-59454059D01*
X204734166Y-59454061D01*
X204794974Y-59667779D01*
X204794980Y-59667794D01*
X204894022Y-59866696D01*
X205027933Y-60044024D01*
X205192144Y-60193721D01*
X205192146Y-60193723D01*
X205381066Y-60310697D01*
X205381072Y-60310700D01*
X205410006Y-60321909D01*
X205588272Y-60390970D01*
X205806696Y-60431800D01*
X205806699Y-60431800D01*
X206028901Y-60431800D01*
X206028904Y-60431800D01*
X206247328Y-60390970D01*
X206454530Y-60310699D01*
X206643455Y-60193722D01*
X206807668Y-60044022D01*
X206929588Y-59882572D01*
X206985697Y-59840937D01*
X207028542Y-59833300D01*
X212427058Y-59833300D01*
X212494097Y-59852985D01*
X212526011Y-59882572D01*
X212539409Y-59900314D01*
X212647933Y-60044024D01*
X212812144Y-60193721D01*
X212812146Y-60193723D01*
X213001066Y-60310697D01*
X213001072Y-60310700D01*
X213030006Y-60321909D01*
X213208272Y-60390970D01*
X213426696Y-60431800D01*
X213426699Y-60431800D01*
X213527402Y-60431800D01*
X213594441Y-60451485D01*
X213640196Y-60504289D01*
X213650140Y-60573447D01*
X213621115Y-60637003D01*
X213615083Y-60643481D01*
X213293984Y-60964581D01*
X213232661Y-60998066D01*
X213206303Y-61000900D01*
X193653669Y-61000900D01*
X193653653Y-61000899D01*
X193646057Y-61000899D01*
X193487943Y-61000899D01*
X193380587Y-61029665D01*
X193335210Y-61041824D01*
X193335209Y-61041825D01*
X193285096Y-61070759D01*
X193285095Y-61070760D01*
X193241689Y-61095820D01*
X193198285Y-61120879D01*
X193198282Y-61120881D01*
X193086478Y-61232686D01*
X192615065Y-61704098D01*
X192553742Y-61737583D01*
X192541268Y-61739637D01*
X192454350Y-61749430D01*
X192284078Y-61809010D01*
X192131337Y-61904984D01*
X192003784Y-62032537D01*
X191907811Y-62185276D01*
X191848231Y-62355545D01*
X191848230Y-62355550D01*
X191828035Y-62534796D01*
X191828035Y-62534803D01*
X191848230Y-62714049D01*
X191848233Y-62714062D01*
X191900820Y-62864345D01*
X191904382Y-62934124D01*
X191869654Y-62994751D01*
X191807660Y-63026979D01*
X191783779Y-63029300D01*
X187076670Y-63029300D01*
X187076654Y-63029299D01*
X187069058Y-63029299D01*
X186910943Y-63029299D01*
X186758215Y-63070223D01*
X186758213Y-63070223D01*
X186758213Y-63070224D01*
X186708093Y-63099160D01*
X186656584Y-63128900D01*
X186621281Y-63149282D01*
X186339679Y-63430884D01*
X186278356Y-63464369D01*
X186219906Y-63462978D01*
X186148076Y-63443732D01*
X186148073Y-63443731D01*
X186148068Y-63443730D01*
X186148065Y-63443729D01*
X186148062Y-63443729D01*
X185928002Y-63424477D01*
X185927998Y-63424477D01*
X185707937Y-63443729D01*
X185707923Y-63443732D01*
X185636092Y-63462978D01*
X185566242Y-63461314D01*
X185516319Y-63430884D01*
X184131590Y-62046155D01*
X184131588Y-62046152D01*
X184012717Y-61927281D01*
X184012716Y-61927280D01*
X183925904Y-61877160D01*
X183925904Y-61877159D01*
X183925900Y-61877158D01*
X183875785Y-61848223D01*
X183723057Y-61807299D01*
X183564943Y-61807299D01*
X183557347Y-61807299D01*
X183557331Y-61807300D01*
X182156407Y-61807300D01*
X182089368Y-61787615D01*
X182043613Y-61734811D01*
X182033669Y-61665653D01*
X182039130Y-61643024D01*
X182039712Y-61641327D01*
X182039717Y-61641316D01*
X182096246Y-61418088D01*
X182115262Y-61188600D01*
X182112743Y-61158206D01*
X182099709Y-61000900D01*
X182096246Y-60959112D01*
X182039717Y-60735884D01*
X181947217Y-60525005D01*
X181917123Y-60478942D01*
X181821271Y-60332229D01*
X181794355Y-60302990D01*
X181665308Y-60162808D01*
X181483589Y-60021371D01*
X181483590Y-60021371D01*
X181479541Y-60018220D01*
X181480428Y-60017080D01*
X181439363Y-59968966D01*
X181429938Y-59899735D01*
X181459437Y-59836398D01*
X181479572Y-59818952D01*
X181479267Y-59818560D01*
X181664960Y-59674028D01*
X181664970Y-59674019D01*
X181820873Y-59504662D01*
X181946775Y-59311955D01*
X182039242Y-59101153D01*
X182090535Y-58898600D01*
X181163251Y-58898600D01*
X181194381Y-58844681D01*
X181229000Y-58715480D01*
X181229000Y-58581720D01*
X181194381Y-58452519D01*
X181163251Y-58398600D01*
X182090536Y-58398600D01*
X182090535Y-58398599D01*
X182039242Y-58196046D01*
X181946775Y-57985244D01*
X181820873Y-57792537D01*
X181664970Y-57623180D01*
X181664960Y-57623171D01*
X181483322Y-57481796D01*
X181483316Y-57481792D01*
X181280868Y-57372232D01*
X181280856Y-57372227D01*
X181063156Y-57297491D01*
X181063137Y-57297487D01*
X180971000Y-57282110D01*
X180971000Y-58206348D01*
X180917081Y-58175219D01*
X180787880Y-58140600D01*
X180654120Y-58140600D01*
X180524919Y-58175219D01*
X180471000Y-58206348D01*
X180471000Y-57259196D01*
X180490685Y-57192157D01*
X180507315Y-57171518D01*
X180853416Y-56825419D01*
X180914739Y-56791934D01*
X180941097Y-56789100D01*
X192210303Y-56789100D01*
X192277342Y-56808785D01*
G37*
%TD.AperFunction*%
%TA.AperFunction,Conductor*%
G36*
X164292604Y-59378334D02*
G01*
X164314508Y-59403613D01*
X164380727Y-59504968D01*
X164380729Y-59504970D01*
X164380731Y-59504973D01*
X164536692Y-59674392D01*
X164560849Y-59693194D01*
X164722459Y-59818980D01*
X164721570Y-59820121D01*
X164762632Y-59868224D01*
X164772063Y-59937455D01*
X164742568Y-60000794D01*
X164722429Y-60018250D01*
X164722733Y-60018640D01*
X164537039Y-60163171D01*
X164537029Y-60163180D01*
X164381124Y-60332538D01*
X164315107Y-60433586D01*
X164261961Y-60478942D01*
X164192730Y-60488366D01*
X164129394Y-60458864D01*
X164107490Y-60433586D01*
X164096242Y-60416370D01*
X164041269Y-60332227D01*
X163885308Y-60162808D01*
X163703589Y-60021371D01*
X163703590Y-60021371D01*
X163699541Y-60018220D01*
X163700428Y-60017080D01*
X163659363Y-59968966D01*
X163649938Y-59899735D01*
X163679437Y-59836398D01*
X163699572Y-59818952D01*
X163699267Y-59818560D01*
X163884960Y-59674028D01*
X163884970Y-59674019D01*
X164040873Y-59504662D01*
X164106891Y-59403614D01*
X164160037Y-59358257D01*
X164229268Y-59348833D01*
X164292604Y-59378334D01*
G37*
%TD.AperFunction*%
%TA.AperFunction,Conductor*%
G36*
X179533203Y-59378335D02*
G01*
X179555108Y-59403614D01*
X179621126Y-59504662D01*
X179777029Y-59674019D01*
X179777039Y-59674028D01*
X179962733Y-59818560D01*
X179961789Y-59819772D01*
X180002639Y-59867643D01*
X180012060Y-59936874D01*
X179982556Y-60000209D01*
X179962181Y-60017863D01*
X179962459Y-60018220D01*
X179776694Y-60162806D01*
X179776689Y-60162811D01*
X179620727Y-60332231D01*
X179554508Y-60433586D01*
X179501361Y-60478943D01*
X179432130Y-60488366D01*
X179368795Y-60458863D01*
X179346891Y-60433585D01*
X179280873Y-60332537D01*
X179124970Y-60163180D01*
X179124960Y-60163171D01*
X178939267Y-60018640D01*
X178940209Y-60017429D01*
X178899355Y-59969547D01*
X178889941Y-59900314D01*
X178919450Y-59836982D01*
X178939820Y-59819338D01*
X178939541Y-59818980D01*
X178976174Y-59790466D01*
X179125308Y-59674392D01*
X179281269Y-59504973D01*
X179347490Y-59403613D01*
X179400636Y-59358257D01*
X179469868Y-59348833D01*
X179533203Y-59378335D01*
G37*
%TD.AperFunction*%
%TA.AperFunction,Conductor*%
G36*
X243795702Y-51300617D02*
G01*
X244179771Y-51317386D01*
X244190506Y-51318326D01*
X244568971Y-51368152D01*
X244579597Y-51370025D01*
X244952284Y-51452648D01*
X244962710Y-51455442D01*
X245326765Y-51570227D01*
X245336911Y-51573920D01*
X245689578Y-51720000D01*
X245699369Y-51724566D01*
X245946192Y-51853054D01*
X246037942Y-51900816D01*
X246047309Y-51906223D01*
X246350977Y-52099681D01*
X246369244Y-52111318D01*
X246378105Y-52117523D01*
X246680930Y-52349889D01*
X246689217Y-52356843D01*
X246970635Y-52614715D01*
X246978284Y-52622364D01*
X247236156Y-52903782D01*
X247243110Y-52912069D01*
X247475476Y-53214894D01*
X247481681Y-53223755D01*
X247686775Y-53545689D01*
X247692183Y-53555057D01*
X247868430Y-53893623D01*
X247873002Y-53903427D01*
X248019075Y-54256078D01*
X248022775Y-54266244D01*
X248137554Y-54630278D01*
X248140354Y-54640727D01*
X248222971Y-55013389D01*
X248224849Y-55024042D01*
X248274671Y-55402473D01*
X248275614Y-55413249D01*
X248292382Y-55797297D01*
X248292500Y-55802706D01*
X248292500Y-91060093D01*
X248292382Y-91065502D01*
X248275614Y-91449550D01*
X248274671Y-91460326D01*
X248224849Y-91838757D01*
X248222971Y-91849410D01*
X248140354Y-92222072D01*
X248137554Y-92232521D01*
X248022775Y-92596555D01*
X248019075Y-92606721D01*
X247873002Y-92959372D01*
X247868430Y-92969176D01*
X247692183Y-93307742D01*
X247686775Y-93317110D01*
X247481681Y-93639044D01*
X247475476Y-93647905D01*
X247243110Y-93950730D01*
X247236156Y-93959017D01*
X246978284Y-94240435D01*
X246970635Y-94248084D01*
X246689217Y-94505956D01*
X246680930Y-94512910D01*
X246378105Y-94745276D01*
X246369244Y-94751481D01*
X246047310Y-94956575D01*
X246037942Y-94961983D01*
X245699376Y-95138230D01*
X245689572Y-95142802D01*
X245336921Y-95288875D01*
X245326755Y-95292575D01*
X244962721Y-95407354D01*
X244952272Y-95410154D01*
X244579610Y-95492771D01*
X244568957Y-95494649D01*
X244190526Y-95544471D01*
X244179750Y-95545414D01*
X243795703Y-95562182D01*
X243790294Y-95562300D01*
X157428106Y-95562300D01*
X157422697Y-95562182D01*
X157038649Y-95545414D01*
X157027873Y-95544471D01*
X156649442Y-95494649D01*
X156638789Y-95492771D01*
X156266127Y-95410154D01*
X156255678Y-95407354D01*
X155891644Y-95292575D01*
X155881478Y-95288875D01*
X155528827Y-95142802D01*
X155519023Y-95138230D01*
X155180457Y-94961983D01*
X155171089Y-94956575D01*
X154849155Y-94751481D01*
X154840294Y-94745276D01*
X154537469Y-94512910D01*
X154529182Y-94505956D01*
X154247764Y-94248084D01*
X154240115Y-94240435D01*
X153982243Y-93959017D01*
X153975289Y-93950730D01*
X153742923Y-93647905D01*
X153736718Y-93639044D01*
X153531624Y-93317110D01*
X153526216Y-93307742D01*
X153520026Y-93295851D01*
X153349966Y-92969169D01*
X153345397Y-92959372D01*
X153305230Y-92862400D01*
X153199320Y-92606711D01*
X153195624Y-92596555D01*
X153191987Y-92585019D01*
X153080842Y-92232510D01*
X153078048Y-92222084D01*
X152995425Y-91849397D01*
X152993552Y-91838771D01*
X152989695Y-91809472D01*
X154575500Y-91809472D01*
X154575500Y-92071727D01*
X154596670Y-92232521D01*
X154609730Y-92331716D01*
X154636004Y-92429772D01*
X154677602Y-92585018D01*
X154677605Y-92585028D01*
X154777953Y-92827290D01*
X154777958Y-92827300D01*
X154909075Y-93054403D01*
X155068718Y-93262451D01*
X155068726Y-93262460D01*
X155254140Y-93447874D01*
X155254148Y-93447881D01*
X155462196Y-93607524D01*
X155689299Y-93738641D01*
X155689309Y-93738646D01*
X155917641Y-93833224D01*
X155931581Y-93838998D01*
X156184884Y-93906870D01*
X156444880Y-93941100D01*
X156444887Y-93941100D01*
X156707113Y-93941100D01*
X156707120Y-93941100D01*
X156967116Y-93906870D01*
X157220419Y-93838998D01*
X157462697Y-93738643D01*
X157689803Y-93607524D01*
X157897851Y-93447882D01*
X157897855Y-93447877D01*
X157897860Y-93447874D01*
X158083274Y-93262460D01*
X158083277Y-93262455D01*
X158083282Y-93262451D01*
X158242924Y-93054403D01*
X158374043Y-92827297D01*
X158474398Y-92585019D01*
X158542270Y-92331716D01*
X158576500Y-92071720D01*
X158576500Y-91809480D01*
X158542270Y-91549484D01*
X158474398Y-91296181D01*
X158471963Y-91290302D01*
X158374046Y-91053909D01*
X158374041Y-91053899D01*
X158242924Y-90826796D01*
X158083281Y-90618748D01*
X158083274Y-90618740D01*
X157897860Y-90433326D01*
X157897851Y-90433318D01*
X157689803Y-90273675D01*
X157462700Y-90142558D01*
X157462690Y-90142553D01*
X157220428Y-90042205D01*
X157220421Y-90042203D01*
X157220419Y-90042202D01*
X156967116Y-89974330D01*
X156909339Y-89966723D01*
X156707127Y-89940100D01*
X156707120Y-89940100D01*
X156444880Y-89940100D01*
X156444872Y-89940100D01*
X156213772Y-89970526D01*
X156184884Y-89974330D01*
X155931581Y-90042202D01*
X155931571Y-90042205D01*
X155689309Y-90142553D01*
X155689299Y-90142558D01*
X155462196Y-90273675D01*
X155254148Y-90433318D01*
X155068718Y-90618748D01*
X154909075Y-90826796D01*
X154777958Y-91053899D01*
X154777953Y-91053909D01*
X154677605Y-91296171D01*
X154677602Y-91296181D01*
X154609730Y-91549485D01*
X154575500Y-91809472D01*
X152989695Y-91809472D01*
X152943726Y-91460306D01*
X152942786Y-91449571D01*
X152926018Y-91065502D01*
X152925900Y-91060093D01*
X152925900Y-80826599D01*
X153431941Y-80826599D01*
X153431941Y-80826600D01*
X153452536Y-81062003D01*
X153452538Y-81062013D01*
X153513694Y-81290255D01*
X153513696Y-81290259D01*
X153513697Y-81290263D01*
X153581928Y-81436585D01*
X153613565Y-81504430D01*
X153613567Y-81504434D01*
X153639969Y-81542139D01*
X153749105Y-81698001D01*
X153916199Y-81865095D01*
X153979639Y-81909516D01*
X154109765Y-82000632D01*
X154109767Y-82000633D01*
X154109770Y-82000635D01*
X154323937Y-82100503D01*
X154323943Y-82100504D01*
X154323944Y-82100505D01*
X154370435Y-82112962D01*
X154552192Y-82161663D01*
X154740518Y-82178139D01*
X154787599Y-82182259D01*
X154787600Y-82182259D01*
X154787601Y-82182259D01*
X154826834Y-82178826D01*
X155023008Y-82161663D01*
X155251263Y-82100503D01*
X155465430Y-82000635D01*
X155659001Y-81865095D01*
X155826095Y-81698001D01*
X155961635Y-81504430D01*
X156061503Y-81290263D01*
X156122663Y-81062008D01*
X156143259Y-80826600D01*
X156122663Y-80591192D01*
X156061503Y-80362937D01*
X155961635Y-80148771D01*
X155911333Y-80076931D01*
X155826094Y-79955197D01*
X155659002Y-79788106D01*
X155659001Y-79788105D01*
X155473005Y-79657869D01*
X155429381Y-79603292D01*
X155422188Y-79533793D01*
X155453710Y-79471439D01*
X155473005Y-79454719D01*
X155658682Y-79324705D01*
X155825705Y-79157682D01*
X155961200Y-78964178D01*
X156061029Y-78750092D01*
X156061032Y-78750086D01*
X156118236Y-78536600D01*
X155220612Y-78536600D01*
X155253525Y-78479593D01*
X155287600Y-78352426D01*
X155287600Y-78336454D01*
X159673498Y-78336454D01*
X159673499Y-78336457D01*
X159714423Y-78489185D01*
X159714424Y-78489187D01*
X159714423Y-78489187D01*
X159733371Y-78522004D01*
X159733373Y-78522006D01*
X159733374Y-78522008D01*
X159751010Y-78552554D01*
X159793479Y-78626115D01*
X159912349Y-78744985D01*
X159912355Y-78744990D01*
X161170498Y-80003134D01*
X161203983Y-80064457D01*
X161206037Y-80076931D01*
X161215830Y-80163849D01*
X161275410Y-80334121D01*
X161353150Y-80457843D01*
X161371384Y-80486862D01*
X161498938Y-80614416D01*
X161581773Y-80666465D01*
X161636477Y-80700838D01*
X161651678Y-80710389D01*
X161797845Y-80761535D01*
X161821945Y-80769968D01*
X161821950Y-80769969D01*
X162001196Y-80790165D01*
X162001200Y-80790165D01*
X162001204Y-80790165D01*
X162180449Y-80769969D01*
X162180452Y-80769968D01*
X162180455Y-80769968D01*
X162350722Y-80710389D01*
X162503462Y-80614416D01*
X162631016Y-80486862D01*
X162726989Y-80334122D01*
X162786568Y-80163855D01*
X162786732Y-80162400D01*
X162806765Y-79984603D01*
X162806765Y-79984596D01*
X162786569Y-79805350D01*
X162786568Y-79805345D01*
X162780794Y-79788845D01*
X162726989Y-79635078D01*
X162631016Y-79482338D01*
X162503462Y-79354784D01*
X162381018Y-79277847D01*
X162350721Y-79258810D01*
X162180449Y-79199230D01*
X162093531Y-79189437D01*
X162029117Y-79162370D01*
X162019734Y-79153898D01*
X160910819Y-78044983D01*
X160877334Y-77983660D01*
X160874500Y-77957302D01*
X160874500Y-71775696D01*
X160894185Y-71708657D01*
X160910815Y-71688019D01*
X161335057Y-71263776D01*
X161396380Y-71230292D01*
X161466072Y-71235276D01*
X161522005Y-71277148D01*
X161546422Y-71342612D01*
X161546558Y-71346444D01*
X161565753Y-71578084D01*
X161622282Y-71801314D01*
X161714782Y-72012194D01*
X161840728Y-72204970D01*
X161840731Y-72204973D01*
X161996692Y-72374392D01*
X162070322Y-72431700D01*
X162182459Y-72518980D01*
X162181476Y-72520241D01*
X162222183Y-72567949D01*
X162231600Y-72637181D01*
X162202092Y-72700514D01*
X162182136Y-72717805D01*
X162182459Y-72718220D01*
X161996694Y-72862806D01*
X161996689Y-72862811D01*
X161840728Y-73032229D01*
X161714782Y-73225005D01*
X161622282Y-73435885D01*
X161565753Y-73659115D01*
X161546738Y-73888594D01*
X161546738Y-73888605D01*
X161565753Y-74118084D01*
X161622282Y-74341314D01*
X161714782Y-74552194D01*
X161840728Y-74744970D01*
X161840731Y-74744973D01*
X161996692Y-74914392D01*
X162089767Y-74986835D01*
X162182459Y-75058980D01*
X162181570Y-75060121D01*
X162222632Y-75108224D01*
X162232063Y-75177455D01*
X162202568Y-75240794D01*
X162182429Y-75258250D01*
X162182733Y-75258640D01*
X161997039Y-75403171D01*
X161997029Y-75403180D01*
X161841126Y-75572537D01*
X161715224Y-75765244D01*
X161622757Y-75976046D01*
X161571464Y-76178599D01*
X161571464Y-76178600D01*
X162498749Y-76178600D01*
X162467619Y-76232519D01*
X162433000Y-76361720D01*
X162433000Y-76495480D01*
X162467619Y-76624681D01*
X162498749Y-76678600D01*
X161571464Y-76678600D01*
X161622757Y-76881153D01*
X161715224Y-77091955D01*
X161841126Y-77284662D01*
X161997029Y-77454019D01*
X161997039Y-77454028D01*
X162178677Y-77595403D01*
X162178683Y-77595407D01*
X162381131Y-77704967D01*
X162381140Y-77704970D01*
X162598849Y-77779710D01*
X162690999Y-77795087D01*
X162691000Y-77795087D01*
X162691000Y-76870851D01*
X162744919Y-76901981D01*
X162874120Y-76936600D01*
X163007880Y-76936600D01*
X163137081Y-76901981D01*
X163191000Y-76870851D01*
X163191000Y-77795087D01*
X163283150Y-77779710D01*
X163500859Y-77704970D01*
X163500868Y-77704967D01*
X163703316Y-77595407D01*
X163703322Y-77595403D01*
X163884960Y-77454028D01*
X163884970Y-77454019D01*
X164040873Y-77284662D01*
X164106891Y-77183614D01*
X164160037Y-77138257D01*
X164229268Y-77128833D01*
X164292604Y-77158334D01*
X164314508Y-77183613D01*
X164380727Y-77284968D01*
X164380729Y-77284970D01*
X164380731Y-77284973D01*
X164536692Y-77454392D01*
X164614266Y-77514770D01*
X164718408Y-77595827D01*
X164718413Y-77595830D01*
X164815517Y-77648380D01*
X164865108Y-77697599D01*
X164880500Y-77757435D01*
X164880500Y-80471902D01*
X164860815Y-80538941D01*
X164844181Y-80559583D01*
X163633665Y-81770098D01*
X163572342Y-81803583D01*
X163559868Y-81805637D01*
X163472950Y-81815430D01*
X163302678Y-81875010D01*
X163149937Y-81970984D01*
X163022384Y-82098537D01*
X162926411Y-82251276D01*
X162866831Y-82421545D01*
X162866830Y-82421550D01*
X162846635Y-82600796D01*
X162846635Y-82600803D01*
X162866830Y-82780049D01*
X162866831Y-82780054D01*
X162926411Y-82950323D01*
X162959194Y-83002496D01*
X163022384Y-83103062D01*
X163149938Y-83230616D01*
X163224547Y-83277496D01*
X163287022Y-83316752D01*
X163302678Y-83326589D01*
X163472945Y-83386168D01*
X163472950Y-83386169D01*
X163652196Y-83406365D01*
X163652200Y-83406365D01*
X163652204Y-83406365D01*
X163831449Y-83386169D01*
X163831452Y-83386168D01*
X163831455Y-83386168D01*
X164001722Y-83326589D01*
X164104328Y-83262116D01*
X164171564Y-83243117D01*
X164238400Y-83263484D01*
X164283614Y-83316752D01*
X164294300Y-83367111D01*
X164294300Y-91677095D01*
X164274615Y-91744134D01*
X164241423Y-91778670D01*
X164080178Y-91891574D01*
X163923975Y-92047777D01*
X163797266Y-92228738D01*
X163797265Y-92228740D01*
X163703907Y-92428948D01*
X163703904Y-92428954D01*
X163646730Y-92642329D01*
X163646729Y-92642337D01*
X163627477Y-92862397D01*
X163627477Y-92862402D01*
X163646729Y-93082462D01*
X163646730Y-93082470D01*
X163703904Y-93295845D01*
X163703905Y-93295847D01*
X163703906Y-93295850D01*
X163790087Y-93480666D01*
X163797266Y-93496062D01*
X163797268Y-93496066D01*
X163923970Y-93677015D01*
X163923975Y-93677021D01*
X164080178Y-93833224D01*
X164080184Y-93833229D01*
X164261133Y-93959931D01*
X164261135Y-93959932D01*
X164261138Y-93959934D01*
X164461350Y-94053294D01*
X164674732Y-94110470D01*
X164831923Y-94124222D01*
X164894798Y-94129723D01*
X164894800Y-94129723D01*
X164894802Y-94129723D01*
X164949817Y-94124909D01*
X165114868Y-94110470D01*
X165328250Y-94053294D01*
X165528462Y-93959934D01*
X165709420Y-93833226D01*
X165865626Y-93677020D01*
X165992334Y-93496062D01*
X166052694Y-93366618D01*
X166098866Y-93314179D01*
X166166059Y-93295027D01*
X166232941Y-93315243D01*
X166277458Y-93366619D01*
X166337698Y-93495805D01*
X166337701Y-93495811D01*
X166383058Y-93560587D01*
X166383059Y-93560588D01*
X167053800Y-92889847D01*
X167053800Y-92912560D01*
X167079764Y-93009461D01*
X167129924Y-93096340D01*
X167200860Y-93167276D01*
X167287739Y-93217436D01*
X167384640Y-93243400D01*
X167407353Y-93243400D01*
X166736610Y-93914140D01*
X166801390Y-93959499D01*
X166801392Y-93959500D01*
X167001515Y-94052819D01*
X167001529Y-94052824D01*
X167214813Y-94109973D01*
X167214823Y-94109975D01*
X167434799Y-94129221D01*
X167434801Y-94129221D01*
X167654776Y-94109975D01*
X167654786Y-94109973D01*
X167868070Y-94052824D01*
X167868084Y-94052819D01*
X168068207Y-93959500D01*
X168068217Y-93959494D01*
X168132988Y-93914141D01*
X167462248Y-93243400D01*
X167484960Y-93243400D01*
X167581861Y-93217436D01*
X167668740Y-93167276D01*
X167739676Y-93096340D01*
X167789836Y-93009461D01*
X167815800Y-92912560D01*
X167815800Y-92889847D01*
X168486541Y-93560588D01*
X168531894Y-93495817D01*
X168531895Y-93495816D01*
X168592140Y-93366619D01*
X168638312Y-93314180D01*
X168705506Y-93295027D01*
X168772387Y-93315242D01*
X168816905Y-93366618D01*
X168877266Y-93496062D01*
X168877268Y-93496066D01*
X169003970Y-93677015D01*
X169003975Y-93677021D01*
X169160178Y-93833224D01*
X169160184Y-93833229D01*
X169341133Y-93959931D01*
X169341135Y-93959932D01*
X169341138Y-93959934D01*
X169541350Y-94053294D01*
X169754732Y-94110470D01*
X169911923Y-94124222D01*
X169974798Y-94129723D01*
X169974800Y-94129723D01*
X169974802Y-94129723D01*
X170029817Y-94124909D01*
X170194868Y-94110470D01*
X170408250Y-94053294D01*
X170608462Y-93959934D01*
X170789420Y-93833226D01*
X170945626Y-93677020D01*
X171072334Y-93496062D01*
X171132418Y-93367211D01*
X171178590Y-93314771D01*
X171245783Y-93295619D01*
X171312665Y-93315835D01*
X171357182Y-93367211D01*
X171417264Y-93496058D01*
X171417268Y-93496066D01*
X171543970Y-93677015D01*
X171543975Y-93677021D01*
X171700178Y-93833224D01*
X171700184Y-93833229D01*
X171881133Y-93959931D01*
X171881135Y-93959932D01*
X171881138Y-93959934D01*
X172081350Y-94053294D01*
X172294732Y-94110470D01*
X172451923Y-94124222D01*
X172514798Y-94129723D01*
X172514800Y-94129723D01*
X172514802Y-94129723D01*
X172569817Y-94124909D01*
X172734868Y-94110470D01*
X172948250Y-94053294D01*
X173148462Y-93959934D01*
X173329420Y-93833226D01*
X173485626Y-93677020D01*
X173612334Y-93496062D01*
X173672418Y-93367211D01*
X173718590Y-93314771D01*
X173785783Y-93295619D01*
X173852665Y-93315835D01*
X173897182Y-93367211D01*
X173957264Y-93496058D01*
X173957268Y-93496066D01*
X174083970Y-93677015D01*
X174083975Y-93677021D01*
X174240178Y-93833224D01*
X174240184Y-93833229D01*
X174421133Y-93959931D01*
X174421135Y-93959932D01*
X174421138Y-93959934D01*
X174621350Y-94053294D01*
X174834732Y-94110470D01*
X174991923Y-94124222D01*
X175054798Y-94129723D01*
X175054800Y-94129723D01*
X175054802Y-94129723D01*
X175109817Y-94124909D01*
X175274868Y-94110470D01*
X175488250Y-94053294D01*
X175688462Y-93959934D01*
X175869420Y-93833226D01*
X176025626Y-93677020D01*
X176152334Y-93496062D01*
X176212418Y-93367211D01*
X176258590Y-93314771D01*
X176325783Y-93295619D01*
X176392665Y-93315835D01*
X176437182Y-93367211D01*
X176497264Y-93496058D01*
X176497268Y-93496066D01*
X176623970Y-93677015D01*
X176623975Y-93677021D01*
X176780178Y-93833224D01*
X176780184Y-93833229D01*
X176961133Y-93959931D01*
X176961135Y-93959932D01*
X176961138Y-93959934D01*
X177161350Y-94053294D01*
X177374732Y-94110470D01*
X177531923Y-94124222D01*
X177594798Y-94129723D01*
X177594800Y-94129723D01*
X177594802Y-94129723D01*
X177649817Y-94124909D01*
X177814868Y-94110470D01*
X178028250Y-94053294D01*
X178228462Y-93959934D01*
X178409420Y-93833226D01*
X178565626Y-93677020D01*
X178692334Y-93496062D01*
X178785694Y-93295850D01*
X178842870Y-93082468D01*
X178862123Y-92862400D01*
X178842870Y-92642332D01*
X178785694Y-92428950D01*
X178692334Y-92228739D01*
X178565626Y-92047780D01*
X178409420Y-91891574D01*
X178409416Y-91891571D01*
X178409415Y-91891570D01*
X178292167Y-91809472D01*
X242537500Y-91809472D01*
X242537500Y-92071727D01*
X242558670Y-92232521D01*
X242571730Y-92331716D01*
X242598004Y-92429772D01*
X242639602Y-92585018D01*
X242639605Y-92585028D01*
X242739953Y-92827290D01*
X242739958Y-92827300D01*
X242871075Y-93054403D01*
X243030718Y-93262451D01*
X243030726Y-93262460D01*
X243216140Y-93447874D01*
X243216148Y-93447881D01*
X243424196Y-93607524D01*
X243651299Y-93738641D01*
X243651309Y-93738646D01*
X243879641Y-93833224D01*
X243893581Y-93838998D01*
X244146884Y-93906870D01*
X244406880Y-93941100D01*
X244406887Y-93941100D01*
X244669113Y-93941100D01*
X244669120Y-93941100D01*
X244929116Y-93906870D01*
X245182419Y-93838998D01*
X245424697Y-93738643D01*
X245651803Y-93607524D01*
X245859851Y-93447882D01*
X245859855Y-93447877D01*
X245859860Y-93447874D01*
X246045274Y-93262460D01*
X246045277Y-93262455D01*
X246045282Y-93262451D01*
X246204924Y-93054403D01*
X246336043Y-92827297D01*
X246436398Y-92585019D01*
X246504270Y-92331716D01*
X246538500Y-92071720D01*
X246538500Y-91809480D01*
X246504270Y-91549484D01*
X246436398Y-91296181D01*
X246433963Y-91290302D01*
X246336046Y-91053909D01*
X246336041Y-91053899D01*
X246204924Y-90826796D01*
X246045281Y-90618748D01*
X246045274Y-90618740D01*
X245859860Y-90433326D01*
X245859851Y-90433318D01*
X245651803Y-90273675D01*
X245424700Y-90142558D01*
X245424690Y-90142553D01*
X245182428Y-90042205D01*
X245182421Y-90042203D01*
X245182419Y-90042202D01*
X244929116Y-89974330D01*
X244871339Y-89966723D01*
X244669127Y-89940100D01*
X244669120Y-89940100D01*
X244406880Y-89940100D01*
X244406872Y-89940100D01*
X244175772Y-89970526D01*
X244146884Y-89974330D01*
X243893581Y-90042202D01*
X243893571Y-90042205D01*
X243651309Y-90142553D01*
X243651299Y-90142558D01*
X243424196Y-90273675D01*
X243216148Y-90433318D01*
X243030718Y-90618748D01*
X242871075Y-90826796D01*
X242739958Y-91053899D01*
X242739953Y-91053909D01*
X242639605Y-91296171D01*
X242639602Y-91296181D01*
X242571730Y-91549485D01*
X242537500Y-91809472D01*
X178292167Y-91809472D01*
X178228466Y-91764868D01*
X178228462Y-91764866D01*
X178183185Y-91743753D01*
X178028250Y-91671506D01*
X178028247Y-91671505D01*
X178028245Y-91671504D01*
X177814870Y-91614330D01*
X177814862Y-91614329D01*
X177594802Y-91595077D01*
X177594798Y-91595077D01*
X177374737Y-91614329D01*
X177374729Y-91614330D01*
X177161354Y-91671504D01*
X177161348Y-91671507D01*
X176961140Y-91764865D01*
X176961138Y-91764866D01*
X176780177Y-91891575D01*
X176623975Y-92047777D01*
X176497266Y-92228738D01*
X176497265Y-92228740D01*
X176437182Y-92357589D01*
X176391009Y-92410028D01*
X176323816Y-92429180D01*
X176256935Y-92408964D01*
X176212418Y-92357589D01*
X176193859Y-92317790D01*
X176152334Y-92228739D01*
X176025626Y-92047780D01*
X175869420Y-91891574D01*
X175869416Y-91891571D01*
X175869415Y-91891570D01*
X175688466Y-91764868D01*
X175688462Y-91764866D01*
X175643185Y-91743753D01*
X175488250Y-91671506D01*
X175488247Y-91671505D01*
X175488245Y-91671504D01*
X175274870Y-91614330D01*
X175274862Y-91614329D01*
X175054802Y-91595077D01*
X175054798Y-91595077D01*
X174834737Y-91614329D01*
X174834729Y-91614330D01*
X174621354Y-91671504D01*
X174621348Y-91671507D01*
X174421140Y-91764865D01*
X174421138Y-91764866D01*
X174240177Y-91891575D01*
X174083975Y-92047777D01*
X173957266Y-92228738D01*
X173957265Y-92228740D01*
X173897182Y-92357589D01*
X173851009Y-92410028D01*
X173783816Y-92429180D01*
X173716935Y-92408964D01*
X173672418Y-92357589D01*
X173653859Y-92317790D01*
X173612334Y-92228739D01*
X173485626Y-92047780D01*
X173329420Y-91891574D01*
X173329416Y-91891571D01*
X173329415Y-91891570D01*
X173148466Y-91764868D01*
X173148462Y-91764866D01*
X173103185Y-91743753D01*
X172948250Y-91671506D01*
X172948247Y-91671505D01*
X172948245Y-91671504D01*
X172734870Y-91614330D01*
X172734862Y-91614329D01*
X172514802Y-91595077D01*
X172514798Y-91595077D01*
X172294737Y-91614329D01*
X172294729Y-91614330D01*
X172081354Y-91671504D01*
X172081348Y-91671507D01*
X171881140Y-91764865D01*
X171881138Y-91764866D01*
X171700177Y-91891575D01*
X171543975Y-92047777D01*
X171417266Y-92228738D01*
X171417265Y-92228740D01*
X171357182Y-92357589D01*
X171311009Y-92410028D01*
X171243816Y-92429180D01*
X171176935Y-92408964D01*
X171132418Y-92357589D01*
X171113859Y-92317790D01*
X171072334Y-92228739D01*
X170945626Y-92047780D01*
X170789420Y-91891574D01*
X170789416Y-91891571D01*
X170789415Y-91891570D01*
X170608466Y-91764868D01*
X170608462Y-91764866D01*
X170563185Y-91743753D01*
X170408250Y-91671506D01*
X170408247Y-91671505D01*
X170408245Y-91671504D01*
X170194870Y-91614330D01*
X170194862Y-91614329D01*
X169974802Y-91595077D01*
X169974798Y-91595077D01*
X169754737Y-91614329D01*
X169754729Y-91614330D01*
X169541354Y-91671504D01*
X169541348Y-91671507D01*
X169341140Y-91764865D01*
X169341138Y-91764866D01*
X169160177Y-91891575D01*
X169003975Y-92047777D01*
X168877267Y-92228737D01*
X168816905Y-92358182D01*
X168770732Y-92410621D01*
X168703538Y-92429772D01*
X168636657Y-92409556D01*
X168592141Y-92358180D01*
X168531898Y-92228989D01*
X168531897Y-92228987D01*
X168486541Y-92164211D01*
X168486540Y-92164210D01*
X167815800Y-92834951D01*
X167815800Y-92812240D01*
X167789836Y-92715339D01*
X167739676Y-92628460D01*
X167668740Y-92557524D01*
X167581861Y-92507364D01*
X167484960Y-92481400D01*
X167462248Y-92481400D01*
X168132988Y-91810659D01*
X168132987Y-91810658D01*
X168068211Y-91765301D01*
X168068205Y-91765298D01*
X167868084Y-91671980D01*
X167868070Y-91671975D01*
X167654786Y-91614826D01*
X167654776Y-91614824D01*
X167434801Y-91595579D01*
X167434799Y-91595579D01*
X167214823Y-91614824D01*
X167214813Y-91614826D01*
X167001529Y-91671975D01*
X167001520Y-91671979D01*
X166801390Y-91765301D01*
X166736611Y-91810658D01*
X167407353Y-92481400D01*
X167384640Y-92481400D01*
X167287739Y-92507364D01*
X167200860Y-92557524D01*
X167129924Y-92628460D01*
X167079764Y-92715339D01*
X167053800Y-92812240D01*
X167053800Y-92834953D01*
X166383058Y-92164211D01*
X166337701Y-92228990D01*
X166277458Y-92358181D01*
X166231285Y-92410620D01*
X166164092Y-92429772D01*
X166097211Y-92409556D01*
X166052694Y-92358181D01*
X166037706Y-92326039D01*
X165992334Y-92228739D01*
X165865626Y-92047780D01*
X165709420Y-91891574D01*
X165709416Y-91891571D01*
X165709415Y-91891570D01*
X165548177Y-91778670D01*
X165504552Y-91724093D01*
X165495300Y-91677095D01*
X165495300Y-83002496D01*
X165514985Y-82935457D01*
X165531614Y-82914820D01*
X167023121Y-81423312D01*
X167084442Y-81389829D01*
X167142895Y-81391221D01*
X167214724Y-81410468D01*
X167214725Y-81410468D01*
X167214732Y-81410470D01*
X167402026Y-81426855D01*
X167434798Y-81429723D01*
X167434800Y-81429723D01*
X167434802Y-81429723D01*
X167489817Y-81424909D01*
X167654868Y-81410470D01*
X167868250Y-81353294D01*
X168068462Y-81259934D01*
X168117176Y-81225823D01*
X168183382Y-81203496D01*
X168251149Y-81220506D01*
X168298962Y-81271453D01*
X168312300Y-81327398D01*
X168312300Y-83790730D01*
X168312299Y-83790748D01*
X168312299Y-83956454D01*
X168312298Y-83956454D01*
X168329594Y-84021002D01*
X168353223Y-84109185D01*
X168353224Y-84109186D01*
X168366465Y-84132122D01*
X168366466Y-84132123D01*
X168432275Y-84246109D01*
X168432281Y-84246117D01*
X168544084Y-84357920D01*
X168544085Y-84357922D01*
X168587298Y-84401135D01*
X168620783Y-84462458D01*
X168622837Y-84474932D01*
X168632630Y-84561849D01*
X168692210Y-84732121D01*
X168692211Y-84732122D01*
X168788184Y-84884862D01*
X168915738Y-85012416D01*
X169068478Y-85108389D01*
X169238745Y-85167968D01*
X169238750Y-85167969D01*
X169417996Y-85188165D01*
X169418000Y-85188165D01*
X169418004Y-85188165D01*
X169597249Y-85167969D01*
X169597252Y-85167968D01*
X169597255Y-85167968D01*
X169767522Y-85108389D01*
X169920262Y-85012416D01*
X170047816Y-84884862D01*
X170143789Y-84732122D01*
X170170598Y-84655503D01*
X170211319Y-84598729D01*
X170276272Y-84572981D01*
X170301523Y-84573239D01*
X170433996Y-84588165D01*
X170434000Y-84588165D01*
X170434004Y-84588165D01*
X170613249Y-84567969D01*
X170613252Y-84567968D01*
X170613255Y-84567968D01*
X170783522Y-84508389D01*
X170936262Y-84412416D01*
X171063816Y-84284862D01*
X171159789Y-84132122D01*
X171219368Y-83961855D01*
X171220354Y-83953110D01*
X171225740Y-83905300D01*
X171229769Y-83869537D01*
X171256834Y-83805125D01*
X171314429Y-83765569D01*
X171384266Y-83763430D01*
X171444173Y-83799388D01*
X171457982Y-83817448D01*
X171525747Y-83925295D01*
X171525749Y-83925297D01*
X171653303Y-84052851D01*
X171742956Y-84109184D01*
X171779463Y-84132123D01*
X171806043Y-84148824D01*
X171976310Y-84208403D01*
X171976315Y-84208404D01*
X172155561Y-84228600D01*
X172155565Y-84228600D01*
X172155569Y-84228600D01*
X172334814Y-84208404D01*
X172334817Y-84208403D01*
X172334820Y-84208403D01*
X172505087Y-84148824D01*
X172657827Y-84052851D01*
X172785381Y-83925297D01*
X172881354Y-83772557D01*
X172940933Y-83602290D01*
X172940934Y-83602284D01*
X172961130Y-83423038D01*
X172961130Y-83423031D01*
X172940934Y-83243785D01*
X172940933Y-83243780D01*
X172901537Y-83131192D01*
X172881354Y-83073513D01*
X172867576Y-83051586D01*
X172822591Y-82979993D01*
X172785381Y-82920773D01*
X172657827Y-82793219D01*
X172636867Y-82780049D01*
X172505086Y-82697245D01*
X172334814Y-82637665D01*
X172247897Y-82627872D01*
X172183483Y-82600805D01*
X172174100Y-82592333D01*
X172086819Y-82505052D01*
X172053334Y-82443729D01*
X172050500Y-82417371D01*
X172050500Y-81506627D01*
X172070185Y-81439588D01*
X172122989Y-81393833D01*
X172192147Y-81383889D01*
X172206585Y-81386851D01*
X172294732Y-81410470D01*
X172441543Y-81423314D01*
X172514798Y-81429723D01*
X172514800Y-81429723D01*
X172514802Y-81429723D01*
X172569817Y-81424909D01*
X172734868Y-81410470D01*
X172948250Y-81353294D01*
X173148462Y-81259934D01*
X173329420Y-81133226D01*
X173485626Y-80977020D01*
X173612334Y-80796062D01*
X173672418Y-80667211D01*
X173718590Y-80614771D01*
X173785783Y-80595619D01*
X173852665Y-80615835D01*
X173897182Y-80667211D01*
X173957264Y-80796058D01*
X173957268Y-80796066D01*
X174083970Y-80977015D01*
X174083975Y-80977021D01*
X174240178Y-81133224D01*
X174240184Y-81133229D01*
X174421133Y-81259931D01*
X174421135Y-81259932D01*
X174421138Y-81259934D01*
X174621350Y-81353294D01*
X174834732Y-81410470D01*
X174981543Y-81423314D01*
X175054798Y-81429723D01*
X175054800Y-81429723D01*
X175054802Y-81429723D01*
X175109817Y-81424909D01*
X175274868Y-81410470D01*
X175488250Y-81353294D01*
X175688462Y-81259934D01*
X175869420Y-81133226D01*
X176025626Y-80977020D01*
X176152334Y-80796062D01*
X176245694Y-80595850D01*
X176302870Y-80382468D01*
X176322123Y-80162400D01*
X176320930Y-80148769D01*
X176311026Y-80035558D01*
X176324793Y-79967058D01*
X176373408Y-79916875D01*
X176441437Y-79900942D01*
X176507280Y-79924317D01*
X176522235Y-79937070D01*
X181455339Y-84870174D01*
X181455349Y-84870185D01*
X181459679Y-84874515D01*
X181459680Y-84874516D01*
X181571484Y-84986320D01*
X181610298Y-85008729D01*
X181629765Y-85019968D01*
X181629764Y-85019968D01*
X181629767Y-85019969D01*
X181708409Y-85065374D01*
X181708410Y-85065375D01*
X181708412Y-85065375D01*
X181708415Y-85065377D01*
X181861143Y-85106301D01*
X181861146Y-85106301D01*
X182026853Y-85106301D01*
X182026869Y-85106300D01*
X200050331Y-85106300D01*
X200050347Y-85106301D01*
X200057943Y-85106301D01*
X200216054Y-85106301D01*
X200216057Y-85106301D01*
X200368785Y-85065377D01*
X200447435Y-85019968D01*
X200505716Y-84986320D01*
X200617520Y-84874516D01*
X200617520Y-84874514D01*
X200627724Y-84864311D01*
X200627728Y-84864306D01*
X200872270Y-84619763D01*
X200933591Y-84586280D01*
X200992038Y-84587670D01*
X201120392Y-84622063D01*
X201308718Y-84638539D01*
X201355799Y-84642659D01*
X201355800Y-84642659D01*
X201355801Y-84642659D01*
X201395034Y-84639226D01*
X201591208Y-84622063D01*
X201819463Y-84560903D01*
X202033630Y-84461035D01*
X202227201Y-84325495D01*
X202394295Y-84158401D01*
X202524530Y-83972405D01*
X202579107Y-83928781D01*
X202648605Y-83921587D01*
X202710960Y-83953110D01*
X202727679Y-83972405D01*
X202857690Y-84158078D01*
X203024717Y-84325105D01*
X203218221Y-84460600D01*
X203432307Y-84560429D01*
X203432316Y-84560433D01*
X203645800Y-84617634D01*
X203645800Y-83720012D01*
X203702807Y-83752925D01*
X203829974Y-83787000D01*
X203961626Y-83787000D01*
X204088793Y-83752925D01*
X204145800Y-83720012D01*
X204145800Y-84617633D01*
X204359283Y-84560433D01*
X204359292Y-84560429D01*
X204573378Y-84460600D01*
X204766882Y-84325105D01*
X204933905Y-84158082D01*
X205063919Y-83972405D01*
X205118496Y-83928781D01*
X205187995Y-83921588D01*
X205250349Y-83953110D01*
X205267069Y-83972405D01*
X205397305Y-84158401D01*
X205564399Y-84325495D01*
X205610707Y-84357920D01*
X205757965Y-84461032D01*
X205757967Y-84461033D01*
X205757970Y-84461035D01*
X205972137Y-84560903D01*
X205972143Y-84560904D01*
X205972144Y-84560905D01*
X205998504Y-84567968D01*
X206200392Y-84622063D01*
X206388718Y-84638539D01*
X206435799Y-84642659D01*
X206435800Y-84642659D01*
X206435801Y-84642659D01*
X206475034Y-84639226D01*
X206671208Y-84622063D01*
X206899463Y-84560903D01*
X207113630Y-84461035D01*
X207307201Y-84325495D01*
X207474295Y-84158401D01*
X207609835Y-83964830D01*
X207709703Y-83750663D01*
X207770863Y-83522408D01*
X207791459Y-83287000D01*
X207790627Y-83277496D01*
X207783864Y-83200187D01*
X207770863Y-83051592D01*
X207709703Y-82823337D01*
X207609835Y-82609171D01*
X207604531Y-82601595D01*
X207474294Y-82415597D01*
X207307202Y-82248506D01*
X207307195Y-82248501D01*
X207113634Y-82112967D01*
X207113630Y-82112965D01*
X207107885Y-82110286D01*
X206899463Y-82013097D01*
X206899459Y-82013096D01*
X206899455Y-82013094D01*
X206671213Y-81951938D01*
X206671203Y-81951936D01*
X206435801Y-81931341D01*
X206435799Y-81931341D01*
X206200396Y-81951936D01*
X206200386Y-81951938D01*
X205972144Y-82013094D01*
X205972135Y-82013098D01*
X205757971Y-82112964D01*
X205757969Y-82112965D01*
X205564397Y-82248505D01*
X205397308Y-82415594D01*
X205267069Y-82601595D01*
X205212492Y-82645219D01*
X205142993Y-82652412D01*
X205080639Y-82620890D01*
X205063919Y-82601594D01*
X204933913Y-82415926D01*
X204933908Y-82415920D01*
X204766882Y-82248894D01*
X204573378Y-82113399D01*
X204359292Y-82013570D01*
X204359286Y-82013567D01*
X204145800Y-81956364D01*
X204145800Y-82853988D01*
X204088793Y-82821075D01*
X203961626Y-82787000D01*
X203829974Y-82787000D01*
X203702807Y-82821075D01*
X203645800Y-82853988D01*
X203645800Y-81956364D01*
X203645799Y-81956364D01*
X203432313Y-82013567D01*
X203432307Y-82013570D01*
X203218222Y-82113399D01*
X203218220Y-82113400D01*
X203024726Y-82248886D01*
X203024720Y-82248891D01*
X202857691Y-82415920D01*
X202857690Y-82415922D01*
X202727680Y-82601595D01*
X202673103Y-82645219D01*
X202603604Y-82652412D01*
X202541250Y-82620890D01*
X202524530Y-82601594D01*
X202394294Y-82415597D01*
X202227202Y-82248506D01*
X202227195Y-82248501D01*
X202033634Y-82112967D01*
X202033630Y-82112965D01*
X202027885Y-82110286D01*
X201819463Y-82013097D01*
X201819459Y-82013096D01*
X201819455Y-82013094D01*
X201591213Y-81951938D01*
X201591203Y-81951936D01*
X201355801Y-81931341D01*
X201355799Y-81931341D01*
X201120396Y-81951936D01*
X201120386Y-81951938D01*
X200892144Y-82013094D01*
X200892135Y-82013098D01*
X200677971Y-82112964D01*
X200677969Y-82112965D01*
X200484397Y-82248505D01*
X200317305Y-82415597D01*
X200187375Y-82601158D01*
X200132798Y-82644783D01*
X200063300Y-82651977D01*
X200000945Y-82620454D01*
X199984225Y-82601158D01*
X199854294Y-82415597D01*
X199687202Y-82248506D01*
X199687195Y-82248501D01*
X199493634Y-82112967D01*
X199493630Y-82112965D01*
X199487885Y-82110286D01*
X199279463Y-82013097D01*
X199279459Y-82013096D01*
X199279455Y-82013094D01*
X199051213Y-81951938D01*
X199051203Y-81951936D01*
X198815801Y-81931341D01*
X198815799Y-81931341D01*
X198580396Y-81951936D01*
X198580383Y-81951939D01*
X198452041Y-81986327D01*
X198382192Y-81984664D01*
X198332268Y-81954233D01*
X195823190Y-79445155D01*
X195823188Y-79445152D01*
X195704317Y-79326281D01*
X195704309Y-79326275D01*
X195602536Y-79267517D01*
X195602534Y-79267516D01*
X195567390Y-79247225D01*
X195567389Y-79247224D01*
X195554863Y-79243867D01*
X195414657Y-79206299D01*
X195256543Y-79206299D01*
X195248947Y-79206299D01*
X195248931Y-79206300D01*
X194409812Y-79206300D01*
X194342773Y-79186615D01*
X194332497Y-79179245D01*
X194329663Y-79176985D01*
X194329662Y-79176984D01*
X194239194Y-79120139D01*
X194176923Y-79081011D01*
X194006654Y-79021431D01*
X194006649Y-79021430D01*
X193827404Y-79001235D01*
X193827396Y-79001235D01*
X193648150Y-79021430D01*
X193648145Y-79021431D01*
X193477876Y-79081011D01*
X193325139Y-79176983D01*
X193257759Y-79244363D01*
X193196435Y-79277847D01*
X193126744Y-79272862D01*
X193082397Y-79244362D01*
X192825990Y-78987955D01*
X192825988Y-78987952D01*
X192707117Y-78869081D01*
X192707109Y-78869075D01*
X192587293Y-78799900D01*
X192587293Y-78799899D01*
X192587288Y-78799898D01*
X192581320Y-78796452D01*
X192570186Y-78790023D01*
X192532003Y-78779792D01*
X192417457Y-78749099D01*
X192259343Y-78749099D01*
X192251747Y-78749099D01*
X192251731Y-78749100D01*
X191717412Y-78749100D01*
X191650373Y-78729415D01*
X191640097Y-78722045D01*
X191637263Y-78719785D01*
X191637262Y-78719784D01*
X191539922Y-78658621D01*
X191484523Y-78623811D01*
X191314254Y-78564231D01*
X191314250Y-78564230D01*
X191210616Y-78552554D01*
X191146202Y-78525487D01*
X191106647Y-78467892D01*
X191100500Y-78429334D01*
X191100500Y-77958347D01*
X191120185Y-77891308D01*
X191127555Y-77881032D01*
X191129810Y-77878202D01*
X191129816Y-77878197D01*
X191225789Y-77725457D01*
X191285368Y-77555190D01*
X191287208Y-77538861D01*
X191305565Y-77375938D01*
X191305565Y-77375931D01*
X191285369Y-77196685D01*
X191285368Y-77196680D01*
X191273390Y-77162450D01*
X191225789Y-77026413D01*
X191129816Y-76873673D01*
X191002262Y-76746119D01*
X190992108Y-76739739D01*
X190849523Y-76650146D01*
X190679254Y-76590566D01*
X190679249Y-76590565D01*
X190500004Y-76570370D01*
X190499996Y-76570370D01*
X190320750Y-76590565D01*
X190320745Y-76590566D01*
X190150476Y-76650146D01*
X189997737Y-76746119D01*
X189870184Y-76873672D01*
X189774211Y-77026411D01*
X189714631Y-77196680D01*
X189714630Y-77196685D01*
X189694435Y-77375931D01*
X189694435Y-77375938D01*
X189714630Y-77555184D01*
X189714631Y-77555189D01*
X189774211Y-77725458D01*
X189870185Y-77878198D01*
X189872445Y-77881032D01*
X189873334Y-77883210D01*
X189873889Y-77884093D01*
X189873734Y-77884190D01*
X189898855Y-77945718D01*
X189899500Y-77958347D01*
X189899500Y-78409859D01*
X189879815Y-78476898D01*
X189827011Y-78522653D01*
X189757853Y-78532597D01*
X189694297Y-78503572D01*
X189687819Y-78497540D01*
X189372419Y-78182140D01*
X189338934Y-78120817D01*
X189336100Y-78094459D01*
X189336100Y-74071259D01*
X189336101Y-74071246D01*
X189336101Y-73903145D01*
X189336101Y-73903143D01*
X189295177Y-73750415D01*
X189248901Y-73670263D01*
X189216120Y-73613484D01*
X189104316Y-73501680D01*
X189104315Y-73501679D01*
X189099985Y-73497349D01*
X189099974Y-73497339D01*
X188447590Y-72844955D01*
X188447588Y-72844952D01*
X188328717Y-72726081D01*
X188328716Y-72726080D01*
X188235271Y-72672130D01*
X188191785Y-72647023D01*
X188039057Y-72606099D01*
X187880943Y-72606099D01*
X187873347Y-72606099D01*
X187873331Y-72606100D01*
X187304897Y-72606100D01*
X187237858Y-72586415D01*
X187192103Y-72533611D01*
X187181369Y-72471294D01*
X187195323Y-72311800D01*
X187195316Y-72311724D01*
X187182752Y-72168106D01*
X187176070Y-72091732D01*
X187118894Y-71878350D01*
X187025534Y-71678139D01*
X186991421Y-71629420D01*
X186969095Y-71563216D01*
X186986107Y-71495449D01*
X187037055Y-71447637D01*
X187092998Y-71434300D01*
X188745478Y-71434300D01*
X188812517Y-71453985D01*
X188858272Y-71506789D01*
X188868698Y-71544417D01*
X188876430Y-71613049D01*
X188936010Y-71783321D01*
X189018184Y-71914100D01*
X189031984Y-71936062D01*
X189159538Y-72063616D01*
X189312278Y-72159589D01*
X189441978Y-72204973D01*
X189482545Y-72219168D01*
X189482550Y-72219169D01*
X189661796Y-72239365D01*
X189661800Y-72239365D01*
X189661804Y-72239365D01*
X189841049Y-72219169D01*
X189841052Y-72219168D01*
X189841055Y-72219168D01*
X190011322Y-72159589D01*
X190164062Y-72063616D01*
X190291616Y-71936062D01*
X190309043Y-71908327D01*
X190361376Y-71862037D01*
X190414036Y-71850300D01*
X194743022Y-71850300D01*
X194810061Y-71869985D01*
X194855816Y-71922789D01*
X194865760Y-71991947D01*
X194862798Y-72006385D01*
X194859180Y-72019892D01*
X194839930Y-72091730D01*
X194839929Y-72091737D01*
X194820677Y-72311797D01*
X194820677Y-72311802D01*
X194839929Y-72531862D01*
X194839930Y-72531870D01*
X194897104Y-72745245D01*
X194897105Y-72745247D01*
X194897106Y-72745250D01*
X194989188Y-72942722D01*
X194990466Y-72945462D01*
X194990468Y-72945466D01*
X195117170Y-73126415D01*
X195117175Y-73126421D01*
X195273378Y-73282624D01*
X195273384Y-73282629D01*
X195454333Y-73409331D01*
X195454335Y-73409332D01*
X195454338Y-73409334D01*
X195524408Y-73442008D01*
X195583189Y-73469418D01*
X195635628Y-73515590D01*
X195654780Y-73582784D01*
X195634564Y-73649665D01*
X195583189Y-73694182D01*
X195454340Y-73754265D01*
X195454338Y-73754266D01*
X195273377Y-73880975D01*
X195117175Y-74037177D01*
X194990466Y-74218138D01*
X194990465Y-74218140D01*
X194897107Y-74418348D01*
X194897104Y-74418354D01*
X194839930Y-74631729D01*
X194839929Y-74631737D01*
X194820677Y-74851797D01*
X194820677Y-74851802D01*
X194839929Y-75071862D01*
X194839930Y-75071870D01*
X194897104Y-75285245D01*
X194897105Y-75285247D01*
X194897106Y-75285250D01*
X194972180Y-75446247D01*
X194990466Y-75485462D01*
X194990468Y-75485466D01*
X195117170Y-75666415D01*
X195117175Y-75666421D01*
X195273378Y-75822624D01*
X195273384Y-75822629D01*
X195454333Y-75949331D01*
X195454335Y-75949332D01*
X195454338Y-75949334D01*
X195524408Y-75982008D01*
X195583781Y-76009694D01*
X195636220Y-76055866D01*
X195655372Y-76123060D01*
X195635156Y-76189941D01*
X195583781Y-76234458D01*
X195454590Y-76294701D01*
X195389811Y-76340058D01*
X196060553Y-77010800D01*
X196037840Y-77010800D01*
X195940939Y-77036764D01*
X195854060Y-77086924D01*
X195783124Y-77157860D01*
X195732964Y-77244739D01*
X195707000Y-77341640D01*
X195707000Y-77364353D01*
X195036258Y-76693611D01*
X194990901Y-76758390D01*
X194897579Y-76958520D01*
X194897575Y-76958529D01*
X194840426Y-77171813D01*
X194840424Y-77171823D01*
X194821179Y-77391799D01*
X194821179Y-77391800D01*
X194840424Y-77611776D01*
X194840426Y-77611786D01*
X194897575Y-77825070D01*
X194897580Y-77825084D01*
X194990898Y-78025205D01*
X194990901Y-78025211D01*
X195036258Y-78089987D01*
X195036259Y-78089988D01*
X195707000Y-77419247D01*
X195707000Y-77441960D01*
X195732964Y-77538861D01*
X195783124Y-77625740D01*
X195854060Y-77696676D01*
X195940939Y-77746836D01*
X196037840Y-77772800D01*
X196060553Y-77772800D01*
X195389810Y-78443540D01*
X195454590Y-78488899D01*
X195454592Y-78488900D01*
X195654715Y-78582219D01*
X195654729Y-78582224D01*
X195868013Y-78639373D01*
X195868023Y-78639375D01*
X196087999Y-78658621D01*
X196088001Y-78658621D01*
X196307976Y-78639375D01*
X196307986Y-78639373D01*
X196521270Y-78582224D01*
X196521284Y-78582219D01*
X196721407Y-78488900D01*
X196721417Y-78488894D01*
X196786188Y-78443541D01*
X196115448Y-77772800D01*
X196138160Y-77772800D01*
X196235061Y-77746836D01*
X196321940Y-77696676D01*
X196392876Y-77625740D01*
X196443036Y-77538861D01*
X196469000Y-77441960D01*
X196469000Y-77419247D01*
X197139741Y-78089988D01*
X197185094Y-78025217D01*
X197185100Y-78025207D01*
X197278419Y-77825084D01*
X197278424Y-77825070D01*
X197335573Y-77611786D01*
X197335575Y-77611776D01*
X197354821Y-77391800D01*
X197354821Y-77391799D01*
X197335575Y-77171823D01*
X197335573Y-77171813D01*
X197278424Y-76958529D01*
X197278420Y-76958520D01*
X197185096Y-76758386D01*
X197139741Y-76693611D01*
X197139740Y-76693610D01*
X196469000Y-77364351D01*
X196469000Y-77341640D01*
X196443036Y-77244739D01*
X196392876Y-77157860D01*
X196321940Y-77086924D01*
X196235061Y-77036764D01*
X196138160Y-77010800D01*
X196115448Y-77010800D01*
X196786188Y-76340059D01*
X196786187Y-76340058D01*
X196721411Y-76294701D01*
X196721405Y-76294698D01*
X196592219Y-76234458D01*
X196539779Y-76188286D01*
X196520627Y-76121093D01*
X196540843Y-76054211D01*
X196592219Y-76009694D01*
X196651581Y-75982013D01*
X196721662Y-75949334D01*
X196902620Y-75822626D01*
X197058826Y-75666420D01*
X197185534Y-75485462D01*
X197278894Y-75285250D01*
X197336070Y-75071868D01*
X197355323Y-74851800D01*
X197355054Y-74848729D01*
X197342752Y-74708106D01*
X197336070Y-74631732D01*
X197278894Y-74418350D01*
X197185534Y-74218139D01*
X197071280Y-74054966D01*
X197058827Y-74037181D01*
X196995946Y-73974300D01*
X196902620Y-73880974D01*
X196902616Y-73880971D01*
X196902615Y-73880970D01*
X196721666Y-73754268D01*
X196721658Y-73754264D01*
X196592811Y-73694182D01*
X196540371Y-73648010D01*
X196521219Y-73580817D01*
X196541435Y-73513935D01*
X196592811Y-73469418D01*
X196651581Y-73442013D01*
X196721662Y-73409334D01*
X196902620Y-73282626D01*
X197058826Y-73126420D01*
X197185534Y-72945462D01*
X197278894Y-72745250D01*
X197336070Y-72531868D01*
X197351970Y-72350130D01*
X197355323Y-72311802D01*
X197355323Y-72311797D01*
X197342752Y-72168106D01*
X197336070Y-72091732D01*
X197313203Y-72006392D01*
X197314866Y-71936544D01*
X197354028Y-71878681D01*
X197418256Y-71851177D01*
X197432978Y-71850300D01*
X199450931Y-71850300D01*
X199450947Y-71850301D01*
X199458543Y-71850301D01*
X199616653Y-71850301D01*
X199616657Y-71850301D01*
X199641440Y-71843660D01*
X199711284Y-71845321D01*
X199769148Y-71884481D01*
X199796655Y-71948708D01*
X199793307Y-71995526D01*
X199767532Y-72091723D01*
X199767529Y-72091737D01*
X199748277Y-72311797D01*
X199748277Y-72311802D01*
X199767529Y-72531862D01*
X199767530Y-72531870D01*
X199824704Y-72745245D01*
X199824705Y-72745247D01*
X199824706Y-72745250D01*
X199916788Y-72942722D01*
X199918066Y-72945462D01*
X199918068Y-72945466D01*
X200044770Y-73126415D01*
X200044775Y-73126421D01*
X200200978Y-73282624D01*
X200200984Y-73282629D01*
X200381933Y-73409331D01*
X200381935Y-73409332D01*
X200381938Y-73409334D01*
X200452008Y-73442008D01*
X200510789Y-73469418D01*
X200563228Y-73515590D01*
X200582380Y-73582784D01*
X200562164Y-73649665D01*
X200510789Y-73694182D01*
X200381940Y-73754265D01*
X200381938Y-73754266D01*
X200200977Y-73880975D01*
X200044775Y-74037177D01*
X199918066Y-74218138D01*
X199918065Y-74218140D01*
X199824707Y-74418348D01*
X199824704Y-74418354D01*
X199767530Y-74631729D01*
X199767529Y-74631737D01*
X199748277Y-74851797D01*
X199748277Y-74851802D01*
X199767529Y-75071862D01*
X199767530Y-75071870D01*
X199824704Y-75285245D01*
X199824705Y-75285247D01*
X199824706Y-75285250D01*
X199899780Y-75446247D01*
X199918066Y-75485462D01*
X199918068Y-75485466D01*
X200044770Y-75666415D01*
X200044775Y-75666421D01*
X200200978Y-75822624D01*
X200200984Y-75822629D01*
X200381933Y-75949331D01*
X200381935Y-75949332D01*
X200381938Y-75949334D01*
X200452008Y-75982008D01*
X200511381Y-76009694D01*
X200563820Y-76055866D01*
X200582972Y-76123060D01*
X200562756Y-76189941D01*
X200511381Y-76234458D01*
X200382190Y-76294701D01*
X200317411Y-76340058D01*
X200988153Y-77010800D01*
X200965440Y-77010800D01*
X200868539Y-77036764D01*
X200781660Y-77086924D01*
X200710724Y-77157860D01*
X200660564Y-77244739D01*
X200634600Y-77341640D01*
X200634600Y-77364353D01*
X199963858Y-76693611D01*
X199918501Y-76758390D01*
X199825179Y-76958520D01*
X199825175Y-76958529D01*
X199768026Y-77171813D01*
X199768024Y-77171823D01*
X199748779Y-77391799D01*
X199748779Y-77391800D01*
X199768024Y-77611776D01*
X199768026Y-77611786D01*
X199825175Y-77825070D01*
X199825180Y-77825084D01*
X199918498Y-78025205D01*
X199918501Y-78025211D01*
X199963858Y-78089987D01*
X199963859Y-78089988D01*
X200634600Y-77419247D01*
X200634600Y-77441960D01*
X200660564Y-77538861D01*
X200710724Y-77625740D01*
X200781660Y-77696676D01*
X200868539Y-77746836D01*
X200965440Y-77772800D01*
X200988153Y-77772800D01*
X200317410Y-78443540D01*
X200382190Y-78488899D01*
X200382192Y-78488900D01*
X200582315Y-78582219D01*
X200582329Y-78582224D01*
X200795613Y-78639373D01*
X200795623Y-78639375D01*
X201015599Y-78658621D01*
X201015601Y-78658621D01*
X201235576Y-78639375D01*
X201235586Y-78639373D01*
X201448870Y-78582224D01*
X201448884Y-78582219D01*
X201649007Y-78488900D01*
X201649017Y-78488894D01*
X201713788Y-78443541D01*
X201043048Y-77772800D01*
X201065760Y-77772800D01*
X201162661Y-77746836D01*
X201249540Y-77696676D01*
X201320476Y-77625740D01*
X201370636Y-77538861D01*
X201396600Y-77441960D01*
X201396600Y-77419247D01*
X202067341Y-78089988D01*
X202112694Y-78025217D01*
X202112700Y-78025207D01*
X202206019Y-77825084D01*
X202206024Y-77825070D01*
X202263173Y-77611786D01*
X202263175Y-77611776D01*
X202282421Y-77391800D01*
X202282421Y-77391799D01*
X202263175Y-77171823D01*
X202263173Y-77171813D01*
X202206024Y-76958529D01*
X202206020Y-76958520D01*
X202112696Y-76758386D01*
X202067341Y-76693611D01*
X202067340Y-76693610D01*
X201396600Y-77364351D01*
X201396600Y-77341640D01*
X201370636Y-77244739D01*
X201320476Y-77157860D01*
X201249540Y-77086924D01*
X201162661Y-77036764D01*
X201065760Y-77010800D01*
X201043048Y-77010800D01*
X201713788Y-76340059D01*
X201713787Y-76340058D01*
X201649011Y-76294701D01*
X201649005Y-76294698D01*
X201519819Y-76234458D01*
X201467379Y-76188286D01*
X201448227Y-76121093D01*
X201468443Y-76054211D01*
X201519819Y-76009694D01*
X201579181Y-75982013D01*
X201649262Y-75949334D01*
X201830220Y-75822626D01*
X201986426Y-75666420D01*
X202113134Y-75485462D01*
X202206494Y-75285250D01*
X202263670Y-75071868D01*
X202282923Y-74851800D01*
X202282654Y-74848729D01*
X202270352Y-74708106D01*
X202263670Y-74631732D01*
X202206494Y-74418350D01*
X202113134Y-74218139D01*
X201998880Y-74054966D01*
X201986427Y-74037181D01*
X201923546Y-73974300D01*
X201830220Y-73880974D01*
X201830216Y-73880971D01*
X201830215Y-73880970D01*
X201649266Y-73754268D01*
X201649258Y-73754264D01*
X201520411Y-73694182D01*
X201467971Y-73648010D01*
X201448819Y-73580817D01*
X201469035Y-73513935D01*
X201520411Y-73469418D01*
X201579181Y-73442013D01*
X201649262Y-73409334D01*
X201830220Y-73282626D01*
X201986426Y-73126420D01*
X202113134Y-72945462D01*
X202206494Y-72745250D01*
X202263670Y-72531868D01*
X202279570Y-72350130D01*
X202282923Y-72311802D01*
X202282923Y-72311797D01*
X202270352Y-72168106D01*
X202263670Y-72091732D01*
X202206494Y-71878350D01*
X202113134Y-71678139D01*
X202026578Y-71554523D01*
X201986427Y-71497181D01*
X201923546Y-71434300D01*
X201830220Y-71340974D01*
X201830216Y-71340971D01*
X201830215Y-71340970D01*
X201649266Y-71214268D01*
X201649258Y-71214264D01*
X201520411Y-71154182D01*
X201467971Y-71108010D01*
X201448819Y-71040817D01*
X201469035Y-70973935D01*
X201520411Y-70929418D01*
X201526402Y-70926624D01*
X201649262Y-70869334D01*
X201830220Y-70742626D01*
X201986426Y-70586420D01*
X202113134Y-70405462D01*
X202206494Y-70205250D01*
X202263670Y-69991868D01*
X202280876Y-69795197D01*
X202282923Y-69771802D01*
X202282923Y-69771797D01*
X202272318Y-69650581D01*
X202263670Y-69551732D01*
X202206494Y-69338350D01*
X202113134Y-69138139D01*
X201986426Y-68957180D01*
X201830220Y-68800974D01*
X201830216Y-68800971D01*
X201830215Y-68800970D01*
X201649266Y-68674268D01*
X201649258Y-68674264D01*
X201520411Y-68614182D01*
X201467971Y-68568010D01*
X201448819Y-68500817D01*
X201469035Y-68433935D01*
X201520411Y-68389418D01*
X201552317Y-68374540D01*
X201649262Y-68329334D01*
X201830220Y-68202626D01*
X201986426Y-68046420D01*
X202113134Y-67865462D01*
X202206494Y-67665250D01*
X202263670Y-67451868D01*
X202281253Y-67250886D01*
X202282923Y-67231802D01*
X202282923Y-67231797D01*
X202270352Y-67088106D01*
X202263670Y-67011732D01*
X202206494Y-66798350D01*
X202113134Y-66598139D01*
X201986426Y-66417180D01*
X201830220Y-66260974D01*
X201830216Y-66260971D01*
X201830215Y-66260970D01*
X201649266Y-66134268D01*
X201649258Y-66134264D01*
X201520411Y-66074182D01*
X201467971Y-66028010D01*
X201448819Y-65960817D01*
X201469035Y-65893935D01*
X201520411Y-65849418D01*
X201579181Y-65822013D01*
X201649262Y-65789334D01*
X201830220Y-65662626D01*
X201986426Y-65506420D01*
X202113134Y-65325462D01*
X202206494Y-65125250D01*
X202263670Y-64911868D01*
X202282923Y-64691800D01*
X202263670Y-64471732D01*
X202206494Y-64258350D01*
X202113134Y-64058139D01*
X201986426Y-63877180D01*
X201830220Y-63720974D01*
X201830216Y-63720971D01*
X201830215Y-63720970D01*
X201649266Y-63594268D01*
X201649262Y-63594266D01*
X201649260Y-63594265D01*
X201449050Y-63500906D01*
X201449047Y-63500905D01*
X201449045Y-63500904D01*
X201312693Y-63464369D01*
X201278752Y-63455274D01*
X201219093Y-63418910D01*
X201188564Y-63356063D01*
X201196859Y-63286687D01*
X201241344Y-63232810D01*
X201307896Y-63211535D01*
X201310847Y-63211500D01*
X210880353Y-63211500D01*
X210947392Y-63231185D01*
X210993147Y-63283989D01*
X211003091Y-63353147D01*
X210974066Y-63416703D01*
X210915288Y-63454477D01*
X210912471Y-63455268D01*
X210883698Y-63462978D01*
X210742154Y-63500904D01*
X210742148Y-63500907D01*
X210541940Y-63594265D01*
X210541938Y-63594266D01*
X210360977Y-63720975D01*
X210204775Y-63877177D01*
X210078066Y-64058138D01*
X210078065Y-64058140D01*
X209984707Y-64258348D01*
X209984704Y-64258354D01*
X209927530Y-64471729D01*
X209927529Y-64471737D01*
X209908277Y-64691797D01*
X209908277Y-64691802D01*
X209927529Y-64911862D01*
X209927530Y-64911870D01*
X209984704Y-65125245D01*
X209984708Y-65125256D01*
X210069056Y-65306141D01*
X210079548Y-65375218D01*
X210051028Y-65439002D01*
X210044355Y-65446226D01*
X209079686Y-66410897D01*
X208967881Y-66522701D01*
X208967880Y-66522703D01*
X208924328Y-66598139D01*
X208917761Y-66609513D01*
X208917759Y-66609515D01*
X208888825Y-66659628D01*
X208888824Y-66659629D01*
X208887012Y-66666393D01*
X208847899Y-66812362D01*
X208847899Y-66812364D01*
X208847899Y-66980465D01*
X208847900Y-66980478D01*
X208847900Y-70497930D01*
X208847899Y-70497948D01*
X208847899Y-70663654D01*
X208847898Y-70663654D01*
X208878231Y-70776855D01*
X208888823Y-70816385D01*
X208896328Y-70829384D01*
X208967877Y-70953312D01*
X208967881Y-70953317D01*
X209086749Y-71072185D01*
X209086755Y-71072190D01*
X209914684Y-71900119D01*
X209948169Y-71961442D01*
X209946778Y-72019892D01*
X209927532Y-72091723D01*
X209927529Y-72091737D01*
X209908277Y-72311797D01*
X209908277Y-72311802D01*
X209927529Y-72531862D01*
X209927530Y-72531870D01*
X209984704Y-72745245D01*
X209984705Y-72745247D01*
X209984706Y-72745250D01*
X210076788Y-72942722D01*
X210078066Y-72945462D01*
X210078068Y-72945466D01*
X210204770Y-73126415D01*
X210204775Y-73126421D01*
X210360978Y-73282624D01*
X210360984Y-73282629D01*
X210541933Y-73409331D01*
X210541935Y-73409332D01*
X210541938Y-73409334D01*
X210612008Y-73442008D01*
X210670789Y-73469418D01*
X210723228Y-73515590D01*
X210742380Y-73582784D01*
X210722164Y-73649665D01*
X210670789Y-73694182D01*
X210541940Y-73754265D01*
X210541938Y-73754266D01*
X210360977Y-73880975D01*
X210204775Y-74037177D01*
X210078066Y-74218138D01*
X210078065Y-74218140D01*
X209984707Y-74418348D01*
X209984704Y-74418354D01*
X209927530Y-74631729D01*
X209927529Y-74631737D01*
X209908277Y-74851797D01*
X209908277Y-74851802D01*
X209927529Y-75071862D01*
X209927530Y-75071870D01*
X209984704Y-75285245D01*
X209984705Y-75285247D01*
X209984706Y-75285250D01*
X210059780Y-75446247D01*
X210078066Y-75485462D01*
X210078068Y-75485466D01*
X210204770Y-75666415D01*
X210204775Y-75666421D01*
X210360978Y-75822624D01*
X210360984Y-75822629D01*
X210541933Y-75949331D01*
X210541935Y-75949332D01*
X210541938Y-75949334D01*
X210612008Y-75982008D01*
X210671381Y-76009694D01*
X210723820Y-76055866D01*
X210742972Y-76123060D01*
X210722756Y-76189941D01*
X210671381Y-76234458D01*
X210542190Y-76294701D01*
X210477411Y-76340058D01*
X211148153Y-77010800D01*
X211125440Y-77010800D01*
X211028539Y-77036764D01*
X210941660Y-77086924D01*
X210870724Y-77157860D01*
X210820564Y-77244739D01*
X210794600Y-77341640D01*
X210794600Y-77364352D01*
X210123858Y-76693611D01*
X210078501Y-76758390D01*
X209985179Y-76958520D01*
X209985175Y-76958529D01*
X209928026Y-77171813D01*
X209928024Y-77171823D01*
X209908779Y-77391799D01*
X209908779Y-77391800D01*
X209928024Y-77611776D01*
X209928026Y-77611786D01*
X209985175Y-77825070D01*
X209985180Y-77825084D01*
X210078498Y-78025205D01*
X210078501Y-78025211D01*
X210123858Y-78089987D01*
X210123859Y-78089988D01*
X210794600Y-77419247D01*
X210794600Y-77441960D01*
X210820564Y-77538861D01*
X210870724Y-77625740D01*
X210941660Y-77696676D01*
X211028539Y-77746836D01*
X211125440Y-77772800D01*
X211148153Y-77772800D01*
X210477410Y-78443540D01*
X210542190Y-78488899D01*
X210542192Y-78488900D01*
X210742315Y-78582219D01*
X210742329Y-78582224D01*
X210955613Y-78639373D01*
X210955623Y-78639375D01*
X211175599Y-78658621D01*
X211175601Y-78658621D01*
X211395576Y-78639375D01*
X211395586Y-78639373D01*
X211608870Y-78582224D01*
X211608884Y-78582219D01*
X211809007Y-78488900D01*
X211809017Y-78488894D01*
X211873788Y-78443541D01*
X211203048Y-77772800D01*
X211225760Y-77772800D01*
X211322661Y-77746836D01*
X211409540Y-77696676D01*
X211480476Y-77625740D01*
X211530636Y-77538861D01*
X211556600Y-77441960D01*
X211556600Y-77419247D01*
X212227341Y-78089988D01*
X212272694Y-78025217D01*
X212272700Y-78025207D01*
X212366019Y-77825084D01*
X212366024Y-77825070D01*
X212423173Y-77611786D01*
X212423175Y-77611776D01*
X212442421Y-77391800D01*
X212442421Y-77391799D01*
X212423175Y-77171823D01*
X212423173Y-77171813D01*
X212366024Y-76958529D01*
X212366020Y-76958520D01*
X212272696Y-76758386D01*
X212227341Y-76693611D01*
X212227340Y-76693610D01*
X211556600Y-77364351D01*
X211556600Y-77341640D01*
X211530636Y-77244739D01*
X211480476Y-77157860D01*
X211409540Y-77086924D01*
X211322661Y-77036764D01*
X211225760Y-77010800D01*
X211203048Y-77010800D01*
X211873788Y-76340059D01*
X211873787Y-76340058D01*
X211809011Y-76294701D01*
X211809005Y-76294698D01*
X211679819Y-76234458D01*
X211627379Y-76188286D01*
X211608227Y-76121093D01*
X211628443Y-76054211D01*
X211679819Y-76009694D01*
X211739181Y-75982013D01*
X211809262Y-75949334D01*
X211990220Y-75822626D01*
X212146426Y-75666420D01*
X212273134Y-75485462D01*
X212366494Y-75285250D01*
X212423670Y-75071868D01*
X212442923Y-74851800D01*
X212442654Y-74848729D01*
X212430352Y-74708106D01*
X212423670Y-74631732D01*
X212366494Y-74418350D01*
X212273134Y-74218139D01*
X212158880Y-74054966D01*
X212146427Y-74037181D01*
X212083546Y-73974300D01*
X211990220Y-73880974D01*
X211990216Y-73880971D01*
X211990215Y-73880970D01*
X211809266Y-73754268D01*
X211809258Y-73754264D01*
X211680411Y-73694182D01*
X211627971Y-73648010D01*
X211608819Y-73580817D01*
X211629035Y-73513935D01*
X211680411Y-73469418D01*
X211739181Y-73442013D01*
X211809262Y-73409334D01*
X211990220Y-73282626D01*
X212146426Y-73126420D01*
X212273134Y-72945462D01*
X212366494Y-72745250D01*
X212423670Y-72531868D01*
X212439570Y-72350130D01*
X212442923Y-72311802D01*
X212442923Y-72311797D01*
X212430352Y-72168106D01*
X212423670Y-72091732D01*
X212366494Y-71878350D01*
X212273134Y-71678139D01*
X212186578Y-71554523D01*
X212146427Y-71497181D01*
X212083546Y-71434300D01*
X211990220Y-71340974D01*
X211990216Y-71340971D01*
X211990215Y-71340970D01*
X211809266Y-71214268D01*
X211809258Y-71214264D01*
X211680411Y-71154182D01*
X211627971Y-71108010D01*
X211608819Y-71040817D01*
X211629035Y-70973935D01*
X211680411Y-70929418D01*
X211686402Y-70926624D01*
X211809262Y-70869334D01*
X211990220Y-70742626D01*
X212146426Y-70586420D01*
X212273134Y-70405462D01*
X212366494Y-70205250D01*
X212423670Y-69991868D01*
X212440876Y-69795197D01*
X212442923Y-69771802D01*
X212442923Y-69771797D01*
X212432318Y-69650581D01*
X212423670Y-69551732D01*
X212366494Y-69338350D01*
X212273134Y-69138139D01*
X212146426Y-68957180D01*
X211990220Y-68800974D01*
X211990216Y-68800971D01*
X211990215Y-68800970D01*
X211809266Y-68674268D01*
X211809258Y-68674264D01*
X211680411Y-68614182D01*
X211627971Y-68568010D01*
X211608819Y-68500817D01*
X211629035Y-68433935D01*
X211680411Y-68389418D01*
X211712317Y-68374540D01*
X211809262Y-68329334D01*
X211990220Y-68202626D01*
X212146426Y-68046420D01*
X212255122Y-67891186D01*
X212259330Y-67885177D01*
X212313907Y-67841552D01*
X212360905Y-67832300D01*
X220489331Y-67832300D01*
X220489347Y-67832301D01*
X220496943Y-67832301D01*
X220655054Y-67832301D01*
X220655057Y-67832301D01*
X220807785Y-67791377D01*
X220857904Y-67762439D01*
X220944716Y-67712320D01*
X221056520Y-67600516D01*
X221056520Y-67600514D01*
X221066728Y-67590307D01*
X221066729Y-67590304D01*
X223070434Y-65586599D01*
X244999341Y-65586599D01*
X244999341Y-65586600D01*
X245019936Y-65822003D01*
X245019938Y-65822013D01*
X245081094Y-66050255D01*
X245081096Y-66050259D01*
X245081097Y-66050263D01*
X245126106Y-66146784D01*
X245180965Y-66264430D01*
X245180967Y-66264434D01*
X245289281Y-66419121D01*
X245294852Y-66427078D01*
X245316501Y-66457995D01*
X245316506Y-66458002D01*
X245483597Y-66625093D01*
X245483603Y-66625098D01*
X245669158Y-66755025D01*
X245712783Y-66809602D01*
X245719977Y-66879100D01*
X245688454Y-66941455D01*
X245669158Y-66958175D01*
X245483597Y-67088105D01*
X245316505Y-67255197D01*
X245180965Y-67448769D01*
X245180964Y-67448771D01*
X245081098Y-67662935D01*
X245081094Y-67662944D01*
X245019938Y-67891186D01*
X245019936Y-67891196D01*
X244999341Y-68126599D01*
X244999341Y-68126600D01*
X245019936Y-68362003D01*
X245019938Y-68362013D01*
X245081094Y-68590255D01*
X245081096Y-68590259D01*
X245081097Y-68590263D01*
X245129685Y-68694459D01*
X245180965Y-68804430D01*
X245180967Y-68804434D01*
X245316501Y-68997995D01*
X245316506Y-68998002D01*
X245483597Y-69165093D01*
X245483603Y-69165098D01*
X245669158Y-69295025D01*
X245712783Y-69349602D01*
X245719977Y-69419100D01*
X245688454Y-69481455D01*
X245669158Y-69498175D01*
X245483597Y-69628105D01*
X245316505Y-69795197D01*
X245180965Y-69988769D01*
X245180964Y-69988771D01*
X245107155Y-70147056D01*
X245082690Y-70199522D01*
X245081098Y-70202935D01*
X245081094Y-70202944D01*
X245019938Y-70431186D01*
X245019936Y-70431196D01*
X244999341Y-70666599D01*
X244999341Y-70666600D01*
X245019936Y-70902003D01*
X245019938Y-70902013D01*
X245081094Y-71130255D01*
X245081096Y-71130259D01*
X245081097Y-71130263D01*
X245149591Y-71277148D01*
X245180965Y-71344430D01*
X245180967Y-71344434D01*
X245316501Y-71537995D01*
X245316506Y-71538002D01*
X245483597Y-71705093D01*
X245483603Y-71705098D01*
X245669158Y-71835025D01*
X245712783Y-71889602D01*
X245719977Y-71959100D01*
X245688454Y-72021455D01*
X245669158Y-72038175D01*
X245483597Y-72168105D01*
X245316505Y-72335197D01*
X245180965Y-72528769D01*
X245180964Y-72528771D01*
X245081098Y-72742935D01*
X245081094Y-72742944D01*
X245019938Y-72971186D01*
X245019936Y-72971196D01*
X244999341Y-73206599D01*
X244999341Y-73206600D01*
X245019936Y-73442003D01*
X245019938Y-73442013D01*
X245081094Y-73670255D01*
X245081096Y-73670259D01*
X245081097Y-73670263D01*
X245171654Y-73864463D01*
X245180965Y-73884430D01*
X245180967Y-73884434D01*
X245316501Y-74077995D01*
X245316506Y-74078002D01*
X245483597Y-74245093D01*
X245483603Y-74245098D01*
X245669158Y-74375025D01*
X245712783Y-74429602D01*
X245719977Y-74499100D01*
X245688454Y-74561455D01*
X245669158Y-74578175D01*
X245483597Y-74708105D01*
X245316505Y-74875197D01*
X245180965Y-75068769D01*
X245180964Y-75068771D01*
X245081098Y-75282935D01*
X245081094Y-75282944D01*
X245019938Y-75511186D01*
X245019936Y-75511196D01*
X244999341Y-75746599D01*
X244999341Y-75746600D01*
X245019936Y-75982003D01*
X245019938Y-75982013D01*
X245081094Y-76210255D01*
X245081096Y-76210259D01*
X245081097Y-76210263D01*
X245124155Y-76302600D01*
X245180965Y-76424430D01*
X245180967Y-76424434D01*
X245283153Y-76570370D01*
X245297295Y-76590567D01*
X245316501Y-76617995D01*
X245316506Y-76618002D01*
X245483597Y-76785093D01*
X245483603Y-76785098D01*
X245669158Y-76915025D01*
X245712783Y-76969602D01*
X245719977Y-77039100D01*
X245688454Y-77101455D01*
X245669158Y-77118175D01*
X245483597Y-77248105D01*
X245316505Y-77415197D01*
X245180965Y-77608769D01*
X245180964Y-77608771D01*
X245081098Y-77822935D01*
X245081094Y-77822944D01*
X245019938Y-78051186D01*
X245019936Y-78051196D01*
X244999341Y-78286599D01*
X244999341Y-78286600D01*
X245019936Y-78522003D01*
X245019936Y-78522005D01*
X245019937Y-78522008D01*
X245031251Y-78564232D01*
X245081094Y-78750255D01*
X245081096Y-78750259D01*
X245081097Y-78750263D01*
X245157833Y-78914824D01*
X245180965Y-78964430D01*
X245180967Y-78964434D01*
X245316501Y-79157995D01*
X245316506Y-79158002D01*
X245483597Y-79325093D01*
X245483603Y-79325098D01*
X245669158Y-79455025D01*
X245712783Y-79509602D01*
X245719977Y-79579100D01*
X245688454Y-79641455D01*
X245669158Y-79658175D01*
X245483597Y-79788105D01*
X245316505Y-79955197D01*
X245180965Y-80148769D01*
X245180964Y-80148771D01*
X245081098Y-80362935D01*
X245081094Y-80362944D01*
X245019938Y-80591186D01*
X245019936Y-80591196D01*
X244999341Y-80826599D01*
X244999341Y-80826600D01*
X245019936Y-81062003D01*
X245019938Y-81062013D01*
X245081094Y-81290255D01*
X245081096Y-81290259D01*
X245081097Y-81290263D01*
X245149328Y-81436585D01*
X245180965Y-81504430D01*
X245180967Y-81504434D01*
X245316501Y-81697995D01*
X245316506Y-81698002D01*
X245483597Y-81865093D01*
X245483603Y-81865098D01*
X245669158Y-81995025D01*
X245712783Y-82049602D01*
X245719977Y-82119100D01*
X245688454Y-82181455D01*
X245669158Y-82198175D01*
X245483597Y-82328105D01*
X245316505Y-82495197D01*
X245180965Y-82688769D01*
X245180964Y-82688771D01*
X245081098Y-82902935D01*
X245081094Y-82902944D01*
X245019938Y-83131186D01*
X245019936Y-83131196D01*
X244999341Y-83366599D01*
X244999341Y-83366600D01*
X245019936Y-83602003D01*
X245019938Y-83602013D01*
X245081094Y-83830255D01*
X245081096Y-83830259D01*
X245081097Y-83830263D01*
X245142457Y-83961849D01*
X245180965Y-84044430D01*
X245180967Y-84044434D01*
X245260542Y-84158078D01*
X245316501Y-84237996D01*
X245316506Y-84238002D01*
X245438430Y-84359926D01*
X245471915Y-84421249D01*
X245466931Y-84490941D01*
X245425059Y-84546874D01*
X245394083Y-84563789D01*
X245262669Y-84612803D01*
X245262664Y-84612806D01*
X245147455Y-84699052D01*
X245147452Y-84699055D01*
X245061206Y-84814264D01*
X245061202Y-84814271D01*
X245010908Y-84949117D01*
X245006909Y-84986318D01*
X245004501Y-85008723D01*
X245004500Y-85008735D01*
X245004500Y-86804470D01*
X245004501Y-86804476D01*
X245010908Y-86864083D01*
X245061202Y-86998928D01*
X245061206Y-86998935D01*
X245147452Y-87114144D01*
X245147455Y-87114147D01*
X245262664Y-87200393D01*
X245262671Y-87200397D01*
X245397517Y-87250691D01*
X245397516Y-87250691D01*
X245404444Y-87251435D01*
X245457127Y-87257100D01*
X247252872Y-87257099D01*
X247312483Y-87250691D01*
X247447331Y-87200396D01*
X247562546Y-87114146D01*
X247648796Y-86998931D01*
X247699091Y-86864083D01*
X247705500Y-86804473D01*
X247705499Y-85008728D01*
X247699091Y-84949117D01*
X247675125Y-84884862D01*
X247648797Y-84814271D01*
X247648793Y-84814264D01*
X247562547Y-84699055D01*
X247562544Y-84699052D01*
X247447335Y-84612806D01*
X247447328Y-84612802D01*
X247315917Y-84563789D01*
X247259983Y-84521918D01*
X247235566Y-84456453D01*
X247250418Y-84388180D01*
X247271563Y-84359932D01*
X247393495Y-84238001D01*
X247529035Y-84044430D01*
X247628903Y-83830263D01*
X247690063Y-83602008D01*
X247710659Y-83366600D01*
X247690063Y-83131192D01*
X247628903Y-82902937D01*
X247529035Y-82688771D01*
X247519599Y-82675294D01*
X247393494Y-82495197D01*
X247226402Y-82328106D01*
X247226396Y-82328101D01*
X247040842Y-82198175D01*
X246997217Y-82143598D01*
X246990023Y-82074100D01*
X247021546Y-82011745D01*
X247040842Y-81995025D01*
X247115271Y-81942909D01*
X247226401Y-81865095D01*
X247393495Y-81698001D01*
X247529035Y-81504430D01*
X247628903Y-81290263D01*
X247690063Y-81062008D01*
X247710659Y-80826600D01*
X247690063Y-80591192D01*
X247628903Y-80362937D01*
X247529035Y-80148771D01*
X247478733Y-80076931D01*
X247393494Y-79955197D01*
X247226402Y-79788106D01*
X247226396Y-79788101D01*
X247040842Y-79658175D01*
X246997217Y-79603598D01*
X246990023Y-79534100D01*
X247021546Y-79471745D01*
X247040842Y-79455025D01*
X247065036Y-79438084D01*
X247226401Y-79325095D01*
X247393495Y-79158001D01*
X247529035Y-78964430D01*
X247628903Y-78750263D01*
X247690063Y-78522008D01*
X247710659Y-78286600D01*
X247690063Y-78051192D01*
X247628903Y-77822937D01*
X247529035Y-77608771D01*
X247525616Y-77603887D01*
X247393494Y-77415197D01*
X247226402Y-77248106D01*
X247226396Y-77248101D01*
X247040842Y-77118175D01*
X246997217Y-77063598D01*
X246990023Y-76994100D01*
X247021546Y-76931745D01*
X247040842Y-76915025D01*
X247089216Y-76881153D01*
X247226401Y-76785095D01*
X247393495Y-76618001D01*
X247529035Y-76424430D01*
X247628903Y-76210263D01*
X247690063Y-75982008D01*
X247710659Y-75746600D01*
X247690063Y-75511192D01*
X247629523Y-75285250D01*
X247628905Y-75282944D01*
X247628904Y-75282943D01*
X247628903Y-75282937D01*
X247529035Y-75068771D01*
X247526373Y-75064968D01*
X247393494Y-74875197D01*
X247226402Y-74708106D01*
X247226396Y-74708101D01*
X247040842Y-74578175D01*
X246997217Y-74523598D01*
X246990023Y-74454100D01*
X247021546Y-74391745D01*
X247040842Y-74375025D01*
X247088986Y-74341314D01*
X247226401Y-74245095D01*
X247393495Y-74078001D01*
X247529035Y-73884430D01*
X247628903Y-73670263D01*
X247690063Y-73442008D01*
X247710659Y-73206600D01*
X247690063Y-72971192D01*
X247629523Y-72745250D01*
X247628905Y-72742944D01*
X247628904Y-72742943D01*
X247628903Y-72742937D01*
X247529035Y-72528771D01*
X247524424Y-72522185D01*
X247393494Y-72335197D01*
X247226402Y-72168106D01*
X247226396Y-72168101D01*
X247040842Y-72038175D01*
X246997217Y-71983598D01*
X246990023Y-71914100D01*
X247021546Y-71851745D01*
X247040842Y-71835025D01*
X247088986Y-71801314D01*
X247226401Y-71705095D01*
X247393495Y-71538001D01*
X247529035Y-71344430D01*
X247628903Y-71130263D01*
X247690063Y-70902008D01*
X247710659Y-70666600D01*
X247708897Y-70646466D01*
X247697730Y-70518826D01*
X247690063Y-70431192D01*
X247629523Y-70205250D01*
X247628905Y-70202944D01*
X247628904Y-70202943D01*
X247628903Y-70202937D01*
X247529035Y-69988771D01*
X247523063Y-69980241D01*
X247393494Y-69795197D01*
X247226402Y-69628106D01*
X247226396Y-69628101D01*
X247040842Y-69498175D01*
X246997217Y-69443598D01*
X246990023Y-69374100D01*
X247021546Y-69311745D01*
X247040842Y-69295025D01*
X247088986Y-69261314D01*
X247226401Y-69165095D01*
X247393495Y-68998001D01*
X247529035Y-68804430D01*
X247628903Y-68590263D01*
X247690063Y-68362008D01*
X247710659Y-68126600D01*
X247690063Y-67891192D01*
X247629523Y-67665250D01*
X247628905Y-67662944D01*
X247628904Y-67662943D01*
X247628903Y-67662937D01*
X247529035Y-67448771D01*
X247523063Y-67440241D01*
X247393494Y-67255197D01*
X247226402Y-67088106D01*
X247226396Y-67088101D01*
X247040842Y-66958175D01*
X246997217Y-66903598D01*
X246990023Y-66834100D01*
X247021546Y-66771745D01*
X247040842Y-66755025D01*
X247088986Y-66721314D01*
X247226401Y-66625095D01*
X247393495Y-66458001D01*
X247529035Y-66264430D01*
X247628903Y-66050263D01*
X247690063Y-65822008D01*
X247710659Y-65586600D01*
X247710258Y-65582022D01*
X247699203Y-65455663D01*
X247690063Y-65351192D01*
X247629523Y-65125250D01*
X247628905Y-65122944D01*
X247628904Y-65122943D01*
X247628903Y-65122937D01*
X247529035Y-64908771D01*
X247523063Y-64900241D01*
X247393494Y-64715197D01*
X247226402Y-64548106D01*
X247226401Y-64548105D01*
X247040405Y-64417869D01*
X246996781Y-64363292D01*
X246989588Y-64293793D01*
X247021110Y-64231439D01*
X247040405Y-64214719D01*
X247226082Y-64084705D01*
X247393105Y-63917682D01*
X247528600Y-63724178D01*
X247628429Y-63510092D01*
X247628432Y-63510086D01*
X247685636Y-63296600D01*
X246788012Y-63296600D01*
X246820925Y-63239593D01*
X246855000Y-63112426D01*
X246855000Y-62980774D01*
X246820925Y-62853607D01*
X246788012Y-62796600D01*
X247685636Y-62796600D01*
X247685635Y-62796599D01*
X247628432Y-62583113D01*
X247628429Y-62583107D01*
X247528600Y-62369022D01*
X247528599Y-62369020D01*
X247393113Y-62175526D01*
X247393108Y-62175520D01*
X247226082Y-62008494D01*
X247032578Y-61872999D01*
X246818492Y-61773170D01*
X246818486Y-61773167D01*
X246605000Y-61715964D01*
X246605000Y-62613588D01*
X246547993Y-62580675D01*
X246420826Y-62546600D01*
X246289174Y-62546600D01*
X246162007Y-62580675D01*
X246105000Y-62613588D01*
X246105000Y-61715964D01*
X246104999Y-61715964D01*
X245891513Y-61773167D01*
X245891507Y-61773170D01*
X245677422Y-61872999D01*
X245677420Y-61873000D01*
X245483926Y-62008486D01*
X245483920Y-62008491D01*
X245316891Y-62175520D01*
X245316886Y-62175526D01*
X245181400Y-62369020D01*
X245181399Y-62369022D01*
X245081570Y-62583107D01*
X245081567Y-62583113D01*
X245024364Y-62796599D01*
X245024364Y-62796600D01*
X245921988Y-62796600D01*
X245889075Y-62853607D01*
X245855000Y-62980774D01*
X245855000Y-63112426D01*
X245889075Y-63239593D01*
X245921988Y-63296600D01*
X245024364Y-63296600D01*
X245081567Y-63510086D01*
X245081570Y-63510092D01*
X245181399Y-63724178D01*
X245316894Y-63917682D01*
X245483917Y-64084705D01*
X245669595Y-64214719D01*
X245713219Y-64269296D01*
X245720412Y-64338795D01*
X245688890Y-64401149D01*
X245669595Y-64417869D01*
X245483594Y-64548108D01*
X245316505Y-64715197D01*
X245180965Y-64908769D01*
X245180964Y-64908771D01*
X245081098Y-65122935D01*
X245081094Y-65122944D01*
X245019938Y-65351186D01*
X245019936Y-65351196D01*
X244999341Y-65586599D01*
X223070434Y-65586599D01*
X233196470Y-55460564D01*
X233257791Y-55427081D01*
X233316242Y-55428472D01*
X233371990Y-55443409D01*
X233444592Y-55462863D01*
X233615319Y-55477800D01*
X233679999Y-55483459D01*
X233680000Y-55483459D01*
X233680001Y-55483459D01*
X233744681Y-55477800D01*
X233915408Y-55462863D01*
X234143663Y-55401703D01*
X234357830Y-55301835D01*
X234551401Y-55166295D01*
X234718495Y-54999201D01*
X234848425Y-54813642D01*
X234903002Y-54770017D01*
X234972500Y-54762823D01*
X235034855Y-54794346D01*
X235051575Y-54813642D01*
X235181500Y-54999195D01*
X235181505Y-54999201D01*
X235348599Y-55166295D01*
X235396849Y-55200080D01*
X235542165Y-55301832D01*
X235542167Y-55301833D01*
X235542170Y-55301835D01*
X235756337Y-55401703D01*
X235756343Y-55401704D01*
X235756344Y-55401705D01*
X235779252Y-55407843D01*
X235984592Y-55462863D01*
X236155319Y-55477800D01*
X236219999Y-55483459D01*
X236220000Y-55483459D01*
X236220001Y-55483459D01*
X236284681Y-55477800D01*
X236455408Y-55462863D01*
X236683663Y-55401703D01*
X236897830Y-55301835D01*
X237091401Y-55166295D01*
X237258495Y-54999201D01*
X237354934Y-54861472D01*
X242537500Y-54861472D01*
X242537500Y-55123727D01*
X242551525Y-55230248D01*
X242571730Y-55383716D01*
X242639602Y-55637018D01*
X242639605Y-55637028D01*
X242739953Y-55879290D01*
X242739958Y-55879300D01*
X242871075Y-56106403D01*
X243030718Y-56314451D01*
X243030726Y-56314460D01*
X243216140Y-56499874D01*
X243216148Y-56499881D01*
X243424196Y-56659524D01*
X243651299Y-56790641D01*
X243651309Y-56790646D01*
X243893571Y-56890994D01*
X243893581Y-56890998D01*
X244146884Y-56958870D01*
X244406880Y-56993100D01*
X244406887Y-56993100D01*
X244669113Y-56993100D01*
X244669120Y-56993100D01*
X244929116Y-56958870D01*
X245182419Y-56890998D01*
X245424697Y-56790643D01*
X245651803Y-56659524D01*
X245859851Y-56499882D01*
X245859855Y-56499877D01*
X245859860Y-56499874D01*
X246045274Y-56314460D01*
X246045277Y-56314455D01*
X246045282Y-56314451D01*
X246204924Y-56106403D01*
X246336043Y-55879297D01*
X246436398Y-55637019D01*
X246504270Y-55383716D01*
X246538500Y-55123720D01*
X246538500Y-54861480D01*
X246504270Y-54601484D01*
X246436398Y-54348181D01*
X246430733Y-54334505D01*
X246336046Y-54105909D01*
X246336041Y-54105899D01*
X246204924Y-53878796D01*
X246045281Y-53670748D01*
X246045274Y-53670740D01*
X245859860Y-53485326D01*
X245859851Y-53485318D01*
X245651803Y-53325675D01*
X245424700Y-53194558D01*
X245424690Y-53194553D01*
X245182428Y-53094205D01*
X245182421Y-53094203D01*
X245182419Y-53094202D01*
X244929116Y-53026330D01*
X244871339Y-53018723D01*
X244669127Y-52992100D01*
X244669120Y-52992100D01*
X244406880Y-52992100D01*
X244406872Y-52992100D01*
X244191052Y-53020515D01*
X244146884Y-53026330D01*
X244018986Y-53060600D01*
X243893581Y-53094202D01*
X243893571Y-53094205D01*
X243651309Y-53194553D01*
X243651299Y-53194558D01*
X243424196Y-53325675D01*
X243216148Y-53485318D01*
X243030718Y-53670748D01*
X242871075Y-53878796D01*
X242739958Y-54105899D01*
X242739953Y-54105909D01*
X242639605Y-54348171D01*
X242639602Y-54348181D01*
X242574418Y-54591455D01*
X242571730Y-54601485D01*
X242537500Y-54861472D01*
X237354934Y-54861472D01*
X237394035Y-54805630D01*
X237493903Y-54591463D01*
X237555063Y-54363208D01*
X237575659Y-54127800D01*
X237575387Y-54124696D01*
X237562480Y-53977169D01*
X237555063Y-53892392D01*
X237495675Y-53670749D01*
X237493905Y-53664144D01*
X237493904Y-53664143D01*
X237493903Y-53664137D01*
X237394035Y-53449971D01*
X237388425Y-53441958D01*
X237258494Y-53256397D01*
X237091402Y-53089306D01*
X237091395Y-53089301D01*
X236897834Y-52953767D01*
X236897830Y-52953765D01*
X236826727Y-52920609D01*
X236683663Y-52853897D01*
X236683659Y-52853896D01*
X236683655Y-52853894D01*
X236455413Y-52792738D01*
X236455403Y-52792736D01*
X236220001Y-52772141D01*
X236219999Y-52772141D01*
X235984596Y-52792736D01*
X235984586Y-52792738D01*
X235756344Y-52853894D01*
X235756335Y-52853898D01*
X235542171Y-52953764D01*
X235542169Y-52953765D01*
X235348597Y-53089305D01*
X235181505Y-53256397D01*
X235051575Y-53441958D01*
X234996998Y-53485583D01*
X234927500Y-53492777D01*
X234865145Y-53461254D01*
X234848425Y-53441958D01*
X234718494Y-53256397D01*
X234551402Y-53089306D01*
X234551395Y-53089301D01*
X234357834Y-52953767D01*
X234357830Y-52953765D01*
X234286727Y-52920609D01*
X234143663Y-52853897D01*
X234143659Y-52853896D01*
X234143655Y-52853894D01*
X233915413Y-52792738D01*
X233915403Y-52792736D01*
X233680001Y-52772141D01*
X233679999Y-52772141D01*
X233444596Y-52792736D01*
X233444586Y-52792738D01*
X233216344Y-52853894D01*
X233216335Y-52853898D01*
X233002171Y-52953764D01*
X233002169Y-52953765D01*
X232808597Y-53089305D01*
X232641505Y-53256397D01*
X232511575Y-53441958D01*
X232456998Y-53485583D01*
X232387500Y-53492777D01*
X232325145Y-53461254D01*
X232308425Y-53441958D01*
X232178494Y-53256397D01*
X232011402Y-53089306D01*
X232011395Y-53089301D01*
X231817834Y-52953767D01*
X231817830Y-52953765D01*
X231746727Y-52920609D01*
X231603663Y-52853897D01*
X231603659Y-52853896D01*
X231603655Y-52853894D01*
X231375413Y-52792738D01*
X231375403Y-52792736D01*
X231140001Y-52772141D01*
X231139999Y-52772141D01*
X230904596Y-52792736D01*
X230904586Y-52792738D01*
X230676344Y-52853894D01*
X230676335Y-52853898D01*
X230462171Y-52953764D01*
X230462169Y-52953765D01*
X230268597Y-53089305D01*
X230101505Y-53256397D01*
X229971575Y-53441958D01*
X229916998Y-53485583D01*
X229847500Y-53492777D01*
X229785145Y-53461254D01*
X229768425Y-53441958D01*
X229638494Y-53256397D01*
X229471402Y-53089306D01*
X229471395Y-53089301D01*
X229277834Y-52953767D01*
X229277830Y-52953765D01*
X229206727Y-52920609D01*
X229063663Y-52853897D01*
X229063659Y-52853896D01*
X229063655Y-52853894D01*
X228835413Y-52792738D01*
X228835403Y-52792736D01*
X228600001Y-52772141D01*
X228599999Y-52772141D01*
X228364596Y-52792736D01*
X228364586Y-52792738D01*
X228136344Y-52853894D01*
X228136335Y-52853898D01*
X227922171Y-52953764D01*
X227922169Y-52953765D01*
X227728597Y-53089305D01*
X227561505Y-53256397D01*
X227431575Y-53441958D01*
X227376998Y-53485583D01*
X227307500Y-53492777D01*
X227245145Y-53461254D01*
X227228425Y-53441958D01*
X227098494Y-53256397D01*
X226931402Y-53089306D01*
X226931395Y-53089301D01*
X226737834Y-52953767D01*
X226737830Y-52953765D01*
X226666727Y-52920609D01*
X226523663Y-52853897D01*
X226523659Y-52853896D01*
X226523655Y-52853894D01*
X226295413Y-52792738D01*
X226295403Y-52792736D01*
X226060001Y-52772141D01*
X226059999Y-52772141D01*
X225824596Y-52792736D01*
X225824586Y-52792738D01*
X225596344Y-52853894D01*
X225596335Y-52853898D01*
X225382171Y-52953764D01*
X225382169Y-52953765D01*
X225188597Y-53089305D01*
X225021505Y-53256397D01*
X224891575Y-53441958D01*
X224836998Y-53485583D01*
X224767500Y-53492777D01*
X224705145Y-53461254D01*
X224688425Y-53441958D01*
X224558494Y-53256397D01*
X224391402Y-53089306D01*
X224391395Y-53089301D01*
X224197834Y-52953767D01*
X224197830Y-52953765D01*
X224126727Y-52920609D01*
X223983663Y-52853897D01*
X223983659Y-52853896D01*
X223983655Y-52853894D01*
X223755413Y-52792738D01*
X223755403Y-52792736D01*
X223520001Y-52772141D01*
X223519999Y-52772141D01*
X223284596Y-52792736D01*
X223284586Y-52792738D01*
X223056344Y-52853894D01*
X223056335Y-52853898D01*
X222842171Y-52953764D01*
X222842169Y-52953765D01*
X222648597Y-53089305D01*
X222481505Y-53256397D01*
X222351575Y-53441958D01*
X222296998Y-53485583D01*
X222227500Y-53492777D01*
X222165145Y-53461254D01*
X222148425Y-53441958D01*
X222018494Y-53256397D01*
X221851402Y-53089306D01*
X221851395Y-53089301D01*
X221657834Y-52953767D01*
X221657830Y-52953765D01*
X221586727Y-52920609D01*
X221443663Y-52853897D01*
X221443659Y-52853896D01*
X221443655Y-52853894D01*
X221215413Y-52792738D01*
X221215403Y-52792736D01*
X220980001Y-52772141D01*
X220979999Y-52772141D01*
X220744596Y-52792736D01*
X220744586Y-52792738D01*
X220516344Y-52853894D01*
X220516335Y-52853898D01*
X220302171Y-52953764D01*
X220302169Y-52953765D01*
X220108600Y-53089303D01*
X219986284Y-53211619D01*
X219924961Y-53245103D01*
X219855269Y-53240119D01*
X219799336Y-53198247D01*
X219782421Y-53167270D01*
X219733354Y-53035713D01*
X219733350Y-53035706D01*
X219647190Y-52920612D01*
X219647187Y-52920609D01*
X219532093Y-52834449D01*
X219532086Y-52834445D01*
X219397379Y-52784203D01*
X219397372Y-52784201D01*
X219337844Y-52777800D01*
X218690000Y-52777800D01*
X218690000Y-53694788D01*
X218632993Y-53661875D01*
X218505826Y-53627800D01*
X218374174Y-53627800D01*
X218247007Y-53661875D01*
X218190000Y-53694788D01*
X218190000Y-52777800D01*
X217542155Y-52777800D01*
X217482627Y-52784201D01*
X217482620Y-52784203D01*
X217347913Y-52834445D01*
X217347906Y-52834449D01*
X217232812Y-52920609D01*
X217232809Y-52920612D01*
X217146649Y-53035706D01*
X217146645Y-53035713D01*
X217096403Y-53170420D01*
X217096401Y-53170427D01*
X217090000Y-53229955D01*
X217090000Y-53877800D01*
X218006988Y-53877800D01*
X217974075Y-53934807D01*
X217940000Y-54061974D01*
X217940000Y-54193626D01*
X217974075Y-54320793D01*
X218006988Y-54377800D01*
X217090000Y-54377800D01*
X217090000Y-55025644D01*
X217096401Y-55085172D01*
X217096403Y-55085179D01*
X217146645Y-55219886D01*
X217146649Y-55219893D01*
X217232809Y-55334987D01*
X217232812Y-55334990D01*
X217347906Y-55421150D01*
X217347913Y-55421154D01*
X217482620Y-55471396D01*
X217482627Y-55471398D01*
X217542155Y-55477799D01*
X217542172Y-55477800D01*
X218190000Y-55477800D01*
X218190000Y-54560812D01*
X218247007Y-54593725D01*
X218374174Y-54627800D01*
X218505826Y-54627800D01*
X218632993Y-54593725D01*
X218690000Y-54560812D01*
X218690000Y-55517202D01*
X218670315Y-55584241D01*
X218653681Y-55604883D01*
X214952786Y-59305777D01*
X214891463Y-59339262D01*
X214821771Y-59334278D01*
X214765838Y-59292406D01*
X214741634Y-59229539D01*
X214721434Y-59011540D01*
X214660624Y-58797816D01*
X214638297Y-58752978D01*
X214587052Y-58650063D01*
X214561578Y-58598904D01*
X214497330Y-58513826D01*
X214427666Y-58421575D01*
X214263455Y-58271878D01*
X214263453Y-58271876D01*
X214074533Y-58154902D01*
X214074527Y-58154899D01*
X213966880Y-58113197D01*
X213867328Y-58074630D01*
X213648904Y-58033800D01*
X213426696Y-58033800D01*
X213208272Y-58074630D01*
X213181969Y-58084820D01*
X213001072Y-58154899D01*
X213001066Y-58154902D01*
X212812146Y-58271876D01*
X212812144Y-58271878D01*
X212647933Y-58421575D01*
X212526012Y-58583027D01*
X212469903Y-58624663D01*
X212427058Y-58632300D01*
X207028542Y-58632300D01*
X206961503Y-58612615D01*
X206929588Y-58583027D01*
X206807666Y-58421575D01*
X206643455Y-58271878D01*
X206643453Y-58271876D01*
X206454533Y-58154902D01*
X206454527Y-58154899D01*
X206346880Y-58113197D01*
X206247328Y-58074630D01*
X206028904Y-58033800D01*
X205806696Y-58033800D01*
X205806695Y-58033800D01*
X205669867Y-58059376D01*
X205600352Y-58052344D01*
X205559403Y-58025168D01*
X203122616Y-55588381D01*
X203089131Y-55527058D01*
X203094115Y-55457366D01*
X203135987Y-55401433D01*
X203201451Y-55377016D01*
X203210297Y-55376700D01*
X203311055Y-55376700D01*
X203529392Y-55335884D01*
X203736505Y-55255649D01*
X203736506Y-55255648D01*
X203852237Y-55183990D01*
X203252847Y-54584600D01*
X203253504Y-54584600D01*
X203356865Y-54556905D01*
X203449536Y-54503401D01*
X203525201Y-54427736D01*
X203578705Y-54335065D01*
X203606400Y-54231704D01*
X203606400Y-54231046D01*
X204207790Y-54832436D01*
X204223348Y-54811834D01*
X204223353Y-54811826D01*
X204322350Y-54613013D01*
X204322356Y-54612998D01*
X204383139Y-54399368D01*
X204383140Y-54399366D01*
X204403634Y-54178200D01*
X204403634Y-54178199D01*
X204401280Y-54152799D01*
X204714166Y-54152799D01*
X204714166Y-54152800D01*
X204734659Y-54373966D01*
X204734660Y-54373968D01*
X204795443Y-54587598D01*
X204795449Y-54587613D01*
X204894452Y-54786436D01*
X204910008Y-54807036D01*
X205511400Y-54205645D01*
X205511400Y-54206304D01*
X205539095Y-54309665D01*
X205592599Y-54402336D01*
X205668264Y-54478001D01*
X205760935Y-54531505D01*
X205864296Y-54559200D01*
X205864953Y-54559200D01*
X205265561Y-55158590D01*
X205265562Y-55158591D01*
X205381290Y-55230247D01*
X205381296Y-55230250D01*
X205588407Y-55310484D01*
X205806745Y-55351300D01*
X206028855Y-55351300D01*
X206247192Y-55310484D01*
X206454305Y-55230249D01*
X206454306Y-55230248D01*
X206570037Y-55158590D01*
X205970648Y-54559200D01*
X205971304Y-54559200D01*
X206074665Y-54531505D01*
X206167336Y-54478001D01*
X206243001Y-54402336D01*
X206296505Y-54309665D01*
X206324200Y-54206304D01*
X206324200Y-54205646D01*
X206925590Y-54807036D01*
X206941148Y-54786434D01*
X206941153Y-54786426D01*
X207040150Y-54587613D01*
X207040156Y-54587598D01*
X207100939Y-54373968D01*
X207100940Y-54373966D01*
X207121434Y-54152800D01*
X207121434Y-54152799D01*
X212334166Y-54152799D01*
X212334166Y-54152800D01*
X212354659Y-54373966D01*
X212354660Y-54373968D01*
X212415443Y-54587598D01*
X212415449Y-54587613D01*
X212514452Y-54786436D01*
X212530008Y-54807036D01*
X213131400Y-54205645D01*
X213131400Y-54206304D01*
X213159095Y-54309665D01*
X213212599Y-54402336D01*
X213288264Y-54478001D01*
X213380935Y-54531505D01*
X213484296Y-54559200D01*
X213484953Y-54559200D01*
X212885561Y-55158590D01*
X212885562Y-55158591D01*
X213001290Y-55230247D01*
X213001296Y-55230250D01*
X213208407Y-55310484D01*
X213426745Y-55351300D01*
X213648855Y-55351300D01*
X213867192Y-55310484D01*
X214074305Y-55230249D01*
X214074306Y-55230248D01*
X214190037Y-55158590D01*
X213590648Y-54559200D01*
X213591304Y-54559200D01*
X213694665Y-54531505D01*
X213787336Y-54478001D01*
X213863001Y-54402336D01*
X213916505Y-54309665D01*
X213944200Y-54206304D01*
X213944200Y-54205646D01*
X214545590Y-54807036D01*
X214561148Y-54786434D01*
X214561153Y-54786426D01*
X214660150Y-54587613D01*
X214660156Y-54587598D01*
X214720939Y-54373968D01*
X214720940Y-54373966D01*
X214741434Y-54152800D01*
X214741434Y-54152799D01*
X214720940Y-53931633D01*
X214720939Y-53931631D01*
X214660156Y-53718001D01*
X214660150Y-53717986D01*
X214561153Y-53519174D01*
X214561148Y-53519167D01*
X214545589Y-53498562D01*
X213944200Y-54099951D01*
X213944200Y-54099296D01*
X213916505Y-53995935D01*
X213863001Y-53903264D01*
X213787336Y-53827599D01*
X213694665Y-53774095D01*
X213591304Y-53746400D01*
X213590647Y-53746400D01*
X214190037Y-53147008D01*
X214190036Y-53147007D01*
X214074309Y-53075352D01*
X214074303Y-53075349D01*
X213867192Y-52995115D01*
X213648855Y-52954300D01*
X213426745Y-52954300D01*
X213208407Y-52995115D01*
X213001295Y-53075350D01*
X212885561Y-53147008D01*
X213484954Y-53746400D01*
X213484296Y-53746400D01*
X213380935Y-53774095D01*
X213288264Y-53827599D01*
X213212599Y-53903264D01*
X213159095Y-53995935D01*
X213131400Y-54099296D01*
X213131400Y-54099953D01*
X212530009Y-53498562D01*
X212514451Y-53519165D01*
X212415449Y-53717986D01*
X212415443Y-53718001D01*
X212354660Y-53931631D01*
X212354659Y-53931633D01*
X212334166Y-54152799D01*
X207121434Y-54152799D01*
X207100940Y-53931633D01*
X207100939Y-53931631D01*
X207040156Y-53718001D01*
X207040150Y-53717986D01*
X206941153Y-53519174D01*
X206941148Y-53519167D01*
X206925589Y-53498562D01*
X206324200Y-54099951D01*
X206324200Y-54099296D01*
X206296505Y-53995935D01*
X206243001Y-53903264D01*
X206167336Y-53827599D01*
X206074665Y-53774095D01*
X205971304Y-53746400D01*
X205970647Y-53746400D01*
X206570037Y-53147008D01*
X206570036Y-53147007D01*
X206454309Y-53075352D01*
X206454303Y-53075349D01*
X206247192Y-52995115D01*
X206028855Y-52954300D01*
X205806745Y-52954300D01*
X205588407Y-52995115D01*
X205381295Y-53075350D01*
X205265561Y-53147008D01*
X205864954Y-53746400D01*
X205864296Y-53746400D01*
X205760935Y-53774095D01*
X205668264Y-53827599D01*
X205592599Y-53903264D01*
X205539095Y-53995935D01*
X205511400Y-54099296D01*
X205511400Y-54099953D01*
X204910009Y-53498562D01*
X204894451Y-53519165D01*
X204795449Y-53717986D01*
X204795443Y-53718001D01*
X204734660Y-53931631D01*
X204734659Y-53931633D01*
X204714166Y-54152799D01*
X204401280Y-54152799D01*
X204383140Y-53957033D01*
X204383139Y-53957031D01*
X204322356Y-53743401D01*
X204322350Y-53743386D01*
X204223353Y-53544574D01*
X204223348Y-53544567D01*
X204207789Y-53523962D01*
X203606400Y-54125351D01*
X203606400Y-54124696D01*
X203578705Y-54021335D01*
X203525201Y-53928664D01*
X203449536Y-53852999D01*
X203356865Y-53799495D01*
X203253504Y-53771800D01*
X203252847Y-53771800D01*
X203852237Y-53172408D01*
X203852236Y-53172407D01*
X203736509Y-53100752D01*
X203736503Y-53100749D01*
X203529392Y-53020515D01*
X203311055Y-52979700D01*
X203088945Y-52979700D01*
X202870607Y-53020515D01*
X202663495Y-53100750D01*
X202547761Y-53172408D01*
X203147154Y-53771800D01*
X203146496Y-53771800D01*
X203043135Y-53799495D01*
X202950464Y-53852999D01*
X202874799Y-53928664D01*
X202821295Y-54021335D01*
X202793600Y-54124696D01*
X202793600Y-54125353D01*
X202192209Y-53523962D01*
X202176651Y-53544565D01*
X202077649Y-53743386D01*
X202077643Y-53743401D01*
X202016860Y-53957031D01*
X202016859Y-53957033D01*
X201996366Y-54178199D01*
X201996366Y-54178200D01*
X202016859Y-54399366D01*
X202016860Y-54399368D01*
X202077643Y-54612998D01*
X202077649Y-54613013D01*
X202176650Y-54811832D01*
X202229165Y-54881373D01*
X202253857Y-54946734D01*
X202239292Y-55015069D01*
X202190095Y-55064682D01*
X202130211Y-55080100D01*
X196649789Y-55080100D01*
X196582750Y-55060415D01*
X196536995Y-55007611D01*
X196527051Y-54938453D01*
X196550835Y-54881373D01*
X196603349Y-54811832D01*
X196702350Y-54613013D01*
X196702356Y-54612998D01*
X196763139Y-54399368D01*
X196763140Y-54399366D01*
X196783634Y-54178200D01*
X196783634Y-54178199D01*
X196763140Y-53957033D01*
X196763139Y-53957031D01*
X196702356Y-53743401D01*
X196702350Y-53743386D01*
X196603353Y-53544574D01*
X196603348Y-53544567D01*
X196587789Y-53523962D01*
X195986400Y-54125351D01*
X195986400Y-54124696D01*
X195958705Y-54021335D01*
X195905201Y-53928664D01*
X195829536Y-53852999D01*
X195736865Y-53799495D01*
X195633504Y-53771800D01*
X195632847Y-53771800D01*
X196232237Y-53172408D01*
X196232236Y-53172407D01*
X196116509Y-53100752D01*
X196116503Y-53100749D01*
X195909392Y-53020515D01*
X195691055Y-52979700D01*
X195468945Y-52979700D01*
X195250607Y-53020515D01*
X195043495Y-53100750D01*
X194927761Y-53172408D01*
X195527154Y-53771800D01*
X195526496Y-53771800D01*
X195423135Y-53799495D01*
X195330464Y-53852999D01*
X195254799Y-53928664D01*
X195201295Y-54021335D01*
X195173600Y-54124696D01*
X195173600Y-54125353D01*
X194572209Y-53523962D01*
X194556651Y-53544565D01*
X194457649Y-53743386D01*
X194457643Y-53743401D01*
X194396860Y-53957031D01*
X194396859Y-53957033D01*
X194376366Y-54178199D01*
X194376366Y-54178200D01*
X194396859Y-54399366D01*
X194396860Y-54399368D01*
X194457643Y-54612998D01*
X194457649Y-54613013D01*
X194556650Y-54811832D01*
X194609165Y-54881373D01*
X194633857Y-54946734D01*
X194619292Y-55015069D01*
X194570095Y-55064682D01*
X194510211Y-55080100D01*
X182009097Y-55080100D01*
X181942058Y-55060415D01*
X181896303Y-55007611D01*
X181886359Y-54938453D01*
X181915384Y-54874897D01*
X181921416Y-54868419D01*
X182342416Y-54447418D01*
X182403739Y-54413933D01*
X182430097Y-54411099D01*
X183777871Y-54411099D01*
X183777872Y-54411099D01*
X183837483Y-54404691D01*
X183972331Y-54354396D01*
X184087546Y-54268146D01*
X184173796Y-54152931D01*
X184222810Y-54021516D01*
X184264681Y-53965584D01*
X184330145Y-53941166D01*
X184398418Y-53956017D01*
X184426673Y-53977169D01*
X184548599Y-54099095D01*
X184645384Y-54166865D01*
X184742165Y-54234632D01*
X184742167Y-54234633D01*
X184742170Y-54234635D01*
X184956337Y-54334503D01*
X185184592Y-54395663D01*
X185361034Y-54411100D01*
X185419999Y-54416259D01*
X185420000Y-54416259D01*
X185420001Y-54416259D01*
X185478966Y-54411100D01*
X185655408Y-54395663D01*
X185883663Y-54334503D01*
X186097830Y-54234635D01*
X186291401Y-54099095D01*
X186458495Y-53932001D01*
X186588425Y-53746442D01*
X186643002Y-53702817D01*
X186712500Y-53695623D01*
X186774855Y-53727146D01*
X186791575Y-53746442D01*
X186921281Y-53931682D01*
X186921505Y-53932001D01*
X187088599Y-54099095D01*
X187185384Y-54166865D01*
X187282165Y-54234632D01*
X187282167Y-54234633D01*
X187282170Y-54234635D01*
X187496337Y-54334503D01*
X187724592Y-54395663D01*
X187901034Y-54411100D01*
X187959999Y-54416259D01*
X187960000Y-54416259D01*
X187960001Y-54416259D01*
X188018966Y-54411100D01*
X188195408Y-54395663D01*
X188423663Y-54334503D01*
X188637830Y-54234635D01*
X188831401Y-54099095D01*
X188998495Y-53932001D01*
X189128730Y-53746005D01*
X189183307Y-53702381D01*
X189252805Y-53695187D01*
X189315160Y-53726710D01*
X189331879Y-53746005D01*
X189461890Y-53931678D01*
X189628917Y-54098705D01*
X189822421Y-54234200D01*
X190036507Y-54334029D01*
X190036516Y-54334033D01*
X190250000Y-54391234D01*
X190250000Y-53493612D01*
X190307007Y-53526525D01*
X190434174Y-53560600D01*
X190565826Y-53560600D01*
X190692993Y-53526525D01*
X190750000Y-53493612D01*
X190750000Y-54391233D01*
X190963483Y-54334033D01*
X190963492Y-54334029D01*
X191177578Y-54234200D01*
X191371082Y-54098705D01*
X191538105Y-53931682D01*
X191673600Y-53738178D01*
X191773429Y-53524092D01*
X191773432Y-53524086D01*
X191830636Y-53310600D01*
X190933012Y-53310600D01*
X190965925Y-53253593D01*
X191000000Y-53126426D01*
X191000000Y-52994774D01*
X190965925Y-52867607D01*
X190933012Y-52810600D01*
X191830636Y-52810600D01*
X191830635Y-52810599D01*
X191773432Y-52597113D01*
X191773429Y-52597107D01*
X191673600Y-52383022D01*
X191673599Y-52383020D01*
X191538113Y-52189526D01*
X191538108Y-52189520D01*
X191371082Y-52022494D01*
X191177578Y-51886999D01*
X190963492Y-51787170D01*
X190963486Y-51787167D01*
X190750000Y-51729964D01*
X190750000Y-52627588D01*
X190692993Y-52594675D01*
X190565826Y-52560600D01*
X190434174Y-52560600D01*
X190307007Y-52594675D01*
X190250000Y-52627588D01*
X190250000Y-51729964D01*
X190249999Y-51729964D01*
X190036513Y-51787167D01*
X190036507Y-51787170D01*
X189822422Y-51886999D01*
X189822420Y-51887000D01*
X189628926Y-52022486D01*
X189628920Y-52022491D01*
X189461891Y-52189520D01*
X189461890Y-52189522D01*
X189331880Y-52375195D01*
X189277303Y-52418819D01*
X189207804Y-52426012D01*
X189145450Y-52394490D01*
X189128730Y-52375194D01*
X188998494Y-52189197D01*
X188831402Y-52022106D01*
X188831395Y-52022101D01*
X188637834Y-51886567D01*
X188637830Y-51886565D01*
X188637828Y-51886564D01*
X188423663Y-51786697D01*
X188423659Y-51786696D01*
X188423655Y-51786694D01*
X188195413Y-51725538D01*
X188195403Y-51725536D01*
X187960001Y-51704941D01*
X187959999Y-51704941D01*
X187724596Y-51725536D01*
X187724586Y-51725538D01*
X187496344Y-51786694D01*
X187496335Y-51786698D01*
X187282171Y-51886564D01*
X187282169Y-51886565D01*
X187088597Y-52022105D01*
X186921505Y-52189197D01*
X186791575Y-52374758D01*
X186736998Y-52418383D01*
X186667500Y-52425577D01*
X186605145Y-52394054D01*
X186588425Y-52374758D01*
X186458494Y-52189197D01*
X186291402Y-52022106D01*
X186291395Y-52022101D01*
X186097834Y-51886567D01*
X186097830Y-51886565D01*
X186097828Y-51886564D01*
X185883663Y-51786697D01*
X185883659Y-51786696D01*
X185883655Y-51786694D01*
X185655413Y-51725538D01*
X185655403Y-51725536D01*
X185420001Y-51704941D01*
X185419999Y-51704941D01*
X185184596Y-51725536D01*
X185184586Y-51725538D01*
X184956344Y-51786694D01*
X184956335Y-51786698D01*
X184742171Y-51886564D01*
X184742169Y-51886565D01*
X184548600Y-52022103D01*
X184426673Y-52144030D01*
X184365350Y-52177514D01*
X184295658Y-52172530D01*
X184239725Y-52130658D01*
X184222810Y-52099681D01*
X184173797Y-51968271D01*
X184173793Y-51968264D01*
X184087547Y-51853055D01*
X184087544Y-51853052D01*
X183972335Y-51766806D01*
X183972328Y-51766802D01*
X183837482Y-51716508D01*
X183837483Y-51716508D01*
X183777883Y-51710101D01*
X183777881Y-51710100D01*
X183777873Y-51710100D01*
X183777864Y-51710100D01*
X181982129Y-51710100D01*
X181982123Y-51710101D01*
X181922516Y-51716508D01*
X181787671Y-51766802D01*
X181787664Y-51766806D01*
X181672455Y-51853052D01*
X181672452Y-51853055D01*
X181586206Y-51968264D01*
X181586202Y-51968271D01*
X181535908Y-52103117D01*
X181529501Y-52162716D01*
X181529500Y-52162735D01*
X181529500Y-53510502D01*
X181509815Y-53577541D01*
X181493181Y-53598183D01*
X180555584Y-54535781D01*
X180494261Y-54569266D01*
X180467903Y-54572100D01*
X175772278Y-54572100D01*
X175705239Y-54552415D01*
X175659484Y-54499611D01*
X175649540Y-54430453D01*
X175678565Y-54366897D01*
X175719873Y-54335718D01*
X175937578Y-54234200D01*
X176131082Y-54098705D01*
X176298105Y-53931682D01*
X176433600Y-53738178D01*
X176533429Y-53524092D01*
X176533432Y-53524086D01*
X176590636Y-53310600D01*
X175693012Y-53310600D01*
X175725925Y-53253593D01*
X175760000Y-53126426D01*
X175760000Y-52994774D01*
X175725925Y-52867607D01*
X175693012Y-52810600D01*
X176590636Y-52810600D01*
X176590635Y-52810599D01*
X176533432Y-52597113D01*
X176533429Y-52597107D01*
X176433600Y-52383022D01*
X176433599Y-52383020D01*
X176298113Y-52189526D01*
X176298108Y-52189520D01*
X176131082Y-52022494D01*
X175937578Y-51886999D01*
X175723492Y-51787170D01*
X175723486Y-51787167D01*
X175510000Y-51729964D01*
X175510000Y-52627588D01*
X175452993Y-52594675D01*
X175325826Y-52560600D01*
X175194174Y-52560600D01*
X175067007Y-52594675D01*
X175010000Y-52627588D01*
X175010000Y-51729964D01*
X175009999Y-51729964D01*
X174796513Y-51787167D01*
X174796507Y-51787170D01*
X174582422Y-51886999D01*
X174582420Y-51887000D01*
X174388926Y-52022486D01*
X174388920Y-52022491D01*
X174221891Y-52189520D01*
X174221890Y-52189522D01*
X174091880Y-52375195D01*
X174037303Y-52418819D01*
X173967804Y-52426012D01*
X173905450Y-52394490D01*
X173888730Y-52375194D01*
X173758494Y-52189197D01*
X173591402Y-52022106D01*
X173591395Y-52022101D01*
X173397834Y-51886567D01*
X173397830Y-51886565D01*
X173397828Y-51886564D01*
X173183663Y-51786697D01*
X173183659Y-51786696D01*
X173183655Y-51786694D01*
X172955413Y-51725538D01*
X172955403Y-51725536D01*
X172720001Y-51704941D01*
X172719999Y-51704941D01*
X172484596Y-51725536D01*
X172484586Y-51725538D01*
X172256344Y-51786694D01*
X172256335Y-51786698D01*
X172042171Y-51886564D01*
X172042169Y-51886565D01*
X171848597Y-52022105D01*
X171681505Y-52189197D01*
X171551575Y-52374758D01*
X171496998Y-52418383D01*
X171427500Y-52425577D01*
X171365145Y-52394054D01*
X171348425Y-52374758D01*
X171218494Y-52189197D01*
X171051402Y-52022106D01*
X171051395Y-52022101D01*
X170857834Y-51886567D01*
X170857830Y-51886565D01*
X170857828Y-51886564D01*
X170643663Y-51786697D01*
X170643659Y-51786696D01*
X170643655Y-51786694D01*
X170415413Y-51725538D01*
X170415403Y-51725536D01*
X170180001Y-51704941D01*
X170179999Y-51704941D01*
X169944596Y-51725536D01*
X169944586Y-51725538D01*
X169716344Y-51786694D01*
X169716335Y-51786698D01*
X169502171Y-51886564D01*
X169502169Y-51886565D01*
X169308600Y-52022103D01*
X169186673Y-52144030D01*
X169125350Y-52177514D01*
X169055658Y-52172530D01*
X168999725Y-52130658D01*
X168982810Y-52099681D01*
X168933797Y-51968271D01*
X168933793Y-51968264D01*
X168847547Y-51853055D01*
X168847544Y-51853052D01*
X168732335Y-51766806D01*
X168732328Y-51766802D01*
X168597482Y-51716508D01*
X168597483Y-51716508D01*
X168537883Y-51710101D01*
X168537881Y-51710100D01*
X168537873Y-51710100D01*
X168537864Y-51710100D01*
X166742129Y-51710100D01*
X166742123Y-51710101D01*
X166682516Y-51716508D01*
X166547671Y-51766802D01*
X166547664Y-51766806D01*
X166432455Y-51853052D01*
X166432452Y-51853055D01*
X166346206Y-51968264D01*
X166346202Y-51968271D01*
X166295908Y-52103117D01*
X166289501Y-52162716D01*
X166289500Y-52162735D01*
X166289500Y-53958470D01*
X166289501Y-53958476D01*
X166295908Y-54018083D01*
X166346202Y-54152928D01*
X166346206Y-54152935D01*
X166432452Y-54268144D01*
X166432455Y-54268147D01*
X166547664Y-54354393D01*
X166547671Y-54354397D01*
X166682517Y-54404691D01*
X166682516Y-54404691D01*
X166689444Y-54405435D01*
X166742127Y-54411100D01*
X168537872Y-54411099D01*
X168597483Y-54404691D01*
X168732331Y-54354396D01*
X168847546Y-54268146D01*
X168933796Y-54152931D01*
X168982810Y-54021516D01*
X169024681Y-53965584D01*
X169090145Y-53941166D01*
X169158418Y-53956017D01*
X169186673Y-53977169D01*
X169308599Y-54099095D01*
X169405384Y-54166865D01*
X169502165Y-54234632D01*
X169502167Y-54234633D01*
X169502170Y-54234635D01*
X169716337Y-54334503D01*
X169944592Y-54395663D01*
X170121034Y-54411100D01*
X170179999Y-54416259D01*
X170180000Y-54416259D01*
X170180001Y-54416259D01*
X170238966Y-54411100D01*
X170415408Y-54395663D01*
X170643663Y-54334503D01*
X170857830Y-54234635D01*
X171051401Y-54099095D01*
X171218495Y-53932001D01*
X171348425Y-53746442D01*
X171403002Y-53702817D01*
X171472500Y-53695623D01*
X171534855Y-53727146D01*
X171551575Y-53746442D01*
X171681281Y-53931682D01*
X171681505Y-53932001D01*
X171848599Y-54099095D01*
X171945384Y-54166865D01*
X172042165Y-54234632D01*
X172042167Y-54234633D01*
X172042170Y-54234635D01*
X172256337Y-54334503D01*
X172256350Y-54334506D01*
X172261431Y-54336357D01*
X172260673Y-54338437D01*
X172312219Y-54369824D01*
X172342776Y-54432658D01*
X172334512Y-54502037D01*
X172290051Y-54555935D01*
X172252596Y-54573050D01*
X172103410Y-54613024D01*
X172103409Y-54613025D01*
X172064582Y-54635443D01*
X172064580Y-54635444D01*
X171966490Y-54692075D01*
X171966482Y-54692081D01*
X171854678Y-54803886D01*
X169082352Y-57576211D01*
X169021029Y-57609696D01*
X168951337Y-57604712D01*
X168918511Y-57586384D01*
X168840890Y-57525970D01*
X168783591Y-57481372D01*
X168581069Y-57371772D01*
X168581061Y-57371769D01*
X168363274Y-57297002D01*
X168192920Y-57268575D01*
X168136137Y-57259100D01*
X167905863Y-57259100D01*
X167860436Y-57266680D01*
X167678725Y-57297002D01*
X167460938Y-57371769D01*
X167460930Y-57371772D01*
X167258408Y-57481372D01*
X167076694Y-57622806D01*
X167076689Y-57622811D01*
X166920727Y-57792230D01*
X166854808Y-57893128D01*
X166801662Y-57938484D01*
X166732431Y-57947908D01*
X166669095Y-57918406D01*
X166647192Y-57893128D01*
X166581272Y-57792230D01*
X166425650Y-57623180D01*
X166425308Y-57622808D01*
X166357036Y-57569670D01*
X166243591Y-57481372D01*
X166041069Y-57371772D01*
X166041061Y-57371769D01*
X165823274Y-57297002D01*
X165652920Y-57268575D01*
X165596137Y-57259100D01*
X165365863Y-57259100D01*
X165320436Y-57266680D01*
X165138725Y-57297002D01*
X164920938Y-57371769D01*
X164920930Y-57371772D01*
X164718408Y-57481372D01*
X164536694Y-57622806D01*
X164536689Y-57622811D01*
X164380727Y-57792231D01*
X164314508Y-57893586D01*
X164261361Y-57938943D01*
X164192130Y-57948366D01*
X164128795Y-57918863D01*
X164106891Y-57893585D01*
X164040873Y-57792537D01*
X163884970Y-57623180D01*
X163884960Y-57623171D01*
X163703322Y-57481796D01*
X163703316Y-57481792D01*
X163500868Y-57372232D01*
X163500856Y-57372227D01*
X163283156Y-57297491D01*
X163283137Y-57297487D01*
X163191000Y-57282110D01*
X163191000Y-58206348D01*
X163137081Y-58175219D01*
X163007880Y-58140600D01*
X162874120Y-58140600D01*
X162744919Y-58175219D01*
X162691000Y-58206348D01*
X162691000Y-57282111D01*
X162690999Y-57282110D01*
X162598862Y-57297487D01*
X162598843Y-57297491D01*
X162381143Y-57372227D01*
X162381131Y-57372232D01*
X162178683Y-57481792D01*
X162178677Y-57481796D01*
X161997039Y-57623171D01*
X161997029Y-57623180D01*
X161841126Y-57792537D01*
X161715224Y-57985244D01*
X161622757Y-58196046D01*
X161571464Y-58398599D01*
X161571464Y-58398600D01*
X162498749Y-58398600D01*
X162467619Y-58452519D01*
X162433000Y-58581720D01*
X162433000Y-58715480D01*
X162467619Y-58844681D01*
X162498749Y-58898600D01*
X161571464Y-58898600D01*
X161622757Y-59101153D01*
X161715224Y-59311955D01*
X161841126Y-59504662D01*
X161997029Y-59674019D01*
X161997039Y-59674028D01*
X162182733Y-59818560D01*
X162181789Y-59819772D01*
X162222639Y-59867643D01*
X162232060Y-59936874D01*
X162202556Y-60000209D01*
X162182181Y-60017863D01*
X162182459Y-60018220D01*
X161996694Y-60162806D01*
X161996689Y-60162811D01*
X161840728Y-60332229D01*
X161714782Y-60525005D01*
X161622282Y-60735885D01*
X161565753Y-60959115D01*
X161546738Y-61188594D01*
X161546738Y-61188605D01*
X161565753Y-61418084D01*
X161622282Y-61641314D01*
X161714782Y-61852194D01*
X161840728Y-62044970D01*
X161840731Y-62044973D01*
X161996692Y-62214392D01*
X162113124Y-62305014D01*
X162182459Y-62358980D01*
X162181476Y-62360241D01*
X162222183Y-62407949D01*
X162231600Y-62477181D01*
X162202092Y-62540514D01*
X162182136Y-62557805D01*
X162182459Y-62558220D01*
X161996694Y-62702806D01*
X161996689Y-62702811D01*
X161840728Y-62872229D01*
X161714782Y-63065005D01*
X161622282Y-63275885D01*
X161565753Y-63499115D01*
X161546738Y-63728594D01*
X161546738Y-63728605D01*
X161565753Y-63958084D01*
X161622282Y-64181314D01*
X161714782Y-64392194D01*
X161840728Y-64584970D01*
X161840731Y-64584973D01*
X161996692Y-64754392D01*
X161999519Y-64756592D01*
X162182459Y-64898980D01*
X162181476Y-64900241D01*
X162222183Y-64947949D01*
X162231600Y-65017181D01*
X162202092Y-65080514D01*
X162182136Y-65097805D01*
X162182459Y-65098220D01*
X161996694Y-65242806D01*
X161996689Y-65242811D01*
X161840728Y-65412229D01*
X161714782Y-65605005D01*
X161622282Y-65815885D01*
X161565753Y-66039115D01*
X161546738Y-66268594D01*
X161546738Y-66268605D01*
X161565753Y-66498084D01*
X161608374Y-66666393D01*
X161605748Y-66736214D01*
X161575849Y-66784514D01*
X160235486Y-68124878D01*
X160123681Y-68236682D01*
X160123677Y-68236687D01*
X160081063Y-68310499D01*
X160081063Y-68310500D01*
X160044623Y-68373614D01*
X160038421Y-68396759D01*
X160003699Y-68526343D01*
X160003699Y-68526345D01*
X160003699Y-68694446D01*
X160003700Y-68694459D01*
X160003700Y-69267587D01*
X159984015Y-69334626D01*
X159976650Y-69344896D01*
X159974386Y-69347734D01*
X159878411Y-69500476D01*
X159818831Y-69670745D01*
X159818830Y-69670750D01*
X159798635Y-69849996D01*
X159798635Y-69850003D01*
X159818830Y-70029249D01*
X159818831Y-70029254D01*
X159878411Y-70199523D01*
X159955877Y-70322808D01*
X159974384Y-70352262D01*
X160101938Y-70479816D01*
X160164022Y-70518826D01*
X160165945Y-70520034D01*
X160212236Y-70572369D01*
X160222884Y-70641422D01*
X160194509Y-70705271D01*
X160187654Y-70712709D01*
X159905286Y-70995078D01*
X159793482Y-71106881D01*
X159793478Y-71106887D01*
X159748322Y-71185100D01*
X159714424Y-71243812D01*
X159714423Y-71243813D01*
X159705491Y-71277148D01*
X159673499Y-71396543D01*
X159673499Y-71396545D01*
X159673499Y-71564646D01*
X159673500Y-71564659D01*
X159673500Y-78170730D01*
X159673499Y-78170748D01*
X159673499Y-78336454D01*
X159673498Y-78336454D01*
X155287600Y-78336454D01*
X155287600Y-78220774D01*
X155253525Y-78093607D01*
X155220612Y-78036600D01*
X156118236Y-78036600D01*
X156118235Y-78036599D01*
X156061032Y-77823113D01*
X156061029Y-77823107D01*
X155961200Y-77609022D01*
X155961199Y-77609020D01*
X155825713Y-77415526D01*
X155825708Y-77415520D01*
X155703653Y-77293465D01*
X155670168Y-77232142D01*
X155675152Y-77162450D01*
X155717024Y-77106517D01*
X155748000Y-77089602D01*
X155879931Y-77040396D01*
X155995146Y-76954146D01*
X156081396Y-76838931D01*
X156131691Y-76704083D01*
X156138100Y-76644473D01*
X156138099Y-74848728D01*
X156131691Y-74789117D01*
X156129987Y-74784549D01*
X156081397Y-74654271D01*
X156081393Y-74654264D01*
X155995147Y-74539055D01*
X155995144Y-74539052D01*
X155879935Y-74452806D01*
X155879928Y-74452802D01*
X155745082Y-74402508D01*
X155745083Y-74402508D01*
X155685483Y-74396101D01*
X155685481Y-74396100D01*
X155685473Y-74396100D01*
X155685464Y-74396100D01*
X153889729Y-74396100D01*
X153889723Y-74396101D01*
X153830116Y-74402508D01*
X153695271Y-74452802D01*
X153695264Y-74452806D01*
X153580055Y-74539052D01*
X153580052Y-74539055D01*
X153493806Y-74654264D01*
X153493802Y-74654271D01*
X153443508Y-74789117D01*
X153437101Y-74848716D01*
X153437101Y-74848723D01*
X153437100Y-74848735D01*
X153437100Y-76644470D01*
X153437101Y-76644476D01*
X153443508Y-76704083D01*
X153493802Y-76838928D01*
X153493806Y-76838935D01*
X153580052Y-76954144D01*
X153580055Y-76954147D01*
X153695264Y-77040393D01*
X153695271Y-77040397D01*
X153695274Y-77040398D01*
X153827198Y-77089602D01*
X153883131Y-77131473D01*
X153907549Y-77196937D01*
X153892698Y-77265210D01*
X153871547Y-77293465D01*
X153749486Y-77415526D01*
X153614000Y-77609020D01*
X153613999Y-77609022D01*
X153514170Y-77823107D01*
X153514167Y-77823113D01*
X153456964Y-78036599D01*
X153456964Y-78036600D01*
X154354588Y-78036600D01*
X154321675Y-78093607D01*
X154287600Y-78220774D01*
X154287600Y-78352426D01*
X154321675Y-78479593D01*
X154354588Y-78536600D01*
X153456964Y-78536600D01*
X153514167Y-78750086D01*
X153514170Y-78750092D01*
X153613999Y-78964178D01*
X153749494Y-79157682D01*
X153916517Y-79324705D01*
X154102195Y-79454719D01*
X154145819Y-79509296D01*
X154153012Y-79578795D01*
X154121490Y-79641149D01*
X154102195Y-79657869D01*
X153916194Y-79788108D01*
X153749105Y-79955197D01*
X153613565Y-80148769D01*
X153613564Y-80148771D01*
X153513698Y-80362935D01*
X153513694Y-80362944D01*
X153452538Y-80591186D01*
X153452536Y-80591196D01*
X153431941Y-80826599D01*
X152925900Y-80826599D01*
X152925900Y-64991999D01*
X153406141Y-64991999D01*
X153406141Y-64992000D01*
X153426736Y-65227403D01*
X153426738Y-65227413D01*
X153487894Y-65455655D01*
X153487896Y-65455659D01*
X153487897Y-65455663D01*
X153546820Y-65582023D01*
X153587765Y-65669830D01*
X153587767Y-65669834D01*
X153723301Y-65863395D01*
X153723306Y-65863402D01*
X153890397Y-66030493D01*
X153890403Y-66030498D01*
X153918632Y-66050264D01*
X154038596Y-66134264D01*
X154076394Y-66160730D01*
X154120019Y-66215307D01*
X154127213Y-66284805D01*
X154095690Y-66347160D01*
X154076395Y-66363880D01*
X153890722Y-66493890D01*
X153890720Y-66493891D01*
X153723691Y-66660920D01*
X153723686Y-66660926D01*
X153588200Y-66854420D01*
X153588199Y-66854422D01*
X153488370Y-67068507D01*
X153488367Y-67068513D01*
X153431164Y-67281999D01*
X153431164Y-67282000D01*
X154328788Y-67282000D01*
X154295875Y-67339007D01*
X154261800Y-67466174D01*
X154261800Y-67597826D01*
X154295875Y-67724993D01*
X154328788Y-67782000D01*
X153431164Y-67782000D01*
X153488367Y-67995486D01*
X153488370Y-67995492D01*
X153588199Y-68209578D01*
X153723694Y-68403082D01*
X153890717Y-68570105D01*
X154084221Y-68705600D01*
X154298307Y-68805429D01*
X154298316Y-68805433D01*
X154511800Y-68862634D01*
X154511800Y-67965012D01*
X154568807Y-67997925D01*
X154695974Y-68032000D01*
X154827626Y-68032000D01*
X154954793Y-67997925D01*
X155011800Y-67965012D01*
X155011800Y-68862633D01*
X155225283Y-68805433D01*
X155225292Y-68805429D01*
X155439378Y-68705600D01*
X155632882Y-68570105D01*
X155799905Y-68403082D01*
X155935400Y-68209578D01*
X156035229Y-67995492D01*
X156035232Y-67995486D01*
X156092436Y-67782000D01*
X155194812Y-67782000D01*
X155227725Y-67724993D01*
X155261800Y-67597826D01*
X155261800Y-67466174D01*
X155227725Y-67339007D01*
X155194812Y-67282000D01*
X156092436Y-67282000D01*
X156092435Y-67281999D01*
X156035232Y-67068513D01*
X156035229Y-67068507D01*
X155935400Y-66854422D01*
X155935399Y-66854420D01*
X155799913Y-66660926D01*
X155799908Y-66660920D01*
X155632878Y-66493890D01*
X155447205Y-66363879D01*
X155403580Y-66309302D01*
X155396388Y-66239804D01*
X155427910Y-66177449D01*
X155447206Y-66160730D01*
X155484998Y-66134268D01*
X155633201Y-66030495D01*
X155800295Y-65863401D01*
X155935835Y-65669830D01*
X156035703Y-65455663D01*
X156096863Y-65227408D01*
X156117459Y-64992000D01*
X156096863Y-64756592D01*
X156035703Y-64528337D01*
X155935835Y-64314171D01*
X155927865Y-64302789D01*
X155800296Y-64120600D01*
X155764401Y-64084705D01*
X155678367Y-63998671D01*
X155644884Y-63937351D01*
X155649868Y-63867659D01*
X155691739Y-63811725D01*
X155722715Y-63794810D01*
X155854131Y-63745796D01*
X155969346Y-63659546D01*
X156055596Y-63544331D01*
X156105891Y-63409483D01*
X156112300Y-63349873D01*
X156112299Y-61554128D01*
X156105891Y-61494517D01*
X156077383Y-61418084D01*
X156055597Y-61359671D01*
X156055593Y-61359664D01*
X155969347Y-61244455D01*
X155969344Y-61244452D01*
X155854135Y-61158206D01*
X155854128Y-61158202D01*
X155719282Y-61107908D01*
X155719283Y-61107908D01*
X155659683Y-61101501D01*
X155659681Y-61101500D01*
X155659673Y-61101500D01*
X155659664Y-61101500D01*
X153863929Y-61101500D01*
X153863923Y-61101501D01*
X153804316Y-61107908D01*
X153669471Y-61158202D01*
X153669464Y-61158206D01*
X153554255Y-61244452D01*
X153554252Y-61244455D01*
X153468006Y-61359664D01*
X153468002Y-61359671D01*
X153417708Y-61494517D01*
X153411301Y-61554116D01*
X153411301Y-61554123D01*
X153411300Y-61554135D01*
X153411300Y-63349870D01*
X153411301Y-63349876D01*
X153417708Y-63409483D01*
X153468002Y-63544328D01*
X153468006Y-63544335D01*
X153554252Y-63659544D01*
X153554255Y-63659547D01*
X153669464Y-63745793D01*
X153669471Y-63745797D01*
X153800881Y-63794810D01*
X153856815Y-63836681D01*
X153881232Y-63902145D01*
X153866380Y-63970418D01*
X153845230Y-63998673D01*
X153723303Y-64120600D01*
X153587765Y-64314169D01*
X153587764Y-64314171D01*
X153487898Y-64528335D01*
X153487894Y-64528344D01*
X153426738Y-64756586D01*
X153426736Y-64756596D01*
X153406141Y-64991999D01*
X152925900Y-64991999D01*
X152925900Y-55802706D01*
X152926018Y-55797297D01*
X152931258Y-55677276D01*
X152942786Y-55413226D01*
X152943726Y-55402495D01*
X152993552Y-55024025D01*
X152995425Y-55013405D01*
X153029107Y-54861472D01*
X154575500Y-54861472D01*
X154575500Y-55123727D01*
X154589525Y-55230248D01*
X154609730Y-55383716D01*
X154677602Y-55637018D01*
X154677605Y-55637028D01*
X154777953Y-55879290D01*
X154777958Y-55879300D01*
X154909075Y-56106403D01*
X155068718Y-56314451D01*
X155068726Y-56314460D01*
X155254140Y-56499874D01*
X155254148Y-56499881D01*
X155462196Y-56659524D01*
X155689299Y-56790641D01*
X155689309Y-56790646D01*
X155931571Y-56890994D01*
X155931581Y-56890998D01*
X156184884Y-56958870D01*
X156444880Y-56993100D01*
X156444887Y-56993100D01*
X156707113Y-56993100D01*
X156707120Y-56993100D01*
X156967116Y-56958870D01*
X157220419Y-56890998D01*
X157462697Y-56790643D01*
X157689803Y-56659524D01*
X157897851Y-56499882D01*
X157897855Y-56499877D01*
X157897860Y-56499874D01*
X158083274Y-56314460D01*
X158083277Y-56314455D01*
X158083282Y-56314451D01*
X158242924Y-56106403D01*
X158374043Y-55879297D01*
X158474398Y-55637019D01*
X158542270Y-55383716D01*
X158576500Y-55123720D01*
X158576500Y-54861480D01*
X158542270Y-54601484D01*
X158474398Y-54348181D01*
X158468733Y-54334505D01*
X158374046Y-54105909D01*
X158374041Y-54105899D01*
X158242924Y-53878796D01*
X158083281Y-53670748D01*
X158083274Y-53670740D01*
X157897860Y-53485326D01*
X157897851Y-53485318D01*
X157689803Y-53325675D01*
X157462700Y-53194558D01*
X157462690Y-53194553D01*
X157220428Y-53094205D01*
X157220421Y-53094203D01*
X157220419Y-53094202D01*
X156967116Y-53026330D01*
X156909339Y-53018723D01*
X156707127Y-52992100D01*
X156707120Y-52992100D01*
X156444880Y-52992100D01*
X156444872Y-52992100D01*
X156229052Y-53020515D01*
X156184884Y-53026330D01*
X156056986Y-53060600D01*
X155931581Y-53094202D01*
X155931571Y-53094205D01*
X155689309Y-53194553D01*
X155689299Y-53194558D01*
X155462196Y-53325675D01*
X155254148Y-53485318D01*
X155068718Y-53670748D01*
X154909075Y-53878796D01*
X154777958Y-54105899D01*
X154777953Y-54105909D01*
X154677605Y-54348171D01*
X154677602Y-54348181D01*
X154612418Y-54591455D01*
X154609730Y-54601485D01*
X154575500Y-54861472D01*
X153029107Y-54861472D01*
X153078049Y-54640709D01*
X153080840Y-54630295D01*
X153195630Y-54266227D01*
X153199317Y-54256095D01*
X153345403Y-53903412D01*
X153349961Y-53893638D01*
X153526222Y-53555045D01*
X153531617Y-53545700D01*
X153736725Y-53223744D01*
X153742915Y-53214905D01*
X153975296Y-52912060D01*
X153982234Y-52903791D01*
X154240126Y-52622352D01*
X154247752Y-52614726D01*
X154529191Y-52356834D01*
X154537460Y-52349896D01*
X154840305Y-52117515D01*
X154849144Y-52111325D01*
X155171100Y-51906217D01*
X155180445Y-51900822D01*
X155519038Y-51724561D01*
X155528812Y-51720003D01*
X155881495Y-51573917D01*
X155891627Y-51570230D01*
X156255695Y-51455440D01*
X156266109Y-51452649D01*
X156638805Y-51370025D01*
X156649425Y-51368152D01*
X157027895Y-51318326D01*
X157038626Y-51317386D01*
X157422697Y-51300617D01*
X157428106Y-51300500D01*
X157491292Y-51300500D01*
X243727108Y-51300500D01*
X243790294Y-51300500D01*
X243795702Y-51300617D01*
G37*
%TD.AperFunction*%
%TD*%
M02*
