M48
; DRILL file {KiCad 8.0.2} date 2024-06-01T22:09:40-0500
; FORMAT={-:-/ absolute / inch / decimal}
; #@! TF.CreationDate,2024-06-01T22:09:40-05:00
; #@! TF.GenerationSoftware,Kicad,Pcbnew,8.0.2
; #@! TF.FileFunction,Plated,1,4,PTH
FMAT,2
INCH
; #@! TA.AperFunction,Plated,PTH,ViaDrill
T1C0.0100
; #@! TA.AperFunction,Plated,PTH,ComponentDrill
T2C0.0236
; #@! TA.AperFunction,Plated,PTH,ComponentDrill
T3C0.0300
; #@! TA.AperFunction,Plated,PTH,ComponentDrill
T4C0.0394
; #@! TA.AperFunction,Plated,PTH,ComponentDrill
T5C0.0492
; #@! TA.AperFunction,Plated,PTH,ComponentDrill
T6C0.1300
%
G90
G05
T1
X3.2634Y-2.9201
X3.2654Y-3.0067
X3.2748Y-3.3205
X3.3193Y-2.7882
X3.5431Y-2.9412
X3.5436Y-2.9142
X3.5448Y-2.9684
X3.5461Y-2.8835
X3.5488Y-3.0212
X3.5523Y-2.9944
X3.76Y-2.9153
X3.987Y-3.5209
X4.0366Y-3.4055
X4.037Y-3.3102
X4.0799Y-3.7272
X4.0815Y-3.5189
X4.089Y-3.4051
X4.0898Y-3.3091
X4.1594Y-3.6012
X4.1985Y-3.4308
X4.2138Y-2.7807
X4.2543Y-2.7807
X4.2606Y-3.8091
X4.2614Y-3.6421
X4.3051Y-3.8091
X4.3071Y-3.6409
X4.3122Y-3.0354
X4.3543Y-3.0343
X4.3642Y-3.7544
X4.4146Y-3.6335
X4.4197Y-3.6677
X4.4331Y-3.5524
X4.5539Y-3.5531
X4.5626Y-3.6122
X4.6319Y-3.6283
X4.6323Y-3.7673
X4.6469Y-3.1572
X4.6555Y-3.4803
X4.7039Y-3.2335
X4.7516Y-3.5748
X4.7673Y-3.3523
X4.7724Y-3.55
X4.7849Y-3.3318
X4.8016Y-3.2819
X4.8022Y-3.586
X4.8228Y-3.7976
X4.8256Y-3.1209
X4.8291Y-3.585
X4.8441Y-2.8839
X4.8555Y-3.5921
X4.878Y-3.7256
X4.8819Y-3.1236
X4.8969Y-3.528
X4.8969Y-3.619
X4.9024Y-3.4819
X4.9031Y-3.3748
X4.9039Y-3.4248
X4.9098Y-3.7937
X4.9323Y-3.5252
X4.9323Y-3.5252
X4.9484Y-3.2543
X4.9693Y-3.7945
X4.9799Y-3.528
X5.0417Y-3.4512
X5.0417Y-3.5287
X5.0433Y-3.4236
X5.0548Y-3.3897
X5.0811Y-3.5543
X5.1059Y-3.9657
X5.1177Y-3.5981
X5.1382Y-3.3469
X5.1496Y-3.5469
X5.1578Y-3.5039
X5.1705Y-3.528
X5.187Y-3.5012
X5.2583Y-3.3909
X5.3319Y-3.1744
X5.5484Y-3.6675
X5.6661Y-3.5571
X5.6882Y-3.6535
X5.8945Y-3.3894
X6.1012Y-2.9256
X6.1016Y-3.1382
T3
X3.719Y-3.5155
X3.719Y-3.6155
X3.719Y-3.7155
X3.719Y-3.8155
X3.819Y-3.5655
X3.819Y-3.6655
X3.819Y-3.7655
X3.819Y-3.8655
T4
X4.4129Y-4.0078
X4.5129Y-4.0078
X4.7116Y-4.0078
X4.8116Y-4.0078
X4.9116Y-4.0078
X5.7846Y-3.0091
X5.7846Y-3.1091
X5.7846Y-3.2091
X5.7846Y-3.3091
X5.7846Y-3.4091
X5.7846Y-3.5091
X5.7846Y-3.6091
X5.7846Y-3.7091
X5.7846Y-3.8091
X5.7846Y-3.9091
T5
X5.9941Y-3.3685
X5.9941Y-3.4685
X5.9941Y-3.5685
X6.0941Y-3.3685
X6.0941Y-3.4685
X6.0941Y-3.5685
T6
X3.469Y-3.4655
X3.469Y-3.9155
T2
G00X5.1232Y-2.7843
M15
G01X5.1232Y-2.7528
M16
G05
G00X5.1232Y-2.9547
M15
G01X5.1232Y-2.9114
M16
G05
G00X5.4634Y-2.7843
M15
G01X5.4634Y-2.7528
M16
G05
G00X5.4634Y-2.9547
M15
G01X5.4634Y-2.9114
M16
G05
M30
