%TF.GenerationSoftware,KiCad,Pcbnew,8.0.2*%
%TF.CreationDate,2024-06-01T22:09:34-05:00*%
%TF.ProjectId,GP2040-RE,47503230-3430-42d5-9245-2e6b69636164,rev?*%
%TF.SameCoordinates,Original*%
%TF.FileFunction,Copper,L4,Bot*%
%TF.FilePolarity,Positive*%
%FSLAX46Y46*%
G04 Gerber Fmt 4.6, Leading zero omitted, Abs format (unit mm)*
G04 Created by KiCad (PCBNEW 8.0.2) date 2024-06-01 22:09:34*
%MOMM*%
%LPD*%
G01*
G04 APERTURE LIST*
G04 Aperture macros list*
%AMRoundRect*
0 Rectangle with rounded corners*
0 $1 Rounding radius*
0 $2 $3 $4 $5 $6 $7 $8 $9 X,Y pos of 4 corners*
0 Add a 4 corners polygon primitive as box body*
4,1,4,$2,$3,$4,$5,$6,$7,$8,$9,$2,$3,0*
0 Add four circle primitives for the rounded corners*
1,1,$1+$1,$2,$3*
1,1,$1+$1,$4,$5*
1,1,$1+$1,$6,$7*
1,1,$1+$1,$8,$9*
0 Add four rect primitives between the rounded corners*
20,1,$1+$1,$2,$3,$4,$5,0*
20,1,$1+$1,$4,$5,$6,$7,0*
20,1,$1+$1,$6,$7,$8,$9,0*
20,1,$1+$1,$8,$9,$2,$3,0*%
G04 Aperture macros list end*
%TA.AperFunction,ComponentPad*%
%ADD10R,1.700000X1.700000*%
%TD*%
%TA.AperFunction,ComponentPad*%
%ADD11O,1.700000X1.700000*%
%TD*%
%TA.AperFunction,ComponentPad*%
%ADD12O,1.000000X2.100000*%
%TD*%
%TA.AperFunction,ComponentPad*%
%ADD13RoundRect,0.250000X0.250000X0.650000X-0.250000X0.650000X-0.250000X-0.650000X0.250000X-0.650000X0*%
%TD*%
%TA.AperFunction,ComponentPad*%
%ADD14C,1.270000*%
%TD*%
%TA.AperFunction,ComponentPad*%
%ADD15C,3.810000*%
%TD*%
%TA.AperFunction,ComponentPad*%
%ADD16R,1.875000X1.875000*%
%TD*%
%TA.AperFunction,ComponentPad*%
%ADD17C,1.875000*%
%TD*%
%TA.AperFunction,ViaPad*%
%ADD18C,0.508000*%
%TD*%
%TA.AperFunction,Conductor*%
%ADD19C,0.177800*%
%TD*%
G04 APERTURE END LIST*
D10*
%TO.P,J5,1,Pin_1*%
%TO.N,/UART_RX*%
X119675000Y-101798000D03*
D11*
%TO.P,J5,2,Pin_2*%
%TO.N,/UART_TX*%
X122215000Y-101798000D03*
%TO.P,J5,3,Pin_3*%
%TO.N,GND*%
X124755000Y-101798000D03*
%TD*%
D12*
%TO.P,J4,SH1,SHELL_GND*%
%TO.N,GND*%
X138770000Y-74500000D03*
%TO.P,J4,SH2,SHELL_GND*%
X130130000Y-74500000D03*
D13*
%TO.P,J4,SH3,SHELL_GND*%
X138770000Y-70320000D03*
%TO.P,J4,SH4,SHELL_GND*%
X130130000Y-70320000D03*
%TD*%
D10*
%TO.P,J9,1,Pin_1*%
%TO.N,VCC*%
X112088000Y-101798000D03*
D11*
%TO.P,J9,2,Pin_2*%
%TO.N,GND*%
X114628000Y-101798000D03*
%TD*%
D10*
%TO.P,J8,1,Pin_1*%
%TO.N,GND*%
X146930000Y-99290000D03*
D11*
%TO.P,J8,2,Pin_2*%
%TO.N,+3.3V*%
X146930000Y-96750000D03*
%TO.P,J8,3,Pin_3*%
%TO.N,unconnected-(J8-Pin_3-Pad3)*%
X146930000Y-94210000D03*
%TO.P,J8,4,Pin_4*%
%TO.N,/OCS*%
X146930000Y-91670000D03*
%TO.P,J8,5,Pin_5*%
%TO.N,/RESET*%
X146930000Y-89130000D03*
%TO.P,J8,6,Pin_6*%
%TO.N,/Data_Command*%
X146930000Y-86590000D03*
%TO.P,J8,7,Pin_7*%
%TO.N,/SPI1_SCK*%
X146930000Y-84050000D03*
%TO.P,J8,8,Pin_8*%
%TO.N,/SPI1_TX_MOSI*%
X146930000Y-81510000D03*
%TO.P,J8,9,Pin_9*%
%TO.N,/SPI1_RX_MISO*%
X146930000Y-78970000D03*
%TO.P,J8,10,Pin_10*%
%TO.N,unconnected-(J8-Pin_10-Pad10)*%
X146930000Y-76430000D03*
%TD*%
D14*
%TO.P,J7,1,1*%
%TO.N,GND*%
X94462700Y-89293700D03*
%TO.P,J7,2,2*%
%TO.N,/OrangeSolid*%
X97002700Y-90563700D03*
%TO.P,J7,3,3*%
%TO.N,/GreenStripe*%
X94462700Y-91833700D03*
%TO.P,J7,4,4*%
%TO.N,/BlueSolid*%
X97002700Y-93103700D03*
%TO.P,J7,5,5*%
%TO.N,/BlueStripe*%
X94462700Y-94373700D03*
%TO.P,J7,6,6*%
%TO.N,/GreenSolid*%
X97002700Y-95643700D03*
%TO.P,J7,7,7*%
%TO.N,/BrownStripe*%
X94462700Y-96913700D03*
%TO.P,J7,8,8*%
%TO.N,/BrownSolid*%
X97002700Y-98183700D03*
D15*
%TO.P,J7,9*%
%TO.N,N/C*%
X88112700Y-88023700D03*
%TO.P,J7,10*%
X88112700Y-99453700D03*
%TD*%
D16*
%TO.P,J2,1,1*%
%TO.N,/SDA_0*%
X152250000Y-85560000D03*
D17*
%TO.P,J2,2,2*%
%TO.N,/SCL_0*%
X154790000Y-85560000D03*
%TO.P,J2,3,3*%
%TO.N,+3.3V*%
X152250000Y-88100000D03*
%TO.P,J2,4,4*%
%TO.N,GND*%
X154790000Y-88100000D03*
%TO.P,J2,5,5*%
%TO.N,/RUN*%
X152250000Y-90640000D03*
%TO.P,J2,6,6*%
%TO.N,VCC*%
X154790000Y-90640000D03*
%TD*%
D18*
%TO.N,GND*%
X133560000Y-86130000D03*
X82890000Y-74170000D03*
X120690000Y-90800000D03*
X135430000Y-80630000D03*
X124560000Y-86990000D03*
X102530000Y-86500000D03*
X119480000Y-82130000D03*
X108240000Y-92510000D03*
X124520000Y-88440000D03*
X107030000Y-70629300D03*
X115890000Y-91750000D03*
X110850000Y-95360826D03*
X124540000Y-85720000D03*
X108220000Y-96750000D03*
X103860000Y-86490000D03*
X126220000Y-96380000D03*
X125280000Y-89540000D03*
X154970000Y-74310000D03*
X154980000Y-79710000D03*
X103880000Y-84050000D03*
X102540000Y-84080000D03*
X112600000Y-90230000D03*
X122500000Y-96460000D03*
X117660000Y-95690000D03*
X109400000Y-92480000D03*
X109350000Y-96750000D03*
X118250000Y-88400000D03*
X84310000Y-70820000D03*
X129690000Y-100730000D03*
X105650000Y-91470000D03*
X118030967Y-80193249D03*
X124710000Y-96360000D03*
X83180000Y-84340000D03*
X125280000Y-89540000D03*
%TO.N,+3.3V*%
X121960000Y-83360000D03*
X82940000Y-76370000D03*
X106642841Y-87143541D03*
X112130000Y-92290000D03*
X122570000Y-79270000D03*
X108060000Y-70629300D03*
X117650000Y-92160000D03*
X123900000Y-94630000D03*
X112260000Y-93160000D03*
X130510000Y-85010000D03*
X124000000Y-79340000D03*
%TO.N,+1V1*%
X126490000Y-89610000D03*
X125690000Y-82660000D03*
%TO.N,/InputVoltage*%
X115670000Y-90250000D03*
X103630000Y-94670000D03*
%TO.N,VBUS*%
X103670000Y-89380000D03*
X123040000Y-73250000D03*
%TO.N,/SDA_0*%
X110600000Y-77070000D03*
X128060000Y-89630000D03*
%TO.N,/SCL_0*%
X149720000Y-86090000D03*
X109530000Y-77100000D03*
X129060000Y-90280000D03*
%TO.N,/OrangeSolid*%
X101270000Y-89430000D03*
%TO.N,/D2_gpio*%
X128060000Y-87660000D03*
X90140658Y-76737304D03*
%TO.N,/D0_gpio*%
X131009300Y-89000000D03*
X90008191Y-74020700D03*
%TO.N,/D1_gpio*%
X90070000Y-73240000D03*
X131750000Y-88930000D03*
%TO.N,/CLK_gpio*%
X131330000Y-89610000D03*
X89993765Y-74706350D03*
%TO.N,/D3_gpio*%
X128100000Y-86960000D03*
X90228458Y-76057145D03*
%TO.N,/CMD_gpio*%
X130800000Y-90090000D03*
X90038250Y-75398247D03*
%TO.N,/CD_gpio*%
X95504000Y-74047500D03*
X128392572Y-86098360D03*
%TO.N,/OCS*%
X124380000Y-91921900D03*
%TO.N,/Data_Command*%
X123330000Y-91240000D03*
X129990000Y-91390700D03*
%TO.N,/SPI1_RX_MISO*%
X143920000Y-90349300D03*
X121219300Y-90170000D03*
X140930000Y-93153800D03*
%TO.N,/SPI1_SCK*%
X144480000Y-92798200D03*
X121974635Y-91084477D03*
%TO.N,/SPI1_TX_MOSI*%
X122660000Y-91060000D03*
%TO.N,/RESET*%
X124380000Y-89610000D03*
%TO.N,/UART_TX*%
X121536682Y-84628915D03*
%TO.N,/UART_RX*%
X121090000Y-85149300D03*
%TD*%
D19*
%TO.N,/SDA_0*%
X110844400Y-77314400D02*
X117866442Y-77314400D01*
X127147015Y-87483397D02*
X128060000Y-88396382D01*
X117866442Y-77314400D02*
X127147015Y-86594973D01*
X127147015Y-86594973D02*
X127147015Y-87483397D01*
X110600000Y-77070000D02*
X110844400Y-77314400D01*
X128060000Y-88396382D02*
X128060000Y-89630000D01*
%TO.N,/SCL_0*%
X126791415Y-87630691D02*
X126791415Y-86742267D01*
X110100000Y-77670000D02*
X109530000Y-77100000D01*
X150394200Y-86764200D02*
X153585800Y-86764200D01*
X127539300Y-89845682D02*
X127539300Y-88378576D01*
X153585800Y-86764200D02*
X154790000Y-85560000D01*
X117719148Y-77670000D02*
X110100000Y-77670000D01*
X127973618Y-90280000D02*
X127539300Y-89845682D01*
X129060000Y-90280000D02*
X127973618Y-90280000D01*
X127539300Y-88378576D02*
X126791415Y-87630691D01*
X149720000Y-86090000D02*
X150394200Y-86764200D01*
X126791415Y-86742267D02*
X117719148Y-77670000D01*
%TO.N,/D2_gpio*%
X120982500Y-76999864D02*
X120982500Y-79927564D01*
X98135676Y-74593600D02*
X118576236Y-74593600D01*
X92136200Y-74923800D02*
X97805476Y-74923800D01*
X90322696Y-76737304D02*
X92136200Y-74923800D01*
X97805476Y-74923800D02*
X98135676Y-74593600D01*
X120982500Y-79927564D02*
X127502615Y-86447679D01*
X127502615Y-87102615D02*
X128060000Y-87660000D01*
X118576236Y-74593600D02*
X120982500Y-76999864D01*
X90140658Y-76737304D02*
X90322696Y-76737304D01*
X127502615Y-86447679D02*
X127502615Y-87102615D01*
%TO.N,/D0_gpio*%
X130240000Y-85476382D02*
X130240000Y-88230700D01*
X124640700Y-79860700D02*
X129989300Y-85209300D01*
X90139300Y-74020700D02*
X91344400Y-72815600D01*
X129989300Y-85209300D02*
X129989300Y-85225682D01*
X123784318Y-79860700D02*
X124640700Y-79860700D01*
X130240000Y-88230700D02*
X131009300Y-89000000D01*
X129989300Y-85225682D02*
X130240000Y-85476382D01*
X90008191Y-74020700D02*
X90139300Y-74020700D01*
X123479300Y-79555682D02*
X123784318Y-79860700D01*
X91344400Y-72815600D02*
X119312706Y-72815600D01*
X119312706Y-72815600D02*
X123479300Y-76982194D01*
X123479300Y-76982194D02*
X123479300Y-79555682D01*
%TO.N,/D1_gpio*%
X131750000Y-88930000D02*
X131750000Y-84750000D01*
X131750000Y-84750000D02*
X119460000Y-72460000D01*
X90850000Y-72460000D02*
X90070000Y-73240000D01*
X119460000Y-72460000D02*
X90850000Y-72460000D01*
%TO.N,/CLK_gpio*%
X119165412Y-73171200D02*
X91598800Y-73171200D01*
X131314282Y-89610000D02*
X131224982Y-89520700D01*
X131330000Y-89610000D02*
X131314282Y-89610000D01*
X123123700Y-79702976D02*
X123123700Y-77129488D01*
X90063650Y-74706350D02*
X89993765Y-74706350D01*
X91598800Y-73171200D02*
X90063650Y-74706350D01*
X130793618Y-89520700D02*
X129633700Y-88360782D01*
X129633700Y-85356594D02*
X124493406Y-80216300D01*
X129633700Y-88360782D02*
X129633700Y-85356594D01*
X123123700Y-77129488D02*
X119165412Y-73171200D01*
X123637024Y-80216300D02*
X123123700Y-79702976D01*
X124493406Y-80216300D02*
X123637024Y-80216300D01*
X131224982Y-89520700D02*
X130793618Y-89520700D01*
%TO.N,/D3_gpio*%
X128100000Y-86542170D02*
X128100000Y-86960000D01*
X97658182Y-74568200D02*
X97988382Y-74238000D01*
X95280118Y-74560000D02*
X95288318Y-74568200D01*
X121338100Y-76852570D02*
X121338100Y-79780270D01*
X95288318Y-74568200D02*
X97658182Y-74568200D01*
X121338100Y-79780270D02*
X128100000Y-86542170D01*
X118723530Y-74238000D02*
X121338100Y-76852570D01*
X90228458Y-76057145D02*
X91725603Y-74560000D01*
X97988382Y-74238000D02*
X118723530Y-74238000D01*
X91725603Y-74560000D02*
X95280118Y-74560000D01*
%TO.N,/CMD_gpio*%
X122049300Y-76557982D02*
X122049300Y-79485682D01*
X123135518Y-80571900D02*
X124346112Y-80571900D01*
X129278100Y-85503888D02*
X129278100Y-88568100D01*
X129278100Y-88568100D02*
X130800000Y-90090000D01*
X122049300Y-79485682D02*
X123135518Y-80571900D01*
X124346112Y-80571900D02*
X129278100Y-85503888D01*
X119018118Y-73526800D02*
X122049300Y-76557982D01*
X91909697Y-73526800D02*
X119018118Y-73526800D01*
X90038250Y-75398247D02*
X91909697Y-73526800D01*
%TO.N,/CD_gpio*%
X118870824Y-73882400D02*
X95669100Y-73882400D01*
X121693700Y-76705276D02*
X118870824Y-73882400D01*
X121693700Y-79632976D02*
X121693700Y-76705276D01*
X128392572Y-86098360D02*
X128159084Y-86098360D01*
X95669100Y-73882400D02*
X95504000Y-74047500D01*
X128159084Y-86098360D02*
X121693700Y-79632976D01*
%TO.N,/OCS*%
X124380000Y-91921900D02*
X146678100Y-91921900D01*
X146678100Y-91921900D02*
X146930000Y-91670000D01*
%TO.N,/Data_Command*%
X123491200Y-91401200D02*
X123330000Y-91240000D01*
X129979500Y-91401200D02*
X123491200Y-91401200D01*
X129990000Y-91390700D02*
X129979500Y-91401200D01*
%TO.N,/SPI1_RX_MISO*%
X143920000Y-90349300D02*
X143920000Y-81980000D01*
X121219300Y-90170000D02*
X121219300Y-91065524D01*
X121219300Y-91065524D02*
X123307576Y-93153800D01*
X123307576Y-93153800D02*
X140930000Y-93153800D01*
X143920000Y-81980000D02*
X146930000Y-78970000D01*
%TO.N,/SPI1_SCK*%
X123648924Y-92798200D02*
X121974635Y-91123911D01*
X121974635Y-91123911D02*
X121974635Y-91084477D01*
X124742976Y-92798200D02*
X123648924Y-92798200D01*
X124908076Y-92633100D02*
X124742976Y-92798200D01*
X144480000Y-92798200D02*
X144314900Y-92633100D01*
X144314900Y-92633100D02*
X124908076Y-92633100D01*
%TO.N,/SPI1_TX_MOSI*%
X148050000Y-82630000D02*
X146930000Y-81510000D01*
X148050000Y-92280000D02*
X148050000Y-82630000D01*
X147392553Y-92786700D02*
X147974627Y-92204627D01*
X122660000Y-91306382D02*
X123796218Y-92442600D01*
X122660000Y-91060000D02*
X122660000Y-91306382D01*
X124760782Y-92277500D02*
X145958247Y-92277500D01*
X146467447Y-92786700D02*
X147392553Y-92786700D01*
X124595682Y-92442600D02*
X124760782Y-92277500D01*
X145958247Y-92277500D02*
X146467447Y-92786700D01*
X123796218Y-92442600D02*
X124595682Y-92442600D01*
X147974627Y-92204627D02*
X148050000Y-92280000D01*
%TO.N,/RESET*%
X125640000Y-90870000D02*
X145190000Y-90870000D01*
X145190000Y-90870000D02*
X146930000Y-89130000D01*
X124380000Y-89610000D02*
X125640000Y-90870000D01*
%TO.N,/UART_TX*%
X121305682Y-85670000D02*
X118520000Y-85670000D01*
X121610700Y-85364982D02*
X121305682Y-85670000D01*
X116865600Y-96448600D02*
X122215000Y-101798000D01*
X121536682Y-84628915D02*
X121610700Y-84702933D01*
X116865600Y-87324400D02*
X116865600Y-96448600D01*
X118520000Y-85670000D02*
X116865600Y-87324400D01*
X121610700Y-84702933D02*
X121610700Y-85364982D01*
%TO.N,/UART_RX*%
X116510000Y-86940000D02*
X116510000Y-98633000D01*
X121090000Y-85149300D02*
X118300700Y-85149300D01*
X118300700Y-85149300D02*
X116510000Y-86940000D01*
X116510000Y-98633000D02*
X119675000Y-101798000D01*
%TD*%
M02*
