M48
; DRILL file {KiCad 8.0.2} date 2024-05-12T14:55:08-0500
; FORMAT={-:-/ absolute / inch / decimal}
; #@! TF.CreationDate,2024-05-12T14:55:08-05:00
; #@! TF.GenerationSoftware,Kicad,Pcbnew,8.0.2
; #@! TF.FileFunction,Plated,1,4,PTH
FMAT,2
INCH
; #@! TA.AperFunction,Plated,PTH,ViaDrill
T1C0.0100
; #@! TA.AperFunction,Plated,PTH,ComponentDrill
T2C0.0300
; #@! TA.AperFunction,Plated,PTH,ComponentDrill
T3C0.0394
; #@! TA.AperFunction,Plated,PTH,ComponentDrill
T4C0.1300
%
G90
G05
T1
X1.61Y-2.41
X1.65Y-2.01
X1.66Y-2.07
X1.67Y-2.15
X2.11Y-1.99
X2.12Y-2.24
X2.12Y-2.3605
X2.23Y-2.71
X2.27Y-2.11
X2.27Y-2.19
X2.31Y-2.8315
X2.35Y-2.04
X2.36Y-2.77
X2.36Y-2.79
X2.38Y-2.24
X2.38Y-2.77
X2.38Y-2.79
X2.4Y-2.77
X2.4Y-2.79
X2.42Y-2.59
X2.42Y-2.63
X2.42Y-2.77
X2.42Y-2.79
X2.44Y-2.24
X2.51Y-2.83
X2.51Y-2.85
X2.51Y-3.05
X2.51Y-3.07
X2.53Y-2.83
X2.53Y-2.85
X2.53Y-3.05
X2.53Y-3.07
X2.55Y-2.19
X2.55Y-2.83
X2.55Y-2.85
X2.55Y-3.05
X2.55Y-3.07
X2.58Y-2.4
X2.58Y-2.67
X2.6Y-2.08
X2.63Y-2.5
X2.63Y-2.59
X2.64Y-2.8
X2.64Y-2.83
X2.66Y-2.4
X2.66Y-2.8
X2.66Y-2.83
X2.6664Y-2.2569
X2.67Y-2.05
X2.67Y-2.31
X2.67Y-2.36
X2.6788Y-2.2329
X2.68Y-2.8
X2.68Y-2.83
X2.7Y-2.8
X2.7Y-2.83
X2.72Y-2.34
X2.7248Y-2.1845
X2.73Y-2.04
X2.7498Y-2.7978
X2.75Y-2.8518
X2.75Y-2.42
X2.75Y-2.74
X2.7505Y-2.7695
X2.7511Y-2.8248
X2.76Y-2.56
X2.77Y-2.06
X2.78Y-2.89
X2.8Y-2.99
X2.84Y-2.7
X2.88Y-2.75
X2.88Y-2.92
X2.913Y-2.8584
X2.92Y-3.07
X2.92Y-3.21
X2.93Y-2.7544
X2.95Y-2.39
X2.95Y-2.45
X2.96Y-2.7544
X2.96Y-2.9
X2.9955Y-2.9555
X3.02Y-2.56
X3.029Y-3.0109
X3.05Y-2.93
X3.05Y-3.03
X3.06Y-2.46
X3.07Y-3.01
X3.09Y-2.78
X3.09Y-2.88
X3.11Y-2.6
X3.12Y-2.46
X3.12Y-2.92
X3.14Y-2.83
X3.15Y-3.04
X3.19Y-2.78
X3.19Y-2.88
X3.2Y-3.18
X3.2195Y-2.91
X3.23Y-2.46
X3.24Y-2.6
X3.26Y-3.18
X3.28Y-2.46
X3.29Y-2.9888
X3.3Y-3.08
X3.3293Y-2.9435
X3.33Y-2.2329
X3.33Y-2.804
X3.33Y-2.9056
X3.3512Y-2.8331
X3.3701Y-2.8603
X3.38Y-2.919
X3.42Y-2.76
X3.42Y-2.96
X3.43Y-2.18
X3.52Y-2.59
X3.52Y-2.66
X3.52Y-2.72
X3.53Y-2.92
X3.65Y-2.16
X3.6615Y-2.66
X3.6779Y-2.8544
X3.68Y-3.03
X3.6895Y-2.83
X3.87Y-2.21
T2
X2.0255Y-2.661
X2.0255Y-2.761
X2.0255Y-2.861
X2.0255Y-2.961
X2.1255Y-2.711
X2.1255Y-2.811
X2.1255Y-2.911
X2.1255Y-3.011
T3
X2.59Y-3.21
X2.69Y-3.21
X2.79Y-3.21
X2.93Y-2.14
X2.9302Y-1.99
X3.03Y-2.14
X3.0302Y-1.99
X3.13Y-2.14
X3.1302Y-1.99
X3.23Y-2.14
X3.2302Y-1.99
X3.3302Y-1.99
X3.4302Y-1.99
X3.5302Y-1.99
X3.6302Y-1.99
X3.7302Y-1.99
X3.8302Y-1.99
T4
X1.7755Y-2.611
X1.7755Y-3.061
M30
