%TF.GenerationSoftware,KiCad,Pcbnew,8.0.2*%
%TF.CreationDate,2024-05-12T14:55:06-05:00*%
%TF.ProjectId,GP2040-RE,47503230-3430-42d5-9245-2e6b69636164,rev?*%
%TF.SameCoordinates,Original*%
%TF.FileFunction,Soldermask,Top*%
%TF.FilePolarity,Negative*%
%FSLAX46Y46*%
G04 Gerber Fmt 4.6, Leading zero omitted, Abs format (unit mm)*
G04 Created by KiCad (PCBNEW 8.0.2) date 2024-05-12 14:55:06*
%MOMM*%
%LPD*%
G01*
G04 APERTURE LIST*
G04 Aperture macros list*
%AMRoundRect*
0 Rectangle with rounded corners*
0 $1 Rounding radius*
0 $2 $3 $4 $5 $6 $7 $8 $9 X,Y pos of 4 corners*
0 Add a 4 corners polygon primitive as box body*
4,1,4,$2,$3,$4,$5,$6,$7,$8,$9,$2,$3,0*
0 Add four circle primitives for the rounded corners*
1,1,$1+$1,$2,$3*
1,1,$1+$1,$4,$5*
1,1,$1+$1,$6,$7*
1,1,$1+$1,$8,$9*
0 Add four rect primitives between the rounded corners*
20,1,$1+$1,$2,$3,$4,$5,0*
20,1,$1+$1,$4,$5,$6,$7,0*
20,1,$1+$1,$6,$7,$8,$9,0*
20,1,$1+$1,$8,$9,$2,$3,0*%
G04 Aperture macros list end*
%ADD10C,0.000000*%
%ADD11RoundRect,0.038100X0.571500X0.546100X-0.571500X0.546100X-0.571500X-0.546100X0.571500X-0.546100X0*%
%ADD12RoundRect,0.038100X-0.228600X-0.571500X0.228600X-0.571500X0.228600X0.571500X-0.228600X0.571500X0*%
%ADD13RoundRect,0.237800X0.237800X0.275300X-0.237800X0.275300X-0.237800X-0.275300X0.237800X-0.275300X0*%
%ADD14RoundRect,0.244050X0.269050X-0.244050X0.269050X0.244050X-0.269050X0.244050X-0.269050X-0.244050X0*%
%ADD15RoundRect,0.244050X-0.269050X0.244050X-0.269050X-0.244050X0.269050X-0.244050X0.269050X0.244050X0*%
%ADD16RoundRect,0.219050X-0.294050X0.219050X-0.294050X-0.219050X0.294050X-0.219050X0.294050X0.219050X0*%
%ADD17RoundRect,0.038100X-0.330200X-0.774700X0.330200X-0.774700X0.330200X0.774700X-0.330200X0.774700X0*%
%ADD18RoundRect,0.038100X0.647700X-0.952500X0.647700X0.952500X-0.647700X0.952500X-0.647700X-0.952500X0*%
%ADD19RoundRect,0.038100X-0.850000X0.850000X-0.850000X-0.850000X0.850000X-0.850000X0.850000X0.850000X0*%
%ADD20O,1.776200X1.776200*%
%ADD21RoundRect,0.219050X0.219050X0.294050X-0.219050X0.294050X-0.219050X-0.294050X0.219050X-0.294050X0*%
%ADD22RoundRect,0.038100X-0.698500X0.901700X-0.698500X-0.901700X0.698500X-0.901700X0.698500X0.901700X0*%
%ADD23RoundRect,0.038100X-0.952500X0.698500X-0.952500X-0.698500X0.952500X-0.698500X0.952500X0.698500X0*%
%ADD24RoundRect,0.038100X-1.003300X0.406400X-1.003300X-0.406400X1.003300X-0.406400X1.003300X0.406400X0*%
%ADD25RoundRect,0.244050X0.244050X0.269050X-0.244050X0.269050X-0.244050X-0.269050X0.244050X-0.269050X0*%
%ADD26RoundRect,0.038100X0.850000X-0.850000X0.850000X0.850000X-0.850000X0.850000X-0.850000X-0.850000X0*%
%ADD27RoundRect,0.244050X-0.244050X-0.269050X0.244050X-0.269050X0.244050X0.269050X-0.244050X0.269050X0*%
%ADD28RoundRect,0.219050X0.294050X-0.219050X0.294050X0.219050X-0.294050X0.219050X-0.294050X-0.219050X0*%
%ADD29RoundRect,0.102000X0.275000X-0.275000X0.275000X0.275000X-0.275000X0.275000X-0.275000X-0.275000X0*%
%ADD30RoundRect,0.038100X-0.787400X-0.279400X0.787400X-0.279400X0.787400X0.279400X-0.787400X0.279400X0*%
%ADD31C,1.346200*%
%ADD32C,3.886200*%
%ADD33RoundRect,0.102000X0.300000X-0.775000X0.300000X0.775000X-0.300000X0.775000X-0.300000X-0.775000X0*%
%ADD34RoundRect,0.102000X0.600000X0.900000X-0.600000X0.900000X-0.600000X-0.900000X0.600000X-0.900000X0*%
%ADD35RoundRect,0.038100X0.228600X0.152400X-0.228600X0.152400X-0.228600X-0.152400X0.228600X-0.152400X0*%
%ADD36RoundRect,0.038100X0.812800X1.447800X-0.812800X1.447800X-0.812800X-1.447800X0.812800X-1.447800X0*%
%ADD37RoundRect,0.038100X0.406400X-0.088900X0.406400X0.088900X-0.406400X0.088900X-0.406400X-0.088900X0*%
%ADD38RoundRect,0.038100X-0.088900X-0.406400X0.088900X-0.406400X0.088900X0.406400X-0.088900X0.406400X0*%
%ADD39RoundRect,0.038100X-1.600200X-1.600200X1.600200X-1.600200X1.600200X1.600200X-1.600200X1.600200X0*%
%ADD40RoundRect,0.038100X0.602800X1.181100X-0.602800X1.181100X-0.602800X-1.181100X0.602800X-1.181100X0*%
%ADD41RoundRect,0.038100X-0.279400X-0.660400X0.279400X-0.660400X0.279400X0.660400X-0.279400X0.660400X0*%
%ADD42RoundRect,0.038100X-0.279400X-0.793750X0.279400X-0.793750X0.279400X0.793750X-0.279400X0.793750X0*%
%ADD43RoundRect,0.038100X-0.750000X-0.800000X0.750000X-0.800000X0.750000X0.800000X-0.750000X0.800000X0*%
%ADD44RoundRect,0.038100X-0.406400X-0.127000X0.406400X-0.127000X0.406400X0.127000X-0.406400X0.127000X0*%
%ADD45RoundRect,0.038100X-0.127000X-0.825500X0.127000X-0.825500X0.127000X0.825500X-0.127000X0.825500X0*%
%ADD46RoundRect,0.219050X-0.219050X-0.294050X0.219050X-0.294050X0.219050X0.294050X-0.219050X0.294050X0*%
G04 APERTURE END LIST*
D10*
%TO.C,U4*%
G36*
X63698811Y-73482208D02*
G01*
X63904937Y-73482208D01*
X63904937Y-72872608D01*
X64158937Y-72872608D01*
X64158937Y-73482208D01*
X64365063Y-73482208D01*
X64365063Y-72872608D01*
X64619063Y-72872608D01*
X64619063Y-73482208D01*
X64825189Y-73482208D01*
X64825189Y-72872608D01*
X65079189Y-72872608D01*
X65079189Y-73482208D01*
X65074800Y-73482200D01*
X65074800Y-76377800D01*
X65079189Y-76377792D01*
X65079189Y-76987392D01*
X64825189Y-76987392D01*
X64825189Y-76377792D01*
X64619063Y-76377792D01*
X64619063Y-76987392D01*
X64365063Y-76987392D01*
X64365063Y-76377792D01*
X64158937Y-76377792D01*
X64158937Y-76987392D01*
X63904937Y-76987392D01*
X63904937Y-76377792D01*
X63698811Y-76377792D01*
X63698811Y-76987392D01*
X63444811Y-76987392D01*
X63444811Y-76377792D01*
X63449200Y-76377800D01*
X63449200Y-73482200D01*
X63444811Y-73482208D01*
X63444811Y-72872608D01*
X63698811Y-72872608D01*
X63698811Y-73482208D01*
G37*
%TD*%
D11*
%TO.C,D4*%
X59702700Y-73660000D03*
X56629300Y-73660000D03*
%TD*%
D12*
%TO.C,Q1*%
X84645500Y-55346600D03*
X86042500Y-55346600D03*
X85344000Y-53365400D03*
%TD*%
D13*
%TO.C,D2*%
X98323500Y-53340000D03*
X96748500Y-53340000D03*
%TD*%
D14*
%TO.C,C1*%
X72390000Y-62243000D03*
X72390000Y-60693000D03*
%TD*%
D11*
%TO.C,D3*%
X59702700Y-76200000D03*
X56629300Y-76200000D03*
%TD*%
D15*
%TO.C,C9*%
X82804000Y-78219000D03*
X82804000Y-79769000D03*
%TD*%
D16*
%TO.C,R9*%
X68580000Y-77407000D03*
X68580000Y-79057000D03*
%TD*%
D17*
%TO.C,J2*%
X69924250Y-53660500D03*
X68924249Y-53660500D03*
X67924251Y-53660500D03*
X66924250Y-53660500D03*
D18*
X65624251Y-49785499D03*
X71224249Y-49785499D03*
%TD*%
D14*
%TO.C,C17*%
X67056000Y-74448000D03*
X67056000Y-72898000D03*
%TD*%
D19*
%TO.C,J4*%
X82042000Y-54356000D03*
D20*
X79502000Y-54356000D03*
X76962000Y-54356000D03*
X74422000Y-54356000D03*
%TD*%
D21*
%TO.C,R6*%
X62293000Y-78232000D03*
X60643000Y-78232000D03*
%TD*%
D22*
%TO.C,J6*%
X55073601Y-51184000D03*
X55073601Y-56884001D03*
D23*
X41923599Y-49584000D03*
X40923599Y-62734002D03*
D24*
X44523599Y-58074001D03*
X44923598Y-56973927D03*
X44523599Y-55874001D03*
X44323599Y-54774000D03*
X44523599Y-53674000D03*
X44323599Y-52574000D03*
X44523599Y-51473999D03*
X44523599Y-50373999D03*
%TD*%
D13*
%TO.C,D1*%
X98323500Y-54864000D03*
X96748500Y-54864000D03*
%TD*%
D25*
%TO.C,C5*%
X73178000Y-73152000D03*
X71628000Y-73152000D03*
%TD*%
D26*
%TO.C,J8*%
X74427000Y-50546000D03*
D20*
X76967000Y-50546000D03*
X79507000Y-50546000D03*
X82047000Y-50546000D03*
X84587000Y-50546000D03*
X87127000Y-50546000D03*
X89667000Y-50546000D03*
X92207000Y-50546000D03*
X94747000Y-50546000D03*
X97287000Y-50546000D03*
%TD*%
D27*
%TO.C,C6*%
X86855000Y-74168000D03*
X88405000Y-74168000D03*
%TD*%
D14*
%TO.C,C12*%
X81788000Y-65050000D03*
X81788000Y-63500000D03*
%TD*%
D28*
%TO.C,R7*%
X61468000Y-76771000D03*
X61468000Y-75121000D03*
%TD*%
D16*
%TO.C,R10*%
X65532000Y-61913000D03*
X65532000Y-63563000D03*
%TD*%
D25*
%TO.C,C4*%
X74943000Y-68580000D03*
X73393000Y-68580000D03*
%TD*%
D14*
%TO.C,C2*%
X73914000Y-62243000D03*
X73914000Y-60693000D03*
%TD*%
D29*
%TO.C,S2*%
X90811000Y-80573000D03*
X91561000Y-80573000D03*
X90811000Y-77923000D03*
X91561000Y-77923000D03*
%TD*%
D14*
%TO.C,C10*%
X79248000Y-65037000D03*
X79248000Y-63487000D03*
%TD*%
D30*
%TO.C,U5*%
X63093600Y-64835999D03*
X63093600Y-65786000D03*
X63093600Y-66736001D03*
X65430400Y-66736001D03*
X65430400Y-65786000D03*
X65430400Y-64835999D03*
%TD*%
D15*
%TO.C,C3*%
X74168000Y-78981000D03*
X74168000Y-80531000D03*
%TD*%
D31*
%TO.C,J7*%
X51447700Y-67589300D03*
X53987700Y-68859300D03*
X51447700Y-70129300D03*
X53987700Y-71399300D03*
X51447700Y-72669300D03*
X53987700Y-73939300D03*
X51447700Y-75209300D03*
X53987700Y-76479300D03*
D32*
X45097700Y-66319300D03*
X45097700Y-77749300D03*
%TD*%
D33*
%TO.C,J3*%
X85868000Y-78518000D03*
X86868000Y-78518000D03*
X87868000Y-78518000D03*
D34*
X84568000Y-82393000D03*
X89168000Y-82393000D03*
%TD*%
D35*
%TO.C,U4*%
X65587001Y-76430378D03*
X65587001Y-75930252D03*
X65587001Y-75430126D03*
X65587001Y-74930000D03*
X65587001Y-74429874D03*
X65587001Y-73929748D03*
X65587001Y-73429622D03*
X62936999Y-73429622D03*
X62936999Y-73929748D03*
X62936999Y-74429874D03*
X62936999Y-74930000D03*
X62936999Y-75430126D03*
X62936999Y-75930252D03*
X62936999Y-76430378D03*
D36*
X64262000Y-74930000D03*
%TD*%
D14*
%TO.C,C11*%
X77724000Y-65037000D03*
X77724000Y-63487000D03*
%TD*%
%TO.C,C14*%
X83312000Y-65037000D03*
X83312000Y-63487000D03*
%TD*%
D28*
%TO.C,R12*%
X80010000Y-61277000D03*
X80010000Y-59627000D03*
%TD*%
D21*
%TO.C,R3*%
X60515000Y-55626000D03*
X58865000Y-55626000D03*
%TD*%
D14*
%TO.C,C16*%
X68580000Y-74448000D03*
X68580000Y-72898000D03*
%TD*%
D37*
%TO.C,U1*%
X76352400Y-69282000D03*
X76352400Y-69681999D03*
X76352400Y-70082001D03*
X76352400Y-70482000D03*
X76352400Y-70881999D03*
X76352400Y-71282001D03*
X76352400Y-71682000D03*
X76352400Y-72082000D03*
X76352400Y-72481999D03*
X76352400Y-72882001D03*
X76352400Y-73282000D03*
X76352400Y-73681999D03*
X76352400Y-74082001D03*
X76352400Y-74482000D03*
D38*
X77156000Y-75285600D03*
X77555999Y-75285600D03*
X77956001Y-75285600D03*
X78356000Y-75285600D03*
X78755999Y-75285600D03*
X79156001Y-75285600D03*
X79556000Y-75285600D03*
X79956000Y-75285600D03*
X80355999Y-75285600D03*
X80756001Y-75285600D03*
X81156000Y-75285600D03*
X81555999Y-75285600D03*
X81956001Y-75285600D03*
X82356000Y-75285600D03*
D37*
X83159600Y-74482000D03*
X83159600Y-74082001D03*
X83159600Y-73681999D03*
X83159600Y-73282000D03*
X83159600Y-72882001D03*
X83159600Y-72481999D03*
X83159600Y-72082000D03*
X83159600Y-71682000D03*
X83159600Y-71282001D03*
X83159600Y-70881999D03*
X83159600Y-70482000D03*
X83159600Y-70082001D03*
X83159600Y-69681999D03*
X83159600Y-69282000D03*
D38*
X82356000Y-68478400D03*
X81956001Y-68478400D03*
X81555999Y-68478400D03*
X81156000Y-68478400D03*
X80756001Y-68478400D03*
X80355999Y-68478400D03*
X79956000Y-68478400D03*
X79556000Y-68478400D03*
X79156001Y-68478400D03*
X78755999Y-68478400D03*
X78356000Y-68478400D03*
X77956001Y-68478400D03*
X77555999Y-68478400D03*
X77156000Y-68478400D03*
D39*
X79756000Y-71882000D03*
%TD*%
D17*
%TO.C,J1*%
X61698000Y-53660500D03*
X60697999Y-53660500D03*
X59698001Y-53660500D03*
X58698000Y-53660500D03*
D18*
X57398001Y-49785499D03*
X62997999Y-49785499D03*
%TD*%
D40*
%TO.C,L1*%
X65361000Y-70104000D03*
X63163000Y-70104000D03*
%TD*%
D29*
%TO.C,S1*%
X93097000Y-80573000D03*
X93847000Y-80573000D03*
X93097000Y-77923000D03*
X93847000Y-77923000D03*
%TD*%
D15*
%TO.C,C8*%
X81280000Y-78219000D03*
X81280000Y-79769000D03*
%TD*%
D27*
%TO.C,C7*%
X86855000Y-69088000D03*
X88405000Y-69088000D03*
%TD*%
%TO.C,C13*%
X86855000Y-67564000D03*
X88405000Y-67564000D03*
%TD*%
D41*
%TO.C,R11*%
X86679999Y-65786000D03*
X88580001Y-65786000D03*
D42*
X87630000Y-63887350D03*
%TD*%
D43*
%TO.C,XTAL1*%
X76454000Y-81110000D03*
X78994000Y-81110000D03*
X78994000Y-78910000D03*
X76454000Y-78910000D03*
%TD*%
D28*
%TO.C,R13*%
X81534000Y-61277000D03*
X81534000Y-59627000D03*
%TD*%
D44*
%TO.C,U2*%
X71196200Y-63511999D03*
X71196200Y-64012000D03*
X71196200Y-64512000D03*
X71196200Y-65012001D03*
X74091800Y-65012001D03*
X74091800Y-64512000D03*
X74091800Y-64012000D03*
X74091800Y-63511999D03*
D45*
X72644000Y-64262000D03*
%TD*%
D21*
%TO.C,R8*%
X70167000Y-75946000D03*
X68517000Y-75946000D03*
%TD*%
D46*
%TO.C,R5*%
X93663000Y-53340000D03*
X95313000Y-53340000D03*
%TD*%
%TO.C,R4*%
X93663000Y-54864000D03*
X95313000Y-54864000D03*
%TD*%
D14*
%TO.C,C18*%
X61468000Y-73660000D03*
X61468000Y-72110000D03*
%TD*%
D19*
%TO.C,J5*%
X70866000Y-81534000D03*
D20*
X68326000Y-81534000D03*
X65786000Y-81534000D03*
%TD*%
D16*
%TO.C,R1*%
X70866000Y-60643000D03*
X70866000Y-62293000D03*
%TD*%
D46*
%TO.C,R2*%
X61913000Y-55626000D03*
X63563000Y-55626000D03*
%TD*%
D15*
%TO.C,C15*%
X67056000Y-77457000D03*
X67056000Y-79007000D03*
%TD*%
M02*
