%TF.GenerationSoftware,KiCad,Pcbnew,8.0.2*%
%TF.CreationDate,2024-05-12T14:55:06-05:00*%
%TF.ProjectId,GP2040-RE,47503230-3430-42d5-9245-2e6b69636164,rev?*%
%TF.SameCoordinates,Original*%
%TF.FileFunction,Copper,L2,Inr*%
%TF.FilePolarity,Positive*%
%FSLAX46Y46*%
G04 Gerber Fmt 4.6, Leading zero omitted, Abs format (unit mm)*
G04 Created by KiCad (PCBNEW 8.0.2) date 2024-05-12 14:55:06*
%MOMM*%
%LPD*%
G01*
G04 APERTURE LIST*
%TA.AperFunction,ComponentPad*%
%ADD10R,1.700000X1.700000*%
%TD*%
%TA.AperFunction,ComponentPad*%
%ADD11O,1.700000X1.700000*%
%TD*%
%TA.AperFunction,ComponentPad*%
%ADD12C,1.270000*%
%TD*%
%TA.AperFunction,ComponentPad*%
%ADD13C,3.810000*%
%TD*%
%TA.AperFunction,ViaPad*%
%ADD14C,0.508000*%
%TD*%
G04 APERTURE END LIST*
D10*
%TO.N,VBUS*%
%TO.C,J4*%
X82042000Y-54356000D03*
D11*
%TO.N,/D-*%
X79502000Y-54356000D03*
%TO.N,/D+*%
X76962000Y-54356000D03*
%TO.N,GND*%
X74422000Y-54356000D03*
%TD*%
D10*
%TO.N,GND*%
%TO.C,J8*%
X74427000Y-50546000D03*
D11*
%TO.N,Net-(J8-Pin_2)*%
X76967000Y-50546000D03*
%TO.N,unconnected-(J8-Pin_3-Pad3)*%
X79507000Y-50546000D03*
%TO.N,/OCS*%
X82047000Y-50546000D03*
%TO.N,/RESET*%
X84587000Y-50546000D03*
%TO.N,/Data_Command*%
X87127000Y-50546000D03*
%TO.N,/SPI1_SCK*%
X89667000Y-50546000D03*
%TO.N,/SPI1_TX_MOSI*%
X92207000Y-50546000D03*
%TO.N,/SPI1_RX_MISO*%
X94747000Y-50546000D03*
%TO.N,unconnected-(J8-Pin_10-Pad10)*%
X97287000Y-50546000D03*
%TD*%
D12*
%TO.N,GND*%
%TO.C,J7*%
X51447700Y-67589300D03*
%TO.N,/OrangeSolid*%
X53987700Y-68859300D03*
%TO.N,/GreenStripe*%
X51447700Y-70129300D03*
%TO.N,/BlueSolid*%
X53987700Y-71399300D03*
%TO.N,/BlueStripe*%
X51447700Y-72669300D03*
%TO.N,/GreenSolid*%
X53987700Y-73939300D03*
%TO.N,/BrownStripe*%
X51447700Y-75209300D03*
%TO.N,/BrownSolid*%
X53987700Y-76479300D03*
D13*
%TO.N,N/C*%
X45097700Y-66319300D03*
X45097700Y-77749300D03*
%TD*%
D10*
%TO.N,/UART_RX*%
%TO.C,J5*%
X70866000Y-81534000D03*
D11*
%TO.N,/UART_TX*%
X68326000Y-81534000D03*
%TO.N,GND*%
X65786000Y-81534000D03*
%TD*%
D14*
%TO.N,GND*%
X41910000Y-51054000D03*
X79248000Y-62484000D03*
X60960000Y-70866000D03*
X61468000Y-65786000D03*
X63754000Y-72390000D03*
X42164000Y-52578000D03*
X82042000Y-62484000D03*
X79756000Y-71882000D03*
X64770000Y-72390000D03*
X64262000Y-77470000D03*
X89662000Y-74168000D03*
X67564000Y-71882000D03*
X59944000Y-70358000D03*
X70612000Y-73406000D03*
X61468000Y-70358000D03*
X64262000Y-71882000D03*
X72136000Y-68580000D03*
X60452000Y-70358000D03*
X89408000Y-69088000D03*
X64770000Y-77978000D03*
X64770000Y-71882000D03*
X65532000Y-67818000D03*
X61468000Y-70866000D03*
X89408000Y-67564000D03*
X83312000Y-62484000D03*
X68072000Y-71882000D03*
X66040000Y-52832000D03*
X78486000Y-70612000D03*
X60960000Y-70358000D03*
X67056000Y-71120000D03*
X64770000Y-77470000D03*
X70104000Y-65024000D03*
X67564000Y-71120000D03*
X81026000Y-73152000D03*
X79248000Y-74168000D03*
X78486000Y-73152000D03*
X74930000Y-60706000D03*
X98298000Y-56134000D03*
X63754000Y-77470000D03*
X89408000Y-65786000D03*
X68072000Y-71120000D03*
X40894000Y-61214000D03*
X63754000Y-71882000D03*
X74168000Y-81534000D03*
X81280000Y-80772000D03*
X68580000Y-71120000D03*
X67056000Y-71882000D03*
X60452000Y-70866000D03*
X64262000Y-72390000D03*
X64262000Y-77978000D03*
X68580000Y-71882000D03*
X77724000Y-62484000D03*
X82804000Y-80772000D03*
X81026000Y-70612000D03*
X57658000Y-53594000D03*
X59944000Y-70866000D03*
X63754000Y-77978000D03*
%TO.N,+3.3V*%
X86868000Y-70104000D03*
X80010000Y-77216000D03*
X42418000Y-54610000D03*
X92710000Y-54864000D03*
X73152000Y-69850000D03*
X78994000Y-66040000D03*
X74930000Y-62230000D03*
X67818000Y-52070000D03*
X86868000Y-75184000D03*
X74168000Y-77978000D03*
X73152000Y-74168000D03*
X71120000Y-75946000D03*
X59690000Y-51816000D03*
X65532000Y-60960000D03*
X66802000Y-65786000D03*
X57658000Y-55626000D03*
X64770000Y-55626000D03*
%TO.N,+1V1*%
X76708000Y-65024000D03*
X82296000Y-66040000D03*
X83820000Y-78232000D03*
%TO.N,/BrownSolid*%
X73991396Y-72602699D03*
%TO.N,/InputVoltage*%
X58674000Y-71920000D03*
X61468000Y-66802000D03*
%TO.N,VBUS*%
X87122000Y-55372000D03*
X56642000Y-68834000D03*
%TO.N,/SDA_0*%
X61976000Y-56896000D03*
X83566000Y-75914800D03*
%TO.N,/SCL_0*%
X60452000Y-56896000D03*
X93002100Y-67564000D03*
%TO.N,/GreenStripe*%
X69850000Y-69596000D03*
%TO.N,/GreenSolid*%
X69877187Y-71750776D03*
%TO.N,/BlueStripe*%
X69844774Y-71063538D03*
%TO.N,/BlueSolid*%
X69862809Y-70345191D03*
%TO.N,/BrownStripe*%
X69849954Y-72436037D03*
%TO.N,/D2_gpio*%
X67818000Y-59944000D03*
X85600553Y-72651877D03*
%TO.N,/D0_gpio*%
X84582000Y-73802700D03*
X67727497Y-57324862D03*
%TO.N,/D1_gpio*%
X68042725Y-56715800D03*
X85852000Y-74142600D03*
%TO.N,/CLK_gpio*%
X84563807Y-74764900D03*
X69210999Y-55486300D03*
%TO.N,/D3_gpio*%
X85120623Y-71961299D03*
X69088000Y-59436000D03*
%TO.N,/CMD_gpio*%
X81775300Y-73914000D03*
X67818000Y-58674000D03*
%TO.N,/CD_gpio*%
X53848000Y-56896000D03*
X84582000Y-71221600D03*
X53594000Y-50546000D03*
X53848000Y-59956700D03*
X67564000Y-60960000D03*
%TO.N,/OCS*%
X77978000Y-76454000D03*
%TO.N,/Data_Command*%
X76936600Y-76477064D03*
%TO.N,/SPI1_RX_MISO*%
X75184000Y-73660000D03*
%TO.N,/SPI1_SCK*%
X77470000Y-74422000D03*
%TO.N,/SPI1_TX_MOSI*%
X76085809Y-75069809D03*
%TO.N,/RESET*%
X77470000Y-76962000D03*
%TO.N,/5V_EN*%
X66802000Y-63500000D03*
X84582000Y-56715800D03*
%TO.N,Net-(R1-Pad1)*%
X69850000Y-61468000D03*
X93472000Y-76962000D03*
%TO.N,/SCL_1*%
X69342000Y-51816000D03*
X93713300Y-71882000D03*
%TO.N,/SDA_1*%
X70358000Y-52324000D03*
X93419052Y-72501470D03*
%TO.N,/UART_TX*%
X74422000Y-69961300D03*
%TO.N,/UART_RX*%
X75184000Y-69961300D03*
%TD*%
%TA.AperFunction,Conductor*%
%TO.N,GND*%
G36*
X99772539Y-48526185D02*
G01*
X99818294Y-48578989D01*
X99829500Y-48630500D01*
X99829500Y-83449500D01*
X99809815Y-83516539D01*
X99757011Y-83562294D01*
X99705500Y-83573500D01*
X37708500Y-83573500D01*
X37641461Y-83553815D01*
X37595706Y-83501011D01*
X37584500Y-83449500D01*
X37584500Y-81283999D01*
X64455364Y-81283999D01*
X64455364Y-81284000D01*
X65352988Y-81284000D01*
X65320075Y-81341007D01*
X65286000Y-81468174D01*
X65286000Y-81599826D01*
X65320075Y-81726993D01*
X65352988Y-81784000D01*
X64455364Y-81784000D01*
X64512567Y-81997486D01*
X64512570Y-81997492D01*
X64612399Y-82211578D01*
X64747894Y-82405082D01*
X64914917Y-82572105D01*
X65108421Y-82707600D01*
X65322507Y-82807429D01*
X65322516Y-82807433D01*
X65536000Y-82864634D01*
X65536000Y-81967012D01*
X65593007Y-81999925D01*
X65720174Y-82034000D01*
X65851826Y-82034000D01*
X65978993Y-81999925D01*
X66036000Y-81967012D01*
X66036000Y-82864633D01*
X66249483Y-82807433D01*
X66249492Y-82807429D01*
X66463578Y-82707600D01*
X66657082Y-82572105D01*
X66824105Y-82405082D01*
X66954119Y-82219405D01*
X67008696Y-82175781D01*
X67078195Y-82168588D01*
X67140549Y-82200110D01*
X67157269Y-82219405D01*
X67287505Y-82405401D01*
X67454599Y-82572495D01*
X67551384Y-82640265D01*
X67648165Y-82708032D01*
X67648167Y-82708033D01*
X67648170Y-82708035D01*
X67862337Y-82807903D01*
X68090592Y-82869063D01*
X68267034Y-82884500D01*
X68325999Y-82889659D01*
X68326000Y-82889659D01*
X68326001Y-82889659D01*
X68384966Y-82884500D01*
X68561408Y-82869063D01*
X68789663Y-82807903D01*
X69003830Y-82708035D01*
X69197401Y-82572495D01*
X69319329Y-82450566D01*
X69380648Y-82417084D01*
X69450340Y-82422068D01*
X69506274Y-82463939D01*
X69523189Y-82494917D01*
X69572202Y-82626328D01*
X69572206Y-82626335D01*
X69658452Y-82741544D01*
X69658455Y-82741547D01*
X69773664Y-82827793D01*
X69773671Y-82827797D01*
X69908517Y-82878091D01*
X69908516Y-82878091D01*
X69915444Y-82878835D01*
X69968127Y-82884500D01*
X71763872Y-82884499D01*
X71823483Y-82878091D01*
X71958331Y-82827796D01*
X72073546Y-82741546D01*
X72159796Y-82626331D01*
X72210091Y-82491483D01*
X72216500Y-82431873D01*
X72216499Y-80636128D01*
X72210091Y-80576517D01*
X72208810Y-80573083D01*
X72159797Y-80441671D01*
X72159793Y-80441664D01*
X72073547Y-80326455D01*
X72073544Y-80326452D01*
X71958335Y-80240206D01*
X71958328Y-80240202D01*
X71823482Y-80189908D01*
X71823483Y-80189908D01*
X71763883Y-80183501D01*
X71763881Y-80183500D01*
X71763873Y-80183500D01*
X71763864Y-80183500D01*
X69968129Y-80183500D01*
X69968123Y-80183501D01*
X69908516Y-80189908D01*
X69773671Y-80240202D01*
X69773664Y-80240206D01*
X69658455Y-80326452D01*
X69658452Y-80326455D01*
X69572206Y-80441664D01*
X69572203Y-80441669D01*
X69523189Y-80573083D01*
X69481317Y-80629016D01*
X69415853Y-80653433D01*
X69347580Y-80638581D01*
X69319326Y-80617430D01*
X69197402Y-80495506D01*
X69197395Y-80495501D01*
X69003834Y-80359967D01*
X69003830Y-80359965D01*
X69003828Y-80359964D01*
X68789663Y-80260097D01*
X68789659Y-80260096D01*
X68789655Y-80260094D01*
X68561413Y-80198938D01*
X68561403Y-80198936D01*
X68326001Y-80178341D01*
X68325999Y-80178341D01*
X68090596Y-80198936D01*
X68090586Y-80198938D01*
X67862344Y-80260094D01*
X67862335Y-80260098D01*
X67648171Y-80359964D01*
X67648169Y-80359965D01*
X67454597Y-80495505D01*
X67287508Y-80662594D01*
X67157269Y-80848595D01*
X67102692Y-80892219D01*
X67033193Y-80899412D01*
X66970839Y-80867890D01*
X66954119Y-80848594D01*
X66824113Y-80662926D01*
X66824108Y-80662920D01*
X66657082Y-80495894D01*
X66463578Y-80360399D01*
X66249492Y-80260570D01*
X66249486Y-80260567D01*
X66036000Y-80203364D01*
X66036000Y-81100988D01*
X65978993Y-81068075D01*
X65851826Y-81034000D01*
X65720174Y-81034000D01*
X65593007Y-81068075D01*
X65536000Y-81100988D01*
X65536000Y-80203364D01*
X65535999Y-80203364D01*
X65322513Y-80260567D01*
X65322507Y-80260570D01*
X65108422Y-80360399D01*
X65108420Y-80360400D01*
X64914926Y-80495886D01*
X64914920Y-80495891D01*
X64747891Y-80662920D01*
X64747886Y-80662926D01*
X64612400Y-80856420D01*
X64612399Y-80856422D01*
X64512570Y-81070507D01*
X64512567Y-81070513D01*
X64455364Y-81283999D01*
X37584500Y-81283999D01*
X37584500Y-77749294D01*
X42687444Y-77749294D01*
X42687444Y-77749305D01*
X42706448Y-78051374D01*
X42706449Y-78051381D01*
X42763168Y-78348710D01*
X42832288Y-78561439D01*
X42856701Y-78636574D01*
X42985577Y-78910450D01*
X42985579Y-78910453D01*
X42985580Y-78910455D01*
X43147758Y-79166008D01*
X43147761Y-79166012D01*
X43147762Y-79166013D01*
X43340699Y-79399234D01*
X43561343Y-79606432D01*
X43561353Y-79606440D01*
X43806208Y-79784338D01*
X43806213Y-79784340D01*
X43806220Y-79784346D01*
X44071463Y-79930165D01*
X44071468Y-79930167D01*
X44071470Y-79930168D01*
X44071471Y-79930169D01*
X44352886Y-80041589D01*
X44352889Y-80041590D01*
X44646059Y-80116863D01*
X44646063Y-80116864D01*
X44709060Y-80124822D01*
X44946347Y-80154799D01*
X44946356Y-80154799D01*
X44946359Y-80154800D01*
X44946361Y-80154800D01*
X45249039Y-80154800D01*
X45249041Y-80154800D01*
X45249044Y-80154799D01*
X45249052Y-80154799D01*
X45428239Y-80132162D01*
X45549337Y-80116864D01*
X45842510Y-80041590D01*
X45842513Y-80041589D01*
X46123928Y-79930169D01*
X46123929Y-79930168D01*
X46123927Y-79930168D01*
X46123937Y-79930165D01*
X46389180Y-79784346D01*
X46634055Y-79606434D01*
X46854701Y-79399234D01*
X47047638Y-79166013D01*
X47209823Y-78910450D01*
X47338699Y-78636574D01*
X47432233Y-78348706D01*
X47488950Y-78051385D01*
X47493567Y-77978000D01*
X47493567Y-77977997D01*
X73408726Y-77977997D01*
X73408726Y-77978002D01*
X73427761Y-78146951D01*
X73483919Y-78307439D01*
X73542677Y-78400951D01*
X73574376Y-78451400D01*
X73694600Y-78571624D01*
X73838563Y-78662082D01*
X73960521Y-78704756D01*
X73999048Y-78718238D01*
X74167997Y-78737274D01*
X74168000Y-78737274D01*
X74168003Y-78737274D01*
X74336951Y-78718238D01*
X74336954Y-78718237D01*
X74497437Y-78662082D01*
X74641400Y-78571624D01*
X74761624Y-78451400D01*
X74852082Y-78307437D01*
X74878479Y-78231997D01*
X83060726Y-78231997D01*
X83060726Y-78232002D01*
X83079761Y-78400951D01*
X83122437Y-78522912D01*
X83135918Y-78561437D01*
X83226376Y-78705400D01*
X83346600Y-78825624D01*
X83490563Y-78916082D01*
X83612521Y-78958756D01*
X83651048Y-78972238D01*
X83819997Y-78991274D01*
X83820000Y-78991274D01*
X83820003Y-78991274D01*
X83988951Y-78972238D01*
X83988954Y-78972237D01*
X84149437Y-78916082D01*
X84293400Y-78825624D01*
X84413624Y-78705400D01*
X84504082Y-78561437D01*
X84560237Y-78400954D01*
X84560237Y-78400953D01*
X84560238Y-78400951D01*
X84579274Y-78232002D01*
X84579274Y-78231997D01*
X84560238Y-78063048D01*
X84529524Y-77975274D01*
X84504082Y-77902563D01*
X84413624Y-77758600D01*
X84293400Y-77638376D01*
X84255879Y-77614800D01*
X84149439Y-77547919D01*
X84149438Y-77547918D01*
X84149437Y-77547918D01*
X84110912Y-77534437D01*
X83988951Y-77491761D01*
X83820003Y-77472726D01*
X83819997Y-77472726D01*
X83651048Y-77491761D01*
X83490560Y-77547919D01*
X83346599Y-77638376D01*
X83226376Y-77758599D01*
X83135919Y-77902560D01*
X83079761Y-78063048D01*
X83060726Y-78231997D01*
X74878479Y-78231997D01*
X74908237Y-78146954D01*
X74908237Y-78146953D01*
X74908238Y-78146951D01*
X74927274Y-77978002D01*
X74927274Y-77977997D01*
X74908238Y-77809048D01*
X74877524Y-77721274D01*
X74852082Y-77648563D01*
X74761624Y-77504600D01*
X74641400Y-77384376D01*
X74497437Y-77293918D01*
X74430815Y-77270606D01*
X74336951Y-77237761D01*
X74168003Y-77218726D01*
X74167997Y-77218726D01*
X73999048Y-77237761D01*
X73838560Y-77293919D01*
X73694599Y-77384376D01*
X73574376Y-77504599D01*
X73483919Y-77648560D01*
X73427761Y-77809048D01*
X73408726Y-77977997D01*
X47493567Y-77977997D01*
X47507956Y-77749305D01*
X47507956Y-77749294D01*
X47488951Y-77447225D01*
X47488950Y-77447218D01*
X47488950Y-77447215D01*
X47432233Y-77149894D01*
X47338699Y-76862026D01*
X47209823Y-76588150D01*
X47140744Y-76479299D01*
X52847335Y-76479299D01*
X52847335Y-76479300D01*
X52866751Y-76688837D01*
X52866751Y-76688839D01*
X52866752Y-76688842D01*
X52923008Y-76886563D01*
X52924342Y-76891250D01*
X53001920Y-77047046D01*
X53018142Y-77079625D01*
X53137562Y-77237763D01*
X53144961Y-77247560D01*
X53300476Y-77389330D01*
X53300478Y-77389332D01*
X53479392Y-77500111D01*
X53479398Y-77500114D01*
X53490978Y-77504600D01*
X53675624Y-77576132D01*
X53882480Y-77614800D01*
X53882482Y-77614800D01*
X54092918Y-77614800D01*
X54092920Y-77614800D01*
X54299776Y-77576132D01*
X54496004Y-77500113D01*
X54674923Y-77389331D01*
X54830440Y-77247559D01*
X54957258Y-77079625D01*
X55051059Y-76891247D01*
X55108648Y-76688842D01*
X55128065Y-76479300D01*
X55108648Y-76269758D01*
X55051059Y-76067353D01*
X54990631Y-75945997D01*
X70360726Y-75945997D01*
X70360726Y-75946002D01*
X70379761Y-76114951D01*
X70417136Y-76221761D01*
X70433932Y-76269762D01*
X70435919Y-76275439D01*
X70455205Y-76306132D01*
X70526376Y-76419400D01*
X70646600Y-76539624D01*
X70790563Y-76630082D01*
X70912521Y-76672756D01*
X70951048Y-76686238D01*
X71119997Y-76705274D01*
X71120000Y-76705274D01*
X71120003Y-76705274D01*
X71288951Y-76686238D01*
X71288954Y-76686237D01*
X71449437Y-76630082D01*
X71593400Y-76539624D01*
X71713624Y-76419400D01*
X71804082Y-76275437D01*
X71860237Y-76114954D01*
X71860237Y-76114953D01*
X71860238Y-76114951D01*
X71879274Y-75946002D01*
X71879274Y-75945997D01*
X71860238Y-75777048D01*
X71844980Y-75733445D01*
X71804082Y-75616563D01*
X71713624Y-75472600D01*
X71593400Y-75352376D01*
X71449437Y-75261918D01*
X71410912Y-75248437D01*
X71288951Y-75205761D01*
X71120003Y-75186726D01*
X71119997Y-75186726D01*
X70951048Y-75205761D01*
X70790560Y-75261919D01*
X70646599Y-75352376D01*
X70526376Y-75472599D01*
X70435919Y-75616560D01*
X70379761Y-75777048D01*
X70360726Y-75945997D01*
X54990631Y-75945997D01*
X54957258Y-75878975D01*
X54830440Y-75711041D01*
X54771598Y-75657400D01*
X54674923Y-75569269D01*
X54674921Y-75569267D01*
X54496007Y-75458488D01*
X54496001Y-75458485D01*
X54341348Y-75398573D01*
X54299776Y-75382468D01*
X54092920Y-75343800D01*
X53882480Y-75343800D01*
X53675624Y-75382468D01*
X53675621Y-75382468D01*
X53675621Y-75382469D01*
X53479398Y-75458485D01*
X53479392Y-75458488D01*
X53300478Y-75569267D01*
X53300476Y-75569269D01*
X53144961Y-75711039D01*
X53018142Y-75878974D01*
X52924342Y-76067349D01*
X52866751Y-76269762D01*
X52847335Y-76479299D01*
X47140744Y-76479299D01*
X47082931Y-76388200D01*
X47047641Y-76332591D01*
X47047638Y-76332587D01*
X46854701Y-76099366D01*
X46634055Y-75892166D01*
X46634052Y-75892164D01*
X46634046Y-75892159D01*
X46389191Y-75714261D01*
X46389184Y-75714256D01*
X46389180Y-75714254D01*
X46123937Y-75568435D01*
X46123934Y-75568433D01*
X46123929Y-75568431D01*
X46123928Y-75568430D01*
X45842513Y-75457010D01*
X45842510Y-75457009D01*
X45549340Y-75381736D01*
X45549327Y-75381734D01*
X45249052Y-75343800D01*
X45249041Y-75343800D01*
X44946359Y-75343800D01*
X44946347Y-75343800D01*
X44646072Y-75381734D01*
X44646059Y-75381736D01*
X44352889Y-75457009D01*
X44352886Y-75457010D01*
X44071471Y-75568430D01*
X44071470Y-75568431D01*
X43806220Y-75714254D01*
X43806208Y-75714261D01*
X43561353Y-75892159D01*
X43561343Y-75892167D01*
X43374789Y-76067353D01*
X43340699Y-76099366D01*
X43324183Y-76119331D01*
X43147758Y-76332591D01*
X42985580Y-76588144D01*
X42985577Y-76588148D01*
X42985577Y-76588150D01*
X42893682Y-76783437D01*
X42856700Y-76862028D01*
X42763168Y-77149889D01*
X42706449Y-77447218D01*
X42706448Y-77447225D01*
X42687444Y-77749294D01*
X37584500Y-77749294D01*
X37584500Y-75209299D01*
X50307335Y-75209299D01*
X50307335Y-75209300D01*
X50326751Y-75418837D01*
X50326751Y-75418839D01*
X50326752Y-75418842D01*
X50383008Y-75616563D01*
X50384342Y-75621250D01*
X50434207Y-75721391D01*
X50478142Y-75809625D01*
X50604960Y-75977559D01*
X50721447Y-76083751D01*
X50760476Y-76119330D01*
X50760478Y-76119332D01*
X50939392Y-76230111D01*
X50939398Y-76230114D01*
X50975854Y-76244237D01*
X51135624Y-76306132D01*
X51342480Y-76344800D01*
X51342482Y-76344800D01*
X51552918Y-76344800D01*
X51552920Y-76344800D01*
X51759776Y-76306132D01*
X51956004Y-76230113D01*
X52134923Y-76119331D01*
X52290440Y-75977559D01*
X52417258Y-75809625D01*
X52511059Y-75621247D01*
X52568648Y-75418842D01*
X52588065Y-75209300D01*
X52568648Y-74999758D01*
X52511059Y-74797353D01*
X52417258Y-74608975D01*
X52290440Y-74441041D01*
X52289562Y-74440241D01*
X52134923Y-74299269D01*
X52134921Y-74299267D01*
X51956007Y-74188488D01*
X51956001Y-74188485D01*
X51801348Y-74128573D01*
X51759776Y-74112468D01*
X51552920Y-74073800D01*
X51342480Y-74073800D01*
X51135624Y-74112468D01*
X51135621Y-74112468D01*
X51135621Y-74112469D01*
X50939398Y-74188485D01*
X50939392Y-74188488D01*
X50760478Y-74299267D01*
X50760476Y-74299269D01*
X50604961Y-74441039D01*
X50478142Y-74608974D01*
X50384342Y-74797349D01*
X50326751Y-74999762D01*
X50307335Y-75209299D01*
X37584500Y-75209299D01*
X37584500Y-73939299D01*
X52847335Y-73939299D01*
X52847335Y-73939300D01*
X52866751Y-74148837D01*
X52866751Y-74148839D01*
X52866752Y-74148842D01*
X52924341Y-74351247D01*
X52924342Y-74351250D01*
X53018142Y-74539625D01*
X53144961Y-74707560D01*
X53300476Y-74849330D01*
X53300478Y-74849332D01*
X53479392Y-74960111D01*
X53479398Y-74960114D01*
X53520968Y-74976218D01*
X53675624Y-75036132D01*
X53882480Y-75074800D01*
X53882482Y-75074800D01*
X54092918Y-75074800D01*
X54092920Y-75074800D01*
X54299776Y-75036132D01*
X54496004Y-74960113D01*
X54674923Y-74849331D01*
X54830440Y-74707559D01*
X54957258Y-74539625D01*
X55051059Y-74351247D01*
X55103198Y-74167997D01*
X72392726Y-74167997D01*
X72392726Y-74168002D01*
X72411761Y-74336951D01*
X72448184Y-74441041D01*
X72458099Y-74469377D01*
X72467919Y-74497439D01*
X72529815Y-74595946D01*
X72558376Y-74641400D01*
X72678600Y-74761624D01*
X72822563Y-74852082D01*
X72920519Y-74886358D01*
X72983048Y-74908238D01*
X73151997Y-74927274D01*
X73152000Y-74927274D01*
X73152003Y-74927274D01*
X73320951Y-74908238D01*
X73320954Y-74908237D01*
X73481437Y-74852082D01*
X73625400Y-74761624D01*
X73745624Y-74641400D01*
X73836082Y-74497437D01*
X73892237Y-74336954D01*
X73892237Y-74336953D01*
X73892238Y-74336951D01*
X73911274Y-74168002D01*
X73911274Y-74167997D01*
X73892238Y-73999048D01*
X73862477Y-73913997D01*
X73836082Y-73838563D01*
X73745624Y-73694600D01*
X73625400Y-73574376D01*
X73584976Y-73548976D01*
X73481439Y-73483919D01*
X73481438Y-73483918D01*
X73481437Y-73483918D01*
X73442912Y-73470437D01*
X73320951Y-73427761D01*
X73152003Y-73408726D01*
X73151997Y-73408726D01*
X72983048Y-73427761D01*
X72822560Y-73483919D01*
X72678599Y-73574376D01*
X72558376Y-73694599D01*
X72467919Y-73838560D01*
X72411761Y-73999048D01*
X72392726Y-74167997D01*
X55103198Y-74167997D01*
X55108648Y-74148842D01*
X55128065Y-73939300D01*
X55108648Y-73729758D01*
X55051059Y-73527353D01*
X54957258Y-73338975D01*
X54830440Y-73171041D01*
X54674923Y-73029269D01*
X54674921Y-73029267D01*
X54496007Y-72918488D01*
X54496001Y-72918485D01*
X54341348Y-72858573D01*
X54299776Y-72842468D01*
X54092920Y-72803800D01*
X53882480Y-72803800D01*
X53675624Y-72842468D01*
X53675621Y-72842468D01*
X53675621Y-72842469D01*
X53479398Y-72918485D01*
X53479392Y-72918488D01*
X53300478Y-73029267D01*
X53300476Y-73029269D01*
X53144961Y-73171039D01*
X53018142Y-73338974D01*
X52924342Y-73527349D01*
X52924341Y-73527353D01*
X52883983Y-73669199D01*
X52866751Y-73729762D01*
X52847335Y-73939299D01*
X37584500Y-73939299D01*
X37584500Y-72669299D01*
X50307335Y-72669299D01*
X50307335Y-72669300D01*
X50326751Y-72878837D01*
X50326751Y-72878839D01*
X50326752Y-72878842D01*
X50369663Y-73029660D01*
X50384342Y-73081250D01*
X50464241Y-73241708D01*
X50478142Y-73269625D01*
X50597562Y-73427763D01*
X50604961Y-73437560D01*
X50760476Y-73579330D01*
X50760478Y-73579332D01*
X50939392Y-73690111D01*
X50939398Y-73690114D01*
X50950978Y-73694600D01*
X51135624Y-73766132D01*
X51342480Y-73804800D01*
X51342482Y-73804800D01*
X51552918Y-73804800D01*
X51552920Y-73804800D01*
X51759776Y-73766132D01*
X51956004Y-73690113D01*
X52134923Y-73579331D01*
X52290440Y-73437559D01*
X52417258Y-73269625D01*
X52511059Y-73081247D01*
X52568648Y-72878842D01*
X52588065Y-72669300D01*
X52568648Y-72459758D01*
X52511059Y-72257353D01*
X52417258Y-72068975D01*
X52290440Y-71901041D01*
X52261955Y-71875074D01*
X52134923Y-71759269D01*
X52134921Y-71759267D01*
X51956007Y-71648488D01*
X51956001Y-71648485D01*
X51801348Y-71588573D01*
X51759776Y-71572468D01*
X51552920Y-71533800D01*
X51342480Y-71533800D01*
X51135624Y-71572468D01*
X51135621Y-71572468D01*
X51135621Y-71572469D01*
X50939398Y-71648485D01*
X50939392Y-71648488D01*
X50760478Y-71759267D01*
X50760476Y-71759269D01*
X50604961Y-71901039D01*
X50478142Y-72068974D01*
X50384342Y-72257349D01*
X50326751Y-72459762D01*
X50307335Y-72669299D01*
X37584500Y-72669299D01*
X37584500Y-71399299D01*
X52847335Y-71399299D01*
X52847335Y-71399300D01*
X52866751Y-71608837D01*
X52866751Y-71608839D01*
X52866752Y-71608842D01*
X52909552Y-71759269D01*
X52924342Y-71811250D01*
X53018142Y-71999625D01*
X53116067Y-72129299D01*
X53144961Y-72167560D01*
X53193092Y-72211437D01*
X53254138Y-72267088D01*
X53300476Y-72309330D01*
X53300478Y-72309332D01*
X53479392Y-72420111D01*
X53479398Y-72420114D01*
X53514584Y-72433745D01*
X53675624Y-72496132D01*
X53882480Y-72534800D01*
X53882482Y-72534800D01*
X54092918Y-72534800D01*
X54092920Y-72534800D01*
X54299776Y-72496132D01*
X54496004Y-72420113D01*
X54674923Y-72309331D01*
X54830440Y-72167559D01*
X54957258Y-71999625D01*
X54996908Y-71919997D01*
X57914726Y-71919997D01*
X57914726Y-71920002D01*
X57933761Y-72088951D01*
X57989919Y-72249439D01*
X58035787Y-72322437D01*
X58080376Y-72393400D01*
X58200600Y-72513624D01*
X58344563Y-72604082D01*
X58462590Y-72645381D01*
X58505048Y-72660238D01*
X58673997Y-72679274D01*
X58674000Y-72679274D01*
X58674003Y-72679274D01*
X58842951Y-72660238D01*
X58842954Y-72660237D01*
X59003437Y-72604082D01*
X59147400Y-72513624D01*
X59267624Y-72393400D01*
X59358082Y-72249437D01*
X59414237Y-72088954D01*
X59414237Y-72088953D01*
X59414238Y-72088951D01*
X59433274Y-71920002D01*
X59433274Y-71919997D01*
X59414238Y-71751048D01*
X59394626Y-71695000D01*
X59358082Y-71590563D01*
X59267624Y-71446600D01*
X59147400Y-71326376D01*
X59140337Y-71321938D01*
X59003439Y-71235919D01*
X59003438Y-71235918D01*
X59003437Y-71235918D01*
X58962510Y-71221597D01*
X58842951Y-71179761D01*
X58674003Y-71160726D01*
X58673997Y-71160726D01*
X58505048Y-71179761D01*
X58344560Y-71235919D01*
X58200599Y-71326376D01*
X58080376Y-71446599D01*
X57989919Y-71590560D01*
X57933761Y-71751048D01*
X57914726Y-71919997D01*
X54996908Y-71919997D01*
X55051059Y-71811247D01*
X55108648Y-71608842D01*
X55128065Y-71399300D01*
X55108648Y-71189758D01*
X55072735Y-71063535D01*
X69085500Y-71063535D01*
X69085500Y-71063540D01*
X69104535Y-71232489D01*
X69160692Y-71392975D01*
X69162929Y-71397620D01*
X69174279Y-71466562D01*
X69168249Y-71492373D01*
X69136949Y-71581823D01*
X69117913Y-71750773D01*
X69117913Y-71750778D01*
X69136948Y-71919725D01*
X69136949Y-71919729D01*
X69170028Y-72014264D01*
X69173589Y-72084043D01*
X69167934Y-72099944D01*
X69168172Y-72100028D01*
X69109715Y-72267085D01*
X69090680Y-72436034D01*
X69090680Y-72436039D01*
X69109715Y-72604988D01*
X69165873Y-72765476D01*
X69256330Y-72909437D01*
X69376554Y-73029661D01*
X69520517Y-73120119D01*
X69619419Y-73154726D01*
X69681002Y-73176275D01*
X69849951Y-73195311D01*
X69849954Y-73195311D01*
X69849957Y-73195311D01*
X70018905Y-73176275D01*
X70026084Y-73173763D01*
X70179391Y-73120119D01*
X70323354Y-73029661D01*
X70443578Y-72909437D01*
X70534036Y-72765474D01*
X70590191Y-72604991D01*
X70590191Y-72604990D01*
X70590192Y-72604988D01*
X70590450Y-72602696D01*
X73232122Y-72602696D01*
X73232122Y-72602701D01*
X73251157Y-72771650D01*
X73288664Y-72878837D01*
X73302538Y-72918488D01*
X73307315Y-72932138D01*
X73338216Y-72981316D01*
X73397772Y-73076099D01*
X73517996Y-73196323D01*
X73661959Y-73286781D01*
X73757969Y-73320376D01*
X73822444Y-73342937D01*
X73991393Y-73361973D01*
X73991396Y-73361973D01*
X73991399Y-73361973D01*
X74160350Y-73342936D01*
X74160352Y-73342936D01*
X74299322Y-73294308D01*
X74369101Y-73290746D01*
X74429728Y-73325474D01*
X74461956Y-73387468D01*
X74457319Y-73452303D01*
X74443762Y-73491047D01*
X74424726Y-73659997D01*
X74424726Y-73660002D01*
X74443761Y-73828951D01*
X74473522Y-73914002D01*
X74493694Y-73971651D01*
X74499919Y-73989439D01*
X74564716Y-74092563D01*
X74590376Y-74133400D01*
X74710600Y-74253624D01*
X74854563Y-74344082D01*
X74973581Y-74385728D01*
X75015048Y-74400238D01*
X75183997Y-74419274D01*
X75184000Y-74419274D01*
X75184003Y-74419274D01*
X75352951Y-74400238D01*
X75352954Y-74400237D01*
X75356800Y-74398890D01*
X75359447Y-74398755D01*
X75359744Y-74398688D01*
X75359755Y-74398739D01*
X75426578Y-74395325D01*
X75487208Y-74430050D01*
X75519439Y-74492041D01*
X75513039Y-74561617D01*
X75494715Y-74593236D01*
X75492186Y-74596407D01*
X75401728Y-74740369D01*
X75345570Y-74900857D01*
X75326535Y-75069806D01*
X75326535Y-75069811D01*
X75345570Y-75238760D01*
X75401728Y-75399248D01*
X75490626Y-75540728D01*
X75492185Y-75543209D01*
X75612409Y-75663433D01*
X75756372Y-75753891D01*
X75878330Y-75796565D01*
X75916857Y-75810047D01*
X76085806Y-75829083D01*
X76085809Y-75829083D01*
X76085811Y-75829083D01*
X76147371Y-75822146D01*
X76224754Y-75813427D01*
X76293576Y-75825481D01*
X76344955Y-75872830D01*
X76362580Y-75940440D01*
X76343632Y-76002619D01*
X76252519Y-76147624D01*
X76196361Y-76308112D01*
X76177326Y-76477061D01*
X76177326Y-76477066D01*
X76196361Y-76646015D01*
X76217097Y-76705274D01*
X76252518Y-76806501D01*
X76342976Y-76950464D01*
X76463200Y-77070688D01*
X76548351Y-77124192D01*
X76589255Y-77149894D01*
X76607163Y-77161146D01*
X76702543Y-77194520D01*
X76759318Y-77235242D01*
X76778629Y-77270606D01*
X76785918Y-77291438D01*
X76785919Y-77291439D01*
X76876376Y-77435400D01*
X76996600Y-77555624D01*
X77140563Y-77646082D01*
X77262521Y-77688756D01*
X77301048Y-77702238D01*
X77469997Y-77721274D01*
X77470000Y-77721274D01*
X77470003Y-77721274D01*
X77638951Y-77702238D01*
X77638954Y-77702237D01*
X77799437Y-77646082D01*
X77943400Y-77555624D01*
X78063624Y-77435400D01*
X78154082Y-77291437D01*
X78174110Y-77234198D01*
X78187164Y-77215997D01*
X79250726Y-77215997D01*
X79250726Y-77216002D01*
X79269761Y-77384951D01*
X79325919Y-77545439D01*
X79390716Y-77648563D01*
X79416376Y-77689400D01*
X79536600Y-77809624D01*
X79680563Y-77900082D01*
X79802521Y-77942756D01*
X79841048Y-77956238D01*
X80009997Y-77975274D01*
X80010000Y-77975274D01*
X80010003Y-77975274D01*
X80178951Y-77956238D01*
X80178954Y-77956237D01*
X80339437Y-77900082D01*
X80483400Y-77809624D01*
X80603624Y-77689400D01*
X80694082Y-77545437D01*
X80750237Y-77384954D01*
X80750237Y-77384953D01*
X80750238Y-77384951D01*
X80769274Y-77216002D01*
X80769274Y-77215997D01*
X80750238Y-77047048D01*
X80720477Y-76961997D01*
X92712726Y-76961997D01*
X92712726Y-76962002D01*
X92731761Y-77130951D01*
X92787919Y-77291439D01*
X92878376Y-77435400D01*
X92998600Y-77555624D01*
X93142563Y-77646082D01*
X93264521Y-77688756D01*
X93303048Y-77702238D01*
X93471997Y-77721274D01*
X93472000Y-77721274D01*
X93472003Y-77721274D01*
X93640951Y-77702238D01*
X93640954Y-77702237D01*
X93801437Y-77646082D01*
X93945400Y-77555624D01*
X94065624Y-77435400D01*
X94156082Y-77291437D01*
X94212237Y-77130954D01*
X94212237Y-77130953D01*
X94212238Y-77130951D01*
X94231274Y-76962002D01*
X94231274Y-76961997D01*
X94212238Y-76793048D01*
X94181524Y-76705274D01*
X94156082Y-76632563D01*
X94065624Y-76488600D01*
X93945400Y-76368376D01*
X93888442Y-76332587D01*
X93801439Y-76277919D01*
X93801438Y-76277918D01*
X93801437Y-76277918D01*
X93762912Y-76264437D01*
X93640951Y-76221761D01*
X93472003Y-76202726D01*
X93471997Y-76202726D01*
X93303048Y-76221761D01*
X93142560Y-76277919D01*
X92998599Y-76368376D01*
X92878376Y-76488599D01*
X92787919Y-76632560D01*
X92731761Y-76793048D01*
X92712726Y-76961997D01*
X80720477Y-76961997D01*
X80694082Y-76886563D01*
X80603624Y-76742600D01*
X80483400Y-76622376D01*
X80351701Y-76539624D01*
X80339439Y-76531919D01*
X80339438Y-76531918D01*
X80339437Y-76531918D01*
X80300912Y-76518437D01*
X80178951Y-76475761D01*
X80010003Y-76456726D01*
X80009997Y-76456726D01*
X79841048Y-76475761D01*
X79680560Y-76531919D01*
X79536599Y-76622376D01*
X79416376Y-76742599D01*
X79325919Y-76886560D01*
X79269761Y-77047048D01*
X79250726Y-77215997D01*
X78187164Y-77215997D01*
X78214831Y-77177422D01*
X78250199Y-77158110D01*
X78307437Y-77138082D01*
X78451400Y-77047624D01*
X78571624Y-76927400D01*
X78662082Y-76783437D01*
X78718237Y-76622954D01*
X78718237Y-76622953D01*
X78718238Y-76622951D01*
X78737274Y-76454002D01*
X78737274Y-76453997D01*
X78718238Y-76285048D01*
X78703957Y-76244237D01*
X78662082Y-76124563D01*
X78571624Y-75980600D01*
X78505821Y-75914797D01*
X82806726Y-75914797D01*
X82806726Y-75914802D01*
X82825761Y-76083751D01*
X82881919Y-76244239D01*
X82945106Y-76344800D01*
X82972376Y-76388200D01*
X83092600Y-76508424D01*
X83236563Y-76598882D01*
X83332819Y-76632563D01*
X83397048Y-76655038D01*
X83565997Y-76674074D01*
X83566000Y-76674074D01*
X83566003Y-76674074D01*
X83734951Y-76655038D01*
X83734954Y-76655037D01*
X83895437Y-76598882D01*
X84039400Y-76508424D01*
X84159624Y-76388200D01*
X84250082Y-76244237D01*
X84306237Y-76083754D01*
X84306237Y-76083753D01*
X84306238Y-76083751D01*
X84325274Y-75914802D01*
X84325274Y-75914797D01*
X84306237Y-75745845D01*
X84306237Y-75745843D01*
X84280095Y-75671134D01*
X84276533Y-75601355D01*
X84311261Y-75540728D01*
X84373255Y-75508500D01*
X84411020Y-75506959D01*
X84563804Y-75524174D01*
X84563807Y-75524174D01*
X84563810Y-75524174D01*
X84732758Y-75505138D01*
X84732761Y-75505137D01*
X84893244Y-75448982D01*
X85037207Y-75358524D01*
X85157431Y-75238300D01*
X85247889Y-75094337D01*
X85304044Y-74933854D01*
X85307673Y-74901645D01*
X85334738Y-74837233D01*
X85392332Y-74797677D01*
X85462169Y-74795538D01*
X85496865Y-74810535D01*
X85522563Y-74826682D01*
X85644521Y-74869356D01*
X85683048Y-74882838D01*
X85851997Y-74901874D01*
X85852000Y-74901874D01*
X85852003Y-74901874D01*
X85989710Y-74886358D01*
X86058532Y-74898412D01*
X86109912Y-74945761D01*
X86127536Y-75013372D01*
X86126814Y-75023462D01*
X86108726Y-75183997D01*
X86108726Y-75184002D01*
X86127761Y-75352951D01*
X86164690Y-75458487D01*
X86182190Y-75508500D01*
X86183919Y-75513439D01*
X86251661Y-75621250D01*
X86274376Y-75657400D01*
X86394600Y-75777624D01*
X86538563Y-75868082D01*
X86660521Y-75910756D01*
X86699048Y-75924238D01*
X86867997Y-75943274D01*
X86868000Y-75943274D01*
X86868003Y-75943274D01*
X87036951Y-75924238D01*
X87051326Y-75919208D01*
X87197437Y-75868082D01*
X87341400Y-75777624D01*
X87461624Y-75657400D01*
X87552082Y-75513437D01*
X87608237Y-75352954D01*
X87608237Y-75352953D01*
X87608238Y-75352951D01*
X87627274Y-75184002D01*
X87627274Y-75183997D01*
X87608238Y-75015048D01*
X87594756Y-74976521D01*
X87552082Y-74854563D01*
X87461624Y-74710600D01*
X87341400Y-74590376D01*
X87295630Y-74561617D01*
X87197439Y-74499919D01*
X87197438Y-74499918D01*
X87197437Y-74499918D01*
X87158912Y-74486437D01*
X87036951Y-74443761D01*
X86868003Y-74424726D01*
X86867996Y-74424726D01*
X86730288Y-74440241D01*
X86661466Y-74428186D01*
X86610087Y-74380837D01*
X86592463Y-74313226D01*
X86593185Y-74303137D01*
X86594497Y-74291500D01*
X86608412Y-74168000D01*
X86611274Y-74142602D01*
X86611274Y-74142597D01*
X86592238Y-73973648D01*
X86571365Y-73913997D01*
X86536082Y-73813163D01*
X86445624Y-73669200D01*
X86325400Y-73548976D01*
X86290981Y-73527349D01*
X86181438Y-73458518D01*
X86130284Y-73440619D01*
X86073508Y-73399897D01*
X86047760Y-73334945D01*
X86061216Y-73266383D01*
X86083551Y-73235902D01*
X86194177Y-73125277D01*
X86284635Y-72981314D01*
X86340790Y-72820831D01*
X86340790Y-72820830D01*
X86340791Y-72820828D01*
X86359827Y-72651879D01*
X86359827Y-72651874D01*
X86342880Y-72501467D01*
X92659778Y-72501467D01*
X92659778Y-72501472D01*
X92678813Y-72670421D01*
X92688927Y-72699324D01*
X92731444Y-72820831D01*
X92734971Y-72830909D01*
X92777717Y-72898938D01*
X92825428Y-72974870D01*
X92945652Y-73095094D01*
X93089615Y-73185552D01*
X93211573Y-73228226D01*
X93250100Y-73241708D01*
X93419049Y-73260744D01*
X93419052Y-73260744D01*
X93419055Y-73260744D01*
X93588003Y-73241708D01*
X93588006Y-73241707D01*
X93748489Y-73185552D01*
X93892452Y-73095094D01*
X94012676Y-72974870D01*
X94103134Y-72830907D01*
X94159289Y-72670424D01*
X94159289Y-72670422D01*
X94159290Y-72670420D01*
X94172303Y-72554922D01*
X94175686Y-72524894D01*
X94202752Y-72460482D01*
X94211206Y-72451117D01*
X94306924Y-72355400D01*
X94397382Y-72211437D01*
X94453537Y-72050954D01*
X94453537Y-72050953D01*
X94453538Y-72050951D01*
X94472574Y-71882002D01*
X94472574Y-71881997D01*
X94453538Y-71713048D01*
X94430946Y-71648485D01*
X94397382Y-71552563D01*
X94306924Y-71408600D01*
X94186700Y-71288376D01*
X94097761Y-71232492D01*
X94042739Y-71197919D01*
X94042738Y-71197918D01*
X94042737Y-71197918D01*
X93990847Y-71179761D01*
X93882251Y-71141761D01*
X93713303Y-71122726D01*
X93713297Y-71122726D01*
X93544348Y-71141761D01*
X93383860Y-71197919D01*
X93239899Y-71288376D01*
X93119676Y-71408599D01*
X93029219Y-71552560D01*
X92973061Y-71713048D01*
X92956665Y-71858574D01*
X92929598Y-71922988D01*
X92921127Y-71932371D01*
X92825427Y-72028071D01*
X92734971Y-72172030D01*
X92678813Y-72332518D01*
X92659778Y-72501467D01*
X86342880Y-72501467D01*
X86340791Y-72482925D01*
X86318811Y-72420111D01*
X86284635Y-72322440D01*
X86194177Y-72178477D01*
X86073953Y-72058253D01*
X85929990Y-71967795D01*
X85929989Y-71967794D01*
X85927429Y-71966186D01*
X85881138Y-71913851D01*
X85870181Y-71875074D01*
X85860861Y-71792347D01*
X85826798Y-71695000D01*
X85804705Y-71631862D01*
X85790237Y-71608837D01*
X85754876Y-71552560D01*
X85714247Y-71487899D01*
X85594023Y-71367675D01*
X85450062Y-71277218D01*
X85450063Y-71277218D01*
X85416872Y-71265604D01*
X85360097Y-71224881D01*
X85334609Y-71162446D01*
X85322238Y-71052649D01*
X85317578Y-71039331D01*
X85266082Y-70892163D01*
X85175624Y-70748200D01*
X85055400Y-70627976D01*
X85025636Y-70609274D01*
X84911439Y-70537519D01*
X84911438Y-70537518D01*
X84911437Y-70537518D01*
X84872912Y-70524037D01*
X84750951Y-70481361D01*
X84582003Y-70462326D01*
X84581997Y-70462326D01*
X84413048Y-70481361D01*
X84252560Y-70537519D01*
X84108599Y-70627976D01*
X83988376Y-70748199D01*
X83897919Y-70892160D01*
X83841761Y-71052648D01*
X83822726Y-71221597D01*
X83822726Y-71221602D01*
X83841761Y-71390551D01*
X83897919Y-71551039D01*
X83988376Y-71695000D01*
X84108600Y-71815224D01*
X84153482Y-71843425D01*
X84252562Y-71905682D01*
X84285746Y-71917293D01*
X84342523Y-71958014D01*
X84368013Y-72020451D01*
X84380384Y-72130249D01*
X84397260Y-72178477D01*
X84424858Y-72257349D01*
X84436542Y-72290738D01*
X84456460Y-72322437D01*
X84526999Y-72434699D01*
X84647223Y-72554923D01*
X84723253Y-72602696D01*
X84793745Y-72646989D01*
X84840036Y-72699324D01*
X84850993Y-72738099D01*
X84860315Y-72820829D01*
X84887646Y-72898938D01*
X84891207Y-72968717D01*
X84856478Y-73029344D01*
X84794484Y-73061571D01*
X84756720Y-73063112D01*
X84582003Y-73043426D01*
X84581997Y-73043426D01*
X84413048Y-73062461D01*
X84252560Y-73118619D01*
X84108599Y-73209076D01*
X83988376Y-73329299D01*
X83897919Y-73473260D01*
X83841761Y-73633748D01*
X83822726Y-73802697D01*
X83822726Y-73802702D01*
X83841761Y-73971651D01*
X83897919Y-74132139D01*
X83942664Y-74203351D01*
X83961664Y-74270588D01*
X83942664Y-74335295D01*
X83879726Y-74435460D01*
X83823568Y-74595948D01*
X83804533Y-74764897D01*
X83804533Y-74764902D01*
X83823569Y-74933852D01*
X83849712Y-75008566D01*
X83853273Y-75078345D01*
X83818544Y-75138972D01*
X83756550Y-75171199D01*
X83718787Y-75172740D01*
X83566004Y-75155526D01*
X83565997Y-75155526D01*
X83397048Y-75174561D01*
X83236560Y-75230719D01*
X83092599Y-75321176D01*
X82972376Y-75441399D01*
X82881919Y-75585360D01*
X82825761Y-75745848D01*
X82806726Y-75914797D01*
X78505821Y-75914797D01*
X78451400Y-75860376D01*
X78371302Y-75810047D01*
X78307439Y-75769919D01*
X78307438Y-75769918D01*
X78307437Y-75769918D01*
X78261634Y-75753891D01*
X78146951Y-75713761D01*
X77978003Y-75694726D01*
X77977997Y-75694726D01*
X77809048Y-75713761D01*
X77648560Y-75769919D01*
X77504919Y-75860175D01*
X77437682Y-75879175D01*
X77372975Y-75860175D01*
X77266039Y-75792983D01*
X77266038Y-75792982D01*
X77266037Y-75792982D01*
X77220494Y-75777046D01*
X77105551Y-75736825D01*
X76936603Y-75717790D01*
X76936596Y-75717790D01*
X76797653Y-75733445D01*
X76728832Y-75721391D01*
X76677452Y-75674041D01*
X76659828Y-75606431D01*
X76678777Y-75544252D01*
X76679431Y-75543210D01*
X76679433Y-75543209D01*
X76769891Y-75399246D01*
X76826046Y-75238763D01*
X76826046Y-75238761D01*
X76826047Y-75238759D01*
X76833659Y-75171199D01*
X76838706Y-75126399D01*
X76865772Y-75061987D01*
X76923366Y-75022432D01*
X76993203Y-75020293D01*
X77027898Y-75035290D01*
X77140563Y-75106082D01*
X77262521Y-75148756D01*
X77301048Y-75162238D01*
X77469997Y-75181274D01*
X77470000Y-75181274D01*
X77470003Y-75181274D01*
X77638951Y-75162238D01*
X77658133Y-75155526D01*
X77799437Y-75106082D01*
X77943400Y-75015624D01*
X78063624Y-74895400D01*
X78154082Y-74751437D01*
X78210237Y-74590954D01*
X78210237Y-74590953D01*
X78210238Y-74590951D01*
X78229274Y-74422002D01*
X78229274Y-74421997D01*
X78210238Y-74253048D01*
X78187646Y-74188485D01*
X78154082Y-74092563D01*
X78063624Y-73948600D01*
X78029021Y-73913997D01*
X81016026Y-73913997D01*
X81016026Y-73914002D01*
X81035061Y-74082951D01*
X81091219Y-74243439D01*
X81177552Y-74380837D01*
X81181676Y-74387400D01*
X81301900Y-74507624D01*
X81445863Y-74598082D01*
X81567821Y-74640756D01*
X81606348Y-74654238D01*
X81775297Y-74673274D01*
X81775300Y-74673274D01*
X81775303Y-74673274D01*
X81944251Y-74654238D01*
X81944254Y-74654237D01*
X82104737Y-74598082D01*
X82248700Y-74507624D01*
X82368924Y-74387400D01*
X82459382Y-74243437D01*
X82515537Y-74082954D01*
X82515537Y-74082953D01*
X82515538Y-74082951D01*
X82534574Y-73914002D01*
X82534574Y-73913997D01*
X82515538Y-73745048D01*
X82497885Y-73694599D01*
X82459382Y-73584563D01*
X82368924Y-73440600D01*
X82248700Y-73320376D01*
X82195231Y-73286779D01*
X82104739Y-73229919D01*
X82104738Y-73229918D01*
X82104737Y-73229918D01*
X82045174Y-73209076D01*
X81944251Y-73173761D01*
X81775303Y-73154726D01*
X81775297Y-73154726D01*
X81606348Y-73173761D01*
X81445860Y-73229919D01*
X81301899Y-73320376D01*
X81181676Y-73440599D01*
X81091219Y-73584560D01*
X81035061Y-73745048D01*
X81016026Y-73913997D01*
X78029021Y-73913997D01*
X77943400Y-73828376D01*
X77902532Y-73802697D01*
X77799439Y-73737919D01*
X77799438Y-73737918D01*
X77799437Y-73737918D01*
X77760912Y-73724437D01*
X77638951Y-73681761D01*
X77470003Y-73662726D01*
X77469997Y-73662726D01*
X77301048Y-73681761D01*
X77140560Y-73737919D01*
X76996599Y-73828376D01*
X76876376Y-73948599D01*
X76785919Y-74092560D01*
X76729761Y-74253048D01*
X76717102Y-74365408D01*
X76690035Y-74429822D01*
X76632440Y-74469377D01*
X76562603Y-74471514D01*
X76527910Y-74456518D01*
X76415248Y-74385728D01*
X76415247Y-74385727D01*
X76415246Y-74385727D01*
X76376721Y-74372246D01*
X76254760Y-74329570D01*
X76085812Y-74310535D01*
X76085806Y-74310535D01*
X75916855Y-74329571D01*
X75912995Y-74330922D01*
X75910344Y-74331057D01*
X75910065Y-74331121D01*
X75910053Y-74331071D01*
X75843216Y-74334480D01*
X75782590Y-74299748D01*
X75750366Y-74237753D01*
X75756775Y-74168178D01*
X75775103Y-74136560D01*
X75777617Y-74133406D01*
X75777624Y-74133400D01*
X75868082Y-73989437D01*
X75924237Y-73828954D01*
X75924237Y-73828953D01*
X75924238Y-73828951D01*
X75943274Y-73660002D01*
X75943274Y-73659997D01*
X75924238Y-73491048D01*
X75906585Y-73440599D01*
X75868082Y-73330563D01*
X75777624Y-73186600D01*
X75657400Y-73066376D01*
X75652205Y-73063112D01*
X75513439Y-72975919D01*
X75513438Y-72975918D01*
X75513437Y-72975918D01*
X75474912Y-72962437D01*
X75352951Y-72919761D01*
X75184003Y-72900726D01*
X75183997Y-72900726D01*
X75015047Y-72919762D01*
X74876072Y-72968391D01*
X74806293Y-72971952D01*
X74745666Y-72937223D01*
X74713439Y-72875229D01*
X74718076Y-72810394D01*
X74731633Y-72771653D01*
X74750514Y-72604082D01*
X74750670Y-72602701D01*
X74750670Y-72602696D01*
X74731634Y-72433747D01*
X74696212Y-72332518D01*
X74675478Y-72273262D01*
X74585020Y-72129299D01*
X74464796Y-72009075D01*
X74361887Y-71944413D01*
X74320835Y-71918618D01*
X74320834Y-71918617D01*
X74320833Y-71918617D01*
X74282308Y-71905136D01*
X74160347Y-71862460D01*
X73991399Y-71843425D01*
X73991393Y-71843425D01*
X73822444Y-71862460D01*
X73661956Y-71918618D01*
X73517995Y-72009075D01*
X73397772Y-72129298D01*
X73307315Y-72273259D01*
X73251157Y-72433747D01*
X73232122Y-72602696D01*
X70590450Y-72602696D01*
X70609228Y-72436039D01*
X70609228Y-72436034D01*
X70590192Y-72267088D01*
X70590191Y-72267085D01*
X70590191Y-72267083D01*
X70557111Y-72172548D01*
X70553551Y-72102770D01*
X70559206Y-72086868D01*
X70558969Y-72086786D01*
X70617424Y-71919732D01*
X70617424Y-71919730D01*
X70636461Y-71750778D01*
X70636461Y-71750773D01*
X70617425Y-71581824D01*
X70598705Y-71528327D01*
X70561269Y-71421339D01*
X70561267Y-71421336D01*
X70561267Y-71421335D01*
X70559037Y-71416705D01*
X70547678Y-71347765D01*
X70553709Y-71321946D01*
X70585011Y-71232492D01*
X70586239Y-71221600D01*
X70604048Y-71063540D01*
X70604048Y-71063535D01*
X70585012Y-70894586D01*
X70551556Y-70798974D01*
X70541355Y-70769824D01*
X70537795Y-70700046D01*
X70546682Y-70675059D01*
X70546881Y-70674643D01*
X70546891Y-70674628D01*
X70588777Y-70554924D01*
X70603046Y-70514147D01*
X70603046Y-70514145D01*
X70622083Y-70345193D01*
X70622083Y-70345188D01*
X70603047Y-70176239D01*
X70550896Y-70027199D01*
X70546891Y-70015754D01*
X70546890Y-70015753D01*
X70546889Y-70015749D01*
X70543869Y-70009478D01*
X70546554Y-70008184D01*
X70531134Y-69953776D01*
X70538085Y-69913994D01*
X70560479Y-69849997D01*
X72392726Y-69849997D01*
X72392726Y-69850002D01*
X72411761Y-70018951D01*
X72441522Y-70104002D01*
X72467918Y-70179437D01*
X72558376Y-70323400D01*
X72678600Y-70443624D01*
X72822563Y-70534082D01*
X72944521Y-70576756D01*
X72983048Y-70590238D01*
X73151997Y-70609274D01*
X73152000Y-70609274D01*
X73152003Y-70609274D01*
X73320951Y-70590238D01*
X73320954Y-70590237D01*
X73481437Y-70534082D01*
X73625400Y-70443624D01*
X73644166Y-70424857D01*
X73705486Y-70391372D01*
X73775178Y-70396355D01*
X73822541Y-70430686D01*
X73823452Y-70429776D01*
X73828376Y-70434700D01*
X73948600Y-70554924D01*
X74092563Y-70645382D01*
X74177376Y-70675059D01*
X74253048Y-70701538D01*
X74421997Y-70720574D01*
X74422000Y-70720574D01*
X74422003Y-70720574D01*
X74527542Y-70708682D01*
X74590954Y-70701537D01*
X74705092Y-70661598D01*
X74758011Y-70643082D01*
X74758649Y-70644907D01*
X74818119Y-70635105D01*
X74847737Y-70643801D01*
X74847989Y-70643082D01*
X74928365Y-70671206D01*
X75015046Y-70701537D01*
X75057284Y-70706296D01*
X75183997Y-70720574D01*
X75184000Y-70720574D01*
X75184003Y-70720574D01*
X75352951Y-70701538D01*
X75357215Y-70700046D01*
X75513437Y-70645382D01*
X75657400Y-70554924D01*
X75777624Y-70434700D01*
X75868082Y-70290737D01*
X75924237Y-70130254D01*
X75924237Y-70130253D01*
X75924238Y-70130251D01*
X75927196Y-70103997D01*
X86108726Y-70103997D01*
X86108726Y-70104002D01*
X86127761Y-70272951D01*
X86164690Y-70378487D01*
X86182955Y-70430686D01*
X86183919Y-70433439D01*
X86251661Y-70541250D01*
X86274376Y-70577400D01*
X86394600Y-70697624D01*
X86538563Y-70788082D01*
X86660521Y-70830756D01*
X86699048Y-70844238D01*
X86867997Y-70863274D01*
X86868000Y-70863274D01*
X86868003Y-70863274D01*
X87036951Y-70844238D01*
X87036954Y-70844237D01*
X87197437Y-70788082D01*
X87341400Y-70697624D01*
X87461624Y-70577400D01*
X87552082Y-70433437D01*
X87608237Y-70272954D01*
X87608237Y-70272953D01*
X87608238Y-70272951D01*
X87627274Y-70104002D01*
X87627274Y-70103997D01*
X87608238Y-69935048D01*
X87594756Y-69896521D01*
X87552082Y-69774563D01*
X87461624Y-69630600D01*
X87341400Y-69510376D01*
X87305628Y-69487899D01*
X87197439Y-69419919D01*
X87197438Y-69419918D01*
X87197437Y-69419918D01*
X87158912Y-69406437D01*
X87036951Y-69363761D01*
X86868003Y-69344726D01*
X86867997Y-69344726D01*
X86699048Y-69363761D01*
X86538560Y-69419919D01*
X86394599Y-69510376D01*
X86274376Y-69630599D01*
X86183919Y-69774560D01*
X86127761Y-69935048D01*
X86108726Y-70103997D01*
X75927196Y-70103997D01*
X75943274Y-69961302D01*
X75943274Y-69961297D01*
X75924238Y-69792348D01*
X75897996Y-69717353D01*
X75868082Y-69631863D01*
X75777624Y-69487900D01*
X75657400Y-69367676D01*
X75513439Y-69277219D01*
X75513438Y-69277218D01*
X75513437Y-69277218D01*
X75453874Y-69256376D01*
X75352951Y-69221061D01*
X75184003Y-69202026D01*
X75183997Y-69202026D01*
X75015048Y-69221061D01*
X74914126Y-69256376D01*
X74854563Y-69277218D01*
X74854561Y-69277218D01*
X74847991Y-69279518D01*
X74847354Y-69277697D01*
X74787845Y-69287489D01*
X74758259Y-69278802D01*
X74758009Y-69279518D01*
X74751438Y-69277218D01*
X74751437Y-69277218D01*
X74691874Y-69256376D01*
X74590951Y-69221061D01*
X74422003Y-69202026D01*
X74421997Y-69202026D01*
X74253048Y-69221061D01*
X74092560Y-69277219D01*
X73948599Y-69367676D01*
X73929830Y-69386445D01*
X73868507Y-69419929D01*
X73798815Y-69414943D01*
X73751462Y-69380609D01*
X73750548Y-69381524D01*
X73625400Y-69256376D01*
X73481439Y-69165919D01*
X73481438Y-69165918D01*
X73481437Y-69165918D01*
X73442912Y-69152437D01*
X73320951Y-69109761D01*
X73152003Y-69090726D01*
X73151997Y-69090726D01*
X72983048Y-69109761D01*
X72822560Y-69165919D01*
X72678599Y-69256376D01*
X72558376Y-69376599D01*
X72467919Y-69520560D01*
X72411761Y-69681048D01*
X72392726Y-69849997D01*
X70560479Y-69849997D01*
X70590237Y-69764954D01*
X70605233Y-69631863D01*
X70609274Y-69596002D01*
X70609274Y-69595997D01*
X70590238Y-69427048D01*
X70548371Y-69307400D01*
X70534082Y-69266563D01*
X70443624Y-69122600D01*
X70323400Y-69002376D01*
X70179437Y-68911918D01*
X70140912Y-68898437D01*
X70018951Y-68855761D01*
X69850003Y-68836726D01*
X69849997Y-68836726D01*
X69681048Y-68855761D01*
X69520560Y-68911919D01*
X69376599Y-69002376D01*
X69256376Y-69122599D01*
X69165919Y-69266560D01*
X69109761Y-69427048D01*
X69090726Y-69595997D01*
X69090726Y-69596002D01*
X69109761Y-69764951D01*
X69165920Y-69925443D01*
X69168938Y-69931709D01*
X69166279Y-69932989D01*
X69181672Y-69987579D01*
X69174721Y-70027199D01*
X69122571Y-70176238D01*
X69103535Y-70345188D01*
X69103535Y-70345193D01*
X69122571Y-70514143D01*
X69166226Y-70638903D01*
X69169787Y-70708682D01*
X69160909Y-70733649D01*
X69160694Y-70734093D01*
X69104535Y-70894586D01*
X69085500Y-71063535D01*
X55072735Y-71063535D01*
X55051059Y-70987353D01*
X54957258Y-70798975D01*
X54830440Y-70631041D01*
X54771598Y-70577400D01*
X54674923Y-70489269D01*
X54674921Y-70489267D01*
X54496007Y-70378488D01*
X54496001Y-70378485D01*
X54341348Y-70318573D01*
X54299776Y-70302468D01*
X54092920Y-70263800D01*
X53882480Y-70263800D01*
X53675624Y-70302468D01*
X53675621Y-70302468D01*
X53675621Y-70302469D01*
X53479398Y-70378485D01*
X53479392Y-70378488D01*
X53300478Y-70489267D01*
X53300476Y-70489269D01*
X53144961Y-70631039D01*
X53018142Y-70798974D01*
X52924342Y-70987349D01*
X52924341Y-70987353D01*
X52869597Y-71179761D01*
X52866751Y-71189762D01*
X52847335Y-71399299D01*
X37584500Y-71399299D01*
X37584500Y-70129299D01*
X50307335Y-70129299D01*
X50307335Y-70129300D01*
X50326751Y-70338837D01*
X50326751Y-70338839D01*
X50326752Y-70338842D01*
X50383280Y-70537518D01*
X50384342Y-70541250D01*
X50462207Y-70697623D01*
X50478142Y-70729625D01*
X50602713Y-70894584D01*
X50604961Y-70897560D01*
X50760476Y-71039330D01*
X50760478Y-71039332D01*
X50939392Y-71150111D01*
X50939398Y-71150114D01*
X50966791Y-71160726D01*
X51135624Y-71226132D01*
X51342480Y-71264800D01*
X51342482Y-71264800D01*
X51552918Y-71264800D01*
X51552920Y-71264800D01*
X51759776Y-71226132D01*
X51956004Y-71150113D01*
X52134923Y-71039331D01*
X52290440Y-70897559D01*
X52417258Y-70729625D01*
X52511059Y-70541247D01*
X52568648Y-70338842D01*
X52588065Y-70129300D01*
X52568648Y-69919758D01*
X52511059Y-69717353D01*
X52417258Y-69528975D01*
X52290440Y-69361041D01*
X52231598Y-69307400D01*
X52134923Y-69219269D01*
X52134921Y-69219267D01*
X51956007Y-69108488D01*
X51956001Y-69108485D01*
X51801348Y-69048573D01*
X51759776Y-69032468D01*
X51552920Y-68993800D01*
X51342480Y-68993800D01*
X51135624Y-69032468D01*
X51135621Y-69032468D01*
X51135621Y-69032469D01*
X50939398Y-69108485D01*
X50939392Y-69108488D01*
X50760478Y-69219267D01*
X50760476Y-69219269D01*
X50604961Y-69361039D01*
X50478142Y-69528974D01*
X50384342Y-69717349D01*
X50326751Y-69919762D01*
X50307335Y-70129299D01*
X37584500Y-70129299D01*
X37584500Y-68859299D01*
X52847335Y-68859299D01*
X52847335Y-68859300D01*
X52866751Y-69068837D01*
X52866751Y-69068839D01*
X52866752Y-69068842D01*
X52923008Y-69266563D01*
X52924342Y-69271250D01*
X52978797Y-69380609D01*
X53018142Y-69459625D01*
X53121125Y-69595997D01*
X53144961Y-69627560D01*
X53300476Y-69769330D01*
X53300478Y-69769332D01*
X53479392Y-69880111D01*
X53479398Y-69880114D01*
X53520968Y-69896218D01*
X53675624Y-69956132D01*
X53882480Y-69994800D01*
X53882482Y-69994800D01*
X54092918Y-69994800D01*
X54092920Y-69994800D01*
X54299776Y-69956132D01*
X54496004Y-69880113D01*
X54674923Y-69769331D01*
X54830440Y-69627559D01*
X54957258Y-69459625D01*
X55051059Y-69271247D01*
X55108648Y-69068842D01*
X55128065Y-68859300D01*
X55125720Y-68833997D01*
X55882726Y-68833997D01*
X55882726Y-68834002D01*
X55901761Y-69002951D01*
X55957919Y-69163439D01*
X56025661Y-69271250D01*
X56048376Y-69307400D01*
X56168600Y-69427624D01*
X56312563Y-69518082D01*
X56434521Y-69560756D01*
X56473048Y-69574238D01*
X56641997Y-69593274D01*
X56642000Y-69593274D01*
X56642003Y-69593274D01*
X56810951Y-69574238D01*
X56810954Y-69574237D01*
X56971437Y-69518082D01*
X57115400Y-69427624D01*
X57235624Y-69307400D01*
X57326082Y-69163437D01*
X57382237Y-69002954D01*
X57382237Y-69002953D01*
X57382238Y-69002951D01*
X57401274Y-68834002D01*
X57401274Y-68833997D01*
X57382238Y-68665048D01*
X57341618Y-68548963D01*
X57326082Y-68504563D01*
X57235624Y-68360600D01*
X57115400Y-68240376D01*
X57034210Y-68189361D01*
X56971439Y-68149919D01*
X56971438Y-68149918D01*
X56971437Y-68149918D01*
X56932912Y-68136437D01*
X56810951Y-68093761D01*
X56642003Y-68074726D01*
X56641997Y-68074726D01*
X56473048Y-68093761D01*
X56312560Y-68149919D01*
X56168599Y-68240376D01*
X56048376Y-68360599D01*
X55957919Y-68504560D01*
X55901761Y-68665048D01*
X55882726Y-68833997D01*
X55125720Y-68833997D01*
X55108648Y-68649758D01*
X55051059Y-68447353D01*
X54957258Y-68258975D01*
X54830440Y-68091041D01*
X54771598Y-68037400D01*
X54674923Y-67949269D01*
X54674921Y-67949267D01*
X54496007Y-67838488D01*
X54496001Y-67838485D01*
X54341348Y-67778573D01*
X54299776Y-67762468D01*
X54092920Y-67723800D01*
X53882480Y-67723800D01*
X53675624Y-67762468D01*
X53675621Y-67762468D01*
X53675621Y-67762469D01*
X53479398Y-67838485D01*
X53479392Y-67838488D01*
X53300478Y-67949267D01*
X53300476Y-67949269D01*
X53144961Y-68091039D01*
X53018142Y-68258974D01*
X52924342Y-68447349D01*
X52866751Y-68649762D01*
X52847335Y-68859299D01*
X37584500Y-68859299D01*
X37584500Y-66319294D01*
X42687444Y-66319294D01*
X42687444Y-66319305D01*
X42706448Y-66621374D01*
X42706449Y-66621381D01*
X42763168Y-66918710D01*
X42832288Y-67131439D01*
X42856701Y-67206574D01*
X42985577Y-67480450D01*
X42985579Y-67480453D01*
X42985580Y-67480455D01*
X43147758Y-67736008D01*
X43147761Y-67736012D01*
X43147762Y-67736013D01*
X43340699Y-67969234D01*
X43561343Y-68176432D01*
X43561353Y-68176440D01*
X43806208Y-68354338D01*
X43806213Y-68354340D01*
X43806220Y-68354346D01*
X44071463Y-68500165D01*
X44071468Y-68500167D01*
X44071470Y-68500168D01*
X44071471Y-68500169D01*
X44352886Y-68611589D01*
X44352889Y-68611590D01*
X44501560Y-68649762D01*
X44646063Y-68686864D01*
X44709060Y-68694822D01*
X44946347Y-68724799D01*
X44946356Y-68724799D01*
X44946359Y-68724800D01*
X44946361Y-68724800D01*
X45249039Y-68724800D01*
X45249041Y-68724800D01*
X45249044Y-68724799D01*
X45249052Y-68724799D01*
X45428239Y-68702162D01*
X45549337Y-68686864D01*
X45842510Y-68611590D01*
X45842513Y-68611589D01*
X46123928Y-68500169D01*
X46123929Y-68500168D01*
X46123927Y-68500168D01*
X46123937Y-68500165D01*
X46389180Y-68354346D01*
X46634055Y-68176434D01*
X46854701Y-67969234D01*
X47047638Y-67736013D01*
X47140745Y-67589299D01*
X50307838Y-67589299D01*
X50307838Y-67589300D01*
X50327245Y-67798744D01*
X50384811Y-68001069D01*
X50478571Y-68189362D01*
X50485245Y-68198199D01*
X51066700Y-67616746D01*
X51066700Y-67639460D01*
X51092664Y-67736361D01*
X51142824Y-67823240D01*
X51213760Y-67894176D01*
X51300639Y-67944336D01*
X51397540Y-67970300D01*
X51420253Y-67970300D01*
X50841587Y-68548963D01*
X50939618Y-68609662D01*
X50939620Y-68609663D01*
X51135763Y-68685648D01*
X51342529Y-68724300D01*
X51552871Y-68724300D01*
X51759635Y-68685648D01*
X51759636Y-68685648D01*
X51955779Y-68609663D01*
X51955780Y-68609662D01*
X52053810Y-68548964D01*
X52053811Y-68548963D01*
X51475148Y-67970300D01*
X51497860Y-67970300D01*
X51594761Y-67944336D01*
X51681640Y-67894176D01*
X51752576Y-67823240D01*
X51802736Y-67736361D01*
X51828700Y-67639460D01*
X51828700Y-67616747D01*
X52410152Y-68198199D01*
X52410153Y-68198199D01*
X52416828Y-68189361D01*
X52510588Y-68001069D01*
X52568154Y-67798744D01*
X52587562Y-67589300D01*
X52587562Y-67589299D01*
X52585217Y-67563997D01*
X92242826Y-67563997D01*
X92242826Y-67564002D01*
X92261861Y-67732951D01*
X92318019Y-67893439D01*
X92365644Y-67969234D01*
X92408476Y-68037400D01*
X92528700Y-68157624D01*
X92672663Y-68248082D01*
X92794621Y-68290756D01*
X92833148Y-68304238D01*
X93002097Y-68323274D01*
X93002100Y-68323274D01*
X93002103Y-68323274D01*
X93171051Y-68304238D01*
X93171054Y-68304237D01*
X93331537Y-68248082D01*
X93475500Y-68157624D01*
X93595724Y-68037400D01*
X93686182Y-67893437D01*
X93742337Y-67732954D01*
X93742337Y-67732953D01*
X93742338Y-67732951D01*
X93761374Y-67564002D01*
X93761374Y-67563997D01*
X93742338Y-67395048D01*
X93728450Y-67355360D01*
X93686182Y-67234563D01*
X93595724Y-67090600D01*
X93475500Y-66970376D01*
X93331537Y-66879918D01*
X93293012Y-66866437D01*
X93171051Y-66823761D01*
X93002103Y-66804726D01*
X93002097Y-66804726D01*
X92833148Y-66823761D01*
X92672660Y-66879919D01*
X92528699Y-66970376D01*
X92408476Y-67090599D01*
X92318019Y-67234560D01*
X92261861Y-67395048D01*
X92242826Y-67563997D01*
X52585217Y-67563997D01*
X52568154Y-67379855D01*
X52510588Y-67177530D01*
X52416830Y-66989241D01*
X52416828Y-66989237D01*
X52410153Y-66980399D01*
X52410152Y-66980398D01*
X51828700Y-67561851D01*
X51828700Y-67539140D01*
X51802736Y-67442239D01*
X51752576Y-67355360D01*
X51681640Y-67284424D01*
X51594761Y-67234264D01*
X51497860Y-67208300D01*
X51475148Y-67208300D01*
X51881450Y-66801997D01*
X60708726Y-66801997D01*
X60708726Y-66802002D01*
X60727761Y-66970951D01*
X60783919Y-67131439D01*
X60848716Y-67234563D01*
X60874376Y-67275400D01*
X60994600Y-67395624D01*
X61138563Y-67486082D01*
X61260521Y-67528756D01*
X61299048Y-67542238D01*
X61467997Y-67561274D01*
X61468000Y-67561274D01*
X61468003Y-67561274D01*
X61636951Y-67542238D01*
X61636954Y-67542237D01*
X61797437Y-67486082D01*
X61941400Y-67395624D01*
X62061624Y-67275400D01*
X62152082Y-67131437D01*
X62208237Y-66970954D01*
X62208237Y-66970953D01*
X62208238Y-66970951D01*
X62227274Y-66802002D01*
X62227274Y-66801997D01*
X62208238Y-66633048D01*
X62177524Y-66545274D01*
X62152082Y-66472563D01*
X62061624Y-66328600D01*
X61941400Y-66208376D01*
X61797437Y-66117918D01*
X61758912Y-66104437D01*
X61636951Y-66061761D01*
X61468003Y-66042726D01*
X61467997Y-66042726D01*
X61299048Y-66061761D01*
X61138560Y-66117919D01*
X60994599Y-66208376D01*
X60874376Y-66328599D01*
X60783919Y-66472560D01*
X60727761Y-66633048D01*
X60708726Y-66801997D01*
X51881450Y-66801997D01*
X52053811Y-66629635D01*
X52053810Y-66629634D01*
X51955783Y-66568938D01*
X51955777Y-66568936D01*
X51759636Y-66492951D01*
X51552871Y-66454300D01*
X51342529Y-66454300D01*
X51135764Y-66492951D01*
X51135763Y-66492951D01*
X50939623Y-66568935D01*
X50841587Y-66629635D01*
X51420253Y-67208300D01*
X51397540Y-67208300D01*
X51300639Y-67234264D01*
X51213760Y-67284424D01*
X51142824Y-67355360D01*
X51092664Y-67442239D01*
X51066700Y-67539140D01*
X51066700Y-67561853D01*
X50485246Y-66980399D01*
X50485245Y-66980399D01*
X50478570Y-66989239D01*
X50384811Y-67177530D01*
X50327245Y-67379855D01*
X50307838Y-67589299D01*
X47140745Y-67589299D01*
X47209823Y-67480450D01*
X47338699Y-67206574D01*
X47432233Y-66918706D01*
X47488950Y-66621385D01*
X47493739Y-66545274D01*
X47507956Y-66319305D01*
X47507956Y-66319294D01*
X47488951Y-66017225D01*
X47488950Y-66017218D01*
X47488950Y-66017215D01*
X47444843Y-65785997D01*
X66042726Y-65785997D01*
X66042726Y-65786002D01*
X66061761Y-65954951D01*
X66117919Y-66115439D01*
X66176315Y-66208376D01*
X66208376Y-66259400D01*
X66328600Y-66379624D01*
X66472563Y-66470082D01*
X66594521Y-66512756D01*
X66633048Y-66526238D01*
X66801997Y-66545274D01*
X66802000Y-66545274D01*
X66802003Y-66545274D01*
X66970951Y-66526238D01*
X66970954Y-66526237D01*
X67131437Y-66470082D01*
X67275400Y-66379624D01*
X67395624Y-66259400D01*
X67486082Y-66115437D01*
X67512479Y-66039997D01*
X78234726Y-66039997D01*
X78234726Y-66040002D01*
X78253761Y-66208951D01*
X78309919Y-66369439D01*
X78374716Y-66472563D01*
X78400376Y-66513400D01*
X78520600Y-66633624D01*
X78664563Y-66724082D01*
X78786521Y-66766756D01*
X78825048Y-66780238D01*
X78993997Y-66799274D01*
X78994000Y-66799274D01*
X78994003Y-66799274D01*
X79162951Y-66780238D01*
X79162954Y-66780237D01*
X79323437Y-66724082D01*
X79467400Y-66633624D01*
X79587624Y-66513400D01*
X79678082Y-66369437D01*
X79734237Y-66208954D01*
X79734237Y-66208953D01*
X79734238Y-66208951D01*
X79753274Y-66040002D01*
X79753274Y-66039997D01*
X81536726Y-66039997D01*
X81536726Y-66040002D01*
X81555761Y-66208951D01*
X81611919Y-66369439D01*
X81676716Y-66472563D01*
X81702376Y-66513400D01*
X81822600Y-66633624D01*
X81966563Y-66724082D01*
X82088521Y-66766756D01*
X82127048Y-66780238D01*
X82295997Y-66799274D01*
X82296000Y-66799274D01*
X82296003Y-66799274D01*
X82464951Y-66780238D01*
X82464954Y-66780237D01*
X82625437Y-66724082D01*
X82769400Y-66633624D01*
X82889624Y-66513400D01*
X82980082Y-66369437D01*
X83036237Y-66208954D01*
X83036237Y-66208953D01*
X83036238Y-66208951D01*
X83055274Y-66040002D01*
X83055274Y-66039997D01*
X83036238Y-65871048D01*
X83005524Y-65783274D01*
X82980082Y-65710563D01*
X82889624Y-65566600D01*
X82769400Y-65446376D01*
X82625437Y-65355918D01*
X82586912Y-65342437D01*
X82464951Y-65299761D01*
X82296003Y-65280726D01*
X82295997Y-65280726D01*
X82127048Y-65299761D01*
X81966560Y-65355919D01*
X81822599Y-65446376D01*
X81702376Y-65566599D01*
X81611919Y-65710560D01*
X81555761Y-65871048D01*
X81536726Y-66039997D01*
X79753274Y-66039997D01*
X79734238Y-65871048D01*
X79703524Y-65783274D01*
X79678082Y-65710563D01*
X79587624Y-65566600D01*
X79467400Y-65446376D01*
X79323437Y-65355918D01*
X79284912Y-65342437D01*
X79162951Y-65299761D01*
X78994003Y-65280726D01*
X78993997Y-65280726D01*
X78825048Y-65299761D01*
X78664560Y-65355919D01*
X78520599Y-65446376D01*
X78400376Y-65566599D01*
X78309919Y-65710560D01*
X78253761Y-65871048D01*
X78234726Y-66039997D01*
X67512479Y-66039997D01*
X67542237Y-65954954D01*
X67542237Y-65954953D01*
X67542238Y-65954951D01*
X67561274Y-65786002D01*
X67561274Y-65785997D01*
X67542238Y-65617048D01*
X67500371Y-65497400D01*
X67486082Y-65456563D01*
X67395624Y-65312600D01*
X67275400Y-65192376D01*
X67131437Y-65101918D01*
X67092912Y-65088437D01*
X66970951Y-65045761D01*
X66802003Y-65026726D01*
X66801997Y-65026726D01*
X66633048Y-65045761D01*
X66472560Y-65101919D01*
X66328599Y-65192376D01*
X66208376Y-65312599D01*
X66117919Y-65456560D01*
X66061761Y-65617048D01*
X66042726Y-65785997D01*
X47444843Y-65785997D01*
X47432233Y-65719894D01*
X47338699Y-65432026D01*
X47209823Y-65158150D01*
X47124687Y-65023997D01*
X75948726Y-65023997D01*
X75948726Y-65024002D01*
X75967761Y-65192951D01*
X76023919Y-65353439D01*
X76088716Y-65456563D01*
X76114376Y-65497400D01*
X76234600Y-65617624D01*
X76378563Y-65708082D01*
X76500521Y-65750756D01*
X76539048Y-65764238D01*
X76707997Y-65783274D01*
X76708000Y-65783274D01*
X76708003Y-65783274D01*
X76876951Y-65764238D01*
X76876954Y-65764237D01*
X77037437Y-65708082D01*
X77181400Y-65617624D01*
X77301624Y-65497400D01*
X77392082Y-65353437D01*
X77448237Y-65192954D01*
X77448237Y-65192953D01*
X77448238Y-65192951D01*
X77467274Y-65024002D01*
X77467274Y-65023997D01*
X77448238Y-64855048D01*
X77434756Y-64816521D01*
X77392082Y-64694563D01*
X77301624Y-64550600D01*
X77181400Y-64430376D01*
X77037437Y-64339918D01*
X76998912Y-64326437D01*
X76876951Y-64283761D01*
X76708003Y-64264726D01*
X76707997Y-64264726D01*
X76539048Y-64283761D01*
X76378560Y-64339919D01*
X76234599Y-64430376D01*
X76114376Y-64550599D01*
X76023919Y-64694560D01*
X75967761Y-64855048D01*
X75948726Y-65023997D01*
X47124687Y-65023997D01*
X47047638Y-64902587D01*
X46854701Y-64669366D01*
X46634055Y-64462166D01*
X46634052Y-64462164D01*
X46634046Y-64462159D01*
X46389191Y-64284261D01*
X46389184Y-64284256D01*
X46389180Y-64284254D01*
X46123937Y-64138435D01*
X46123934Y-64138433D01*
X46123929Y-64138431D01*
X46123928Y-64138430D01*
X45842513Y-64027010D01*
X45842510Y-64027009D01*
X45549340Y-63951736D01*
X45549327Y-63951734D01*
X45249052Y-63913800D01*
X45249041Y-63913800D01*
X44946359Y-63913800D01*
X44946347Y-63913800D01*
X44646072Y-63951734D01*
X44646059Y-63951736D01*
X44352889Y-64027009D01*
X44352886Y-64027010D01*
X44071471Y-64138430D01*
X44071470Y-64138431D01*
X43806220Y-64284254D01*
X43806208Y-64284261D01*
X43561353Y-64462159D01*
X43561343Y-64462167D01*
X43340701Y-64669364D01*
X43147758Y-64902591D01*
X42985580Y-65158144D01*
X42985577Y-65158148D01*
X42985577Y-65158150D01*
X42893682Y-65353437D01*
X42856700Y-65432028D01*
X42763168Y-65719889D01*
X42706449Y-66017218D01*
X42706448Y-66017225D01*
X42687444Y-66319294D01*
X37584500Y-66319294D01*
X37584500Y-63499997D01*
X66042726Y-63499997D01*
X66042726Y-63500002D01*
X66061761Y-63668951D01*
X66104437Y-63790912D01*
X66117918Y-63829437D01*
X66208376Y-63973400D01*
X66328600Y-64093624D01*
X66472563Y-64184082D01*
X66594521Y-64226756D01*
X66633048Y-64240238D01*
X66801997Y-64259274D01*
X66802000Y-64259274D01*
X66802003Y-64259274D01*
X66970951Y-64240238D01*
X66970954Y-64240237D01*
X67131437Y-64184082D01*
X67275400Y-64093624D01*
X67395624Y-63973400D01*
X67486082Y-63829437D01*
X67542237Y-63668954D01*
X67542237Y-63668953D01*
X67542238Y-63668951D01*
X67561274Y-63500002D01*
X67561274Y-63499997D01*
X67542238Y-63331048D01*
X67528756Y-63292521D01*
X67486082Y-63170563D01*
X67395624Y-63026600D01*
X67275400Y-62906376D01*
X67143701Y-62823624D01*
X67131439Y-62815919D01*
X67131438Y-62815918D01*
X67131437Y-62815918D01*
X67092912Y-62802437D01*
X66970951Y-62759761D01*
X66802003Y-62740726D01*
X66801997Y-62740726D01*
X66633048Y-62759761D01*
X66472560Y-62815919D01*
X66328599Y-62906376D01*
X66208376Y-63026599D01*
X66117919Y-63170560D01*
X66061761Y-63331048D01*
X66042726Y-63499997D01*
X37584500Y-63499997D01*
X37584500Y-62229997D01*
X74170726Y-62229997D01*
X74170726Y-62230002D01*
X74189761Y-62398951D01*
X74232437Y-62520912D01*
X74245918Y-62559437D01*
X74336376Y-62703400D01*
X74456600Y-62823624D01*
X74600563Y-62914082D01*
X74722521Y-62956756D01*
X74761048Y-62970238D01*
X74929997Y-62989274D01*
X74930000Y-62989274D01*
X74930003Y-62989274D01*
X75098951Y-62970238D01*
X75098954Y-62970237D01*
X75259437Y-62914082D01*
X75403400Y-62823624D01*
X75523624Y-62703400D01*
X75614082Y-62559437D01*
X75670237Y-62398954D01*
X75670237Y-62398953D01*
X75670238Y-62398951D01*
X75689274Y-62230002D01*
X75689274Y-62229997D01*
X75670238Y-62061048D01*
X75628371Y-61941400D01*
X75614082Y-61900563D01*
X75523624Y-61756600D01*
X75403400Y-61636376D01*
X75271701Y-61553624D01*
X75259439Y-61545919D01*
X75259438Y-61545918D01*
X75259437Y-61545918D01*
X75220912Y-61532437D01*
X75098951Y-61489761D01*
X74930003Y-61470726D01*
X74929997Y-61470726D01*
X74761048Y-61489761D01*
X74600560Y-61545919D01*
X74456599Y-61636376D01*
X74336376Y-61756599D01*
X74245919Y-61900560D01*
X74189761Y-62061048D01*
X74170726Y-62229997D01*
X37584500Y-62229997D01*
X37584500Y-60959997D01*
X64772726Y-60959997D01*
X64772726Y-60960002D01*
X64791761Y-61128951D01*
X64847919Y-61289439D01*
X64853957Y-61299048D01*
X64938376Y-61433400D01*
X65058600Y-61553624D01*
X65202563Y-61644082D01*
X65324521Y-61686756D01*
X65363048Y-61700238D01*
X65531997Y-61719274D01*
X65532000Y-61719274D01*
X65532003Y-61719274D01*
X65700951Y-61700238D01*
X65700954Y-61700237D01*
X65861437Y-61644082D01*
X66005400Y-61553624D01*
X66125624Y-61433400D01*
X66216082Y-61289437D01*
X66272237Y-61128954D01*
X66272237Y-61128953D01*
X66272238Y-61128951D01*
X66291274Y-60960002D01*
X66291274Y-60959997D01*
X66804726Y-60959997D01*
X66804726Y-60960002D01*
X66823761Y-61128951D01*
X66879919Y-61289439D01*
X66885957Y-61299048D01*
X66970376Y-61433400D01*
X67090600Y-61553624D01*
X67234563Y-61644082D01*
X67356521Y-61686756D01*
X67395048Y-61700238D01*
X67563997Y-61719274D01*
X67564000Y-61719274D01*
X67564003Y-61719274D01*
X67732951Y-61700238D01*
X67732954Y-61700237D01*
X67893437Y-61644082D01*
X68037400Y-61553624D01*
X68123027Y-61467997D01*
X69090726Y-61467997D01*
X69090726Y-61468002D01*
X69109761Y-61636951D01*
X69165919Y-61797439D01*
X69230716Y-61900563D01*
X69256376Y-61941400D01*
X69376600Y-62061624D01*
X69520563Y-62152082D01*
X69642521Y-62194756D01*
X69681048Y-62208238D01*
X69849997Y-62227274D01*
X69850000Y-62227274D01*
X69850003Y-62227274D01*
X70018951Y-62208238D01*
X70018954Y-62208237D01*
X70179437Y-62152082D01*
X70323400Y-62061624D01*
X70443624Y-61941400D01*
X70534082Y-61797437D01*
X70590237Y-61636954D01*
X70590237Y-61636953D01*
X70590238Y-61636951D01*
X70609274Y-61468002D01*
X70609274Y-61467997D01*
X70590238Y-61299048D01*
X70576756Y-61260521D01*
X70534082Y-61138563D01*
X70443624Y-60994600D01*
X70323400Y-60874376D01*
X70179439Y-60783919D01*
X70179438Y-60783918D01*
X70179437Y-60783918D01*
X70140912Y-60770437D01*
X70018951Y-60727761D01*
X69850003Y-60708726D01*
X69849997Y-60708726D01*
X69681048Y-60727761D01*
X69520560Y-60783919D01*
X69376599Y-60874376D01*
X69256376Y-60994599D01*
X69165919Y-61138560D01*
X69109761Y-61299048D01*
X69090726Y-61467997D01*
X68123027Y-61467997D01*
X68157624Y-61433400D01*
X68248082Y-61289437D01*
X68304237Y-61128954D01*
X68304237Y-61128953D01*
X68304238Y-61128951D01*
X68323274Y-60960002D01*
X68323274Y-60959997D01*
X68304237Y-60791045D01*
X68304237Y-60791043D01*
X68260953Y-60667346D01*
X68257391Y-60597567D01*
X68290313Y-60538709D01*
X68291394Y-60537627D01*
X68291400Y-60537624D01*
X68411624Y-60417400D01*
X68502082Y-60273437D01*
X68540943Y-60162376D01*
X68581665Y-60105601D01*
X68646617Y-60079853D01*
X68715179Y-60093309D01*
X68723943Y-60098329D01*
X68758563Y-60120082D01*
X68868352Y-60158498D01*
X68919048Y-60176238D01*
X69087997Y-60195274D01*
X69088000Y-60195274D01*
X69088003Y-60195274D01*
X69256951Y-60176238D01*
X69256954Y-60176237D01*
X69417437Y-60120082D01*
X69561400Y-60029624D01*
X69681624Y-59909400D01*
X69772082Y-59765437D01*
X69828237Y-59604954D01*
X69828237Y-59604953D01*
X69828238Y-59604951D01*
X69847274Y-59436002D01*
X69847274Y-59435997D01*
X69828238Y-59267048D01*
X69814756Y-59228521D01*
X69772082Y-59106563D01*
X69681624Y-58962600D01*
X69561400Y-58842376D01*
X69422175Y-58754895D01*
X69417439Y-58751919D01*
X69417438Y-58751918D01*
X69417437Y-58751918D01*
X69378912Y-58738437D01*
X69256951Y-58695761D01*
X69088003Y-58676726D01*
X69087997Y-58676726D01*
X68919048Y-58695761D01*
X68758556Y-58751920D01*
X68752379Y-58754895D01*
X68683437Y-58766242D01*
X68619304Y-58738515D01*
X68580343Y-58680517D01*
X68575365Y-58657055D01*
X68558238Y-58505048D01*
X68544756Y-58466521D01*
X68502082Y-58344563D01*
X68411624Y-58200600D01*
X68291400Y-58080376D01*
X68268056Y-58065708D01*
X68221766Y-58013374D01*
X68211117Y-57944321D01*
X68239493Y-57880473D01*
X68246324Y-57873058D01*
X68321121Y-57798262D01*
X68411579Y-57654299D01*
X68467734Y-57493816D01*
X68480145Y-57383662D01*
X68507211Y-57319249D01*
X68515684Y-57309865D01*
X68557021Y-57268528D01*
X68636349Y-57189200D01*
X68726807Y-57045237D01*
X68782962Y-56884754D01*
X68782962Y-56884753D01*
X68782963Y-56884751D01*
X68801999Y-56715802D01*
X68801999Y-56715797D01*
X83822726Y-56715797D01*
X83822726Y-56715802D01*
X83841761Y-56884751D01*
X83880487Y-56995422D01*
X83897918Y-57045237D01*
X83988376Y-57189200D01*
X84108600Y-57309424D01*
X84252563Y-57399882D01*
X84374521Y-57442556D01*
X84413048Y-57456038D01*
X84581997Y-57475074D01*
X84582000Y-57475074D01*
X84582003Y-57475074D01*
X84750951Y-57456038D01*
X84750954Y-57456037D01*
X84911437Y-57399882D01*
X85055400Y-57309424D01*
X85175624Y-57189200D01*
X85266082Y-57045237D01*
X85322237Y-56884754D01*
X85322237Y-56884753D01*
X85322238Y-56884751D01*
X85341274Y-56715802D01*
X85341274Y-56715797D01*
X85322238Y-56546848D01*
X85308756Y-56508321D01*
X85266082Y-56386363D01*
X85175624Y-56242400D01*
X85055400Y-56122176D01*
X85019152Y-56099400D01*
X84911439Y-56031719D01*
X84911438Y-56031718D01*
X84911437Y-56031718D01*
X84872912Y-56018237D01*
X84750951Y-55975561D01*
X84582003Y-55956526D01*
X84581997Y-55956526D01*
X84413048Y-55975561D01*
X84252560Y-56031719D01*
X84108599Y-56122176D01*
X83988376Y-56242399D01*
X83897919Y-56386360D01*
X83841761Y-56546848D01*
X83822726Y-56715797D01*
X68801999Y-56715797D01*
X68782963Y-56546848D01*
X68739487Y-56422601D01*
X68726807Y-56386363D01*
X68726805Y-56386360D01*
X68726805Y-56386359D01*
X68690646Y-56328813D01*
X68671645Y-56261576D01*
X68692012Y-56194741D01*
X68745280Y-56149526D01*
X68814536Y-56140288D01*
X68861612Y-56157847D01*
X68881559Y-56170380D01*
X68881557Y-56170380D01*
X68881561Y-56170381D01*
X68881562Y-56170382D01*
X68951177Y-56194741D01*
X69042047Y-56226538D01*
X69210996Y-56245574D01*
X69210999Y-56245574D01*
X69211002Y-56245574D01*
X69379950Y-56226538D01*
X69399712Y-56219623D01*
X69540436Y-56170382D01*
X69684399Y-56079924D01*
X69804623Y-55959700D01*
X69895081Y-55815737D01*
X69951236Y-55655254D01*
X69951236Y-55655253D01*
X69951237Y-55655251D01*
X69970273Y-55486302D01*
X69970273Y-55486297D01*
X69951237Y-55317348D01*
X69935568Y-55272569D01*
X69895081Y-55156863D01*
X69804623Y-55012900D01*
X69684399Y-54892676D01*
X69638765Y-54864002D01*
X69540438Y-54802219D01*
X69540437Y-54802218D01*
X69540436Y-54802218D01*
X69473951Y-54778954D01*
X69379950Y-54746061D01*
X69211002Y-54727026D01*
X69210996Y-54727026D01*
X69042047Y-54746061D01*
X68881559Y-54802219D01*
X68737598Y-54892676D01*
X68617375Y-55012899D01*
X68526918Y-55156860D01*
X68470760Y-55317348D01*
X68451725Y-55486297D01*
X68451725Y-55486302D01*
X68470760Y-55655251D01*
X68526918Y-55815739D01*
X68563078Y-55873287D01*
X68582078Y-55940523D01*
X68561710Y-56007359D01*
X68508443Y-56052573D01*
X68439186Y-56061811D01*
X68392112Y-56044253D01*
X68372164Y-56031719D01*
X68372163Y-56031718D01*
X68372162Y-56031718D01*
X68333637Y-56018237D01*
X68211676Y-55975561D01*
X68042728Y-55956526D01*
X68042722Y-55956526D01*
X67873773Y-55975561D01*
X67713285Y-56031719D01*
X67569324Y-56122176D01*
X67449101Y-56242399D01*
X67358643Y-56386361D01*
X67302486Y-56546851D01*
X67290075Y-56657001D01*
X67263008Y-56721414D01*
X67254537Y-56730797D01*
X67133872Y-56851463D01*
X67043416Y-56995422D01*
X66987258Y-57155910D01*
X66968223Y-57324859D01*
X66968223Y-57324864D01*
X66987258Y-57493813D01*
X67043416Y-57654301D01*
X67133871Y-57798259D01*
X67133873Y-57798262D01*
X67254097Y-57918486D01*
X67277440Y-57933153D01*
X67323730Y-57985485D01*
X67334379Y-58054539D01*
X67306004Y-58118388D01*
X67299149Y-58125827D01*
X67224375Y-58200601D01*
X67133919Y-58344560D01*
X67077761Y-58505048D01*
X67058726Y-58673997D01*
X67058726Y-58674002D01*
X67077761Y-58842951D01*
X67133919Y-59003439D01*
X67224376Y-59147400D01*
X67298295Y-59221319D01*
X67331780Y-59282642D01*
X67326796Y-59352334D01*
X67298295Y-59396681D01*
X67224376Y-59470599D01*
X67133919Y-59614560D01*
X67077761Y-59775048D01*
X67058726Y-59943997D01*
X67058726Y-59944002D01*
X67077762Y-60112952D01*
X67121047Y-60236654D01*
X67124608Y-60306432D01*
X67091687Y-60365289D01*
X66970375Y-60486601D01*
X66879919Y-60630560D01*
X66823761Y-60791048D01*
X66804726Y-60959997D01*
X66291274Y-60959997D01*
X66272238Y-60791048D01*
X66239307Y-60696937D01*
X66216082Y-60630563D01*
X66125624Y-60486600D01*
X66005400Y-60366376D01*
X65877704Y-60286139D01*
X65861439Y-60275919D01*
X65861438Y-60275918D01*
X65861437Y-60275918D01*
X65822912Y-60262437D01*
X65700951Y-60219761D01*
X65532003Y-60200726D01*
X65531997Y-60200726D01*
X65363048Y-60219761D01*
X65202560Y-60275919D01*
X65058599Y-60366376D01*
X64938376Y-60486599D01*
X64847919Y-60630560D01*
X64791761Y-60791048D01*
X64772726Y-60959997D01*
X37584500Y-60959997D01*
X37584500Y-59956697D01*
X53088726Y-59956697D01*
X53088726Y-59956702D01*
X53107761Y-60125651D01*
X53140692Y-60219761D01*
X53159474Y-60273438D01*
X53163919Y-60286139D01*
X53246394Y-60417397D01*
X53254376Y-60430100D01*
X53374600Y-60550324D01*
X53518563Y-60640782D01*
X53640521Y-60683456D01*
X53679048Y-60696938D01*
X53847997Y-60715974D01*
X53848000Y-60715974D01*
X53848003Y-60715974D01*
X54016951Y-60696938D01*
X54016954Y-60696937D01*
X54177437Y-60640782D01*
X54321400Y-60550324D01*
X54441624Y-60430100D01*
X54532082Y-60286137D01*
X54588237Y-60125654D01*
X54588237Y-60125653D01*
X54588238Y-60125651D01*
X54607274Y-59956702D01*
X54607274Y-59956697D01*
X54588238Y-59787748D01*
X54574756Y-59749221D01*
X54532082Y-59627263D01*
X54441624Y-59483300D01*
X54321400Y-59363076D01*
X54177437Y-59272618D01*
X54138912Y-59259137D01*
X54016951Y-59216461D01*
X53848003Y-59197426D01*
X53847997Y-59197426D01*
X53679048Y-59216461D01*
X53518560Y-59272619D01*
X53374599Y-59363076D01*
X53254376Y-59483299D01*
X53163919Y-59627260D01*
X53107761Y-59787748D01*
X53088726Y-59956697D01*
X37584500Y-59956697D01*
X37584500Y-56895997D01*
X53088726Y-56895997D01*
X53088726Y-56896002D01*
X53107761Y-57064951D01*
X53150437Y-57186912D01*
X53162798Y-57222237D01*
X53163919Y-57225439D01*
X53216968Y-57309865D01*
X53254376Y-57369400D01*
X53374600Y-57489624D01*
X53518563Y-57580082D01*
X53640521Y-57622756D01*
X53679048Y-57636238D01*
X53847997Y-57655274D01*
X53848000Y-57655274D01*
X53848003Y-57655274D01*
X54016951Y-57636238D01*
X54016954Y-57636237D01*
X54177437Y-57580082D01*
X54321400Y-57489624D01*
X54441624Y-57369400D01*
X54532082Y-57225437D01*
X54588237Y-57064954D01*
X54588237Y-57064953D01*
X54588238Y-57064951D01*
X54607274Y-56896002D01*
X54607274Y-56895997D01*
X59692726Y-56895997D01*
X59692726Y-56896002D01*
X59711761Y-57064951D01*
X59754437Y-57186912D01*
X59766798Y-57222237D01*
X59767919Y-57225439D01*
X59820968Y-57309865D01*
X59858376Y-57369400D01*
X59978600Y-57489624D01*
X60122563Y-57580082D01*
X60244521Y-57622756D01*
X60283048Y-57636238D01*
X60451997Y-57655274D01*
X60452000Y-57655274D01*
X60452003Y-57655274D01*
X60620951Y-57636238D01*
X60620954Y-57636237D01*
X60781437Y-57580082D01*
X60925400Y-57489624D01*
X61045624Y-57369400D01*
X61109006Y-57268527D01*
X61161341Y-57222237D01*
X61230394Y-57211589D01*
X61294243Y-57239964D01*
X61318993Y-57268527D01*
X61382376Y-57369400D01*
X61502600Y-57489624D01*
X61646563Y-57580082D01*
X61768521Y-57622756D01*
X61807048Y-57636238D01*
X61975997Y-57655274D01*
X61976000Y-57655274D01*
X61976003Y-57655274D01*
X62144951Y-57636238D01*
X62144954Y-57636237D01*
X62305437Y-57580082D01*
X62449400Y-57489624D01*
X62569624Y-57369400D01*
X62660082Y-57225437D01*
X62716237Y-57064954D01*
X62716237Y-57064953D01*
X62716238Y-57064951D01*
X62735274Y-56896002D01*
X62735274Y-56895997D01*
X62716238Y-56727048D01*
X62691727Y-56657001D01*
X62660082Y-56566563D01*
X62569624Y-56422600D01*
X62449400Y-56302376D01*
X62317701Y-56219624D01*
X62305439Y-56211919D01*
X62305438Y-56211918D01*
X62305437Y-56211918D01*
X62256348Y-56194741D01*
X62144951Y-56155761D01*
X61976003Y-56136726D01*
X61975997Y-56136726D01*
X61807048Y-56155761D01*
X61646560Y-56211919D01*
X61502599Y-56302376D01*
X61382374Y-56422601D01*
X61318993Y-56523472D01*
X61266659Y-56569762D01*
X61197605Y-56580410D01*
X61133757Y-56552035D01*
X61109007Y-56523472D01*
X61045625Y-56422601D01*
X60925400Y-56302376D01*
X60781439Y-56211919D01*
X60781438Y-56211918D01*
X60781437Y-56211918D01*
X60732348Y-56194741D01*
X60620951Y-56155761D01*
X60452003Y-56136726D01*
X60451997Y-56136726D01*
X60283048Y-56155761D01*
X60122560Y-56211919D01*
X59978599Y-56302376D01*
X59858376Y-56422599D01*
X59767919Y-56566560D01*
X59711761Y-56727048D01*
X59692726Y-56895997D01*
X54607274Y-56895997D01*
X54588238Y-56727048D01*
X54563727Y-56657001D01*
X54532082Y-56566563D01*
X54441624Y-56422600D01*
X54321400Y-56302376D01*
X54189701Y-56219624D01*
X54177439Y-56211919D01*
X54177438Y-56211918D01*
X54177437Y-56211918D01*
X54128348Y-56194741D01*
X54016951Y-56155761D01*
X53848003Y-56136726D01*
X53847997Y-56136726D01*
X53679048Y-56155761D01*
X53518560Y-56211919D01*
X53374599Y-56302376D01*
X53254376Y-56422599D01*
X53163919Y-56566560D01*
X53107761Y-56727048D01*
X53088726Y-56895997D01*
X37584500Y-56895997D01*
X37584500Y-55625997D01*
X56898726Y-55625997D01*
X56898726Y-55626002D01*
X56917761Y-55794951D01*
X56960437Y-55916912D01*
X56968699Y-55940523D01*
X56973919Y-55955439D01*
X57021849Y-56031719D01*
X57064376Y-56099400D01*
X57184600Y-56219624D01*
X57328563Y-56310082D01*
X57450521Y-56352756D01*
X57489048Y-56366238D01*
X57657997Y-56385274D01*
X57658000Y-56385274D01*
X57658003Y-56385274D01*
X57826951Y-56366238D01*
X57826954Y-56366237D01*
X57987437Y-56310082D01*
X58131400Y-56219624D01*
X58251624Y-56099400D01*
X58342082Y-55955437D01*
X58398237Y-55794954D01*
X58398237Y-55794953D01*
X58398238Y-55794951D01*
X58417274Y-55626002D01*
X58417274Y-55625997D01*
X64010726Y-55625997D01*
X64010726Y-55626002D01*
X64029761Y-55794951D01*
X64072437Y-55916912D01*
X64080699Y-55940523D01*
X64085919Y-55955439D01*
X64133849Y-56031719D01*
X64176376Y-56099400D01*
X64296600Y-56219624D01*
X64440563Y-56310082D01*
X64562521Y-56352756D01*
X64601048Y-56366238D01*
X64769997Y-56385274D01*
X64770000Y-56385274D01*
X64770003Y-56385274D01*
X64938951Y-56366238D01*
X64938954Y-56366237D01*
X65099437Y-56310082D01*
X65243400Y-56219624D01*
X65363624Y-56099400D01*
X65454082Y-55955437D01*
X65510237Y-55794954D01*
X65510237Y-55794953D01*
X65510238Y-55794951D01*
X65529274Y-55626002D01*
X65529274Y-55625997D01*
X65510238Y-55457048D01*
X65496756Y-55418521D01*
X65454082Y-55296563D01*
X65363624Y-55152600D01*
X65243400Y-55032376D01*
X65189036Y-54998217D01*
X65099439Y-54941919D01*
X65099438Y-54941918D01*
X65099437Y-54941918D01*
X65060912Y-54928437D01*
X64938951Y-54885761D01*
X64770003Y-54866726D01*
X64769997Y-54866726D01*
X64601048Y-54885761D01*
X64440560Y-54941919D01*
X64296599Y-55032376D01*
X64176376Y-55152599D01*
X64085919Y-55296560D01*
X64029761Y-55457048D01*
X64010726Y-55625997D01*
X58417274Y-55625997D01*
X58398238Y-55457048D01*
X58384756Y-55418521D01*
X58342082Y-55296563D01*
X58251624Y-55152600D01*
X58131400Y-55032376D01*
X58077036Y-54998217D01*
X57987439Y-54941919D01*
X57987438Y-54941918D01*
X57987437Y-54941918D01*
X57948912Y-54928437D01*
X57826951Y-54885761D01*
X57658003Y-54866726D01*
X57657997Y-54866726D01*
X57489048Y-54885761D01*
X57328560Y-54941919D01*
X57184599Y-55032376D01*
X57064376Y-55152599D01*
X56973919Y-55296560D01*
X56917761Y-55457048D01*
X56898726Y-55625997D01*
X37584500Y-55625997D01*
X37584500Y-54609997D01*
X41658726Y-54609997D01*
X41658726Y-54610002D01*
X41677761Y-54778951D01*
X41733919Y-54939439D01*
X41798716Y-55042563D01*
X41824376Y-55083400D01*
X41944600Y-55203624D01*
X42088563Y-55294082D01*
X42210521Y-55336756D01*
X42249048Y-55350238D01*
X42417997Y-55369274D01*
X42418000Y-55369274D01*
X42418003Y-55369274D01*
X42586951Y-55350238D01*
X42586954Y-55350237D01*
X42747437Y-55294082D01*
X42891400Y-55203624D01*
X43011624Y-55083400D01*
X43102082Y-54939437D01*
X43158237Y-54778954D01*
X43158237Y-54778953D01*
X43158238Y-54778951D01*
X43177274Y-54610002D01*
X43177274Y-54609997D01*
X43158238Y-54441048D01*
X43128478Y-54356000D01*
X43102082Y-54280563D01*
X43011624Y-54136600D01*
X42981023Y-54105999D01*
X73091364Y-54105999D01*
X73091364Y-54106000D01*
X73988988Y-54106000D01*
X73956075Y-54163007D01*
X73922000Y-54290174D01*
X73922000Y-54421826D01*
X73956075Y-54548993D01*
X73988988Y-54606000D01*
X73091364Y-54606000D01*
X73148567Y-54819486D01*
X73148570Y-54819492D01*
X73248399Y-55033578D01*
X73383894Y-55227082D01*
X73550917Y-55394105D01*
X73744421Y-55529600D01*
X73958507Y-55629429D01*
X73958516Y-55629433D01*
X74172000Y-55686634D01*
X74172000Y-54789012D01*
X74229007Y-54821925D01*
X74356174Y-54856000D01*
X74487826Y-54856000D01*
X74614993Y-54821925D01*
X74672000Y-54789012D01*
X74672000Y-55686633D01*
X74885483Y-55629433D01*
X74885492Y-55629429D01*
X75099578Y-55529600D01*
X75293082Y-55394105D01*
X75460105Y-55227082D01*
X75590119Y-55041405D01*
X75644696Y-54997781D01*
X75714195Y-54990588D01*
X75776549Y-55022110D01*
X75793269Y-55041405D01*
X75923505Y-55227401D01*
X76090599Y-55394495D01*
X76187384Y-55462265D01*
X76284165Y-55530032D01*
X76284167Y-55530033D01*
X76284170Y-55530035D01*
X76498337Y-55629903D01*
X76726592Y-55691063D01*
X76903034Y-55706500D01*
X76961999Y-55711659D01*
X76962000Y-55711659D01*
X76962001Y-55711659D01*
X77020966Y-55706500D01*
X77197408Y-55691063D01*
X77425663Y-55629903D01*
X77639830Y-55530035D01*
X77833401Y-55394495D01*
X78000495Y-55227401D01*
X78130425Y-55041842D01*
X78185002Y-54998217D01*
X78254500Y-54991023D01*
X78316855Y-55022546D01*
X78333575Y-55041842D01*
X78463281Y-55227082D01*
X78463505Y-55227401D01*
X78630599Y-55394495D01*
X78727384Y-55462265D01*
X78824165Y-55530032D01*
X78824167Y-55530033D01*
X78824170Y-55530035D01*
X79038337Y-55629903D01*
X79266592Y-55691063D01*
X79443034Y-55706500D01*
X79501999Y-55711659D01*
X79502000Y-55711659D01*
X79502001Y-55711659D01*
X79560966Y-55706500D01*
X79737408Y-55691063D01*
X79965663Y-55629903D01*
X80179830Y-55530035D01*
X80373401Y-55394495D01*
X80495329Y-55272566D01*
X80556648Y-55239084D01*
X80626340Y-55244068D01*
X80682274Y-55285939D01*
X80699189Y-55316917D01*
X80748202Y-55448328D01*
X80748206Y-55448335D01*
X80834452Y-55563544D01*
X80834455Y-55563547D01*
X80949664Y-55649793D01*
X80949671Y-55649797D01*
X81084517Y-55700091D01*
X81084516Y-55700091D01*
X81091444Y-55700835D01*
X81144127Y-55706500D01*
X82939872Y-55706499D01*
X82999483Y-55700091D01*
X83134331Y-55649796D01*
X83249546Y-55563546D01*
X83335796Y-55448331D01*
X83364267Y-55371997D01*
X86362726Y-55371997D01*
X86362726Y-55372002D01*
X86381761Y-55540951D01*
X86421757Y-55655251D01*
X86434287Y-55691061D01*
X86437919Y-55701439D01*
X86441099Y-55706500D01*
X86528376Y-55845400D01*
X86648600Y-55965624D01*
X86792563Y-56056082D01*
X86914521Y-56098756D01*
X86953048Y-56112238D01*
X87121997Y-56131274D01*
X87122000Y-56131274D01*
X87122003Y-56131274D01*
X87290951Y-56112238D01*
X87290954Y-56112237D01*
X87451437Y-56056082D01*
X87595400Y-55965624D01*
X87715624Y-55845400D01*
X87806082Y-55701437D01*
X87862237Y-55540954D01*
X87862237Y-55540953D01*
X87862238Y-55540951D01*
X87881274Y-55372002D01*
X87881274Y-55371997D01*
X87862238Y-55203048D01*
X87820371Y-55083400D01*
X87806082Y-55042563D01*
X87715624Y-54898600D01*
X87681021Y-54863997D01*
X91950726Y-54863997D01*
X91950726Y-54864002D01*
X91969761Y-55032951D01*
X92025919Y-55193439D01*
X92090716Y-55296563D01*
X92116376Y-55337400D01*
X92236600Y-55457624D01*
X92380563Y-55548082D01*
X92502521Y-55590756D01*
X92541048Y-55604238D01*
X92709997Y-55623274D01*
X92710000Y-55623274D01*
X92710003Y-55623274D01*
X92878951Y-55604238D01*
X92878954Y-55604237D01*
X93039437Y-55548082D01*
X93183400Y-55457624D01*
X93303624Y-55337400D01*
X93394082Y-55193437D01*
X93450237Y-55032954D01*
X93450237Y-55032953D01*
X93450238Y-55032951D01*
X93469274Y-54864002D01*
X93469274Y-54863997D01*
X93450238Y-54695048D01*
X93420477Y-54609997D01*
X93394082Y-54534563D01*
X93303624Y-54390600D01*
X93183400Y-54270376D01*
X93039437Y-54179918D01*
X92991108Y-54163007D01*
X92878951Y-54123761D01*
X92710003Y-54104726D01*
X92709997Y-54104726D01*
X92541048Y-54123761D01*
X92380560Y-54179919D01*
X92236599Y-54270376D01*
X92116376Y-54390599D01*
X92025919Y-54534560D01*
X91969761Y-54695048D01*
X91950726Y-54863997D01*
X87681021Y-54863997D01*
X87595400Y-54778376D01*
X87513677Y-54727026D01*
X87451439Y-54687919D01*
X87451438Y-54687918D01*
X87451437Y-54687918D01*
X87412912Y-54674437D01*
X87290951Y-54631761D01*
X87122003Y-54612726D01*
X87121997Y-54612726D01*
X86953048Y-54631761D01*
X86792560Y-54687919D01*
X86648599Y-54778376D01*
X86528376Y-54898599D01*
X86437919Y-55042560D01*
X86381761Y-55203048D01*
X86362726Y-55371997D01*
X83364267Y-55371997D01*
X83386091Y-55313483D01*
X83392500Y-55253873D01*
X83392499Y-53458128D01*
X83386091Y-53398517D01*
X83384810Y-53395083D01*
X83335797Y-53263671D01*
X83335793Y-53263664D01*
X83249547Y-53148455D01*
X83249544Y-53148452D01*
X83134335Y-53062206D01*
X83134328Y-53062202D01*
X82999482Y-53011908D01*
X82999483Y-53011908D01*
X82939883Y-53005501D01*
X82939881Y-53005500D01*
X82939873Y-53005500D01*
X82939864Y-53005500D01*
X81144129Y-53005500D01*
X81144123Y-53005501D01*
X81084516Y-53011908D01*
X80949671Y-53062202D01*
X80949664Y-53062206D01*
X80834455Y-53148452D01*
X80834452Y-53148455D01*
X80748206Y-53263664D01*
X80748203Y-53263669D01*
X80699189Y-53395083D01*
X80657317Y-53451016D01*
X80591853Y-53475433D01*
X80523580Y-53460581D01*
X80495326Y-53439430D01*
X80373402Y-53317506D01*
X80373395Y-53317501D01*
X80179834Y-53181967D01*
X80179830Y-53181965D01*
X80179828Y-53181964D01*
X79965663Y-53082097D01*
X79965659Y-53082096D01*
X79965655Y-53082094D01*
X79737413Y-53020938D01*
X79737403Y-53020936D01*
X79502001Y-53000341D01*
X79501999Y-53000341D01*
X79266596Y-53020936D01*
X79266586Y-53020938D01*
X79038344Y-53082094D01*
X79038335Y-53082098D01*
X78824171Y-53181964D01*
X78824169Y-53181965D01*
X78630597Y-53317505D01*
X78463505Y-53484597D01*
X78333575Y-53670158D01*
X78278998Y-53713783D01*
X78209500Y-53720977D01*
X78147145Y-53689454D01*
X78130425Y-53670158D01*
X78000494Y-53484597D01*
X77833402Y-53317506D01*
X77833395Y-53317501D01*
X77639834Y-53181967D01*
X77639830Y-53181965D01*
X77639828Y-53181964D01*
X77425663Y-53082097D01*
X77425659Y-53082096D01*
X77425655Y-53082094D01*
X77197413Y-53020938D01*
X77197403Y-53020936D01*
X76962001Y-53000341D01*
X76961999Y-53000341D01*
X76726596Y-53020936D01*
X76726586Y-53020938D01*
X76498344Y-53082094D01*
X76498335Y-53082098D01*
X76284171Y-53181964D01*
X76284169Y-53181965D01*
X76090597Y-53317505D01*
X75923508Y-53484594D01*
X75793269Y-53670595D01*
X75738692Y-53714219D01*
X75669193Y-53721412D01*
X75606839Y-53689890D01*
X75590119Y-53670594D01*
X75460113Y-53484926D01*
X75460108Y-53484920D01*
X75293082Y-53317894D01*
X75099578Y-53182399D01*
X74885492Y-53082570D01*
X74885486Y-53082567D01*
X74672000Y-53025364D01*
X74672000Y-53922988D01*
X74614993Y-53890075D01*
X74487826Y-53856000D01*
X74356174Y-53856000D01*
X74229007Y-53890075D01*
X74172000Y-53922988D01*
X74172000Y-53025364D01*
X74171999Y-53025364D01*
X73958513Y-53082567D01*
X73958507Y-53082570D01*
X73744422Y-53182399D01*
X73744420Y-53182400D01*
X73550926Y-53317886D01*
X73550920Y-53317891D01*
X73383891Y-53484920D01*
X73383886Y-53484926D01*
X73248400Y-53678420D01*
X73248399Y-53678422D01*
X73148570Y-53892507D01*
X73148567Y-53892513D01*
X73091364Y-54105999D01*
X42981023Y-54105999D01*
X42891400Y-54016376D01*
X42747437Y-53925918D01*
X42708912Y-53912437D01*
X42586951Y-53869761D01*
X42418003Y-53850726D01*
X42417997Y-53850726D01*
X42249048Y-53869761D01*
X42088560Y-53925919D01*
X41944599Y-54016376D01*
X41824376Y-54136599D01*
X41733919Y-54280560D01*
X41677761Y-54441048D01*
X41658726Y-54609997D01*
X37584500Y-54609997D01*
X37584500Y-51815997D01*
X58930726Y-51815997D01*
X58930726Y-51816002D01*
X58949761Y-51984951D01*
X59005919Y-52145439D01*
X59011957Y-52155048D01*
X59096376Y-52289400D01*
X59216600Y-52409624D01*
X59360563Y-52500082D01*
X59482521Y-52542756D01*
X59521048Y-52556238D01*
X59689997Y-52575274D01*
X59690000Y-52575274D01*
X59690003Y-52575274D01*
X59858951Y-52556238D01*
X59866993Y-52553424D01*
X60019437Y-52500082D01*
X60163400Y-52409624D01*
X60283624Y-52289400D01*
X60374082Y-52145437D01*
X60400479Y-52069997D01*
X67058726Y-52069997D01*
X67058726Y-52070002D01*
X67077761Y-52238951D01*
X67107522Y-52324002D01*
X67133918Y-52399437D01*
X67224376Y-52543400D01*
X67344600Y-52663624D01*
X67488563Y-52754082D01*
X67610521Y-52796756D01*
X67649048Y-52810238D01*
X67817997Y-52829274D01*
X67818000Y-52829274D01*
X67818003Y-52829274D01*
X67986951Y-52810238D01*
X67986954Y-52810237D01*
X68147437Y-52754082D01*
X68291400Y-52663624D01*
X68411624Y-52543400D01*
X68502082Y-52399437D01*
X68529867Y-52320030D01*
X68570589Y-52263255D01*
X68635541Y-52237507D01*
X68704103Y-52250963D01*
X68741828Y-52285712D01*
X68744033Y-52283954D01*
X68748376Y-52289400D01*
X68868600Y-52409624D01*
X69012563Y-52500082D01*
X69134521Y-52542756D01*
X69173048Y-52556238D01*
X69341997Y-52575274D01*
X69342000Y-52575274D01*
X69342003Y-52575274D01*
X69426477Y-52565755D01*
X69510954Y-52556237D01*
X69510959Y-52556235D01*
X69517736Y-52554689D01*
X69518153Y-52556516D01*
X69578557Y-52553424D01*
X69639190Y-52588144D01*
X69666793Y-52633077D01*
X69673916Y-52653433D01*
X69673917Y-52653437D01*
X69737156Y-52754080D01*
X69764376Y-52797400D01*
X69884600Y-52917624D01*
X70028563Y-53008082D01*
X70150521Y-53050756D01*
X70189048Y-53064238D01*
X70357997Y-53083274D01*
X70358000Y-53083274D01*
X70358003Y-53083274D01*
X70526951Y-53064238D01*
X70532764Y-53062204D01*
X70687437Y-53008082D01*
X70831400Y-52917624D01*
X70951624Y-52797400D01*
X71042082Y-52653437D01*
X71098237Y-52492954D01*
X71098237Y-52492953D01*
X71098238Y-52492951D01*
X71117274Y-52324002D01*
X71117274Y-52323997D01*
X71098238Y-52155048D01*
X71068477Y-52069997D01*
X71042082Y-51994563D01*
X70951624Y-51850600D01*
X70831400Y-51730376D01*
X70814938Y-51720032D01*
X70687439Y-51639919D01*
X70687438Y-51639918D01*
X70687437Y-51639918D01*
X70638359Y-51622745D01*
X70526951Y-51583761D01*
X70358003Y-51564726D01*
X70357997Y-51564726D01*
X70189050Y-51583761D01*
X70182259Y-51585312D01*
X70181843Y-51583489D01*
X70121400Y-51586564D01*
X70060779Y-51551824D01*
X70033205Y-51506920D01*
X70026082Y-51486563D01*
X69997472Y-51441030D01*
X69935624Y-51342600D01*
X69815400Y-51222376D01*
X69683701Y-51139624D01*
X69671439Y-51131919D01*
X69671438Y-51131918D01*
X69671437Y-51131918D01*
X69632912Y-51118437D01*
X69510951Y-51075761D01*
X69342003Y-51056726D01*
X69341997Y-51056726D01*
X69173048Y-51075761D01*
X69012560Y-51131919D01*
X68868599Y-51222376D01*
X68748376Y-51342599D01*
X68657917Y-51486562D01*
X68657917Y-51486564D01*
X68630131Y-51565970D01*
X68589409Y-51622745D01*
X68524456Y-51648492D01*
X68455894Y-51635035D01*
X68418191Y-51600272D01*
X68415967Y-51602046D01*
X68411623Y-51596599D01*
X68291400Y-51476376D01*
X68147439Y-51385919D01*
X68147438Y-51385918D01*
X68147437Y-51385918D01*
X68108912Y-51372437D01*
X67986951Y-51329761D01*
X67818003Y-51310726D01*
X67817997Y-51310726D01*
X67649048Y-51329761D01*
X67488560Y-51385919D01*
X67344599Y-51476376D01*
X67224376Y-51596599D01*
X67133919Y-51740560D01*
X67077761Y-51901048D01*
X67058726Y-52069997D01*
X60400479Y-52069997D01*
X60430237Y-51984954D01*
X60430237Y-51984953D01*
X60430238Y-51984951D01*
X60449274Y-51816002D01*
X60449274Y-51815997D01*
X60430238Y-51647048D01*
X60412585Y-51596599D01*
X60374082Y-51486563D01*
X60283624Y-51342600D01*
X60163400Y-51222376D01*
X60031701Y-51139624D01*
X60019439Y-51131919D01*
X60019438Y-51131918D01*
X60019437Y-51131918D01*
X59980912Y-51118437D01*
X59858951Y-51075761D01*
X59690003Y-51056726D01*
X59689997Y-51056726D01*
X59521048Y-51075761D01*
X59360560Y-51131919D01*
X59216599Y-51222376D01*
X59096376Y-51342599D01*
X59005919Y-51486560D01*
X58949761Y-51647048D01*
X58930726Y-51815997D01*
X37584500Y-51815997D01*
X37584500Y-50545997D01*
X52834726Y-50545997D01*
X52834726Y-50546002D01*
X52853761Y-50714951D01*
X52882122Y-50796000D01*
X52909918Y-50875437D01*
X53000376Y-51019400D01*
X53120600Y-51139624D01*
X53264563Y-51230082D01*
X53386521Y-51272756D01*
X53425048Y-51286238D01*
X53593997Y-51305274D01*
X53594000Y-51305274D01*
X53594003Y-51305274D01*
X53762951Y-51286238D01*
X53762954Y-51286237D01*
X53923437Y-51230082D01*
X54067400Y-51139624D01*
X54187624Y-51019400D01*
X54278082Y-50875437D01*
X54334237Y-50714954D01*
X54334237Y-50714953D01*
X54334238Y-50714951D01*
X54353274Y-50546002D01*
X54353274Y-50545997D01*
X54334238Y-50377048D01*
X54305878Y-50296000D01*
X54278082Y-50216563D01*
X54187624Y-50072600D01*
X54067400Y-49952376D01*
X53990065Y-49903783D01*
X53923439Y-49861919D01*
X53923438Y-49861918D01*
X53923437Y-49861918D01*
X53884912Y-49848437D01*
X53762951Y-49805761D01*
X53594003Y-49786726D01*
X53593997Y-49786726D01*
X53425048Y-49805761D01*
X53264560Y-49861919D01*
X53120599Y-49952376D01*
X53000376Y-50072599D01*
X52909919Y-50216560D01*
X52853761Y-50377048D01*
X52834726Y-50545997D01*
X37584500Y-50545997D01*
X37584500Y-49648155D01*
X73077000Y-49648155D01*
X73077000Y-50296000D01*
X73993988Y-50296000D01*
X73961075Y-50353007D01*
X73927000Y-50480174D01*
X73927000Y-50611826D01*
X73961075Y-50738993D01*
X73993988Y-50796000D01*
X73077000Y-50796000D01*
X73077000Y-51443844D01*
X73083401Y-51503372D01*
X73083403Y-51503379D01*
X73133645Y-51638086D01*
X73133649Y-51638093D01*
X73219809Y-51753187D01*
X73219812Y-51753190D01*
X73334906Y-51839350D01*
X73334913Y-51839354D01*
X73469620Y-51889596D01*
X73469627Y-51889598D01*
X73529155Y-51895999D01*
X73529172Y-51896000D01*
X74177000Y-51896000D01*
X74177000Y-50979012D01*
X74234007Y-51011925D01*
X74361174Y-51046000D01*
X74492826Y-51046000D01*
X74619993Y-51011925D01*
X74677000Y-50979012D01*
X74677000Y-51896000D01*
X75324828Y-51896000D01*
X75324844Y-51895999D01*
X75384372Y-51889598D01*
X75384379Y-51889596D01*
X75519086Y-51839354D01*
X75519093Y-51839350D01*
X75634187Y-51753190D01*
X75634190Y-51753187D01*
X75720350Y-51638093D01*
X75720354Y-51638086D01*
X75769422Y-51506529D01*
X75811293Y-51450595D01*
X75876757Y-51426178D01*
X75945030Y-51441030D01*
X75973285Y-51462181D01*
X76095599Y-51584495D01*
X76150226Y-51622745D01*
X76289165Y-51720032D01*
X76289167Y-51720033D01*
X76289170Y-51720035D01*
X76503337Y-51819903D01*
X76731592Y-51881063D01*
X76902319Y-51896000D01*
X76966999Y-51901659D01*
X76967000Y-51901659D01*
X76967001Y-51901659D01*
X77031681Y-51896000D01*
X77202408Y-51881063D01*
X77430663Y-51819903D01*
X77644830Y-51720035D01*
X77838401Y-51584495D01*
X78005495Y-51417401D01*
X78135425Y-51231842D01*
X78190002Y-51188217D01*
X78259500Y-51181023D01*
X78321855Y-51212546D01*
X78338575Y-51231842D01*
X78468500Y-51417395D01*
X78468505Y-51417401D01*
X78635599Y-51584495D01*
X78690226Y-51622745D01*
X78829165Y-51720032D01*
X78829167Y-51720033D01*
X78829170Y-51720035D01*
X79043337Y-51819903D01*
X79271592Y-51881063D01*
X79442319Y-51896000D01*
X79506999Y-51901659D01*
X79507000Y-51901659D01*
X79507001Y-51901659D01*
X79571681Y-51896000D01*
X79742408Y-51881063D01*
X79970663Y-51819903D01*
X80184830Y-51720035D01*
X80378401Y-51584495D01*
X80545495Y-51417401D01*
X80675425Y-51231842D01*
X80730002Y-51188217D01*
X80799500Y-51181023D01*
X80861855Y-51212546D01*
X80878575Y-51231842D01*
X81008500Y-51417395D01*
X81008505Y-51417401D01*
X81175599Y-51584495D01*
X81230226Y-51622745D01*
X81369165Y-51720032D01*
X81369167Y-51720033D01*
X81369170Y-51720035D01*
X81583337Y-51819903D01*
X81811592Y-51881063D01*
X81982319Y-51896000D01*
X82046999Y-51901659D01*
X82047000Y-51901659D01*
X82047001Y-51901659D01*
X82111681Y-51896000D01*
X82282408Y-51881063D01*
X82510663Y-51819903D01*
X82724830Y-51720035D01*
X82918401Y-51584495D01*
X83085495Y-51417401D01*
X83215425Y-51231842D01*
X83270002Y-51188217D01*
X83339500Y-51181023D01*
X83401855Y-51212546D01*
X83418575Y-51231842D01*
X83548500Y-51417395D01*
X83548505Y-51417401D01*
X83715599Y-51584495D01*
X83770226Y-51622745D01*
X83909165Y-51720032D01*
X83909167Y-51720033D01*
X83909170Y-51720035D01*
X84123337Y-51819903D01*
X84351592Y-51881063D01*
X84522319Y-51896000D01*
X84586999Y-51901659D01*
X84587000Y-51901659D01*
X84587001Y-51901659D01*
X84651681Y-51896000D01*
X84822408Y-51881063D01*
X85050663Y-51819903D01*
X85264830Y-51720035D01*
X85458401Y-51584495D01*
X85625495Y-51417401D01*
X85755425Y-51231842D01*
X85810002Y-51188217D01*
X85879500Y-51181023D01*
X85941855Y-51212546D01*
X85958575Y-51231842D01*
X86088500Y-51417395D01*
X86088505Y-51417401D01*
X86255599Y-51584495D01*
X86310226Y-51622745D01*
X86449165Y-51720032D01*
X86449167Y-51720033D01*
X86449170Y-51720035D01*
X86663337Y-51819903D01*
X86891592Y-51881063D01*
X87062319Y-51896000D01*
X87126999Y-51901659D01*
X87127000Y-51901659D01*
X87127001Y-51901659D01*
X87191681Y-51896000D01*
X87362408Y-51881063D01*
X87590663Y-51819903D01*
X87804830Y-51720035D01*
X87998401Y-51584495D01*
X88165495Y-51417401D01*
X88295425Y-51231842D01*
X88350002Y-51188217D01*
X88419500Y-51181023D01*
X88481855Y-51212546D01*
X88498575Y-51231842D01*
X88628500Y-51417395D01*
X88628505Y-51417401D01*
X88795599Y-51584495D01*
X88850226Y-51622745D01*
X88989165Y-51720032D01*
X88989167Y-51720033D01*
X88989170Y-51720035D01*
X89203337Y-51819903D01*
X89431592Y-51881063D01*
X89602319Y-51896000D01*
X89666999Y-51901659D01*
X89667000Y-51901659D01*
X89667001Y-51901659D01*
X89731681Y-51896000D01*
X89902408Y-51881063D01*
X90130663Y-51819903D01*
X90344830Y-51720035D01*
X90538401Y-51584495D01*
X90705495Y-51417401D01*
X90835425Y-51231842D01*
X90890002Y-51188217D01*
X90959500Y-51181023D01*
X91021855Y-51212546D01*
X91038575Y-51231842D01*
X91168500Y-51417395D01*
X91168505Y-51417401D01*
X91335599Y-51584495D01*
X91390226Y-51622745D01*
X91529165Y-51720032D01*
X91529167Y-51720033D01*
X91529170Y-51720035D01*
X91743337Y-51819903D01*
X91971592Y-51881063D01*
X92142319Y-51896000D01*
X92206999Y-51901659D01*
X92207000Y-51901659D01*
X92207001Y-51901659D01*
X92271681Y-51896000D01*
X92442408Y-51881063D01*
X92670663Y-51819903D01*
X92884830Y-51720035D01*
X93078401Y-51584495D01*
X93245495Y-51417401D01*
X93375425Y-51231842D01*
X93430002Y-51188217D01*
X93499500Y-51181023D01*
X93561855Y-51212546D01*
X93578575Y-51231842D01*
X93708500Y-51417395D01*
X93708505Y-51417401D01*
X93875599Y-51584495D01*
X93930226Y-51622745D01*
X94069165Y-51720032D01*
X94069167Y-51720033D01*
X94069170Y-51720035D01*
X94283337Y-51819903D01*
X94511592Y-51881063D01*
X94682319Y-51896000D01*
X94746999Y-51901659D01*
X94747000Y-51901659D01*
X94747001Y-51901659D01*
X94811681Y-51896000D01*
X94982408Y-51881063D01*
X95210663Y-51819903D01*
X95424830Y-51720035D01*
X95618401Y-51584495D01*
X95785495Y-51417401D01*
X95915425Y-51231842D01*
X95970002Y-51188217D01*
X96039500Y-51181023D01*
X96101855Y-51212546D01*
X96118575Y-51231842D01*
X96248500Y-51417395D01*
X96248505Y-51417401D01*
X96415599Y-51584495D01*
X96470226Y-51622745D01*
X96609165Y-51720032D01*
X96609167Y-51720033D01*
X96609170Y-51720035D01*
X96823337Y-51819903D01*
X97051592Y-51881063D01*
X97222319Y-51896000D01*
X97286999Y-51901659D01*
X97287000Y-51901659D01*
X97287001Y-51901659D01*
X97351681Y-51896000D01*
X97522408Y-51881063D01*
X97750663Y-51819903D01*
X97964830Y-51720035D01*
X98158401Y-51584495D01*
X98325495Y-51417401D01*
X98461035Y-51223830D01*
X98560903Y-51009663D01*
X98622063Y-50781408D01*
X98642659Y-50546000D01*
X98622063Y-50310592D01*
X98560903Y-50082337D01*
X98461035Y-49868171D01*
X98456658Y-49861919D01*
X98325494Y-49674597D01*
X98158402Y-49507506D01*
X98158395Y-49507501D01*
X97964834Y-49371967D01*
X97964830Y-49371965D01*
X97893727Y-49338809D01*
X97750663Y-49272097D01*
X97750659Y-49272096D01*
X97750655Y-49272094D01*
X97522413Y-49210938D01*
X97522403Y-49210936D01*
X97287001Y-49190341D01*
X97286999Y-49190341D01*
X97051596Y-49210936D01*
X97051586Y-49210938D01*
X96823344Y-49272094D01*
X96823335Y-49272098D01*
X96609171Y-49371964D01*
X96609169Y-49371965D01*
X96415597Y-49507505D01*
X96248505Y-49674597D01*
X96118575Y-49860158D01*
X96063998Y-49903783D01*
X95994500Y-49910977D01*
X95932145Y-49879454D01*
X95915425Y-49860158D01*
X95785494Y-49674597D01*
X95618402Y-49507506D01*
X95618395Y-49507501D01*
X95424834Y-49371967D01*
X95424830Y-49371965D01*
X95353727Y-49338809D01*
X95210663Y-49272097D01*
X95210659Y-49272096D01*
X95210655Y-49272094D01*
X94982413Y-49210938D01*
X94982403Y-49210936D01*
X94747001Y-49190341D01*
X94746999Y-49190341D01*
X94511596Y-49210936D01*
X94511586Y-49210938D01*
X94283344Y-49272094D01*
X94283335Y-49272098D01*
X94069171Y-49371964D01*
X94069169Y-49371965D01*
X93875597Y-49507505D01*
X93708505Y-49674597D01*
X93578575Y-49860158D01*
X93523998Y-49903783D01*
X93454500Y-49910977D01*
X93392145Y-49879454D01*
X93375425Y-49860158D01*
X93245494Y-49674597D01*
X93078402Y-49507506D01*
X93078395Y-49507501D01*
X92884834Y-49371967D01*
X92884830Y-49371965D01*
X92813727Y-49338809D01*
X92670663Y-49272097D01*
X92670659Y-49272096D01*
X92670655Y-49272094D01*
X92442413Y-49210938D01*
X92442403Y-49210936D01*
X92207001Y-49190341D01*
X92206999Y-49190341D01*
X91971596Y-49210936D01*
X91971586Y-49210938D01*
X91743344Y-49272094D01*
X91743335Y-49272098D01*
X91529171Y-49371964D01*
X91529169Y-49371965D01*
X91335597Y-49507505D01*
X91168505Y-49674597D01*
X91038575Y-49860158D01*
X90983998Y-49903783D01*
X90914500Y-49910977D01*
X90852145Y-49879454D01*
X90835425Y-49860158D01*
X90705494Y-49674597D01*
X90538402Y-49507506D01*
X90538395Y-49507501D01*
X90344834Y-49371967D01*
X90344830Y-49371965D01*
X90273727Y-49338809D01*
X90130663Y-49272097D01*
X90130659Y-49272096D01*
X90130655Y-49272094D01*
X89902413Y-49210938D01*
X89902403Y-49210936D01*
X89667001Y-49190341D01*
X89666999Y-49190341D01*
X89431596Y-49210936D01*
X89431586Y-49210938D01*
X89203344Y-49272094D01*
X89203335Y-49272098D01*
X88989171Y-49371964D01*
X88989169Y-49371965D01*
X88795597Y-49507505D01*
X88628505Y-49674597D01*
X88498575Y-49860158D01*
X88443998Y-49903783D01*
X88374500Y-49910977D01*
X88312145Y-49879454D01*
X88295425Y-49860158D01*
X88165494Y-49674597D01*
X87998402Y-49507506D01*
X87998395Y-49507501D01*
X87804834Y-49371967D01*
X87804830Y-49371965D01*
X87733727Y-49338809D01*
X87590663Y-49272097D01*
X87590659Y-49272096D01*
X87590655Y-49272094D01*
X87362413Y-49210938D01*
X87362403Y-49210936D01*
X87127001Y-49190341D01*
X87126999Y-49190341D01*
X86891596Y-49210936D01*
X86891586Y-49210938D01*
X86663344Y-49272094D01*
X86663335Y-49272098D01*
X86449171Y-49371964D01*
X86449169Y-49371965D01*
X86255597Y-49507505D01*
X86088505Y-49674597D01*
X85958575Y-49860158D01*
X85903998Y-49903783D01*
X85834500Y-49910977D01*
X85772145Y-49879454D01*
X85755425Y-49860158D01*
X85625494Y-49674597D01*
X85458402Y-49507506D01*
X85458395Y-49507501D01*
X85264834Y-49371967D01*
X85264830Y-49371965D01*
X85193727Y-49338809D01*
X85050663Y-49272097D01*
X85050659Y-49272096D01*
X85050655Y-49272094D01*
X84822413Y-49210938D01*
X84822403Y-49210936D01*
X84587001Y-49190341D01*
X84586999Y-49190341D01*
X84351596Y-49210936D01*
X84351586Y-49210938D01*
X84123344Y-49272094D01*
X84123335Y-49272098D01*
X83909171Y-49371964D01*
X83909169Y-49371965D01*
X83715597Y-49507505D01*
X83548505Y-49674597D01*
X83418575Y-49860158D01*
X83363998Y-49903783D01*
X83294500Y-49910977D01*
X83232145Y-49879454D01*
X83215425Y-49860158D01*
X83085494Y-49674597D01*
X82918402Y-49507506D01*
X82918395Y-49507501D01*
X82724834Y-49371967D01*
X82724830Y-49371965D01*
X82653727Y-49338809D01*
X82510663Y-49272097D01*
X82510659Y-49272096D01*
X82510655Y-49272094D01*
X82282413Y-49210938D01*
X82282403Y-49210936D01*
X82047001Y-49190341D01*
X82046999Y-49190341D01*
X81811596Y-49210936D01*
X81811586Y-49210938D01*
X81583344Y-49272094D01*
X81583335Y-49272098D01*
X81369171Y-49371964D01*
X81369169Y-49371965D01*
X81175597Y-49507505D01*
X81008505Y-49674597D01*
X80878575Y-49860158D01*
X80823998Y-49903783D01*
X80754500Y-49910977D01*
X80692145Y-49879454D01*
X80675425Y-49860158D01*
X80545494Y-49674597D01*
X80378402Y-49507506D01*
X80378395Y-49507501D01*
X80184834Y-49371967D01*
X80184830Y-49371965D01*
X80113727Y-49338809D01*
X79970663Y-49272097D01*
X79970659Y-49272096D01*
X79970655Y-49272094D01*
X79742413Y-49210938D01*
X79742403Y-49210936D01*
X79507001Y-49190341D01*
X79506999Y-49190341D01*
X79271596Y-49210936D01*
X79271586Y-49210938D01*
X79043344Y-49272094D01*
X79043335Y-49272098D01*
X78829171Y-49371964D01*
X78829169Y-49371965D01*
X78635597Y-49507505D01*
X78468505Y-49674597D01*
X78338575Y-49860158D01*
X78283998Y-49903783D01*
X78214500Y-49910977D01*
X78152145Y-49879454D01*
X78135425Y-49860158D01*
X78005494Y-49674597D01*
X77838402Y-49507506D01*
X77838395Y-49507501D01*
X77644834Y-49371967D01*
X77644830Y-49371965D01*
X77573727Y-49338809D01*
X77430663Y-49272097D01*
X77430659Y-49272096D01*
X77430655Y-49272094D01*
X77202413Y-49210938D01*
X77202403Y-49210936D01*
X76967001Y-49190341D01*
X76966999Y-49190341D01*
X76731596Y-49210936D01*
X76731586Y-49210938D01*
X76503344Y-49272094D01*
X76503335Y-49272098D01*
X76289171Y-49371964D01*
X76289169Y-49371965D01*
X76095600Y-49507503D01*
X75973284Y-49629819D01*
X75911961Y-49663303D01*
X75842269Y-49658319D01*
X75786336Y-49616447D01*
X75769421Y-49585470D01*
X75720354Y-49453913D01*
X75720350Y-49453906D01*
X75634190Y-49338812D01*
X75634187Y-49338809D01*
X75519093Y-49252649D01*
X75519086Y-49252645D01*
X75384379Y-49202403D01*
X75384372Y-49202401D01*
X75324844Y-49196000D01*
X74677000Y-49196000D01*
X74677000Y-50112988D01*
X74619993Y-50080075D01*
X74492826Y-50046000D01*
X74361174Y-50046000D01*
X74234007Y-50080075D01*
X74177000Y-50112988D01*
X74177000Y-49196000D01*
X73529155Y-49196000D01*
X73469627Y-49202401D01*
X73469620Y-49202403D01*
X73334913Y-49252645D01*
X73334906Y-49252649D01*
X73219812Y-49338809D01*
X73219809Y-49338812D01*
X73133649Y-49453906D01*
X73133645Y-49453913D01*
X73083403Y-49588620D01*
X73083401Y-49588627D01*
X73077000Y-49648155D01*
X37584500Y-49648155D01*
X37584500Y-48630500D01*
X37604185Y-48563461D01*
X37656989Y-48517706D01*
X37708500Y-48506500D01*
X99705500Y-48506500D01*
X99772539Y-48526185D01*
G37*
%TD.AperFunction*%
%TD*%
M02*
