%TF.GenerationSoftware,KiCad,Pcbnew,8.0.2*%
%TF.CreationDate,2024-06-01T22:09:34-05:00*%
%TF.ProjectId,GP2040-RE,47503230-3430-42d5-9245-2e6b69636164,rev?*%
%TF.SameCoordinates,Original*%
%TF.FileFunction,Copper,L3,Inr*%
%TF.FilePolarity,Positive*%
%FSLAX46Y46*%
G04 Gerber Fmt 4.6, Leading zero omitted, Abs format (unit mm)*
G04 Created by KiCad (PCBNEW 8.0.2) date 2024-06-01 22:09:34*
%MOMM*%
%LPD*%
G01*
G04 APERTURE LIST*
G04 Aperture macros list*
%AMRoundRect*
0 Rectangle with rounded corners*
0 $1 Rounding radius*
0 $2 $3 $4 $5 $6 $7 $8 $9 X,Y pos of 4 corners*
0 Add a 4 corners polygon primitive as box body*
4,1,4,$2,$3,$4,$5,$6,$7,$8,$9,$2,$3,0*
0 Add four circle primitives for the rounded corners*
1,1,$1+$1,$2,$3*
1,1,$1+$1,$4,$5*
1,1,$1+$1,$6,$7*
1,1,$1+$1,$8,$9*
0 Add four rect primitives between the rounded corners*
20,1,$1+$1,$2,$3,$4,$5,0*
20,1,$1+$1,$4,$5,$6,$7,0*
20,1,$1+$1,$6,$7,$8,$9,0*
20,1,$1+$1,$8,$9,$2,$3,0*%
G04 Aperture macros list end*
%TA.AperFunction,ComponentPad*%
%ADD10R,1.700000X1.700000*%
%TD*%
%TA.AperFunction,ComponentPad*%
%ADD11O,1.700000X1.700000*%
%TD*%
%TA.AperFunction,ComponentPad*%
%ADD12O,1.000000X2.100000*%
%TD*%
%TA.AperFunction,ComponentPad*%
%ADD13RoundRect,0.250000X0.250000X0.650000X-0.250000X0.650000X-0.250000X-0.650000X0.250000X-0.650000X0*%
%TD*%
%TA.AperFunction,ComponentPad*%
%ADD14C,1.270000*%
%TD*%
%TA.AperFunction,ComponentPad*%
%ADD15C,3.810000*%
%TD*%
%TA.AperFunction,ComponentPad*%
%ADD16R,1.875000X1.875000*%
%TD*%
%TA.AperFunction,ComponentPad*%
%ADD17C,1.875000*%
%TD*%
%TA.AperFunction,ViaPad*%
%ADD18C,0.508000*%
%TD*%
%TA.AperFunction,Conductor*%
%ADD19C,0.177800*%
%TD*%
G04 APERTURE END LIST*
D10*
%TO.N,/UART_RX*%
%TO.C,J5*%
X119675000Y-101798000D03*
D11*
%TO.N,/UART_TX*%
X122215000Y-101798000D03*
%TO.N,GND*%
X124755000Y-101798000D03*
%TD*%
D12*
%TO.N,GND*%
%TO.C,J4*%
X138770000Y-74500000D03*
X130130000Y-74500000D03*
D13*
X138770000Y-70320000D03*
X130130000Y-70320000D03*
%TD*%
D10*
%TO.N,VCC*%
%TO.C,J9*%
X112088000Y-101798000D03*
D11*
%TO.N,GND*%
X114628000Y-101798000D03*
%TD*%
D10*
%TO.N,GND*%
%TO.C,J8*%
X146930000Y-99290000D03*
D11*
%TO.N,+3.3V*%
X146930000Y-96750000D03*
%TO.N,unconnected-(J8-Pin_3-Pad3)*%
X146930000Y-94210000D03*
%TO.N,/OCS*%
X146930000Y-91670000D03*
%TO.N,/RESET*%
X146930000Y-89130000D03*
%TO.N,/Data_Command*%
X146930000Y-86590000D03*
%TO.N,/SPI1_SCK*%
X146930000Y-84050000D03*
%TO.N,/SPI1_TX_MOSI*%
X146930000Y-81510000D03*
%TO.N,/SPI1_RX_MISO*%
X146930000Y-78970000D03*
%TO.N,unconnected-(J8-Pin_10-Pad10)*%
X146930000Y-76430000D03*
%TD*%
D14*
%TO.N,GND*%
%TO.C,J7*%
X94462700Y-89293700D03*
%TO.N,/OrangeSolid*%
X97002700Y-90563700D03*
%TO.N,/GreenStripe*%
X94462700Y-91833700D03*
%TO.N,/BlueSolid*%
X97002700Y-93103700D03*
%TO.N,/BlueStripe*%
X94462700Y-94373700D03*
%TO.N,/GreenSolid*%
X97002700Y-95643700D03*
%TO.N,/BrownStripe*%
X94462700Y-96913700D03*
%TO.N,/BrownSolid*%
X97002700Y-98183700D03*
D15*
%TO.N,N/C*%
X88112700Y-88023700D03*
X88112700Y-99453700D03*
%TD*%
D16*
%TO.N,/SDA_0*%
%TO.C,J2*%
X152250000Y-85560000D03*
D17*
%TO.N,/SCL_0*%
X154790000Y-85560000D03*
%TO.N,+3.3V*%
X152250000Y-88100000D03*
%TO.N,GND*%
X154790000Y-88100000D03*
%TO.N,/RUN*%
X152250000Y-90640000D03*
%TO.N,VCC*%
X154790000Y-90640000D03*
%TD*%
D18*
%TO.N,GND*%
X133560000Y-86130000D03*
X82890000Y-74170000D03*
X120690000Y-90800000D03*
X135430000Y-80630000D03*
X124560000Y-86990000D03*
X102530000Y-86500000D03*
X119480000Y-82130000D03*
X108240000Y-92510000D03*
X124520000Y-88440000D03*
X107030000Y-70629300D03*
X115890000Y-91750000D03*
X110850000Y-95360826D03*
X124540000Y-85720000D03*
X108220000Y-96750000D03*
X103860000Y-86490000D03*
X126220000Y-96380000D03*
X125280000Y-89540000D03*
X154970000Y-74310000D03*
X154980000Y-79710000D03*
X103880000Y-84050000D03*
X102540000Y-84080000D03*
X112600000Y-90230000D03*
X122500000Y-96460000D03*
X117660000Y-95690000D03*
X109400000Y-92480000D03*
X109350000Y-96750000D03*
X118250000Y-88400000D03*
X84310000Y-70820000D03*
X129690000Y-100730000D03*
X105650000Y-91470000D03*
X118030967Y-80193249D03*
X124710000Y-96360000D03*
X83180000Y-84340000D03*
X125280000Y-89540000D03*
%TO.N,+3.3V*%
X121960000Y-83360000D03*
X82940000Y-76370000D03*
X106642841Y-87143541D03*
X112130000Y-92290000D03*
X122570000Y-79270000D03*
X108060000Y-70629300D03*
X117650000Y-92160000D03*
X123900000Y-94630000D03*
X112260000Y-93160000D03*
X130510000Y-85010000D03*
X124000000Y-79340000D03*
%TO.N,+1V1*%
X126490000Y-89610000D03*
X125690000Y-82660000D03*
%TO.N,/InputVoltage*%
X115670000Y-90250000D03*
X103630000Y-94670000D03*
%TO.N,VBUS*%
X103670000Y-89380000D03*
X123040000Y-73250000D03*
%TO.N,/SDA_0*%
X110600000Y-77070000D03*
X128060000Y-89630000D03*
%TO.N,/SCL_0*%
X149720000Y-86090000D03*
X109530000Y-77100000D03*
X129060000Y-90280000D03*
%TO.N,/OrangeSolid*%
X101270000Y-89430000D03*
%TO.N,/D2_gpio*%
X128060000Y-87660000D03*
X90140658Y-76737304D03*
%TO.N,/D0_gpio*%
X131009300Y-89000000D03*
X90008191Y-74020700D03*
%TO.N,/D1_gpio*%
X90070000Y-73240000D03*
X131750000Y-88930000D03*
%TO.N,/CLK_gpio*%
X131330000Y-89610000D03*
X89993765Y-74706350D03*
%TO.N,/D3_gpio*%
X128100000Y-86960000D03*
X90228458Y-76057145D03*
%TO.N,/CMD_gpio*%
X130800000Y-90090000D03*
X90038250Y-75398247D03*
%TO.N,/CD_gpio*%
X95504000Y-74047500D03*
X128392572Y-86098360D03*
%TO.N,/OCS*%
X124380000Y-91921900D03*
%TO.N,/Data_Command*%
X123330000Y-91240000D03*
X129990000Y-91390700D03*
%TO.N,/SPI1_RX_MISO*%
X143920000Y-90349300D03*
X121219300Y-90170000D03*
X140930000Y-93153800D03*
%TO.N,/SPI1_SCK*%
X144480000Y-92798200D03*
X121974635Y-91084477D03*
%TO.N,/SPI1_TX_MOSI*%
X122660000Y-91060000D03*
%TO.N,/RESET*%
X124380000Y-89610000D03*
%TO.N,/UART_TX*%
X121536682Y-84628915D03*
%TO.N,/UART_RX*%
X121090000Y-85149300D03*
%TD*%
D19*
%TO.N,+1V1*%
X126490000Y-89610000D02*
X126490000Y-83460000D01*
X126490000Y-83460000D02*
X125690000Y-82660000D01*
%TO.N,/InputVoltage*%
X103630000Y-94670000D02*
X108590700Y-89709300D01*
X115129300Y-89709300D02*
X115670000Y-90250000D01*
X108590700Y-89709300D02*
X115129300Y-89709300D01*
%TO.N,VBUS*%
X106780000Y-71150000D02*
X106420000Y-71510000D01*
X106420000Y-86630000D02*
X103670000Y-89380000D01*
X123040000Y-73250000D02*
X120940000Y-71150000D01*
X120940000Y-71150000D02*
X106780000Y-71150000D01*
X106420000Y-71510000D02*
X106420000Y-86630000D01*
%TO.N,/OrangeSolid*%
X97002700Y-90563700D02*
X100136300Y-90563700D01*
X100136300Y-90563700D02*
X101270000Y-89430000D01*
%TO.N,VCC*%
X154790000Y-95070000D02*
X146530000Y-103330000D01*
X146530000Y-103330000D02*
X113620000Y-103330000D01*
X154790000Y-90640000D02*
X154790000Y-95070000D01*
X113620000Y-103330000D02*
X112088000Y-101798000D01*
%TD*%
%TA.AperFunction,Conductor*%
%TO.N,+3.3V*%
G36*
X129206690Y-69100185D02*
G01*
X129252445Y-69152989D01*
X129262389Y-69222147D01*
X129245190Y-69269594D01*
X129225826Y-69300989D01*
X129195187Y-69350663D01*
X129195186Y-69350666D01*
X129140001Y-69517203D01*
X129140001Y-69517204D01*
X129140000Y-69517204D01*
X129129500Y-69619983D01*
X129129500Y-71020001D01*
X129129501Y-71020018D01*
X129140000Y-71122796D01*
X129140001Y-71122799D01*
X129148829Y-71149439D01*
X129195186Y-71289334D01*
X129287288Y-71438656D01*
X129411344Y-71562712D01*
X129560666Y-71654814D01*
X129727203Y-71709999D01*
X129829991Y-71720500D01*
X130430008Y-71720499D01*
X130430016Y-71720498D01*
X130430019Y-71720498D01*
X130486302Y-71714748D01*
X130532797Y-71709999D01*
X130699334Y-71654814D01*
X130848656Y-71562712D01*
X130972712Y-71438656D01*
X131064814Y-71289334D01*
X131119999Y-71122797D01*
X131130500Y-71020009D01*
X131130499Y-69619992D01*
X131119999Y-69517203D01*
X131064814Y-69350666D01*
X131014809Y-69269595D01*
X130996370Y-69202204D01*
X131017293Y-69135541D01*
X131070935Y-69090771D01*
X131120349Y-69080500D01*
X137779651Y-69080500D01*
X137846690Y-69100185D01*
X137892445Y-69152989D01*
X137902389Y-69222147D01*
X137885190Y-69269594D01*
X137865826Y-69300989D01*
X137835187Y-69350663D01*
X137835186Y-69350666D01*
X137780001Y-69517203D01*
X137780001Y-69517204D01*
X137780000Y-69517204D01*
X137769500Y-69619983D01*
X137769500Y-71020001D01*
X137769501Y-71020018D01*
X137780000Y-71122796D01*
X137780001Y-71122799D01*
X137788829Y-71149439D01*
X137835186Y-71289334D01*
X137927288Y-71438656D01*
X138051344Y-71562712D01*
X138200666Y-71654814D01*
X138367203Y-71709999D01*
X138469991Y-71720500D01*
X139070008Y-71720499D01*
X139070016Y-71720498D01*
X139070019Y-71720498D01*
X139126302Y-71714748D01*
X139172797Y-71709999D01*
X139339334Y-71654814D01*
X139488656Y-71562712D01*
X139612712Y-71438656D01*
X139704814Y-71289334D01*
X139759999Y-71122797D01*
X139770500Y-71020009D01*
X139770499Y-69619992D01*
X139759999Y-69517203D01*
X139704814Y-69350666D01*
X139654809Y-69269595D01*
X139636370Y-69202204D01*
X139657293Y-69135541D01*
X139710935Y-69090771D01*
X139760349Y-69080500D01*
X157351500Y-69080500D01*
X157418539Y-69100185D01*
X157464294Y-69152989D01*
X157475500Y-69204500D01*
X157475500Y-104023500D01*
X157455815Y-104090539D01*
X157403011Y-104136294D01*
X157351500Y-104147500D01*
X146698187Y-104147500D01*
X146631148Y-104127815D01*
X146585393Y-104075011D01*
X146575449Y-104005853D01*
X146604474Y-103942297D01*
X146663252Y-103904523D01*
X146666043Y-103903738D01*
X146757500Y-103879233D01*
X146891900Y-103801637D01*
X155261637Y-95431900D01*
X155339233Y-95297500D01*
X155379400Y-95147596D01*
X155379400Y-94992404D01*
X155379400Y-92029989D01*
X155399085Y-91962950D01*
X155444383Y-91920934D01*
X155473063Y-91905413D01*
X155579207Y-91847971D01*
X155597543Y-91833700D01*
X155679689Y-91769763D01*
X155767269Y-91701597D01*
X155928673Y-91526265D01*
X156059017Y-91326758D01*
X156154746Y-91108518D01*
X156213248Y-90877498D01*
X156226017Y-90723400D01*
X156232928Y-90640005D01*
X156232928Y-90639994D01*
X156213248Y-90402505D01*
X156213248Y-90402502D01*
X156154746Y-90171482D01*
X156059017Y-89953242D01*
X156011711Y-89880834D01*
X155928677Y-89753740D01*
X155928674Y-89753737D01*
X155928673Y-89753735D01*
X155767269Y-89578403D01*
X155767264Y-89578399D01*
X155767262Y-89578397D01*
X155625235Y-89467853D01*
X155584422Y-89411143D01*
X155580747Y-89341370D01*
X155615379Y-89280687D01*
X155625235Y-89272147D01*
X155737393Y-89184850D01*
X155767269Y-89161597D01*
X155928673Y-88986265D01*
X156059017Y-88786758D01*
X156154746Y-88568518D01*
X156213248Y-88337498D01*
X156225490Y-88189761D01*
X156232928Y-88100005D01*
X156232928Y-88099994D01*
X156214905Y-87882500D01*
X156213248Y-87862502D01*
X156154746Y-87631482D01*
X156059017Y-87413242D01*
X156005691Y-87331620D01*
X155928677Y-87213740D01*
X155928674Y-87213737D01*
X155928673Y-87213735D01*
X155767269Y-87038403D01*
X155767264Y-87038399D01*
X155767262Y-87038397D01*
X155625235Y-86927853D01*
X155584422Y-86871143D01*
X155580747Y-86801370D01*
X155615379Y-86740687D01*
X155625235Y-86732147D01*
X155740397Y-86642512D01*
X155767269Y-86621597D01*
X155928673Y-86446265D01*
X156059017Y-86246758D01*
X156154746Y-86028518D01*
X156213248Y-85797498D01*
X156224923Y-85656600D01*
X156232928Y-85560005D01*
X156232928Y-85559994D01*
X156218888Y-85390560D01*
X156213248Y-85322502D01*
X156154746Y-85091482D01*
X156059017Y-84873242D01*
X156024141Y-84819860D01*
X155928677Y-84673740D01*
X155928674Y-84673737D01*
X155928673Y-84673735D01*
X155767269Y-84498403D01*
X155767264Y-84498399D01*
X155767262Y-84498397D01*
X155579215Y-84352034D01*
X155579209Y-84352030D01*
X155369619Y-84238605D01*
X155369610Y-84238602D01*
X155144220Y-84161225D01*
X154987510Y-84135075D01*
X154909156Y-84122000D01*
X154670844Y-84122000D01*
X154632443Y-84128408D01*
X154435779Y-84161225D01*
X154210389Y-84238602D01*
X154210380Y-84238605D01*
X154000790Y-84352030D01*
X154000784Y-84352034D01*
X153839603Y-84477487D01*
X153774609Y-84503130D01*
X153706069Y-84489563D01*
X153655745Y-84441095D01*
X153647259Y-84422967D01*
X153631297Y-84380171D01*
X153631293Y-84380164D01*
X153545047Y-84264955D01*
X153545044Y-84264952D01*
X153429835Y-84178706D01*
X153429828Y-84178702D01*
X153294982Y-84128408D01*
X153294983Y-84128408D01*
X153235383Y-84122001D01*
X153235381Y-84122000D01*
X153235373Y-84122000D01*
X153235364Y-84122000D01*
X151264629Y-84122000D01*
X151264623Y-84122001D01*
X151205016Y-84128408D01*
X151070171Y-84178702D01*
X151070164Y-84178706D01*
X150954955Y-84264952D01*
X150954952Y-84264955D01*
X150868706Y-84380164D01*
X150868702Y-84380171D01*
X150818408Y-84515017D01*
X150812001Y-84574616D01*
X150812000Y-84574635D01*
X150812000Y-86545370D01*
X150812001Y-86545376D01*
X150818408Y-86604983D01*
X150868702Y-86739828D01*
X150868706Y-86739835D01*
X150954952Y-86855044D01*
X150954955Y-86855047D01*
X151070164Y-86941293D01*
X151070173Y-86941298D01*
X151115184Y-86958086D01*
X151171118Y-86999957D01*
X151195536Y-87065421D01*
X151180685Y-87133694D01*
X151163082Y-87158251D01*
X151111719Y-87214045D01*
X150981422Y-87413481D01*
X150885727Y-87631646D01*
X150827246Y-87862580D01*
X150827244Y-87862592D01*
X150807573Y-88099994D01*
X150807573Y-88100005D01*
X150827244Y-88337407D01*
X150827246Y-88337419D01*
X150885727Y-88568353D01*
X150981421Y-88786515D01*
X151071719Y-88924727D01*
X151668092Y-88328353D01*
X151696132Y-88396048D01*
X151764531Y-88498414D01*
X151851586Y-88585469D01*
X151953952Y-88653868D01*
X152021645Y-88681907D01*
X151424478Y-89279073D01*
X151424864Y-89285298D01*
X151455984Y-89328538D01*
X151459659Y-89398311D01*
X151425029Y-89458995D01*
X151415172Y-89467536D01*
X151272733Y-89578401D01*
X151272731Y-89578402D01*
X151272731Y-89578403D01*
X151253815Y-89598951D01*
X151111322Y-89753740D01*
X150980982Y-89953242D01*
X150885254Y-90171481D01*
X150826751Y-90402505D01*
X150807072Y-90639994D01*
X150807072Y-90640005D01*
X150826751Y-90877494D01*
X150885254Y-91108518D01*
X150980982Y-91326757D01*
X151111322Y-91526259D01*
X151111325Y-91526263D01*
X151111327Y-91526265D01*
X151272731Y-91701597D01*
X151272734Y-91701599D01*
X151272737Y-91701602D01*
X151460784Y-91847965D01*
X151460790Y-91847969D01*
X151460793Y-91847971D01*
X151601430Y-91924080D01*
X151660599Y-91956101D01*
X151670382Y-91961395D01*
X151870189Y-92029989D01*
X151889443Y-92036599D01*
X151895782Y-92038775D01*
X152130844Y-92078000D01*
X152130845Y-92078000D01*
X152369155Y-92078000D01*
X152369156Y-92078000D01*
X152604218Y-92038775D01*
X152829618Y-91961395D01*
X153039207Y-91847971D01*
X153057543Y-91833700D01*
X153139689Y-91769763D01*
X153227269Y-91701597D01*
X153388673Y-91526265D01*
X153416191Y-91484146D01*
X153469338Y-91438789D01*
X153538569Y-91429365D01*
X153601905Y-91458867D01*
X153623809Y-91484146D01*
X153651322Y-91526259D01*
X153651325Y-91526263D01*
X153651327Y-91526265D01*
X153812731Y-91701597D01*
X153812734Y-91701599D01*
X153812737Y-91701602D01*
X154000784Y-91847965D01*
X154000795Y-91847972D01*
X154135617Y-91920934D01*
X154185208Y-91970153D01*
X154200600Y-92029989D01*
X154200600Y-94774501D01*
X154180915Y-94841540D01*
X154164281Y-94862182D01*
X146322182Y-102704281D01*
X146260859Y-102737766D01*
X146234501Y-102740600D01*
X143628303Y-102740600D01*
X143561264Y-102720915D01*
X143515509Y-102668111D01*
X143505565Y-102598953D01*
X143527985Y-102543714D01*
X143548144Y-102515968D01*
X143646580Y-102322777D01*
X143713582Y-102116565D01*
X143731056Y-102006233D01*
X143747500Y-101902417D01*
X143747500Y-101685582D01*
X143723085Y-101531435D01*
X143713582Y-101471435D01*
X143669039Y-101334344D01*
X143646581Y-101265225D01*
X143646580Y-101265223D01*
X143548144Y-101072032D01*
X143420699Y-100896619D01*
X143267381Y-100743301D01*
X143091968Y-100615856D01*
X143029041Y-100583793D01*
X142898774Y-100517418D01*
X142692566Y-100450418D01*
X142478417Y-100416500D01*
X142478412Y-100416500D01*
X142261588Y-100416500D01*
X142261583Y-100416500D01*
X142047433Y-100450418D01*
X141841225Y-100517418D01*
X141648031Y-100615856D01*
X141614112Y-100640500D01*
X141472619Y-100743301D01*
X141472617Y-100743303D01*
X141472616Y-100743303D01*
X141319303Y-100896616D01*
X141319303Y-100896617D01*
X141319301Y-100896619D01*
X141264568Y-100971952D01*
X141191856Y-101072031D01*
X141093418Y-101265225D01*
X141026418Y-101471433D01*
X140992500Y-101685582D01*
X140992500Y-101902417D01*
X141026418Y-102116566D01*
X141093418Y-102322774D01*
X141191856Y-102515968D01*
X141212015Y-102543714D01*
X141235495Y-102609520D01*
X141219670Y-102677574D01*
X141169564Y-102726269D01*
X141111697Y-102740600D01*
X125981843Y-102740600D01*
X125914804Y-102720915D01*
X125869049Y-102668111D01*
X125859105Y-102598953D01*
X125880268Y-102545477D01*
X125929032Y-102475834D01*
X125929031Y-102475834D01*
X125929035Y-102475830D01*
X126028903Y-102261663D01*
X126090063Y-102033408D01*
X126110659Y-101798000D01*
X126090063Y-101562592D01*
X126028903Y-101334337D01*
X125929035Y-101120171D01*
X125923425Y-101112158D01*
X125793494Y-100926597D01*
X125626402Y-100759506D01*
X125626395Y-100759501D01*
X125584259Y-100729997D01*
X128930726Y-100729997D01*
X128930726Y-100730002D01*
X128949761Y-100898951D01*
X129005919Y-101059439D01*
X129096376Y-101203400D01*
X129216600Y-101323624D01*
X129360563Y-101414082D01*
X129482521Y-101456756D01*
X129521048Y-101470238D01*
X129689997Y-101489274D01*
X129690000Y-101489274D01*
X129690003Y-101489274D01*
X129858951Y-101470238D01*
X129858954Y-101470237D01*
X130019437Y-101414082D01*
X130163400Y-101323624D01*
X130283624Y-101203400D01*
X130374082Y-101059437D01*
X130430237Y-100898954D01*
X130430237Y-100898953D01*
X130430238Y-100898951D01*
X130449274Y-100730002D01*
X130449274Y-100729997D01*
X130430238Y-100561048D01*
X130410347Y-100504204D01*
X130374082Y-100400563D01*
X130283624Y-100256600D01*
X130163400Y-100136376D01*
X130019437Y-100045918D01*
X129980912Y-100032437D01*
X129858951Y-99989761D01*
X129690003Y-99970726D01*
X129689997Y-99970726D01*
X129521048Y-99989761D01*
X129360560Y-100045919D01*
X129216599Y-100136376D01*
X129096376Y-100256599D01*
X129005919Y-100400560D01*
X128949761Y-100561048D01*
X128930726Y-100729997D01*
X125584259Y-100729997D01*
X125432834Y-100623967D01*
X125432830Y-100623965D01*
X125415440Y-100615856D01*
X125218663Y-100524097D01*
X125218659Y-100524096D01*
X125218655Y-100524094D01*
X124990413Y-100462938D01*
X124990403Y-100462936D01*
X124755001Y-100442341D01*
X124754999Y-100442341D01*
X124519596Y-100462936D01*
X124519586Y-100462938D01*
X124291344Y-100524094D01*
X124291335Y-100524098D01*
X124077171Y-100623964D01*
X124077169Y-100623965D01*
X123883597Y-100759505D01*
X123716505Y-100926597D01*
X123586575Y-101112158D01*
X123531998Y-101155783D01*
X123462500Y-101162977D01*
X123400145Y-101131454D01*
X123383425Y-101112158D01*
X123253494Y-100926597D01*
X123086402Y-100759506D01*
X123086395Y-100759501D01*
X122892834Y-100623967D01*
X122892830Y-100623965D01*
X122875440Y-100615856D01*
X122678663Y-100524097D01*
X122678659Y-100524096D01*
X122678655Y-100524094D01*
X122450413Y-100462938D01*
X122450403Y-100462936D01*
X122215001Y-100442341D01*
X122214999Y-100442341D01*
X121979596Y-100462936D01*
X121979586Y-100462938D01*
X121751344Y-100524094D01*
X121751335Y-100524098D01*
X121537171Y-100623964D01*
X121537169Y-100623965D01*
X121343600Y-100759503D01*
X121221673Y-100881430D01*
X121160350Y-100914914D01*
X121090658Y-100909930D01*
X121034725Y-100868058D01*
X121017810Y-100837081D01*
X120968797Y-100705671D01*
X120968793Y-100705664D01*
X120882547Y-100590455D01*
X120882544Y-100590452D01*
X120767335Y-100504206D01*
X120767328Y-100504202D01*
X120632482Y-100453908D01*
X120632483Y-100453908D01*
X120572883Y-100447501D01*
X120572881Y-100447500D01*
X120572873Y-100447500D01*
X120572864Y-100447500D01*
X118777129Y-100447500D01*
X118777123Y-100447501D01*
X118717516Y-100453908D01*
X118582671Y-100504202D01*
X118582664Y-100504206D01*
X118467455Y-100590452D01*
X118467452Y-100590455D01*
X118381206Y-100705664D01*
X118381202Y-100705671D01*
X118330908Y-100840517D01*
X118326510Y-100881430D01*
X118324500Y-100900127D01*
X118324500Y-101797999D01*
X118324501Y-102616600D01*
X118304816Y-102683639D01*
X118252013Y-102729394D01*
X118200501Y-102740600D01*
X115854843Y-102740600D01*
X115787804Y-102720915D01*
X115742049Y-102668111D01*
X115732105Y-102598953D01*
X115753268Y-102545477D01*
X115802032Y-102475834D01*
X115802031Y-102475834D01*
X115802035Y-102475830D01*
X115901903Y-102261663D01*
X115963063Y-102033408D01*
X115983659Y-101798000D01*
X115963063Y-101562592D01*
X115901903Y-101334337D01*
X115802035Y-101120171D01*
X115796425Y-101112158D01*
X115666494Y-100926597D01*
X115499402Y-100759506D01*
X115499395Y-100759501D01*
X115305834Y-100623967D01*
X115305830Y-100623965D01*
X115288440Y-100615856D01*
X115091663Y-100524097D01*
X115091659Y-100524096D01*
X115091655Y-100524094D01*
X114863413Y-100462938D01*
X114863403Y-100462936D01*
X114628001Y-100442341D01*
X114627999Y-100442341D01*
X114392596Y-100462936D01*
X114392586Y-100462938D01*
X114164344Y-100524094D01*
X114164335Y-100524098D01*
X113950171Y-100623964D01*
X113950169Y-100623965D01*
X113756600Y-100759503D01*
X113634673Y-100881430D01*
X113573350Y-100914914D01*
X113503658Y-100909930D01*
X113447725Y-100868058D01*
X113430810Y-100837081D01*
X113381797Y-100705671D01*
X113381793Y-100705664D01*
X113295547Y-100590455D01*
X113295544Y-100590452D01*
X113180335Y-100504206D01*
X113180328Y-100504202D01*
X113045482Y-100453908D01*
X113045483Y-100453908D01*
X112985883Y-100447501D01*
X112985881Y-100447500D01*
X112985873Y-100447500D01*
X112985864Y-100447500D01*
X111190129Y-100447500D01*
X111190123Y-100447501D01*
X111130516Y-100453908D01*
X110995671Y-100504202D01*
X110995664Y-100504206D01*
X110880455Y-100590452D01*
X110880452Y-100590455D01*
X110794206Y-100705664D01*
X110794202Y-100705671D01*
X110743908Y-100840517D01*
X110737501Y-100900116D01*
X110737500Y-100900135D01*
X110737500Y-102695870D01*
X110737501Y-102695876D01*
X110743908Y-102755483D01*
X110794202Y-102890328D01*
X110794206Y-102890335D01*
X110880452Y-103005544D01*
X110880455Y-103005547D01*
X110995664Y-103091793D01*
X110995671Y-103091797D01*
X111130517Y-103142091D01*
X111130516Y-103142091D01*
X111137444Y-103142835D01*
X111190127Y-103148500D01*
X112553600Y-103148499D01*
X112620639Y-103168184D01*
X112641281Y-103184818D01*
X113258100Y-103801637D01*
X113352569Y-103856179D01*
X113392496Y-103879231D01*
X113392497Y-103879231D01*
X113392500Y-103879233D01*
X113483908Y-103903726D01*
X113543567Y-103940090D01*
X113574096Y-104002937D01*
X113565801Y-104072313D01*
X113521316Y-104126191D01*
X113454764Y-104147465D01*
X113451813Y-104147500D01*
X80888500Y-104147500D01*
X80821461Y-104127815D01*
X80775706Y-104075011D01*
X80764500Y-104023500D01*
X80764500Y-99453694D01*
X85702444Y-99453694D01*
X85702444Y-99453705D01*
X85721448Y-99755774D01*
X85721449Y-99755781D01*
X85778168Y-100053110D01*
X85841324Y-100247483D01*
X85871701Y-100340974D01*
X86000577Y-100614850D01*
X86000579Y-100614853D01*
X86000580Y-100614855D01*
X86162758Y-100870408D01*
X86162761Y-100870412D01*
X86162762Y-100870413D01*
X86355699Y-101103634D01*
X86576343Y-101310832D01*
X86576353Y-101310840D01*
X86821208Y-101488738D01*
X86821213Y-101488740D01*
X86821220Y-101488746D01*
X87086463Y-101634565D01*
X87086468Y-101634567D01*
X87086470Y-101634568D01*
X87086471Y-101634569D01*
X87367886Y-101745989D01*
X87367889Y-101745990D01*
X87661059Y-101821263D01*
X87661063Y-101821264D01*
X87724060Y-101829222D01*
X87961347Y-101859199D01*
X87961356Y-101859199D01*
X87961359Y-101859200D01*
X87961361Y-101859200D01*
X88264039Y-101859200D01*
X88264041Y-101859200D01*
X88264044Y-101859199D01*
X88264052Y-101859199D01*
X88443239Y-101836562D01*
X88564337Y-101821264D01*
X88857510Y-101745990D01*
X88857513Y-101745989D01*
X88858541Y-101745582D01*
X100222500Y-101745582D01*
X100222500Y-101962417D01*
X100256418Y-102176566D01*
X100323418Y-102382774D01*
X100323420Y-102382777D01*
X100421856Y-102575968D01*
X100549301Y-102751381D01*
X100702619Y-102904699D01*
X100878032Y-103032144D01*
X101071223Y-103130580D01*
X101071225Y-103130581D01*
X101106650Y-103142091D01*
X101277435Y-103197582D01*
X101376619Y-103213291D01*
X101491583Y-103231500D01*
X101491588Y-103231500D01*
X101708417Y-103231500D01*
X101812233Y-103215056D01*
X101922565Y-103197582D01*
X102128777Y-103130580D01*
X102321968Y-103032144D01*
X102497381Y-102904699D01*
X102650699Y-102751381D01*
X102778144Y-102575968D01*
X102876580Y-102382777D01*
X102943582Y-102176565D01*
X102966256Y-102033408D01*
X102977500Y-101962417D01*
X102977500Y-101745582D01*
X102948517Y-101562596D01*
X102943582Y-101531435D01*
X102879544Y-101334344D01*
X102876581Y-101325225D01*
X102793911Y-101162977D01*
X102778144Y-101132032D01*
X102650699Y-100956619D01*
X102497381Y-100803301D01*
X102321968Y-100675856D01*
X102252578Y-100640500D01*
X102128774Y-100577418D01*
X101922566Y-100510418D01*
X101708417Y-100476500D01*
X101708412Y-100476500D01*
X101491588Y-100476500D01*
X101491583Y-100476500D01*
X101277433Y-100510418D01*
X101071225Y-100577418D01*
X100878031Y-100675856D01*
X100836995Y-100705671D01*
X100702619Y-100803301D01*
X100702617Y-100803303D01*
X100702616Y-100803303D01*
X100549303Y-100956616D01*
X100549303Y-100956617D01*
X100549301Y-100956619D01*
X100494568Y-101031952D01*
X100421856Y-101132031D01*
X100323418Y-101325225D01*
X100256418Y-101531433D01*
X100222500Y-101745582D01*
X88858541Y-101745582D01*
X89138928Y-101634569D01*
X89138929Y-101634568D01*
X89138927Y-101634568D01*
X89138937Y-101634565D01*
X89404180Y-101488746D01*
X89649055Y-101310834D01*
X89869701Y-101103634D01*
X90062638Y-100870413D01*
X90224823Y-100614850D01*
X90353699Y-100340974D01*
X90447233Y-100053106D01*
X90503950Y-99755785D01*
X90522956Y-99453700D01*
X90507278Y-99204514D01*
X90503951Y-99151625D01*
X90503950Y-99151618D01*
X90503950Y-99151615D01*
X90447233Y-98854294D01*
X90353699Y-98566426D01*
X90224823Y-98292550D01*
X90155744Y-98183699D01*
X95862335Y-98183699D01*
X95862335Y-98183700D01*
X95881751Y-98393237D01*
X95939342Y-98595650D01*
X96033142Y-98784025D01*
X96159961Y-98951960D01*
X96315476Y-99093730D01*
X96315478Y-99093732D01*
X96494392Y-99204511D01*
X96494398Y-99204514D01*
X96535968Y-99220618D01*
X96690624Y-99280532D01*
X96897480Y-99319200D01*
X96897482Y-99319200D01*
X97107918Y-99319200D01*
X97107920Y-99319200D01*
X97314776Y-99280532D01*
X97511004Y-99204513D01*
X97689923Y-99093731D01*
X97845440Y-98951959D01*
X97972258Y-98784025D01*
X98066059Y-98595647D01*
X98123648Y-98393242D01*
X98143065Y-98183700D01*
X98123648Y-97974158D01*
X98066059Y-97771753D01*
X97972258Y-97583375D01*
X97845440Y-97415441D01*
X97689923Y-97273669D01*
X97689921Y-97273667D01*
X97511007Y-97162888D01*
X97511001Y-97162885D01*
X97349285Y-97100237D01*
X97314776Y-97086868D01*
X97107920Y-97048200D01*
X96897480Y-97048200D01*
X96690624Y-97086868D01*
X96690621Y-97086868D01*
X96690621Y-97086869D01*
X96494398Y-97162885D01*
X96494392Y-97162888D01*
X96315478Y-97273667D01*
X96315476Y-97273669D01*
X96159961Y-97415439D01*
X96033142Y-97583374D01*
X95939342Y-97771749D01*
X95881751Y-97974162D01*
X95862335Y-98183699D01*
X90155744Y-98183699D01*
X90091493Y-98082455D01*
X90062641Y-98036991D01*
X90062638Y-98036987D01*
X89869701Y-97803766D01*
X89649055Y-97596566D01*
X89649052Y-97596564D01*
X89649046Y-97596559D01*
X89404191Y-97418661D01*
X89404184Y-97418656D01*
X89404180Y-97418654D01*
X89138937Y-97272835D01*
X89138934Y-97272833D01*
X89138929Y-97272831D01*
X89138928Y-97272830D01*
X88857513Y-97161410D01*
X88857510Y-97161409D01*
X88564340Y-97086136D01*
X88564327Y-97086134D01*
X88264052Y-97048200D01*
X88264041Y-97048200D01*
X87961359Y-97048200D01*
X87961347Y-97048200D01*
X87661072Y-97086134D01*
X87661059Y-97086136D01*
X87367889Y-97161409D01*
X87367886Y-97161410D01*
X87086471Y-97272830D01*
X87086470Y-97272831D01*
X86821220Y-97418654D01*
X86821208Y-97418661D01*
X86576353Y-97596559D01*
X86576343Y-97596567D01*
X86389789Y-97771753D01*
X86355699Y-97803766D01*
X86339183Y-97823731D01*
X86162758Y-98036991D01*
X86000580Y-98292544D01*
X86000577Y-98292548D01*
X86000577Y-98292550D01*
X85981770Y-98332517D01*
X85871700Y-98566428D01*
X85778168Y-98854289D01*
X85721449Y-99151618D01*
X85721448Y-99151625D01*
X85702444Y-99453694D01*
X80764500Y-99453694D01*
X80764500Y-96913699D01*
X93322335Y-96913699D01*
X93322335Y-96913700D01*
X93341751Y-97123237D01*
X93341751Y-97123239D01*
X93341752Y-97123242D01*
X93384552Y-97273669D01*
X93399342Y-97325650D01*
X93493142Y-97514025D01*
X93619961Y-97681960D01*
X93775476Y-97823730D01*
X93775478Y-97823732D01*
X93954392Y-97934511D01*
X93954398Y-97934514D01*
X93986621Y-97946997D01*
X94150624Y-98010532D01*
X94357480Y-98049200D01*
X94357482Y-98049200D01*
X94567918Y-98049200D01*
X94567920Y-98049200D01*
X94774776Y-98010532D01*
X94971004Y-97934513D01*
X95149923Y-97823731D01*
X95305440Y-97681959D01*
X95432258Y-97514025D01*
X95526059Y-97325647D01*
X95583648Y-97123242D01*
X95603065Y-96913700D01*
X95583648Y-96704158D01*
X95526059Y-96501753D01*
X95432258Y-96313375D01*
X95305440Y-96145441D01*
X95256759Y-96101063D01*
X95149923Y-96003669D01*
X95149921Y-96003667D01*
X94971007Y-95892888D01*
X94971001Y-95892885D01*
X94816348Y-95832973D01*
X94774776Y-95816868D01*
X94567920Y-95778200D01*
X94357480Y-95778200D01*
X94150624Y-95816868D01*
X94150621Y-95816868D01*
X94150621Y-95816869D01*
X93954398Y-95892885D01*
X93954392Y-95892888D01*
X93775478Y-96003667D01*
X93775476Y-96003669D01*
X93619961Y-96145439D01*
X93493142Y-96313374D01*
X93399342Y-96501749D01*
X93391602Y-96528954D01*
X93345941Y-96689437D01*
X93341751Y-96704162D01*
X93322335Y-96913699D01*
X80764500Y-96913699D01*
X80764500Y-95643699D01*
X95862335Y-95643699D01*
X95862335Y-95643700D01*
X95881751Y-95853237D01*
X95881751Y-95853239D01*
X95881752Y-95853242D01*
X95939341Y-96055647D01*
X95939342Y-96055650D01*
X96008123Y-96193780D01*
X96033142Y-96244025D01*
X96135823Y-96379997D01*
X96159961Y-96411960D01*
X96315476Y-96553730D01*
X96315478Y-96553732D01*
X96494392Y-96664511D01*
X96494398Y-96664514D01*
X96535968Y-96680618D01*
X96690624Y-96740532D01*
X96897480Y-96779200D01*
X96897482Y-96779200D01*
X97107918Y-96779200D01*
X97107920Y-96779200D01*
X97264143Y-96749997D01*
X107460726Y-96749997D01*
X107460726Y-96750002D01*
X107479761Y-96918951D01*
X107508122Y-97000000D01*
X107530544Y-97064080D01*
X107535919Y-97079439D01*
X107573516Y-97139274D01*
X107626376Y-97223400D01*
X107746600Y-97343624D01*
X107890563Y-97434082D01*
X108012521Y-97476756D01*
X108051048Y-97490238D01*
X108219997Y-97509274D01*
X108220000Y-97509274D01*
X108220003Y-97509274D01*
X108388951Y-97490238D01*
X108388954Y-97490237D01*
X108549437Y-97434082D01*
X108693400Y-97343624D01*
X108697319Y-97339705D01*
X108758642Y-97306220D01*
X108828334Y-97311204D01*
X108872681Y-97339705D01*
X108876600Y-97343624D01*
X109020563Y-97434082D01*
X109142521Y-97476756D01*
X109181048Y-97490238D01*
X109349997Y-97509274D01*
X109350000Y-97509274D01*
X109350003Y-97509274D01*
X109518951Y-97490238D01*
X109518954Y-97490237D01*
X109679437Y-97434082D01*
X109823400Y-97343624D01*
X109943624Y-97223400D01*
X110034082Y-97079437D01*
X110090237Y-96918954D01*
X110090237Y-96918953D01*
X110090238Y-96918951D01*
X110109274Y-96750002D01*
X110109274Y-96749997D01*
X110090238Y-96581048D01*
X110061878Y-96500000D01*
X110047880Y-96459997D01*
X121740726Y-96459997D01*
X121740726Y-96460002D01*
X121759761Y-96628951D01*
X121815919Y-96789439D01*
X121893997Y-96913699D01*
X121906376Y-96933400D01*
X122026600Y-97053624D01*
X122170563Y-97144082D01*
X122292521Y-97186756D01*
X122331048Y-97200238D01*
X122499997Y-97219274D01*
X122500000Y-97219274D01*
X122500003Y-97219274D01*
X122668951Y-97200238D01*
X122668954Y-97200237D01*
X122829437Y-97144082D01*
X122973400Y-97053624D01*
X123093624Y-96933400D01*
X123184082Y-96789437D01*
X123240237Y-96628954D01*
X123240237Y-96628953D01*
X123240238Y-96628951D01*
X123259274Y-96460002D01*
X123259274Y-96459997D01*
X123248007Y-96359997D01*
X123950726Y-96359997D01*
X123950726Y-96360002D01*
X123969761Y-96528951D01*
X123987991Y-96581048D01*
X124024076Y-96684174D01*
X124025919Y-96689439D01*
X124116374Y-96833397D01*
X124116376Y-96833400D01*
X124236600Y-96953624D01*
X124380563Y-97044082D01*
X124500742Y-97086134D01*
X124541048Y-97100238D01*
X124709997Y-97119274D01*
X124710000Y-97119274D01*
X124710003Y-97119274D01*
X124878951Y-97100238D01*
X124878954Y-97100237D01*
X125039437Y-97044082D01*
X125183400Y-96953624D01*
X125303624Y-96833400D01*
X125353722Y-96753668D01*
X125406056Y-96707377D01*
X125475110Y-96696728D01*
X125538958Y-96725103D01*
X125563710Y-96753668D01*
X125602767Y-96815826D01*
X125626376Y-96853400D01*
X125746600Y-96973624D01*
X125890563Y-97064082D01*
X125993889Y-97100237D01*
X126051048Y-97120238D01*
X126219997Y-97139274D01*
X126220000Y-97139274D01*
X126220003Y-97139274D01*
X126388951Y-97120238D01*
X126391706Y-97119274D01*
X126549437Y-97064082D01*
X126693400Y-96973624D01*
X126813624Y-96853400D01*
X126904082Y-96709437D01*
X126960237Y-96548954D01*
X126960237Y-96548953D01*
X126960238Y-96548951D01*
X126979274Y-96380002D01*
X126979274Y-96379997D01*
X126960238Y-96211048D01*
X126943565Y-96163400D01*
X126904082Y-96050563D01*
X126813624Y-95906600D01*
X126693400Y-95786376D01*
X126574858Y-95711891D01*
X126549439Y-95695919D01*
X126549438Y-95695918D01*
X126549437Y-95695918D01*
X126492280Y-95675918D01*
X126388951Y-95639761D01*
X126220003Y-95620726D01*
X126219997Y-95620726D01*
X126051048Y-95639761D01*
X125890560Y-95695919D01*
X125746599Y-95786376D01*
X125626376Y-95906599D01*
X125626374Y-95906602D01*
X125576276Y-95986332D01*
X125523941Y-96032623D01*
X125454888Y-96043270D01*
X125391040Y-96014895D01*
X125366289Y-95986331D01*
X125303623Y-95886599D01*
X125183400Y-95766376D01*
X125039439Y-95675919D01*
X125039438Y-95675918D01*
X125039437Y-95675918D01*
X125000912Y-95662437D01*
X124878951Y-95619761D01*
X124710003Y-95600726D01*
X124709997Y-95600726D01*
X124541048Y-95619761D01*
X124380560Y-95675919D01*
X124236599Y-95766376D01*
X124116376Y-95886599D01*
X124025919Y-96030560D01*
X123969761Y-96191048D01*
X123950726Y-96359997D01*
X123248007Y-96359997D01*
X123240238Y-96291048D01*
X123223784Y-96244025D01*
X123184082Y-96130563D01*
X123093624Y-95986600D01*
X122973400Y-95866376D01*
X122829437Y-95775918D01*
X122790912Y-95762437D01*
X122668951Y-95719761D01*
X122500003Y-95700726D01*
X122499997Y-95700726D01*
X122331048Y-95719761D01*
X122170560Y-95775919D01*
X122026599Y-95866376D01*
X121906376Y-95986599D01*
X121815919Y-96130560D01*
X121759761Y-96291048D01*
X121740726Y-96459997D01*
X110047880Y-96459997D01*
X110034082Y-96420563D01*
X109943624Y-96276600D01*
X109823400Y-96156376D01*
X109679437Y-96065918D01*
X109635546Y-96050560D01*
X109518951Y-96009761D01*
X109350003Y-95990726D01*
X109349997Y-95990726D01*
X109181048Y-96009761D01*
X109020560Y-96065919D01*
X108876599Y-96156376D01*
X108872681Y-96160295D01*
X108811358Y-96193780D01*
X108741666Y-96188796D01*
X108697319Y-96160295D01*
X108693400Y-96156376D01*
X108549439Y-96065919D01*
X108549438Y-96065918D01*
X108549437Y-96065918D01*
X108505546Y-96050560D01*
X108388951Y-96009761D01*
X108220003Y-95990726D01*
X108219997Y-95990726D01*
X108051048Y-96009761D01*
X107890560Y-96065919D01*
X107746599Y-96156376D01*
X107626376Y-96276599D01*
X107535919Y-96420560D01*
X107479761Y-96581048D01*
X107460726Y-96749997D01*
X97264143Y-96749997D01*
X97314776Y-96740532D01*
X97511004Y-96664513D01*
X97689923Y-96553731D01*
X97845440Y-96411959D01*
X97972258Y-96244025D01*
X98066059Y-96055647D01*
X98123648Y-95853242D01*
X98143065Y-95643700D01*
X98123648Y-95434158D01*
X98066059Y-95231753D01*
X97972258Y-95043375D01*
X97845440Y-94875441D01*
X97689923Y-94733669D01*
X97689921Y-94733667D01*
X97587091Y-94669997D01*
X102870726Y-94669997D01*
X102870726Y-94670002D01*
X102889761Y-94838951D01*
X102921875Y-94930726D01*
X102945918Y-94999437D01*
X103036376Y-95143400D01*
X103156600Y-95263624D01*
X103300563Y-95354082D01*
X103416103Y-95394511D01*
X103461048Y-95410238D01*
X103629997Y-95429274D01*
X103630000Y-95429274D01*
X103630003Y-95429274D01*
X103798951Y-95410238D01*
X103798954Y-95410237D01*
X103940172Y-95360823D01*
X110090726Y-95360823D01*
X110090726Y-95360828D01*
X110109761Y-95529777D01*
X110165919Y-95690265D01*
X110226310Y-95786376D01*
X110256376Y-95834226D01*
X110376600Y-95954450D01*
X110520563Y-96044908D01*
X110642521Y-96087582D01*
X110681048Y-96101064D01*
X110849997Y-96120100D01*
X110850000Y-96120100D01*
X110850003Y-96120100D01*
X111018951Y-96101064D01*
X111018954Y-96101063D01*
X111179437Y-96044908D01*
X111323400Y-95954450D01*
X111443624Y-95834226D01*
X111534082Y-95690263D01*
X111534175Y-95689997D01*
X116900726Y-95689997D01*
X116900726Y-95690002D01*
X116919761Y-95858951D01*
X116975919Y-96019439D01*
X117009209Y-96072420D01*
X117066376Y-96163400D01*
X117186600Y-96283624D01*
X117330563Y-96374082D01*
X117427299Y-96407931D01*
X117491048Y-96430238D01*
X117659997Y-96449274D01*
X117660000Y-96449274D01*
X117660003Y-96449274D01*
X117828951Y-96430238D01*
X117828954Y-96430237D01*
X117989437Y-96374082D01*
X118133400Y-96283624D01*
X118253624Y-96163400D01*
X118344082Y-96019437D01*
X118400237Y-95858954D01*
X118400237Y-95858953D01*
X118400238Y-95858951D01*
X118419274Y-95690002D01*
X118419274Y-95689997D01*
X118400238Y-95521048D01*
X118386756Y-95482521D01*
X118344082Y-95360563D01*
X118253624Y-95216600D01*
X118133400Y-95096376D01*
X118109569Y-95081402D01*
X117989439Y-95005919D01*
X117989438Y-95005918D01*
X117989437Y-95005918D01*
X117950816Y-94992404D01*
X117828951Y-94949761D01*
X117660003Y-94930726D01*
X117659997Y-94930726D01*
X117491048Y-94949761D01*
X117330560Y-95005919D01*
X117186599Y-95096376D01*
X117066376Y-95216599D01*
X116975919Y-95360560D01*
X116919761Y-95521048D01*
X116900726Y-95689997D01*
X111534175Y-95689997D01*
X111590237Y-95529780D01*
X111590237Y-95529779D01*
X111590238Y-95529777D01*
X111609274Y-95360828D01*
X111609274Y-95360823D01*
X111590238Y-95191874D01*
X111572772Y-95141959D01*
X111534082Y-95031389D01*
X111443624Y-94887426D01*
X111323400Y-94767202D01*
X111270033Y-94733669D01*
X111179439Y-94676745D01*
X111179438Y-94676744D01*
X111179437Y-94676744D01*
X111140912Y-94663263D01*
X111018951Y-94620587D01*
X110850003Y-94601552D01*
X110849997Y-94601552D01*
X110681048Y-94620587D01*
X110520560Y-94676745D01*
X110376599Y-94767202D01*
X110256376Y-94887425D01*
X110165919Y-95031386D01*
X110109761Y-95191874D01*
X110090726Y-95360823D01*
X103940172Y-95360823D01*
X103959437Y-95354082D01*
X104103400Y-95263624D01*
X104223624Y-95143400D01*
X104314082Y-94999437D01*
X104370237Y-94838954D01*
X104374985Y-94796808D01*
X104402049Y-94732397D01*
X104410514Y-94723021D01*
X106623539Y-92509997D01*
X107480726Y-92509997D01*
X107480726Y-92510002D01*
X107499761Y-92678951D01*
X107541488Y-92798197D01*
X107550643Y-92824363D01*
X107555919Y-92839439D01*
X107613157Y-92930532D01*
X107646376Y-92983400D01*
X107766600Y-93103624D01*
X107910563Y-93194082D01*
X108032521Y-93236756D01*
X108071048Y-93250238D01*
X108239997Y-93269274D01*
X108240000Y-93269274D01*
X108240003Y-93269274D01*
X108408951Y-93250238D01*
X108408954Y-93250237D01*
X108569437Y-93194082D01*
X108713400Y-93103624D01*
X108747319Y-93069705D01*
X108808642Y-93036220D01*
X108878334Y-93041204D01*
X108922681Y-93069705D01*
X108926600Y-93073624D01*
X109070563Y-93164082D01*
X109192521Y-93206756D01*
X109231048Y-93220238D01*
X109399997Y-93239274D01*
X109400000Y-93239274D01*
X109400003Y-93239274D01*
X109568951Y-93220238D01*
X109568954Y-93220237D01*
X109729437Y-93164082D01*
X109745805Y-93153797D01*
X140170726Y-93153797D01*
X140170726Y-93153802D01*
X140189761Y-93322751D01*
X140245919Y-93483239D01*
X140266284Y-93515650D01*
X140336376Y-93627200D01*
X140456600Y-93747424D01*
X140600563Y-93837882D01*
X140722521Y-93880556D01*
X140761048Y-93894038D01*
X140929997Y-93913074D01*
X140930000Y-93913074D01*
X140930003Y-93913074D01*
X141098951Y-93894038D01*
X141111994Y-93889474D01*
X141259437Y-93837882D01*
X141403400Y-93747424D01*
X141523624Y-93627200D01*
X141614082Y-93483237D01*
X141670237Y-93322754D01*
X141670237Y-93322753D01*
X141670238Y-93322751D01*
X141689274Y-93153802D01*
X141689274Y-93153797D01*
X141670238Y-92984848D01*
X141646672Y-92917500D01*
X141614082Y-92824363D01*
X141597641Y-92798197D01*
X143720726Y-92798197D01*
X143720726Y-92798202D01*
X143739761Y-92967151D01*
X143795919Y-93127639D01*
X143823482Y-93171505D01*
X143886376Y-93271600D01*
X144006600Y-93391824D01*
X144150563Y-93482282D01*
X144272521Y-93524956D01*
X144311048Y-93538438D01*
X144479997Y-93557474D01*
X144480000Y-93557474D01*
X144480003Y-93557474D01*
X144648951Y-93538438D01*
X144666867Y-93532169D01*
X144809437Y-93482282D01*
X144953400Y-93391824D01*
X145073624Y-93271600D01*
X145164082Y-93127637D01*
X145220237Y-92967154D01*
X145220237Y-92967153D01*
X145220238Y-92967151D01*
X145239274Y-92798202D01*
X145239274Y-92798197D01*
X145220238Y-92629248D01*
X145206756Y-92590721D01*
X145164082Y-92468763D01*
X145073624Y-92324800D01*
X144953400Y-92204576D01*
X144915179Y-92180560D01*
X144809439Y-92114119D01*
X144809438Y-92114118D01*
X144809437Y-92114118D01*
X144742952Y-92090854D01*
X144648951Y-92057961D01*
X144480003Y-92038926D01*
X144479997Y-92038926D01*
X144311048Y-92057961D01*
X144150560Y-92114119D01*
X144006599Y-92204576D01*
X143886376Y-92324799D01*
X143795919Y-92468760D01*
X143739761Y-92629248D01*
X143720726Y-92798197D01*
X141597641Y-92798197D01*
X141523624Y-92680400D01*
X141403400Y-92560176D01*
X141323549Y-92510002D01*
X141259439Y-92469719D01*
X141259438Y-92469718D01*
X141259437Y-92469718D01*
X141220912Y-92456237D01*
X141098951Y-92413561D01*
X140930003Y-92394526D01*
X140929997Y-92394526D01*
X140761048Y-92413561D01*
X140600560Y-92469719D01*
X140456599Y-92560176D01*
X140336376Y-92680399D01*
X140245919Y-92824360D01*
X140189761Y-92984848D01*
X140170726Y-93153797D01*
X109745805Y-93153797D01*
X109873400Y-93073624D01*
X109993624Y-92953400D01*
X110084082Y-92809437D01*
X110140237Y-92648954D01*
X110140237Y-92648953D01*
X110140238Y-92648951D01*
X110159274Y-92480002D01*
X110159274Y-92479997D01*
X110140238Y-92311048D01*
X110117353Y-92245647D01*
X110084082Y-92150563D01*
X109993624Y-92006600D01*
X109873400Y-91886376D01*
X109837948Y-91864100D01*
X109729439Y-91795919D01*
X109729438Y-91795918D01*
X109729437Y-91795918D01*
X109690912Y-91782437D01*
X109568951Y-91739761D01*
X109400003Y-91720726D01*
X109399997Y-91720726D01*
X109231048Y-91739761D01*
X109070560Y-91795919D01*
X108926599Y-91886376D01*
X108892681Y-91920295D01*
X108831358Y-91953780D01*
X108761666Y-91948796D01*
X108717319Y-91920295D01*
X108713400Y-91916376D01*
X108569439Y-91825919D01*
X108569438Y-91825918D01*
X108569437Y-91825918D01*
X108530912Y-91812437D01*
X108408951Y-91769761D01*
X108240003Y-91750726D01*
X108239997Y-91750726D01*
X108071048Y-91769761D01*
X107910560Y-91825919D01*
X107766599Y-91916376D01*
X107646376Y-92036599D01*
X107555919Y-92180560D01*
X107499761Y-92341048D01*
X107480726Y-92509997D01*
X106623539Y-92509997D01*
X108798518Y-90335019D01*
X108859841Y-90301534D01*
X108886199Y-90298700D01*
X111737993Y-90298700D01*
X111805032Y-90318385D01*
X111850787Y-90371189D01*
X111858883Y-90395103D01*
X111859760Y-90398946D01*
X111915919Y-90559439D01*
X111928485Y-90579437D01*
X112006376Y-90703400D01*
X112126600Y-90823624D01*
X112270563Y-90914082D01*
X112392521Y-90956756D01*
X112431048Y-90970238D01*
X112599997Y-90989274D01*
X112600000Y-90989274D01*
X112600003Y-90989274D01*
X112768951Y-90970238D01*
X112768954Y-90970237D01*
X112929437Y-90914082D01*
X113073400Y-90823624D01*
X113193624Y-90703400D01*
X113284082Y-90559437D01*
X113340237Y-90398954D01*
X113340237Y-90398950D01*
X113340239Y-90398946D01*
X113341117Y-90395103D01*
X113342365Y-90392871D01*
X113342537Y-90392381D01*
X113342622Y-90392411D01*
X113375228Y-90334126D01*
X113436891Y-90301270D01*
X113462007Y-90298700D01*
X114805400Y-90298700D01*
X114872439Y-90318385D01*
X114918194Y-90371189D01*
X114928620Y-90408816D01*
X114929761Y-90418951D01*
X114955535Y-90492607D01*
X114980411Y-90563700D01*
X114985919Y-90579439D01*
X115048312Y-90678737D01*
X115076376Y-90723400D01*
X115196600Y-90843624D01*
X115217234Y-90856589D01*
X115340562Y-90934082D01*
X115362634Y-90941805D01*
X115375378Y-90946264D01*
X115432155Y-90986985D01*
X115457903Y-91051937D01*
X115444448Y-91120499D01*
X115420140Y-91150068D01*
X115421524Y-91151452D01*
X115296376Y-91276599D01*
X115205919Y-91420560D01*
X115149761Y-91581048D01*
X115130726Y-91749997D01*
X115130726Y-91750002D01*
X115149761Y-91918951D01*
X115191690Y-92038775D01*
X115204288Y-92074780D01*
X115205919Y-92079439D01*
X115277695Y-92193669D01*
X115296376Y-92223400D01*
X115416600Y-92343624D01*
X115560563Y-92434082D01*
X115682521Y-92476756D01*
X115721048Y-92490238D01*
X115889997Y-92509274D01*
X115890000Y-92509274D01*
X115890003Y-92509274D01*
X116058951Y-92490238D01*
X116058954Y-92490237D01*
X116219437Y-92434082D01*
X116363400Y-92343624D01*
X116483624Y-92223400D01*
X116574082Y-92079437D01*
X116630237Y-91918954D01*
X116630237Y-91918953D01*
X116630238Y-91918951D01*
X116649274Y-91750002D01*
X116649274Y-91749997D01*
X116630238Y-91581048D01*
X116592686Y-91473731D01*
X116574082Y-91420563D01*
X116483624Y-91276600D01*
X116363400Y-91156376D01*
X116287324Y-91108574D01*
X116219439Y-91065919D01*
X116219438Y-91065918D01*
X116219437Y-91065918D01*
X116184618Y-91053734D01*
X116127843Y-91013013D01*
X116102096Y-90948060D01*
X116115552Y-90879498D01*
X116139884Y-90849956D01*
X116138476Y-90848548D01*
X116187027Y-90799997D01*
X119930726Y-90799997D01*
X119930726Y-90800002D01*
X119949761Y-90968951D01*
X119979429Y-91053735D01*
X120002790Y-91120499D01*
X120005919Y-91129439D01*
X120054242Y-91206344D01*
X120096376Y-91273400D01*
X120216600Y-91393624D01*
X120360563Y-91484082D01*
X120481099Y-91526259D01*
X120521048Y-91540238D01*
X120689997Y-91559274D01*
X120690000Y-91559274D01*
X120690003Y-91559274D01*
X120858951Y-91540238D01*
X120858954Y-91540237D01*
X121019437Y-91484082D01*
X121140428Y-91408058D01*
X121207661Y-91389058D01*
X121274497Y-91409425D01*
X121311391Y-91447079D01*
X121381009Y-91557875D01*
X121381011Y-91557877D01*
X121501235Y-91678101D01*
X121645198Y-91768559D01*
X121767156Y-91811233D01*
X121805683Y-91824715D01*
X121974632Y-91843751D01*
X121974635Y-91843751D01*
X121974638Y-91843751D01*
X122076007Y-91832328D01*
X122143589Y-91824714D01*
X122257727Y-91784775D01*
X122310646Y-91766259D01*
X122311657Y-91769150D01*
X122367110Y-91759921D01*
X122393138Y-91765978D01*
X122491044Y-91800237D01*
X122659997Y-91819274D01*
X122660000Y-91819274D01*
X122660001Y-91819274D01*
X122673707Y-91817729D01*
X122765455Y-91807391D01*
X122834275Y-91819445D01*
X122855301Y-91832807D01*
X122856597Y-91833621D01*
X122856600Y-91833624D01*
X123000563Y-91924082D01*
X123107204Y-91961397D01*
X123161048Y-91980238D01*
X123329997Y-91999274D01*
X123330000Y-91999274D01*
X123330002Y-91999274D01*
X123502469Y-91979841D01*
X123571291Y-91991895D01*
X123622670Y-92039244D01*
X123637868Y-92084136D01*
X123638211Y-92084058D01*
X123638975Y-92087408D01*
X123639573Y-92089172D01*
X123639763Y-92090854D01*
X123671152Y-92180560D01*
X123695918Y-92251338D01*
X123756551Y-92347834D01*
X123786376Y-92395300D01*
X123906600Y-92515524D01*
X124050563Y-92605982D01*
X124172521Y-92648656D01*
X124211048Y-92662138D01*
X124379997Y-92681174D01*
X124380000Y-92681174D01*
X124380003Y-92681174D01*
X124548951Y-92662138D01*
X124548954Y-92662137D01*
X124709437Y-92605982D01*
X124853400Y-92515524D01*
X124973624Y-92395300D01*
X125064082Y-92251337D01*
X125120237Y-92090854D01*
X125120237Y-92090853D01*
X125120238Y-92090851D01*
X125139274Y-91921902D01*
X125139274Y-91921897D01*
X125120238Y-91752948D01*
X125102269Y-91701597D01*
X125064082Y-91592463D01*
X124973624Y-91448500D01*
X124853400Y-91328276D01*
X124771157Y-91276599D01*
X124709439Y-91237819D01*
X124709438Y-91237818D01*
X124709437Y-91237818D01*
X124663497Y-91221743D01*
X124548951Y-91181661D01*
X124380003Y-91162626D01*
X124379996Y-91162626D01*
X124207529Y-91182058D01*
X124138707Y-91170003D01*
X124087328Y-91122654D01*
X124072131Y-91077755D01*
X124071787Y-91077834D01*
X124071018Y-91074468D01*
X124070425Y-91072714D01*
X124070237Y-91071046D01*
X124064180Y-91053735D01*
X124014082Y-90910563D01*
X123923624Y-90766600D01*
X123803400Y-90646376D01*
X123779006Y-90631048D01*
X123659439Y-90555919D01*
X123659438Y-90555918D01*
X123659437Y-90555918D01*
X123620912Y-90542437D01*
X123498951Y-90499761D01*
X123330003Y-90480726D01*
X123329997Y-90480726D01*
X123224543Y-90492607D01*
X123155721Y-90480552D01*
X123134606Y-90467134D01*
X123081641Y-90433854D01*
X123016418Y-90392871D01*
X122989439Y-90375919D01*
X122989438Y-90375918D01*
X122989437Y-90375918D01*
X122950912Y-90362437D01*
X122828951Y-90319761D01*
X122660003Y-90300726D01*
X122659997Y-90300726D01*
X122491048Y-90319761D01*
X122361416Y-90365122D01*
X122330563Y-90375918D01*
X122330561Y-90375918D01*
X122323991Y-90378218D01*
X122322993Y-90375367D01*
X122267271Y-90384524D01*
X122241498Y-90378499D01*
X122143588Y-90344239D01*
X122143584Y-90344238D01*
X122084475Y-90337578D01*
X122020061Y-90310510D01*
X121980507Y-90252915D01*
X121975140Y-90200474D01*
X121978574Y-90170000D01*
X121978405Y-90168498D01*
X121959538Y-90001048D01*
X121925369Y-89903400D01*
X121903382Y-89840563D01*
X121812924Y-89696600D01*
X121726321Y-89609997D01*
X123620726Y-89609997D01*
X123620726Y-89610002D01*
X123639761Y-89778951D01*
X123695919Y-89939439D01*
X123748816Y-90023624D01*
X123786376Y-90083400D01*
X123906600Y-90203624D01*
X124050563Y-90294082D01*
X124163766Y-90333693D01*
X124211048Y-90350238D01*
X124379997Y-90369274D01*
X124380000Y-90369274D01*
X124380003Y-90369274D01*
X124548951Y-90350238D01*
X124551640Y-90349297D01*
X124709437Y-90294082D01*
X124819730Y-90224779D01*
X124886966Y-90205780D01*
X124943631Y-90222420D01*
X124944287Y-90221060D01*
X124950558Y-90224080D01*
X124950562Y-90224081D01*
X124950563Y-90224082D01*
X124952558Y-90224780D01*
X125111048Y-90280238D01*
X125279997Y-90299274D01*
X125280000Y-90299274D01*
X125280003Y-90299274D01*
X125448951Y-90280238D01*
X125449631Y-90280000D01*
X125609437Y-90224082D01*
X125753400Y-90133624D01*
X125762316Y-90124708D01*
X125823638Y-90091221D01*
X125893329Y-90096203D01*
X125937681Y-90124705D01*
X126016600Y-90203624D01*
X126160563Y-90294082D01*
X126273766Y-90333693D01*
X126321048Y-90350238D01*
X126489997Y-90369274D01*
X126490000Y-90369274D01*
X126490003Y-90369274D01*
X126658951Y-90350238D01*
X126661640Y-90349297D01*
X126819437Y-90294082D01*
X126963400Y-90203624D01*
X127083624Y-90083400D01*
X127163723Y-89955922D01*
X127216057Y-89909633D01*
X127285110Y-89898985D01*
X127348959Y-89927360D01*
X127373709Y-89955924D01*
X127466371Y-90103394D01*
X127466376Y-90103400D01*
X127586600Y-90223624D01*
X127730563Y-90314082D01*
X127831217Y-90349302D01*
X127891048Y-90370238D01*
X128059997Y-90389274D01*
X128060000Y-90389274D01*
X128060002Y-90389274D01*
X128183425Y-90375367D01*
X128191554Y-90374451D01*
X128260376Y-90386505D01*
X128311755Y-90433854D01*
X128322477Y-90456711D01*
X128335038Y-90492607D01*
X128375918Y-90609438D01*
X128434959Y-90703400D01*
X128466376Y-90753400D01*
X128586600Y-90873624D01*
X128730563Y-90964082D01*
X128823495Y-90996600D01*
X128891048Y-91020238D01*
X129059997Y-91039274D01*
X129060000Y-91039274D01*
X129060001Y-91039274D01*
X129070250Y-91038119D01*
X129127917Y-91031621D01*
X129196737Y-91043675D01*
X129248117Y-91091023D01*
X129265742Y-91158633D01*
X129258843Y-91195791D01*
X129249762Y-91221743D01*
X129249762Y-91221745D01*
X129230726Y-91390697D01*
X129230726Y-91390702D01*
X129249761Y-91559651D01*
X129272335Y-91624162D01*
X129299432Y-91701602D01*
X129305919Y-91720139D01*
X129355747Y-91799439D01*
X129396376Y-91864100D01*
X129516600Y-91984324D01*
X129660563Y-92074782D01*
X129772980Y-92114118D01*
X129821048Y-92130938D01*
X129989997Y-92149974D01*
X129990000Y-92149974D01*
X129990003Y-92149974D01*
X130158951Y-92130938D01*
X130158954Y-92130937D01*
X130319437Y-92074782D01*
X130463400Y-91984324D01*
X130583624Y-91864100D01*
X130674082Y-91720137D01*
X130730237Y-91559654D01*
X130730237Y-91559653D01*
X130730238Y-91559651D01*
X130749274Y-91390702D01*
X130749274Y-91390697D01*
X130730238Y-91221748D01*
X130701829Y-91140560D01*
X130674082Y-91061263D01*
X130663031Y-91043675D01*
X130658130Y-91035875D01*
X130639130Y-90968638D01*
X130659498Y-90901803D01*
X130712766Y-90856589D01*
X130777008Y-90846683D01*
X130800000Y-90849274D01*
X130800001Y-90849273D01*
X130800002Y-90849274D01*
X130800003Y-90849274D01*
X130968951Y-90830238D01*
X130968954Y-90830237D01*
X131129437Y-90774082D01*
X131273400Y-90683624D01*
X131393624Y-90563400D01*
X131484082Y-90419437D01*
X131489876Y-90402879D01*
X131528305Y-90349297D01*
X143160726Y-90349297D01*
X143160726Y-90349302D01*
X143179761Y-90518251D01*
X143219391Y-90631505D01*
X143224594Y-90646376D01*
X143235919Y-90678739D01*
X143267980Y-90729763D01*
X143326376Y-90822700D01*
X143446600Y-90942924D01*
X143590563Y-91033382D01*
X143702968Y-91072714D01*
X143751048Y-91089538D01*
X143919997Y-91108574D01*
X143920000Y-91108574D01*
X143920003Y-91108574D01*
X144088951Y-91089538D01*
X144088954Y-91089537D01*
X144249437Y-91033382D01*
X144393400Y-90942924D01*
X144513624Y-90822700D01*
X144604082Y-90678737D01*
X144660237Y-90518254D01*
X144660237Y-90518253D01*
X144660238Y-90518251D01*
X144679274Y-90349302D01*
X144679274Y-90349297D01*
X144660238Y-90180348D01*
X144643888Y-90133622D01*
X144604082Y-90019863D01*
X144513624Y-89875900D01*
X144393400Y-89755676D01*
X144313784Y-89705650D01*
X144249439Y-89665219D01*
X144249438Y-89665218D01*
X144249437Y-89665218D01*
X144210912Y-89651737D01*
X144088951Y-89609061D01*
X143920003Y-89590026D01*
X143919997Y-89590026D01*
X143751048Y-89609061D01*
X143590560Y-89665219D01*
X143446599Y-89755676D01*
X143326376Y-89875899D01*
X143235919Y-90019860D01*
X143179761Y-90180348D01*
X143160726Y-90349297D01*
X131528305Y-90349297D01*
X131530596Y-90346102D01*
X131565962Y-90326789D01*
X131659437Y-90294082D01*
X131803400Y-90203624D01*
X131923624Y-90083400D01*
X132014082Y-89939437D01*
X132070237Y-89778954D01*
X132070237Y-89778952D01*
X132070238Y-89778950D01*
X132078070Y-89709437D01*
X132082842Y-89667078D01*
X132109908Y-89602666D01*
X132140086Y-89575972D01*
X132223400Y-89523624D01*
X132343624Y-89403400D01*
X132434082Y-89259437D01*
X132490237Y-89098954D01*
X132490237Y-89098953D01*
X132490238Y-89098951D01*
X132509274Y-88930002D01*
X132509274Y-88929997D01*
X132490238Y-88761048D01*
X132470561Y-88704815D01*
X132434082Y-88600563D01*
X132343624Y-88456600D01*
X132223400Y-88336376D01*
X132137348Y-88282306D01*
X132079439Y-88245919D01*
X132079438Y-88245918D01*
X132079437Y-88245918D01*
X132036935Y-88231046D01*
X131918951Y-88189761D01*
X131750003Y-88170726D01*
X131749997Y-88170726D01*
X131581048Y-88189761D01*
X131420561Y-88245918D01*
X131370298Y-88277500D01*
X131303061Y-88296499D01*
X131263374Y-88289547D01*
X131178252Y-88259762D01*
X131009303Y-88240726D01*
X131009297Y-88240726D01*
X130840348Y-88259761D01*
X130679860Y-88315919D01*
X130535899Y-88406376D01*
X130415676Y-88526599D01*
X130325219Y-88670560D01*
X130269061Y-88831048D01*
X130250026Y-88999997D01*
X130250026Y-89000002D01*
X130269061Y-89168951D01*
X130325218Y-89329437D01*
X130337560Y-89349080D01*
X130356558Y-89416317D01*
X130336188Y-89483152D01*
X130320246Y-89502730D01*
X130206375Y-89616601D01*
X130115919Y-89760560D01*
X130059761Y-89921049D01*
X130041183Y-90085932D01*
X130014116Y-90150346D01*
X129956521Y-90189901D01*
X129886684Y-90192038D01*
X129826778Y-90156079D01*
X129800921Y-90113002D01*
X129797561Y-90103400D01*
X129744082Y-89950563D01*
X129737092Y-89939439D01*
X129681293Y-89850635D01*
X129653624Y-89806600D01*
X129533400Y-89686376D01*
X129422354Y-89616601D01*
X129389439Y-89595919D01*
X129389438Y-89595918D01*
X129389437Y-89595918D01*
X129339373Y-89578400D01*
X129228951Y-89539761D01*
X129060003Y-89520726D01*
X129059996Y-89520726D01*
X128928445Y-89535548D01*
X128859623Y-89523493D01*
X128808244Y-89476144D01*
X128797520Y-89453282D01*
X128744082Y-89300563D01*
X128734490Y-89285298D01*
X128671378Y-89184855D01*
X128653624Y-89156600D01*
X128533400Y-89036376D01*
X128453649Y-88986265D01*
X128389439Y-88945919D01*
X128389438Y-88945918D01*
X128389437Y-88945918D01*
X128343937Y-88929997D01*
X128228951Y-88889761D01*
X128060003Y-88870726D01*
X128059997Y-88870726D01*
X127891048Y-88889761D01*
X127730560Y-88945919D01*
X127586599Y-89036376D01*
X127466374Y-89156601D01*
X127386276Y-89284076D01*
X127333941Y-89330367D01*
X127264888Y-89341014D01*
X127201040Y-89312639D01*
X127176289Y-89284075D01*
X127098406Y-89160125D01*
X127079400Y-89094153D01*
X127079400Y-87871849D01*
X127099085Y-87804810D01*
X127151889Y-87759055D01*
X127221047Y-87749111D01*
X127284603Y-87778136D01*
X127320442Y-87830895D01*
X127375918Y-87989438D01*
X127466376Y-88133400D01*
X127586600Y-88253624D01*
X127730563Y-88344082D01*
X127843691Y-88383667D01*
X127891048Y-88400238D01*
X128059997Y-88419274D01*
X128060000Y-88419274D01*
X128060003Y-88419274D01*
X128228951Y-88400238D01*
X128228954Y-88400237D01*
X128389437Y-88344082D01*
X128533400Y-88253624D01*
X128653624Y-88133400D01*
X128744082Y-87989437D01*
X128800237Y-87828954D01*
X128800237Y-87828953D01*
X128800238Y-87828951D01*
X128819274Y-87660002D01*
X128819274Y-87659997D01*
X128800238Y-87491051D01*
X128800237Y-87491049D01*
X128800237Y-87491046D01*
X128768867Y-87401398D01*
X128765307Y-87331620D01*
X128780915Y-87294475D01*
X128784082Y-87289437D01*
X128840237Y-87128954D01*
X128854992Y-86998000D01*
X128859274Y-86960002D01*
X128859274Y-86959997D01*
X128839498Y-86784484D01*
X128851552Y-86715662D01*
X128875037Y-86682919D01*
X128927396Y-86630560D01*
X128986196Y-86571760D01*
X129076654Y-86427797D01*
X129132809Y-86267314D01*
X129132809Y-86267313D01*
X129132810Y-86267311D01*
X129148282Y-86129997D01*
X132800726Y-86129997D01*
X132800726Y-86130002D01*
X132819761Y-86298951D01*
X132861922Y-86419439D01*
X132864847Y-86427799D01*
X132875919Y-86459439D01*
X132929915Y-86545373D01*
X132966376Y-86603400D01*
X133086600Y-86723624D01*
X133230563Y-86814082D01*
X133346944Y-86854805D01*
X133391048Y-86870238D01*
X133559997Y-86889274D01*
X133560000Y-86889274D01*
X133560003Y-86889274D01*
X133728951Y-86870238D01*
X133750939Y-86862544D01*
X133889437Y-86814082D01*
X134033400Y-86723624D01*
X134153624Y-86603400D01*
X134244082Y-86459437D01*
X134300237Y-86298954D01*
X134300237Y-86298953D01*
X134300238Y-86298951D01*
X134319274Y-86130002D01*
X134319274Y-86129997D01*
X134300238Y-85961048D01*
X134286241Y-85921048D01*
X134244082Y-85800563D01*
X134153624Y-85656600D01*
X134033400Y-85536376D01*
X133983045Y-85504736D01*
X133889439Y-85445919D01*
X133889438Y-85445918D01*
X133889437Y-85445918D01*
X133850912Y-85432437D01*
X133728951Y-85389761D01*
X133560003Y-85370726D01*
X133559997Y-85370726D01*
X133391048Y-85389761D01*
X133230560Y-85445919D01*
X133086599Y-85536376D01*
X132966376Y-85656599D01*
X132875919Y-85800560D01*
X132819761Y-85961048D01*
X132800726Y-86129997D01*
X129148282Y-86129997D01*
X129151846Y-86098362D01*
X129151846Y-86098357D01*
X129132810Y-85929408D01*
X129118653Y-85888951D01*
X129076654Y-85768923D01*
X128986196Y-85624960D01*
X128865972Y-85504736D01*
X128824590Y-85478734D01*
X128722011Y-85414279D01*
X128722010Y-85414278D01*
X128722009Y-85414278D01*
X128683484Y-85400797D01*
X128561523Y-85358121D01*
X128392575Y-85339086D01*
X128392569Y-85339086D01*
X128223620Y-85358121D01*
X128063132Y-85414279D01*
X127919171Y-85504736D01*
X127798948Y-85624959D01*
X127708491Y-85768920D01*
X127652333Y-85929408D01*
X127633298Y-86098357D01*
X127633298Y-86098363D01*
X127653073Y-86273877D01*
X127641018Y-86342699D01*
X127617535Y-86375441D01*
X127506375Y-86486601D01*
X127415919Y-86630560D01*
X127359761Y-86791048D01*
X127340726Y-86959997D01*
X127340726Y-86960002D01*
X127359761Y-87128949D01*
X127359762Y-87128953D01*
X127391131Y-87218600D01*
X127394692Y-87288379D01*
X127379084Y-87325524D01*
X127375918Y-87330561D01*
X127320442Y-87489105D01*
X127279720Y-87545881D01*
X127214767Y-87571628D01*
X127146205Y-87558172D01*
X127095803Y-87509784D01*
X127079400Y-87448150D01*
X127079400Y-83382406D01*
X127079400Y-83382404D01*
X127039233Y-83232500D01*
X126999320Y-83163368D01*
X126961638Y-83098100D01*
X126470523Y-82606986D01*
X126437039Y-82545664D01*
X126434986Y-82533204D01*
X126430237Y-82491046D01*
X126374082Y-82330563D01*
X126283624Y-82186600D01*
X126163400Y-82066376D01*
X126019437Y-81975918D01*
X125976935Y-81961046D01*
X125858951Y-81919761D01*
X125690003Y-81900726D01*
X125689997Y-81900726D01*
X125521048Y-81919761D01*
X125360560Y-81975919D01*
X125216599Y-82066376D01*
X125096376Y-82186599D01*
X125005919Y-82330560D01*
X124949761Y-82491048D01*
X124930726Y-82659997D01*
X124930726Y-82660002D01*
X124949761Y-82828951D01*
X125005919Y-82989439D01*
X125096376Y-83133400D01*
X125216600Y-83253624D01*
X125360563Y-83344082D01*
X125521046Y-83400237D01*
X125563189Y-83404985D01*
X125627601Y-83432050D01*
X125636987Y-83440524D01*
X125864281Y-83667818D01*
X125897766Y-83729141D01*
X125900600Y-83755499D01*
X125900600Y-88814506D01*
X125880915Y-88881545D01*
X125828111Y-88927300D01*
X125758953Y-88937244D01*
X125710628Y-88919500D01*
X125609439Y-88855919D01*
X125609438Y-88855918D01*
X125609437Y-88855918D01*
X125538362Y-88831048D01*
X125448950Y-88799761D01*
X125357674Y-88789477D01*
X125293260Y-88762410D01*
X125253705Y-88704815D01*
X125251568Y-88634978D01*
X125254517Y-88625300D01*
X125260237Y-88608954D01*
X125279274Y-88440000D01*
X125276939Y-88419274D01*
X125260238Y-88271048D01*
X125246241Y-88231048D01*
X125204082Y-88110563D01*
X125113624Y-87966600D01*
X124993400Y-87846376D01*
X124987842Y-87842884D01*
X124971410Y-87832558D01*
X124925121Y-87780223D01*
X124914474Y-87711169D01*
X124942851Y-87647321D01*
X124971412Y-87622573D01*
X125033400Y-87583624D01*
X125153624Y-87463400D01*
X125244082Y-87319437D01*
X125300237Y-87158954D01*
X125300237Y-87158953D01*
X125300238Y-87158951D01*
X125319274Y-86990002D01*
X125319274Y-86989997D01*
X125300238Y-86821048D01*
X125271819Y-86739831D01*
X125244082Y-86660563D01*
X125153624Y-86516600D01*
X125069705Y-86432681D01*
X125036220Y-86371358D01*
X125041204Y-86301666D01*
X125069705Y-86257319D01*
X125080267Y-86246757D01*
X125133624Y-86193400D01*
X125224082Y-86049437D01*
X125280237Y-85888954D01*
X125280237Y-85888953D01*
X125280238Y-85888951D01*
X125299274Y-85720002D01*
X125299274Y-85719997D01*
X125280238Y-85551048D01*
X125266756Y-85512521D01*
X125224082Y-85390563D01*
X125133624Y-85246600D01*
X125013400Y-85126376D01*
X124975107Y-85102315D01*
X124869439Y-85035919D01*
X124869438Y-85035918D01*
X124869437Y-85035918D01*
X124830912Y-85022437D01*
X124708951Y-84979761D01*
X124540003Y-84960726D01*
X124539997Y-84960726D01*
X124371048Y-84979761D01*
X124210560Y-85035919D01*
X124066599Y-85126376D01*
X123946376Y-85246599D01*
X123855919Y-85390560D01*
X123799761Y-85551048D01*
X123780726Y-85719997D01*
X123780726Y-85720002D01*
X123799761Y-85888951D01*
X123855919Y-86049439D01*
X123946376Y-86193400D01*
X124030295Y-86277319D01*
X124063780Y-86338642D01*
X124058796Y-86408334D01*
X124030295Y-86452681D01*
X123966376Y-86516599D01*
X123875919Y-86660560D01*
X123819761Y-86821048D01*
X123800726Y-86989997D01*
X123800726Y-86990002D01*
X123819761Y-87158951D01*
X123844706Y-87230238D01*
X123872997Y-87311090D01*
X123875919Y-87319439D01*
X123882909Y-87330563D01*
X123966376Y-87463400D01*
X124086600Y-87583624D01*
X124108124Y-87597148D01*
X124108588Y-87597440D01*
X124154878Y-87649775D01*
X124165525Y-87718829D01*
X124137149Y-87782677D01*
X124108587Y-87807426D01*
X124046602Y-87846374D01*
X124046599Y-87846376D01*
X123926376Y-87966599D01*
X123835919Y-88110560D01*
X123779761Y-88271048D01*
X123760726Y-88439997D01*
X123760726Y-88440002D01*
X123779761Y-88608951D01*
X123821922Y-88729439D01*
X123827688Y-88745918D01*
X123835919Y-88769439D01*
X123905870Y-88880765D01*
X123924870Y-88948002D01*
X123904502Y-89014837D01*
X123888558Y-89034418D01*
X123786375Y-89136601D01*
X123695919Y-89280560D01*
X123639761Y-89441048D01*
X123620726Y-89609997D01*
X121726321Y-89609997D01*
X121692700Y-89576376D01*
X121649058Y-89548954D01*
X121548739Y-89485919D01*
X121548738Y-89485918D01*
X121548737Y-89485918D01*
X121510212Y-89472437D01*
X121388251Y-89429761D01*
X121219303Y-89410726D01*
X121219297Y-89410726D01*
X121050348Y-89429761D01*
X120889860Y-89485919D01*
X120745899Y-89576376D01*
X120625676Y-89696599D01*
X120535218Y-89840561D01*
X120479060Y-90001054D01*
X120477511Y-90007842D01*
X120476040Y-90007506D01*
X120452101Y-90064463D01*
X120396911Y-90103198D01*
X120360564Y-90115916D01*
X120216599Y-90206376D01*
X120096376Y-90326599D01*
X120005919Y-90470560D01*
X119949761Y-90631048D01*
X119930726Y-90799997D01*
X116187027Y-90799997D01*
X116189948Y-90797076D01*
X116263624Y-90723400D01*
X116354082Y-90579437D01*
X116410237Y-90418954D01*
X116410237Y-90418953D01*
X116410238Y-90418951D01*
X116429274Y-90250002D01*
X116429274Y-90249997D01*
X116410238Y-90081048D01*
X116384504Y-90007506D01*
X116354082Y-89920563D01*
X116263624Y-89776600D01*
X116143400Y-89656376D01*
X116101423Y-89630000D01*
X115999439Y-89565919D01*
X115999438Y-89565918D01*
X115999437Y-89565918D01*
X115838954Y-89509763D01*
X115838953Y-89509762D01*
X115838951Y-89509762D01*
X115796807Y-89505013D01*
X115732393Y-89477946D01*
X115723011Y-89469474D01*
X115491202Y-89237665D01*
X115491200Y-89237663D01*
X115429430Y-89202000D01*
X115356803Y-89160068D01*
X115356804Y-89160068D01*
X115343857Y-89156599D01*
X115206896Y-89119900D01*
X108668296Y-89119900D01*
X108513104Y-89119900D01*
X108376143Y-89156599D01*
X108363196Y-89160068D01*
X108228803Y-89237661D01*
X108228797Y-89237665D01*
X106440873Y-91025589D01*
X106379550Y-91059074D01*
X106309858Y-91054090D01*
X106253925Y-91012218D01*
X106248198Y-91003880D01*
X106243623Y-90996599D01*
X106123400Y-90876376D01*
X105979439Y-90785919D01*
X105979438Y-90785918D01*
X105979437Y-90785918D01*
X105924226Y-90766599D01*
X105818951Y-90729761D01*
X105650003Y-90710726D01*
X105649997Y-90710726D01*
X105481048Y-90729761D01*
X105320560Y-90785919D01*
X105176599Y-90876376D01*
X105056376Y-90996599D01*
X104965919Y-91140560D01*
X104909761Y-91301048D01*
X104890726Y-91469997D01*
X104890726Y-91470002D01*
X104909761Y-91638951D01*
X104965919Y-91799439D01*
X105056376Y-91943400D01*
X105176601Y-92063625D01*
X105183882Y-92068200D01*
X105230172Y-92120536D01*
X105240818Y-92189590D01*
X105212441Y-92253438D01*
X105205588Y-92260873D01*
X103576987Y-93889474D01*
X103515664Y-93922959D01*
X103503192Y-93925013D01*
X103461051Y-93929761D01*
X103300561Y-93985918D01*
X103156599Y-94076376D01*
X103036376Y-94196599D01*
X102945919Y-94340560D01*
X102889761Y-94501048D01*
X102870726Y-94669997D01*
X97587091Y-94669997D01*
X97511007Y-94622888D01*
X97511001Y-94622885D01*
X97356348Y-94562973D01*
X97314776Y-94546868D01*
X97107920Y-94508200D01*
X96897480Y-94508200D01*
X96690624Y-94546868D01*
X96690621Y-94546868D01*
X96690621Y-94546869D01*
X96494398Y-94622885D01*
X96494392Y-94622888D01*
X96315478Y-94733667D01*
X96315476Y-94733669D01*
X96159961Y-94875439D01*
X96033142Y-95043374D01*
X95939342Y-95231749D01*
X95934577Y-95248498D01*
X95882395Y-95431900D01*
X95881751Y-95434162D01*
X95862335Y-95643699D01*
X80764500Y-95643699D01*
X80764500Y-94373699D01*
X93322335Y-94373699D01*
X93322335Y-94373700D01*
X93341751Y-94583237D01*
X93341751Y-94583239D01*
X93341752Y-94583242D01*
X93394093Y-94767202D01*
X93399342Y-94785650D01*
X93427172Y-94841540D01*
X93493142Y-94974025D01*
X93574229Y-95081402D01*
X93619961Y-95141960D01*
X93775476Y-95283730D01*
X93775478Y-95283732D01*
X93954392Y-95394511D01*
X93954398Y-95394514D01*
X93956812Y-95395449D01*
X94150624Y-95470532D01*
X94357480Y-95509200D01*
X94357482Y-95509200D01*
X94567918Y-95509200D01*
X94567920Y-95509200D01*
X94774776Y-95470532D01*
X94971004Y-95394513D01*
X95149923Y-95283731D01*
X95305440Y-95141959D01*
X95432258Y-94974025D01*
X95526059Y-94785647D01*
X95583648Y-94583242D01*
X95603065Y-94373700D01*
X95583648Y-94164158D01*
X95526059Y-93961753D01*
X95432258Y-93773375D01*
X95305440Y-93605441D01*
X95149923Y-93463669D01*
X95149921Y-93463667D01*
X94971007Y-93352888D01*
X94971001Y-93352885D01*
X94816348Y-93292973D01*
X94774776Y-93276868D01*
X94567920Y-93238200D01*
X94357480Y-93238200D01*
X94150624Y-93276868D01*
X94150621Y-93276868D01*
X94150621Y-93276869D01*
X93954398Y-93352885D01*
X93954392Y-93352888D01*
X93775478Y-93463667D01*
X93775476Y-93463669D01*
X93619961Y-93605439D01*
X93493142Y-93773374D01*
X93399342Y-93961749D01*
X93341751Y-94164162D01*
X93322335Y-94373699D01*
X80764500Y-94373699D01*
X80764500Y-93103699D01*
X95862335Y-93103699D01*
X95862335Y-93103700D01*
X95881751Y-93313237D01*
X95881751Y-93313239D01*
X95881752Y-93313242D01*
X95924552Y-93463669D01*
X95939342Y-93515650D01*
X95960168Y-93557474D01*
X96033142Y-93704025D01*
X96065915Y-93747424D01*
X96159961Y-93871960D01*
X96218158Y-93925013D01*
X96284967Y-93985918D01*
X96315476Y-94013730D01*
X96315478Y-94013732D01*
X96494392Y-94124511D01*
X96494398Y-94124514D01*
X96535968Y-94140618D01*
X96690624Y-94200532D01*
X96897480Y-94239200D01*
X96897482Y-94239200D01*
X97107918Y-94239200D01*
X97107920Y-94239200D01*
X97314776Y-94200532D01*
X97511004Y-94124513D01*
X97689923Y-94013731D01*
X97845440Y-93871959D01*
X97972258Y-93704025D01*
X98066059Y-93515647D01*
X98123648Y-93313242D01*
X98143065Y-93103700D01*
X98123648Y-92894158D01*
X98066059Y-92691753D01*
X97972258Y-92503375D01*
X97845440Y-92335441D01*
X97833767Y-92324800D01*
X97689923Y-92193669D01*
X97689921Y-92193667D01*
X97511007Y-92082888D01*
X97511001Y-92082885D01*
X97356348Y-92022973D01*
X97314776Y-92006868D01*
X97107920Y-91968200D01*
X96897480Y-91968200D01*
X96690624Y-92006868D01*
X96690621Y-92006868D01*
X96690621Y-92006869D01*
X96494398Y-92082885D01*
X96494392Y-92082888D01*
X96315478Y-92193667D01*
X96315476Y-92193669D01*
X96159961Y-92335439D01*
X96033142Y-92503374D01*
X95939342Y-92691749D01*
X95881751Y-92894162D01*
X95862335Y-93103699D01*
X80764500Y-93103699D01*
X80764500Y-91833699D01*
X93322335Y-91833699D01*
X93322335Y-91833700D01*
X93341751Y-92043237D01*
X93341751Y-92043239D01*
X93341752Y-92043242D01*
X93393011Y-92223400D01*
X93399342Y-92245650D01*
X93450222Y-92347830D01*
X93493142Y-92434025D01*
X93574229Y-92541402D01*
X93619961Y-92601960D01*
X93775476Y-92743730D01*
X93775478Y-92743732D01*
X93954392Y-92854511D01*
X93954398Y-92854514D01*
X93956027Y-92855145D01*
X94150624Y-92930532D01*
X94357480Y-92969200D01*
X94357482Y-92969200D01*
X94567918Y-92969200D01*
X94567920Y-92969200D01*
X94774776Y-92930532D01*
X94971004Y-92854513D01*
X95149923Y-92743731D01*
X95305440Y-92601959D01*
X95432258Y-92434025D01*
X95526059Y-92245647D01*
X95583648Y-92043242D01*
X95603065Y-91833700D01*
X95583648Y-91624158D01*
X95526059Y-91421753D01*
X95432258Y-91233375D01*
X95305440Y-91065441D01*
X95272418Y-91035338D01*
X95149923Y-90923669D01*
X95149921Y-90923667D01*
X94971007Y-90812888D01*
X94971001Y-90812885D01*
X94816348Y-90752973D01*
X94774776Y-90736868D01*
X94567920Y-90698200D01*
X94357480Y-90698200D01*
X94150624Y-90736868D01*
X94150621Y-90736868D01*
X94150621Y-90736869D01*
X93954398Y-90812885D01*
X93954392Y-90812888D01*
X93775478Y-90923667D01*
X93775476Y-90923669D01*
X93619961Y-91065439D01*
X93493142Y-91233374D01*
X93399342Y-91421749D01*
X93341751Y-91624162D01*
X93322335Y-91833699D01*
X80764500Y-91833699D01*
X80764500Y-90563699D01*
X95862335Y-90563699D01*
X95862335Y-90563700D01*
X95881751Y-90773237D01*
X95881751Y-90773239D01*
X95881752Y-90773242D01*
X95937347Y-90968638D01*
X95939342Y-90975650D01*
X95990224Y-91077834D01*
X96033142Y-91164025D01*
X96156032Y-91326758D01*
X96159961Y-91331960D01*
X96237718Y-91402845D01*
X96311386Y-91470002D01*
X96315476Y-91473730D01*
X96315478Y-91473732D01*
X96494392Y-91584511D01*
X96494398Y-91584514D01*
X96514917Y-91592463D01*
X96690624Y-91660532D01*
X96897480Y-91699200D01*
X96897482Y-91699200D01*
X97107918Y-91699200D01*
X97107920Y-91699200D01*
X97314776Y-91660532D01*
X97511004Y-91584513D01*
X97689923Y-91473731D01*
X97845440Y-91331959D01*
X97943299Y-91202373D01*
X97999408Y-91160737D01*
X98042253Y-91153100D01*
X100213893Y-91153100D01*
X100213896Y-91153100D01*
X100363800Y-91112933D01*
X100498200Y-91035337D01*
X101323013Y-90210522D01*
X101384334Y-90177039D01*
X101396793Y-90174987D01*
X101438954Y-90170237D01*
X101599437Y-90114082D01*
X101743400Y-90023624D01*
X101863624Y-89903400D01*
X101954082Y-89759437D01*
X102010237Y-89598954D01*
X102010237Y-89598953D01*
X102010238Y-89598951D01*
X102029274Y-89430002D01*
X102029274Y-89429997D01*
X102023640Y-89379997D01*
X102910726Y-89379997D01*
X102910726Y-89380002D01*
X102929761Y-89548951D01*
X102985919Y-89709439D01*
X103029598Y-89778954D01*
X103076376Y-89853400D01*
X103196600Y-89973624D01*
X103340563Y-90064082D01*
X103452351Y-90103198D01*
X103501048Y-90120238D01*
X103669997Y-90139274D01*
X103670000Y-90139274D01*
X103670003Y-90139274D01*
X103838951Y-90120238D01*
X103851297Y-90115918D01*
X103999437Y-90064082D01*
X104143400Y-89973624D01*
X104263624Y-89853400D01*
X104354082Y-89709437D01*
X104410237Y-89548954D01*
X104414985Y-89506808D01*
X104442049Y-89442397D01*
X104450514Y-89433021D01*
X105483539Y-88399997D01*
X117490726Y-88399997D01*
X117490726Y-88400002D01*
X117509761Y-88568951D01*
X117543841Y-88666344D01*
X117564365Y-88725000D01*
X117565919Y-88729439D01*
X117610107Y-88799763D01*
X117656376Y-88873400D01*
X117776600Y-88993624D01*
X117920563Y-89084082D01*
X118022926Y-89119900D01*
X118081048Y-89140238D01*
X118249997Y-89159274D01*
X118250000Y-89159274D01*
X118250003Y-89159274D01*
X118418951Y-89140238D01*
X118429348Y-89136600D01*
X118579437Y-89084082D01*
X118723400Y-88993624D01*
X118843624Y-88873400D01*
X118934082Y-88729437D01*
X118990237Y-88568954D01*
X118990237Y-88568953D01*
X118990238Y-88568951D01*
X119009274Y-88400002D01*
X119009274Y-88399997D01*
X118990238Y-88231048D01*
X118948077Y-88110560D01*
X118934082Y-88070563D01*
X118843624Y-87926600D01*
X118723400Y-87806376D01*
X118648089Y-87759055D01*
X118579439Y-87715919D01*
X118579438Y-87715918D01*
X118579437Y-87715918D01*
X118538478Y-87701586D01*
X118418951Y-87659761D01*
X118250003Y-87640726D01*
X118249997Y-87640726D01*
X118081048Y-87659761D01*
X117920560Y-87715919D01*
X117776599Y-87806376D01*
X117656376Y-87926599D01*
X117565919Y-88070560D01*
X117509761Y-88231048D01*
X117490726Y-88399997D01*
X105483539Y-88399997D01*
X106891637Y-86991900D01*
X106969233Y-86857500D01*
X106971435Y-86849279D01*
X106971438Y-86849275D01*
X106971437Y-86849275D01*
X106984273Y-86801370D01*
X107009400Y-86707596D01*
X107009400Y-85149297D01*
X120330726Y-85149297D01*
X120330726Y-85149302D01*
X120349761Y-85318251D01*
X120380438Y-85405919D01*
X120405918Y-85478737D01*
X120496376Y-85622700D01*
X120616600Y-85742924D01*
X120760563Y-85833382D01*
X120882521Y-85876056D01*
X120921048Y-85889538D01*
X121089997Y-85908574D01*
X121090000Y-85908574D01*
X121090003Y-85908574D01*
X121258951Y-85889538D01*
X121260629Y-85888951D01*
X121419437Y-85833382D01*
X121563400Y-85742924D01*
X121683624Y-85622700D01*
X121774082Y-85478737D01*
X121808212Y-85381193D01*
X121848933Y-85324419D01*
X121860541Y-85317211D01*
X121860222Y-85316702D01*
X121866117Y-85312997D01*
X121866119Y-85312997D01*
X122010082Y-85222539D01*
X122130306Y-85102315D01*
X122220764Y-84958352D01*
X122276919Y-84797869D01*
X122276919Y-84797868D01*
X122276920Y-84797866D01*
X122295956Y-84628917D01*
X122295956Y-84628912D01*
X122276920Y-84459963D01*
X122259240Y-84409437D01*
X122220764Y-84299478D01*
X122130306Y-84155515D01*
X122010082Y-84035291D01*
X121866119Y-83944833D01*
X121827594Y-83931352D01*
X121705633Y-83888676D01*
X121536685Y-83869641D01*
X121536679Y-83869641D01*
X121367730Y-83888676D01*
X121207242Y-83944834D01*
X121063281Y-84035291D01*
X120943058Y-84155514D01*
X120852599Y-84299477D01*
X120852598Y-84299481D01*
X120818467Y-84397021D01*
X120777745Y-84453797D01*
X120766143Y-84461010D01*
X120766459Y-84461513D01*
X120616599Y-84555676D01*
X120496376Y-84675899D01*
X120405919Y-84819860D01*
X120349761Y-84980348D01*
X120330726Y-85149297D01*
X107009400Y-85149297D01*
X107009400Y-82129997D01*
X118720726Y-82129997D01*
X118720726Y-82130002D01*
X118739761Y-82298951D01*
X118795919Y-82459439D01*
X118842258Y-82533187D01*
X118886376Y-82603400D01*
X119006600Y-82723624D01*
X119150563Y-82814082D01*
X119272521Y-82856756D01*
X119311048Y-82870238D01*
X119479997Y-82889274D01*
X119480000Y-82889274D01*
X119480003Y-82889274D01*
X119648951Y-82870238D01*
X119664335Y-82864855D01*
X119809437Y-82814082D01*
X119953400Y-82723624D01*
X120073624Y-82603400D01*
X120164082Y-82459437D01*
X120220237Y-82298954D01*
X120220237Y-82298953D01*
X120220238Y-82298951D01*
X120239274Y-82130002D01*
X120239274Y-82129997D01*
X120220238Y-81961048D01*
X120199130Y-81900726D01*
X120164082Y-81800563D01*
X120073624Y-81656600D01*
X119953400Y-81536376D01*
X119809437Y-81445918D01*
X119770912Y-81432437D01*
X119648951Y-81389761D01*
X119480003Y-81370726D01*
X119479997Y-81370726D01*
X119311048Y-81389761D01*
X119150560Y-81445919D01*
X119006599Y-81536376D01*
X118886376Y-81656599D01*
X118795919Y-81800560D01*
X118739761Y-81961048D01*
X118720726Y-82129997D01*
X107009400Y-82129997D01*
X107009400Y-80193246D01*
X117271693Y-80193246D01*
X117271693Y-80193251D01*
X117290728Y-80362200D01*
X117325316Y-80461046D01*
X117346885Y-80522686D01*
X117437343Y-80666649D01*
X117557567Y-80786873D01*
X117701530Y-80877331D01*
X117823488Y-80920005D01*
X117862015Y-80933487D01*
X118030964Y-80952523D01*
X118030967Y-80952523D01*
X118030970Y-80952523D01*
X118199918Y-80933487D01*
X118199921Y-80933486D01*
X118360404Y-80877331D01*
X118504367Y-80786873D01*
X118624591Y-80666649D01*
X118647621Y-80629997D01*
X134670726Y-80629997D01*
X134670726Y-80630002D01*
X134689761Y-80798951D01*
X134717187Y-80877329D01*
X134745918Y-80959437D01*
X134836376Y-81103400D01*
X134956600Y-81223624D01*
X135100563Y-81314082D01*
X135222521Y-81356756D01*
X135261048Y-81370238D01*
X135429997Y-81389274D01*
X135430000Y-81389274D01*
X135430003Y-81389274D01*
X135598951Y-81370238D01*
X135598954Y-81370237D01*
X135759437Y-81314082D01*
X135903400Y-81223624D01*
X136023624Y-81103400D01*
X136114082Y-80959437D01*
X136170237Y-80798954D01*
X136170237Y-80798953D01*
X136170238Y-80798951D01*
X136189274Y-80630002D01*
X136189274Y-80629997D01*
X136170238Y-80461048D01*
X136146805Y-80394080D01*
X136114082Y-80300563D01*
X136023624Y-80156600D01*
X135903400Y-80036376D01*
X135884173Y-80024295D01*
X135759439Y-79945919D01*
X135759438Y-79945918D01*
X135759437Y-79945918D01*
X135720912Y-79932437D01*
X135598951Y-79889761D01*
X135430003Y-79870726D01*
X135429997Y-79870726D01*
X135261048Y-79889761D01*
X135100560Y-79945919D01*
X134956599Y-80036376D01*
X134836376Y-80156599D01*
X134745919Y-80300560D01*
X134689761Y-80461048D01*
X134670726Y-80629997D01*
X118647621Y-80629997D01*
X118715049Y-80522686D01*
X118771204Y-80362203D01*
X118771204Y-80362202D01*
X118771205Y-80362200D01*
X118790241Y-80193251D01*
X118790241Y-80193246D01*
X118771205Y-80024297D01*
X118743779Y-79945918D01*
X118715049Y-79863812D01*
X118624591Y-79719849D01*
X118504367Y-79599625D01*
X118360406Y-79509168D01*
X118360405Y-79509167D01*
X118360404Y-79509167D01*
X118321879Y-79495686D01*
X118199918Y-79453010D01*
X118030970Y-79433975D01*
X118030964Y-79433975D01*
X117862015Y-79453010D01*
X117701527Y-79509168D01*
X117557566Y-79599625D01*
X117437343Y-79719848D01*
X117346886Y-79863809D01*
X117290728Y-80024297D01*
X117271693Y-80193246D01*
X107009400Y-80193246D01*
X107009400Y-77099997D01*
X108770726Y-77099997D01*
X108770726Y-77100002D01*
X108789761Y-77268951D01*
X108845919Y-77429439D01*
X108901252Y-77517500D01*
X108936376Y-77573400D01*
X109056600Y-77693624D01*
X109200563Y-77784082D01*
X109322521Y-77826756D01*
X109361048Y-77840238D01*
X109529997Y-77859274D01*
X109530000Y-77859274D01*
X109530003Y-77859274D01*
X109698951Y-77840238D01*
X109698954Y-77840237D01*
X109859437Y-77784082D01*
X110003400Y-77693624D01*
X110003404Y-77693619D01*
X110008843Y-77689283D01*
X110010608Y-77691496D01*
X110060700Y-77664111D01*
X110130394Y-77669060D01*
X110153091Y-77680269D01*
X110174345Y-77693624D01*
X110270560Y-77754080D01*
X110270558Y-77754080D01*
X110270562Y-77754081D01*
X110270563Y-77754082D01*
X110343554Y-77779622D01*
X110431048Y-77810238D01*
X110599997Y-77829274D01*
X110600000Y-77829274D01*
X110600003Y-77829274D01*
X110768951Y-77810238D01*
X110768954Y-77810237D01*
X110929437Y-77754082D01*
X111073400Y-77663624D01*
X111193624Y-77543400D01*
X111284082Y-77399437D01*
X111340237Y-77238954D01*
X111340237Y-77238953D01*
X111340238Y-77238951D01*
X111359274Y-77070002D01*
X111359274Y-77069997D01*
X111340238Y-76901048D01*
X111294578Y-76770560D01*
X111284082Y-76740563D01*
X111193624Y-76596600D01*
X111073400Y-76476376D01*
X110999593Y-76430000D01*
X110929439Y-76385919D01*
X110929438Y-76385918D01*
X110929437Y-76385918D01*
X110890912Y-76372437D01*
X110768951Y-76329761D01*
X110600003Y-76310726D01*
X110599997Y-76310726D01*
X110431048Y-76329761D01*
X110270560Y-76385919D01*
X110126599Y-76476376D01*
X110121157Y-76480717D01*
X110119405Y-76478520D01*
X110069173Y-76505915D01*
X109999484Y-76500894D01*
X109976906Y-76489729D01*
X109859439Y-76415919D01*
X109859438Y-76415918D01*
X109859437Y-76415918D01*
X109820912Y-76402437D01*
X109698951Y-76359761D01*
X109530003Y-76340726D01*
X109529997Y-76340726D01*
X109361048Y-76359761D01*
X109200560Y-76415919D01*
X109056599Y-76506376D01*
X108936376Y-76626599D01*
X108845919Y-76770560D01*
X108789761Y-76931048D01*
X108770726Y-77099997D01*
X107009400Y-77099997D01*
X107009400Y-75148543D01*
X129129499Y-75148543D01*
X129167947Y-75341829D01*
X129167950Y-75341839D01*
X129243364Y-75523907D01*
X129243371Y-75523920D01*
X129352860Y-75687781D01*
X129352863Y-75687785D01*
X129492214Y-75827136D01*
X129492218Y-75827139D01*
X129656079Y-75936628D01*
X129656092Y-75936635D01*
X129838160Y-76012049D01*
X129838165Y-76012051D01*
X129838169Y-76012051D01*
X129838170Y-76012052D01*
X130031456Y-76050500D01*
X130031459Y-76050500D01*
X130228543Y-76050500D01*
X130358582Y-76024632D01*
X130421835Y-76012051D01*
X130603914Y-75936632D01*
X130767782Y-75827139D01*
X130907139Y-75687782D01*
X131016632Y-75523914D01*
X131092051Y-75341835D01*
X131111787Y-75242616D01*
X131130500Y-75148543D01*
X131130500Y-74489304D01*
X131150185Y-74422265D01*
X131202989Y-74376510D01*
X131272147Y-74366566D01*
X131316501Y-74381918D01*
X131385335Y-74421660D01*
X131385336Y-74421660D01*
X131385341Y-74421663D01*
X131500427Y-74452500D01*
X131500429Y-74452500D01*
X131619571Y-74452500D01*
X131619573Y-74452500D01*
X131734659Y-74421663D01*
X131837842Y-74362090D01*
X131922090Y-74277842D01*
X131981663Y-74174659D01*
X132012500Y-74059573D01*
X132012500Y-73940427D01*
X136887500Y-73940427D01*
X136887500Y-74059572D01*
X136918337Y-74174660D01*
X136926993Y-74189652D01*
X136977910Y-74277842D01*
X137062158Y-74362090D01*
X137151514Y-74413680D01*
X137165337Y-74421661D01*
X137165341Y-74421663D01*
X137280427Y-74452500D01*
X137280429Y-74452500D01*
X137399571Y-74452500D01*
X137399573Y-74452500D01*
X137514659Y-74421663D01*
X137583499Y-74381917D01*
X137651399Y-74365444D01*
X137717426Y-74388296D01*
X137760617Y-74443216D01*
X137769500Y-74489304D01*
X137769500Y-75148541D01*
X137769500Y-75148543D01*
X137769499Y-75148543D01*
X137807947Y-75341829D01*
X137807950Y-75341839D01*
X137883364Y-75523907D01*
X137883371Y-75523920D01*
X137992860Y-75687781D01*
X137992863Y-75687785D01*
X138132214Y-75827136D01*
X138132218Y-75827139D01*
X138296079Y-75936628D01*
X138296092Y-75936635D01*
X138478160Y-76012049D01*
X138478165Y-76012051D01*
X138478169Y-76012051D01*
X138478170Y-76012052D01*
X138671456Y-76050500D01*
X138671459Y-76050500D01*
X138868543Y-76050500D01*
X138963644Y-76031582D01*
X140992500Y-76031582D01*
X140992500Y-76248417D01*
X141026418Y-76462566D01*
X141093418Y-76668774D01*
X141191856Y-76861968D01*
X141319301Y-77037381D01*
X141472619Y-77190699D01*
X141648032Y-77318144D01*
X141807578Y-77399437D01*
X141841225Y-77416581D01*
X141944329Y-77450081D01*
X142047435Y-77483582D01*
X142129490Y-77496578D01*
X142261583Y-77517500D01*
X142261588Y-77517500D01*
X142478417Y-77517500D01*
X142582233Y-77501056D01*
X142692565Y-77483582D01*
X142898777Y-77416580D01*
X143091968Y-77318144D01*
X143267381Y-77190699D01*
X143420699Y-77037381D01*
X143548144Y-76861968D01*
X143646580Y-76668777D01*
X143713582Y-76462565D01*
X143718740Y-76429999D01*
X145574341Y-76429999D01*
X145574341Y-76430000D01*
X145594936Y-76665403D01*
X145594938Y-76665413D01*
X145656094Y-76893655D01*
X145656096Y-76893659D01*
X145656097Y-76893663D01*
X145751093Y-77097381D01*
X145755965Y-77107830D01*
X145755967Y-77107834D01*
X145891501Y-77301395D01*
X145891506Y-77301402D01*
X146058597Y-77468493D01*
X146058603Y-77468498D01*
X146244158Y-77598425D01*
X146287783Y-77653002D01*
X146294977Y-77722500D01*
X146263454Y-77784855D01*
X146244158Y-77801575D01*
X146058597Y-77931505D01*
X145891505Y-78098597D01*
X145755965Y-78292169D01*
X145755964Y-78292171D01*
X145656098Y-78506335D01*
X145656094Y-78506344D01*
X145594938Y-78734586D01*
X145594936Y-78734596D01*
X145574341Y-78969999D01*
X145574341Y-78970000D01*
X145594936Y-79205403D01*
X145594938Y-79205413D01*
X145656094Y-79433655D01*
X145656096Y-79433659D01*
X145656097Y-79433663D01*
X145691306Y-79509168D01*
X145755965Y-79647830D01*
X145755967Y-79647834D01*
X145891501Y-79841395D01*
X145891506Y-79841402D01*
X146058597Y-80008493D01*
X146058603Y-80008498D01*
X146244158Y-80138425D01*
X146287783Y-80193002D01*
X146294977Y-80262500D01*
X146263454Y-80324855D01*
X146244158Y-80341575D01*
X146058597Y-80471505D01*
X145891505Y-80638597D01*
X145755965Y-80832169D01*
X145755964Y-80832171D01*
X145656098Y-81046335D01*
X145656094Y-81046344D01*
X145594938Y-81274586D01*
X145594936Y-81274596D01*
X145574341Y-81509999D01*
X145574341Y-81510000D01*
X145594936Y-81745403D01*
X145594938Y-81745413D01*
X145656094Y-81973655D01*
X145656096Y-81973659D01*
X145656097Y-81973663D01*
X145699330Y-82066376D01*
X145755965Y-82187830D01*
X145755967Y-82187834D01*
X145891501Y-82381395D01*
X145891506Y-82381402D01*
X146058597Y-82548493D01*
X146058603Y-82548498D01*
X146244158Y-82678425D01*
X146287783Y-82733002D01*
X146294977Y-82802500D01*
X146263454Y-82864855D01*
X146244158Y-82881575D01*
X146058597Y-83011505D01*
X145891505Y-83178597D01*
X145755965Y-83372169D01*
X145755964Y-83372171D01*
X145724091Y-83440524D01*
X145658714Y-83580726D01*
X145656098Y-83586335D01*
X145656094Y-83586344D01*
X145594938Y-83814586D01*
X145594936Y-83814596D01*
X145574341Y-84049999D01*
X145574341Y-84050000D01*
X145594936Y-84285403D01*
X145594938Y-84285413D01*
X145656094Y-84513655D01*
X145656096Y-84513659D01*
X145656097Y-84513663D01*
X145672904Y-84549705D01*
X145755965Y-84727830D01*
X145755967Y-84727834D01*
X145891501Y-84921395D01*
X145891506Y-84921402D01*
X146058597Y-85088493D01*
X146058603Y-85088498D01*
X146244158Y-85218425D01*
X146287783Y-85273002D01*
X146294977Y-85342500D01*
X146263454Y-85404855D01*
X146244158Y-85421575D01*
X146058597Y-85551505D01*
X145891505Y-85718597D01*
X145755965Y-85912169D01*
X145755964Y-85912171D01*
X145656098Y-86126335D01*
X145656094Y-86126344D01*
X145594938Y-86354586D01*
X145594936Y-86354596D01*
X145574341Y-86589999D01*
X145574341Y-86590000D01*
X145594936Y-86825403D01*
X145594938Y-86825413D01*
X145656094Y-87053655D01*
X145656096Y-87053659D01*
X145656097Y-87053663D01*
X145716912Y-87184080D01*
X145755965Y-87267830D01*
X145755967Y-87267834D01*
X145891501Y-87461395D01*
X145891506Y-87461402D01*
X146058597Y-87628493D01*
X146058603Y-87628498D01*
X146244158Y-87758425D01*
X146287783Y-87813002D01*
X146294977Y-87882500D01*
X146263454Y-87944855D01*
X146244158Y-87961575D01*
X146058597Y-88091505D01*
X145891505Y-88258597D01*
X145755965Y-88452169D01*
X145755964Y-88452171D01*
X145656098Y-88666335D01*
X145656094Y-88666344D01*
X145594938Y-88894586D01*
X145594936Y-88894596D01*
X145574341Y-89129999D01*
X145574341Y-89130000D01*
X145594936Y-89365403D01*
X145594938Y-89365413D01*
X145656094Y-89593655D01*
X145656096Y-89593659D01*
X145656097Y-89593663D01*
X145751826Y-89798954D01*
X145755965Y-89807830D01*
X145755967Y-89807834D01*
X145835240Y-89921046D01*
X145891256Y-90001046D01*
X145891501Y-90001395D01*
X145891506Y-90001402D01*
X146058597Y-90168493D01*
X146058603Y-90168498D01*
X146244158Y-90298425D01*
X146287783Y-90353002D01*
X146294977Y-90422500D01*
X146263454Y-90484855D01*
X146244158Y-90501575D01*
X146058597Y-90631505D01*
X145891505Y-90798597D01*
X145755965Y-90992169D01*
X145755964Y-90992171D01*
X145673040Y-91170003D01*
X145657946Y-91202373D01*
X145656098Y-91206335D01*
X145656094Y-91206344D01*
X145594938Y-91434586D01*
X145594936Y-91434596D01*
X145574341Y-91669999D01*
X145574341Y-91670000D01*
X145594936Y-91905403D01*
X145594938Y-91905413D01*
X145656094Y-92133655D01*
X145656096Y-92133659D01*
X145656097Y-92133663D01*
X145754003Y-92343623D01*
X145755965Y-92347830D01*
X145755967Y-92347834D01*
X145891501Y-92541395D01*
X145891506Y-92541402D01*
X146058597Y-92708493D01*
X146058603Y-92708498D01*
X146244158Y-92838425D01*
X146287783Y-92893002D01*
X146294977Y-92962500D01*
X146263454Y-93024855D01*
X146244158Y-93041575D01*
X146058597Y-93171505D01*
X145891505Y-93338597D01*
X145755965Y-93532169D01*
X145755964Y-93532171D01*
X145656098Y-93746335D01*
X145656094Y-93746344D01*
X145594938Y-93974586D01*
X145594936Y-93974596D01*
X145574341Y-94209999D01*
X145574341Y-94210000D01*
X145594936Y-94445403D01*
X145594938Y-94445413D01*
X145656094Y-94673655D01*
X145656096Y-94673659D01*
X145656097Y-94673663D01*
X145727069Y-94825863D01*
X145755965Y-94887830D01*
X145755967Y-94887834D01*
X145891501Y-95081395D01*
X145891506Y-95081402D01*
X146058597Y-95248493D01*
X146058603Y-95248498D01*
X146244594Y-95378730D01*
X146288219Y-95433307D01*
X146295413Y-95502805D01*
X146263890Y-95565160D01*
X146244595Y-95581880D01*
X146058922Y-95711890D01*
X146058920Y-95711891D01*
X145891891Y-95878920D01*
X145891886Y-95878926D01*
X145756400Y-96072420D01*
X145756399Y-96072422D01*
X145656570Y-96286507D01*
X145656567Y-96286513D01*
X145599364Y-96499999D01*
X145599364Y-96500000D01*
X146496988Y-96500000D01*
X146464075Y-96557007D01*
X146430000Y-96684174D01*
X146430000Y-96815826D01*
X146464075Y-96942993D01*
X146496988Y-97000000D01*
X145599364Y-97000000D01*
X145656567Y-97213486D01*
X145656570Y-97213492D01*
X145756399Y-97427578D01*
X145891894Y-97621082D01*
X146013946Y-97743134D01*
X146047431Y-97804457D01*
X146042447Y-97874149D01*
X146000575Y-97930082D01*
X145969598Y-97946997D01*
X145837671Y-97996202D01*
X145837664Y-97996206D01*
X145722455Y-98082452D01*
X145722452Y-98082455D01*
X145636206Y-98197664D01*
X145636202Y-98197671D01*
X145585908Y-98332517D01*
X145579501Y-98392116D01*
X145579501Y-98392123D01*
X145579500Y-98392135D01*
X145579500Y-100187870D01*
X145579501Y-100187876D01*
X145585908Y-100247483D01*
X145636202Y-100382328D01*
X145636206Y-100382335D01*
X145722452Y-100497544D01*
X145722455Y-100497547D01*
X145837664Y-100583793D01*
X145837671Y-100583797D01*
X145972517Y-100634091D01*
X145972516Y-100634091D01*
X145979444Y-100634835D01*
X146032127Y-100640500D01*
X147827872Y-100640499D01*
X147887483Y-100634091D01*
X148022331Y-100583796D01*
X148137546Y-100497546D01*
X148223796Y-100382331D01*
X148274091Y-100247483D01*
X148280500Y-100187873D01*
X148280499Y-98392128D01*
X148274091Y-98332517D01*
X148259184Y-98292550D01*
X148223797Y-98197671D01*
X148223793Y-98197664D01*
X148137547Y-98082455D01*
X148137544Y-98082452D01*
X148022335Y-97996206D01*
X148022328Y-97996202D01*
X147890401Y-97946997D01*
X147834467Y-97905126D01*
X147810050Y-97839662D01*
X147824902Y-97771389D01*
X147846053Y-97743133D01*
X147968108Y-97621078D01*
X148103600Y-97427578D01*
X148203429Y-97213492D01*
X148203432Y-97213486D01*
X148260636Y-97000000D01*
X147363012Y-97000000D01*
X147395925Y-96942993D01*
X147430000Y-96815826D01*
X147430000Y-96684174D01*
X147395925Y-96557007D01*
X147363012Y-96500000D01*
X148260636Y-96500000D01*
X148260635Y-96499999D01*
X148203432Y-96286513D01*
X148203429Y-96286507D01*
X148103600Y-96072422D01*
X148103599Y-96072420D01*
X147968113Y-95878926D01*
X147968108Y-95878920D01*
X147801078Y-95711890D01*
X147615405Y-95581879D01*
X147571780Y-95527302D01*
X147564588Y-95457804D01*
X147596110Y-95395449D01*
X147615406Y-95378730D01*
X147640973Y-95360828D01*
X147801401Y-95248495D01*
X147968495Y-95081401D01*
X148104035Y-94887830D01*
X148203903Y-94673663D01*
X148265063Y-94445408D01*
X148285659Y-94210000D01*
X148284830Y-94200530D01*
X148278180Y-94124513D01*
X148265063Y-93974592D01*
X148211148Y-93773375D01*
X148203905Y-93746344D01*
X148203904Y-93746343D01*
X148203903Y-93746337D01*
X148104035Y-93532171D01*
X148069772Y-93483237D01*
X147968494Y-93338597D01*
X147801402Y-93171506D01*
X147801396Y-93171501D01*
X147615842Y-93041575D01*
X147572217Y-92986998D01*
X147565023Y-92917500D01*
X147596546Y-92855145D01*
X147615842Y-92838425D01*
X147751077Y-92743732D01*
X147801401Y-92708495D01*
X147968495Y-92541401D01*
X148104035Y-92347830D01*
X148203903Y-92133663D01*
X148265063Y-91905408D01*
X148285659Y-91670000D01*
X148284830Y-91660530D01*
X148278180Y-91584513D01*
X148265063Y-91434592D01*
X148218626Y-91261285D01*
X148203905Y-91206344D01*
X148203904Y-91206343D01*
X148203903Y-91206337D01*
X148104035Y-90992171D01*
X148103024Y-90990726D01*
X147968494Y-90798597D01*
X147801402Y-90631506D01*
X147801396Y-90631501D01*
X147615842Y-90501575D01*
X147572217Y-90446998D01*
X147565023Y-90377500D01*
X147596546Y-90315145D01*
X147615842Y-90298425D01*
X147641817Y-90280237D01*
X147801401Y-90168495D01*
X147968495Y-90001401D01*
X148104035Y-89807830D01*
X148203903Y-89593663D01*
X148265063Y-89365408D01*
X148285659Y-89130000D01*
X148265063Y-88894592D01*
X148211148Y-88693375D01*
X148203905Y-88666344D01*
X148203904Y-88666343D01*
X148203903Y-88666337D01*
X148104035Y-88452171D01*
X148095515Y-88440002D01*
X147968494Y-88258597D01*
X147801402Y-88091506D01*
X147801396Y-88091501D01*
X147615842Y-87961575D01*
X147572217Y-87906998D01*
X147565023Y-87837500D01*
X147596546Y-87775145D01*
X147615842Y-87758425D01*
X147756407Y-87660000D01*
X147801401Y-87628495D01*
X147968495Y-87461401D01*
X148104035Y-87267830D01*
X148203903Y-87053663D01*
X148265063Y-86825408D01*
X148285659Y-86590000D01*
X148265063Y-86354592D01*
X148204885Y-86130002D01*
X148203905Y-86126344D01*
X148203904Y-86126343D01*
X148203903Y-86126337D01*
X148186957Y-86089997D01*
X148960726Y-86089997D01*
X148960726Y-86090002D01*
X148979761Y-86258951D01*
X149035919Y-86419439D01*
X149061053Y-86459439D01*
X149126376Y-86563400D01*
X149246600Y-86683624D01*
X149390563Y-86774082D01*
X149504872Y-86814080D01*
X149551048Y-86830238D01*
X149719997Y-86849274D01*
X149720000Y-86849274D01*
X149720003Y-86849274D01*
X149888951Y-86830238D01*
X149889631Y-86830000D01*
X150049437Y-86774082D01*
X150193400Y-86683624D01*
X150313624Y-86563400D01*
X150404082Y-86419437D01*
X150460237Y-86258954D01*
X150460237Y-86258953D01*
X150460238Y-86258951D01*
X150479274Y-86090002D01*
X150479274Y-86089997D01*
X150460238Y-85921048D01*
X150432870Y-85842835D01*
X150404082Y-85760563D01*
X150313624Y-85616600D01*
X150193400Y-85496376D01*
X150065427Y-85415965D01*
X150049439Y-85405919D01*
X150049438Y-85405918D01*
X150049437Y-85405918D01*
X150003263Y-85389761D01*
X149888951Y-85349761D01*
X149720003Y-85330726D01*
X149719997Y-85330726D01*
X149551048Y-85349761D01*
X149390560Y-85405919D01*
X149246599Y-85496376D01*
X149126376Y-85616599D01*
X149035919Y-85760560D01*
X148979761Y-85921048D01*
X148960726Y-86089997D01*
X148186957Y-86089997D01*
X148104035Y-85912171D01*
X148101517Y-85908574D01*
X147968494Y-85718597D01*
X147801402Y-85551506D01*
X147801396Y-85551501D01*
X147615842Y-85421575D01*
X147572217Y-85366998D01*
X147565023Y-85297500D01*
X147596546Y-85235145D01*
X147615842Y-85218425D01*
X147638026Y-85202891D01*
X147801401Y-85088495D01*
X147968495Y-84921401D01*
X148104035Y-84727830D01*
X148203903Y-84513663D01*
X148265063Y-84285408D01*
X148285659Y-84050000D01*
X148265063Y-83814592D01*
X148209332Y-83606599D01*
X148203905Y-83586344D01*
X148203904Y-83586343D01*
X148203903Y-83586337D01*
X148104035Y-83372171D01*
X148099658Y-83365919D01*
X147968494Y-83178597D01*
X147801402Y-83011506D01*
X147801396Y-83011501D01*
X147615842Y-82881575D01*
X147572217Y-82826998D01*
X147565023Y-82757500D01*
X147596546Y-82695145D01*
X147615842Y-82678425D01*
X147642153Y-82660002D01*
X147801401Y-82548495D01*
X147968495Y-82381401D01*
X148104035Y-82187830D01*
X148203903Y-81973663D01*
X148265063Y-81745408D01*
X148285659Y-81510000D01*
X148265063Y-81274592D01*
X148203903Y-81046337D01*
X148104035Y-80832171D01*
X148080777Y-80798954D01*
X147968494Y-80638597D01*
X147801402Y-80471506D01*
X147801396Y-80471501D01*
X147615842Y-80341575D01*
X147572217Y-80286998D01*
X147565023Y-80217500D01*
X147596546Y-80155145D01*
X147615842Y-80138425D01*
X147757211Y-80039437D01*
X147801401Y-80008495D01*
X147968495Y-79841401D01*
X148060505Y-79709997D01*
X154220726Y-79709997D01*
X154220726Y-79710002D01*
X154239761Y-79878951D01*
X154282437Y-80000912D01*
X154295918Y-80039437D01*
X154386376Y-80183400D01*
X154506600Y-80303624D01*
X154650563Y-80394082D01*
X154772521Y-80436756D01*
X154811048Y-80450238D01*
X154979997Y-80469274D01*
X154980000Y-80469274D01*
X154980003Y-80469274D01*
X155148951Y-80450238D01*
X155148954Y-80450237D01*
X155309437Y-80394082D01*
X155453400Y-80303624D01*
X155573624Y-80183400D01*
X155664082Y-80039437D01*
X155720237Y-79878954D01*
X155720237Y-79878953D01*
X155720238Y-79878951D01*
X155739274Y-79710002D01*
X155739274Y-79709997D01*
X155720238Y-79541048D01*
X155706756Y-79502521D01*
X155664082Y-79380563D01*
X155573624Y-79236600D01*
X155453400Y-79116376D01*
X155309437Y-79025918D01*
X155270912Y-79012437D01*
X155148951Y-78969761D01*
X154980003Y-78950726D01*
X154979997Y-78950726D01*
X154811048Y-78969761D01*
X154650560Y-79025919D01*
X154506599Y-79116376D01*
X154386376Y-79236599D01*
X154295919Y-79380560D01*
X154239761Y-79541048D01*
X154220726Y-79709997D01*
X148060505Y-79709997D01*
X148104035Y-79647830D01*
X148203903Y-79433663D01*
X148265063Y-79205408D01*
X148285659Y-78970000D01*
X148265063Y-78734592D01*
X148203903Y-78506337D01*
X148104035Y-78292171D01*
X147968495Y-78098599D01*
X147968494Y-78098597D01*
X147801402Y-77931506D01*
X147801396Y-77931501D01*
X147615842Y-77801575D01*
X147572217Y-77746998D01*
X147565023Y-77677500D01*
X147596546Y-77615145D01*
X147615842Y-77598425D01*
X147694167Y-77543581D01*
X147801401Y-77468495D01*
X147968495Y-77301401D01*
X148104035Y-77107830D01*
X148203903Y-76893663D01*
X148265063Y-76665408D01*
X148285659Y-76430000D01*
X148265063Y-76194592D01*
X148203903Y-75966337D01*
X148104035Y-75752171D01*
X148086891Y-75727686D01*
X147968494Y-75558597D01*
X147801402Y-75391506D01*
X147801395Y-75391501D01*
X147607834Y-75255967D01*
X147607830Y-75255965D01*
X147550625Y-75229290D01*
X147393663Y-75156097D01*
X147393659Y-75156096D01*
X147393655Y-75156094D01*
X147165413Y-75094938D01*
X147165403Y-75094936D01*
X146930001Y-75074341D01*
X146929999Y-75074341D01*
X146694596Y-75094936D01*
X146694586Y-75094938D01*
X146466344Y-75156094D01*
X146466335Y-75156098D01*
X146252171Y-75255964D01*
X146252169Y-75255965D01*
X146058597Y-75391505D01*
X145891505Y-75558597D01*
X145755965Y-75752169D01*
X145755964Y-75752171D01*
X145656098Y-75966335D01*
X145656094Y-75966344D01*
X145594938Y-76194586D01*
X145594936Y-76194596D01*
X145574341Y-76429999D01*
X143718740Y-76429999D01*
X143732879Y-76340726D01*
X143747500Y-76248417D01*
X143747500Y-76031582D01*
X143723085Y-75877435D01*
X143713582Y-75817435D01*
X143646580Y-75611223D01*
X143548144Y-75418032D01*
X143420699Y-75242619D01*
X143267381Y-75089301D01*
X143091968Y-74961856D01*
X143078821Y-74955157D01*
X142898774Y-74863418D01*
X142692566Y-74796418D01*
X142478417Y-74762500D01*
X142478412Y-74762500D01*
X142261588Y-74762500D01*
X142261583Y-74762500D01*
X142047433Y-74796418D01*
X141841225Y-74863418D01*
X141648031Y-74961856D01*
X141602625Y-74994846D01*
X141472619Y-75089301D01*
X141472617Y-75089303D01*
X141472616Y-75089303D01*
X141319303Y-75242616D01*
X141319303Y-75242617D01*
X141319301Y-75242619D01*
X141264568Y-75317952D01*
X141191856Y-75418031D01*
X141093418Y-75611225D01*
X141026418Y-75817433D01*
X140992500Y-76031582D01*
X138963644Y-76031582D01*
X138998582Y-76024632D01*
X139061835Y-76012051D01*
X139243914Y-75936632D01*
X139407782Y-75827139D01*
X139547139Y-75687782D01*
X139656632Y-75523914D01*
X139732051Y-75341835D01*
X139751787Y-75242616D01*
X139770500Y-75148543D01*
X139770500Y-74309997D01*
X154210726Y-74309997D01*
X154210726Y-74310002D01*
X154229761Y-74478951D01*
X154285919Y-74639439D01*
X154363244Y-74762500D01*
X154376376Y-74783400D01*
X154496600Y-74903624D01*
X154640563Y-74994082D01*
X154759750Y-75035787D01*
X154801048Y-75050238D01*
X154969997Y-75069274D01*
X154970000Y-75069274D01*
X154970003Y-75069274D01*
X155138951Y-75050238D01*
X155138954Y-75050237D01*
X155299437Y-74994082D01*
X155443400Y-74903624D01*
X155563624Y-74783400D01*
X155654082Y-74639437D01*
X155710237Y-74478954D01*
X155710237Y-74478953D01*
X155710238Y-74478951D01*
X155729274Y-74310002D01*
X155729274Y-74309997D01*
X155710238Y-74141048D01*
X155696756Y-74102521D01*
X155654082Y-73980563D01*
X155563624Y-73836600D01*
X155443400Y-73716376D01*
X155403430Y-73691261D01*
X155299439Y-73625919D01*
X155299438Y-73625918D01*
X155299437Y-73625918D01*
X155260912Y-73612437D01*
X155138951Y-73569761D01*
X154970003Y-73550726D01*
X154969997Y-73550726D01*
X154801048Y-73569761D01*
X154640560Y-73625919D01*
X154496599Y-73716376D01*
X154376376Y-73836599D01*
X154285919Y-73980560D01*
X154229761Y-74141048D01*
X154210726Y-74309997D01*
X139770500Y-74309997D01*
X139770500Y-73851456D01*
X139732052Y-73658170D01*
X139732051Y-73658169D01*
X139732051Y-73658165D01*
X139721905Y-73633670D01*
X139656635Y-73476092D01*
X139656628Y-73476079D01*
X139547139Y-73312218D01*
X139547136Y-73312214D01*
X139407785Y-73172863D01*
X139407781Y-73172860D01*
X139243920Y-73063371D01*
X139243907Y-73063364D01*
X139061839Y-72987950D01*
X139061829Y-72987947D01*
X138868543Y-72949500D01*
X138868541Y-72949500D01*
X138671459Y-72949500D01*
X138671457Y-72949500D01*
X138478170Y-72987947D01*
X138478160Y-72987950D01*
X138296092Y-73063364D01*
X138296079Y-73063371D01*
X138132218Y-73172860D01*
X138132214Y-73172863D01*
X137992863Y-73312214D01*
X137992860Y-73312218D01*
X137883371Y-73476079D01*
X137883366Y-73476088D01*
X137829218Y-73606816D01*
X137785377Y-73661219D01*
X137719083Y-73683284D01*
X137651384Y-73666005D01*
X137626976Y-73647044D01*
X137617844Y-73637912D01*
X137617842Y-73637910D01*
X137548576Y-73597919D01*
X137514660Y-73578337D01*
X137457116Y-73562918D01*
X137399573Y-73547500D01*
X137280427Y-73547500D01*
X137165339Y-73578337D01*
X137062158Y-73637910D01*
X137062155Y-73637912D01*
X136977912Y-73722155D01*
X136977910Y-73722158D01*
X136918337Y-73825339D01*
X136887500Y-73940427D01*
X132012500Y-73940427D01*
X131981663Y-73825341D01*
X131922090Y-73722158D01*
X131837842Y-73637910D01*
X131768576Y-73597919D01*
X131734660Y-73578337D01*
X131677116Y-73562918D01*
X131619573Y-73547500D01*
X131500427Y-73547500D01*
X131385339Y-73578337D01*
X131282158Y-73637910D01*
X131282153Y-73637914D01*
X131273020Y-73647047D01*
X131211696Y-73680530D01*
X131142005Y-73675543D01*
X131086072Y-73633670D01*
X131070781Y-73606815D01*
X131016635Y-73476091D01*
X131016628Y-73476079D01*
X130907139Y-73312218D01*
X130907136Y-73312214D01*
X130767785Y-73172863D01*
X130767781Y-73172860D01*
X130603920Y-73063371D01*
X130603907Y-73063364D01*
X130421839Y-72987950D01*
X130421829Y-72987947D01*
X130228543Y-72949500D01*
X130228541Y-72949500D01*
X130031459Y-72949500D01*
X130031457Y-72949500D01*
X129838170Y-72987947D01*
X129838160Y-72987950D01*
X129656092Y-73063364D01*
X129656079Y-73063371D01*
X129492218Y-73172860D01*
X129492214Y-73172863D01*
X129352863Y-73312214D01*
X129352860Y-73312218D01*
X129243371Y-73476079D01*
X129243364Y-73476092D01*
X129167950Y-73658160D01*
X129167947Y-73658170D01*
X129129500Y-73851456D01*
X129129500Y-73851459D01*
X129129500Y-75148541D01*
X129129500Y-75148543D01*
X129129499Y-75148543D01*
X107009400Y-75148543D01*
X107009400Y-71863400D01*
X107029085Y-71796361D01*
X107081889Y-71750606D01*
X107133400Y-71739400D01*
X120644501Y-71739400D01*
X120711540Y-71759085D01*
X120732182Y-71775719D01*
X122259474Y-73303011D01*
X122292959Y-73364334D01*
X122295013Y-73376807D01*
X122299762Y-73418951D01*
X122299762Y-73418953D01*
X122299763Y-73418954D01*
X122352532Y-73569761D01*
X122355919Y-73579439D01*
X122410312Y-73666005D01*
X122446376Y-73723400D01*
X122566600Y-73843624D01*
X122710563Y-73934082D01*
X122832521Y-73976756D01*
X122871048Y-73990238D01*
X123039997Y-74009274D01*
X123040000Y-74009274D01*
X123040003Y-74009274D01*
X123208951Y-73990238D01*
X123208954Y-73990237D01*
X123369437Y-73934082D01*
X123513400Y-73843624D01*
X123633624Y-73723400D01*
X123724082Y-73579437D01*
X123780237Y-73418954D01*
X123780237Y-73418953D01*
X123780238Y-73418951D01*
X123799274Y-73250002D01*
X123799274Y-73249997D01*
X123780238Y-73081048D01*
X123766756Y-73042521D01*
X123724082Y-72920563D01*
X123633624Y-72776600D01*
X123513400Y-72656376D01*
X123369437Y-72565918D01*
X123208954Y-72509763D01*
X123208953Y-72509762D01*
X123208951Y-72509762D01*
X123166807Y-72505013D01*
X123102393Y-72477946D01*
X123093011Y-72469474D01*
X121301902Y-70678365D01*
X121301900Y-70678363D01*
X121216921Y-70629300D01*
X121167503Y-70600768D01*
X121167504Y-70600768D01*
X121155210Y-70597474D01*
X121017596Y-70560600D01*
X121017593Y-70560600D01*
X107892007Y-70560600D01*
X107824968Y-70540915D01*
X107779213Y-70488111D01*
X107771117Y-70464197D01*
X107770239Y-70460353D01*
X107770237Y-70460346D01*
X107714082Y-70299863D01*
X107623624Y-70155900D01*
X107503400Y-70035676D01*
X107359437Y-69945218D01*
X107320912Y-69931737D01*
X107198951Y-69889061D01*
X107030003Y-69870026D01*
X107029997Y-69870026D01*
X106861048Y-69889061D01*
X106700560Y-69945219D01*
X106556599Y-70035676D01*
X106436376Y-70155899D01*
X106345919Y-70299860D01*
X106289761Y-70460348D01*
X106270726Y-70629297D01*
X106270726Y-70629303D01*
X106283931Y-70746505D01*
X106271876Y-70815327D01*
X106248392Y-70848069D01*
X106058100Y-71038363D01*
X105948365Y-71148097D01*
X105948361Y-71148103D01*
X105870768Y-71282496D01*
X105870767Y-71282500D01*
X105830600Y-71432404D01*
X105830600Y-71432406D01*
X105830600Y-86334500D01*
X105810915Y-86401539D01*
X105794281Y-86422181D01*
X103616987Y-88599474D01*
X103555664Y-88632959D01*
X103543192Y-88635013D01*
X103501051Y-88639761D01*
X103340561Y-88695918D01*
X103196599Y-88786376D01*
X103076376Y-88906599D01*
X102985919Y-89050560D01*
X102929761Y-89211048D01*
X102910726Y-89379997D01*
X102023640Y-89379997D01*
X102010238Y-89261048D01*
X101983575Y-89184850D01*
X101954082Y-89100563D01*
X101863624Y-88956600D01*
X101743400Y-88836376D01*
X101668761Y-88789477D01*
X101599439Y-88745919D01*
X101599438Y-88745918D01*
X101599437Y-88745918D01*
X101560912Y-88732437D01*
X101438951Y-88689761D01*
X101270003Y-88670726D01*
X101269997Y-88670726D01*
X101101048Y-88689761D01*
X100940560Y-88745919D01*
X100796599Y-88836376D01*
X100676376Y-88956599D01*
X100585918Y-89100561D01*
X100529761Y-89261051D01*
X100525013Y-89303192D01*
X100497945Y-89367605D01*
X100489474Y-89376987D01*
X99928482Y-89937981D01*
X99867159Y-89971466D01*
X99840801Y-89974300D01*
X98042253Y-89974300D01*
X97975214Y-89954615D01*
X97943299Y-89925027D01*
X97906199Y-89875899D01*
X97845440Y-89795441D01*
X97824772Y-89776600D01*
X97689923Y-89653669D01*
X97689921Y-89653667D01*
X97511007Y-89542888D01*
X97511001Y-89542885D01*
X97356348Y-89482973D01*
X97314776Y-89466868D01*
X97107920Y-89428200D01*
X96897480Y-89428200D01*
X96690624Y-89466868D01*
X96690621Y-89466868D01*
X96690621Y-89466869D01*
X96494398Y-89542885D01*
X96494392Y-89542888D01*
X96315478Y-89653667D01*
X96315476Y-89653669D01*
X96159961Y-89795439D01*
X96033142Y-89963374D01*
X95939342Y-90151749D01*
X95919235Y-90222420D01*
X95883928Y-90346512D01*
X95881751Y-90354162D01*
X95862335Y-90563699D01*
X80764500Y-90563699D01*
X80764500Y-88023694D01*
X85702444Y-88023694D01*
X85702444Y-88023705D01*
X85721448Y-88325774D01*
X85721449Y-88325781D01*
X85739284Y-88419274D01*
X85775467Y-88608954D01*
X85778168Y-88623110D01*
X85864531Y-88888906D01*
X85871701Y-88910974D01*
X86000577Y-89184850D01*
X86000579Y-89184853D01*
X86000580Y-89184855D01*
X86162758Y-89440408D01*
X86162761Y-89440412D01*
X86162762Y-89440413D01*
X86355699Y-89673634D01*
X86547131Y-89853400D01*
X86576343Y-89880832D01*
X86576353Y-89880840D01*
X86821208Y-90058738D01*
X86821213Y-90058740D01*
X86821220Y-90058746D01*
X87086463Y-90204565D01*
X87086468Y-90204567D01*
X87086470Y-90204568D01*
X87086471Y-90204569D01*
X87367886Y-90315989D01*
X87367889Y-90315990D01*
X87634812Y-90384524D01*
X87661063Y-90391264D01*
X87721873Y-90398946D01*
X87961347Y-90429199D01*
X87961356Y-90429199D01*
X87961359Y-90429200D01*
X87961361Y-90429200D01*
X88264039Y-90429200D01*
X88264041Y-90429200D01*
X88264044Y-90429199D01*
X88264052Y-90429199D01*
X88472394Y-90402879D01*
X88564337Y-90391264D01*
X88857510Y-90315990D01*
X88857513Y-90315989D01*
X89138928Y-90204569D01*
X89138929Y-90204568D01*
X89138927Y-90204568D01*
X89138937Y-90204565D01*
X89404180Y-90058746D01*
X89649055Y-89880834D01*
X89869701Y-89673634D01*
X90062638Y-89440413D01*
X90155745Y-89293699D01*
X93322335Y-89293699D01*
X93322335Y-89293700D01*
X93341751Y-89503237D01*
X93341751Y-89503239D01*
X93341752Y-89503242D01*
X93384552Y-89653669D01*
X93399342Y-89705650D01*
X93466520Y-89840561D01*
X93493142Y-89894025D01*
X93574229Y-90001402D01*
X93619961Y-90061960D01*
X93775476Y-90203730D01*
X93775478Y-90203732D01*
X93954392Y-90314511D01*
X93954398Y-90314514D01*
X93985596Y-90326600D01*
X94150624Y-90390532D01*
X94357480Y-90429200D01*
X94357482Y-90429200D01*
X94567918Y-90429200D01*
X94567920Y-90429200D01*
X94774776Y-90390532D01*
X94971004Y-90314513D01*
X95149923Y-90203731D01*
X95305440Y-90061959D01*
X95432258Y-89894025D01*
X95526059Y-89705647D01*
X95583648Y-89503242D01*
X95603065Y-89293700D01*
X95602286Y-89285298D01*
X95592979Y-89184855D01*
X95583648Y-89084158D01*
X95526059Y-88881753D01*
X95432258Y-88693375D01*
X95305440Y-88525441D01*
X95174831Y-88406376D01*
X95149923Y-88383669D01*
X95149921Y-88383667D01*
X94971007Y-88272888D01*
X94971001Y-88272885D01*
X94816348Y-88212973D01*
X94774776Y-88196868D01*
X94567920Y-88158200D01*
X94357480Y-88158200D01*
X94150624Y-88196868D01*
X94150621Y-88196868D01*
X94150621Y-88196869D01*
X93954398Y-88272885D01*
X93954392Y-88272888D01*
X93775478Y-88383667D01*
X93775476Y-88383669D01*
X93619961Y-88525439D01*
X93493142Y-88693374D01*
X93399342Y-88881749D01*
X93381084Y-88945919D01*
X93351312Y-89050560D01*
X93341751Y-89084162D01*
X93322335Y-89293699D01*
X90155745Y-89293699D01*
X90224823Y-89184850D01*
X90353699Y-88910974D01*
X90447233Y-88623106D01*
X90503950Y-88325785D01*
X90507278Y-88272887D01*
X90522956Y-88023705D01*
X90522956Y-88023694D01*
X90503951Y-87721625D01*
X90503950Y-87721618D01*
X90503950Y-87721615D01*
X90447233Y-87424294D01*
X90353699Y-87136426D01*
X90224823Y-86862550D01*
X90164801Y-86767971D01*
X90062641Y-86606991D01*
X90060980Y-86604983D01*
X89974128Y-86499997D01*
X101770726Y-86499997D01*
X101770726Y-86500002D01*
X101789761Y-86668951D01*
X101830188Y-86784484D01*
X101844506Y-86825403D01*
X101845919Y-86829439D01*
X101883516Y-86889274D01*
X101936376Y-86973400D01*
X102056600Y-87093624D01*
X102200563Y-87184082D01*
X102299211Y-87218600D01*
X102361048Y-87240238D01*
X102529997Y-87259274D01*
X102530000Y-87259274D01*
X102530003Y-87259274D01*
X102698951Y-87240238D01*
X102698954Y-87240237D01*
X102859437Y-87184082D01*
X103003400Y-87093624D01*
X103112319Y-86984705D01*
X103173642Y-86951220D01*
X103243334Y-86956204D01*
X103287681Y-86984705D01*
X103386600Y-87083624D01*
X103530563Y-87174082D01*
X103652521Y-87216756D01*
X103691048Y-87230238D01*
X103859997Y-87249274D01*
X103860000Y-87249274D01*
X103860003Y-87249274D01*
X104028951Y-87230238D01*
X104028954Y-87230237D01*
X104189437Y-87174082D01*
X104333400Y-87083624D01*
X104453624Y-86963400D01*
X104544082Y-86819437D01*
X104600237Y-86658954D01*
X104600237Y-86658953D01*
X104600238Y-86658951D01*
X104619274Y-86490002D01*
X104619274Y-86489997D01*
X104600238Y-86321048D01*
X104583732Y-86273877D01*
X104544082Y-86160563D01*
X104453624Y-86016600D01*
X104333400Y-85896376D01*
X104233146Y-85833382D01*
X104189439Y-85805919D01*
X104189438Y-85805918D01*
X104189437Y-85805918D01*
X104150912Y-85792437D01*
X104028951Y-85749761D01*
X103860003Y-85730726D01*
X103859997Y-85730726D01*
X103691048Y-85749761D01*
X103530560Y-85805919D01*
X103386599Y-85896376D01*
X103277681Y-86005295D01*
X103216358Y-86038780D01*
X103146666Y-86033796D01*
X103102319Y-86005295D01*
X103003400Y-85906376D01*
X102859439Y-85815919D01*
X102859438Y-85815918D01*
X102859437Y-85815918D01*
X102815546Y-85800560D01*
X102698951Y-85759761D01*
X102530003Y-85740726D01*
X102529997Y-85740726D01*
X102361048Y-85759761D01*
X102200560Y-85815919D01*
X102056599Y-85906376D01*
X101936376Y-86026599D01*
X101845919Y-86170560D01*
X101789761Y-86331048D01*
X101770726Y-86499997D01*
X89974128Y-86499997D01*
X89869701Y-86373766D01*
X89649055Y-86166566D01*
X89649052Y-86166564D01*
X89649046Y-86166559D01*
X89404191Y-85988661D01*
X89404184Y-85988656D01*
X89404180Y-85988654D01*
X89138937Y-85842835D01*
X89138934Y-85842833D01*
X89138929Y-85842831D01*
X89138928Y-85842830D01*
X88857513Y-85731410D01*
X88857510Y-85731409D01*
X88564340Y-85656136D01*
X88564327Y-85656134D01*
X88264052Y-85618200D01*
X88264041Y-85618200D01*
X87961359Y-85618200D01*
X87961347Y-85618200D01*
X87661072Y-85656134D01*
X87661059Y-85656136D01*
X87367889Y-85731409D01*
X87367886Y-85731410D01*
X87086471Y-85842830D01*
X87086470Y-85842831D01*
X86821220Y-85988654D01*
X86821208Y-85988661D01*
X86576353Y-86166559D01*
X86576343Y-86166567D01*
X86358263Y-86371358D01*
X86355699Y-86373766D01*
X86332723Y-86401539D01*
X86162758Y-86606991D01*
X86000580Y-86862544D01*
X86000577Y-86862548D01*
X86000577Y-86862550D01*
X85963522Y-86941296D01*
X85871700Y-87136428D01*
X85778168Y-87424289D01*
X85721449Y-87721618D01*
X85721448Y-87721625D01*
X85702444Y-88023694D01*
X80764500Y-88023694D01*
X80764500Y-84339997D01*
X82420726Y-84339997D01*
X82420726Y-84340002D01*
X82439761Y-84508951D01*
X82495919Y-84669439D01*
X82498622Y-84673740D01*
X82586376Y-84813400D01*
X82706600Y-84933624D01*
X82850563Y-85024082D01*
X82972521Y-85066756D01*
X83011048Y-85080238D01*
X83179997Y-85099274D01*
X83180000Y-85099274D01*
X83180003Y-85099274D01*
X83348951Y-85080238D01*
X83348954Y-85080237D01*
X83509437Y-85024082D01*
X83653400Y-84933624D01*
X83773624Y-84813400D01*
X83864082Y-84669437D01*
X83920237Y-84508954D01*
X83920237Y-84508953D01*
X83920238Y-84508951D01*
X83939274Y-84340002D01*
X83939274Y-84339997D01*
X83920238Y-84171048D01*
X83905317Y-84128408D01*
X83888378Y-84079997D01*
X101780726Y-84079997D01*
X101780726Y-84080002D01*
X101799761Y-84248951D01*
X101835832Y-84352034D01*
X101851573Y-84397021D01*
X101855919Y-84409439D01*
X101921408Y-84513663D01*
X101946376Y-84553400D01*
X102066600Y-84673624D01*
X102210563Y-84764082D01*
X102332521Y-84806756D01*
X102371048Y-84820238D01*
X102539997Y-84839274D01*
X102540000Y-84839274D01*
X102540003Y-84839274D01*
X102708951Y-84820238D01*
X102728493Y-84813400D01*
X102869437Y-84764082D01*
X103013400Y-84673624D01*
X103133624Y-84553400D01*
X103133624Y-84553399D01*
X103137319Y-84549705D01*
X103198642Y-84516220D01*
X103268334Y-84521204D01*
X103312681Y-84549705D01*
X103406600Y-84643624D01*
X103550563Y-84734082D01*
X103672521Y-84776756D01*
X103711048Y-84790238D01*
X103879997Y-84809274D01*
X103880000Y-84809274D01*
X103880003Y-84809274D01*
X104048951Y-84790238D01*
X104048954Y-84790237D01*
X104209437Y-84734082D01*
X104353400Y-84643624D01*
X104473624Y-84523400D01*
X104564082Y-84379437D01*
X104620237Y-84218954D01*
X104620237Y-84218953D01*
X104620238Y-84218951D01*
X104639274Y-84050002D01*
X104639274Y-84049997D01*
X104620238Y-83881048D01*
X104596982Y-83814586D01*
X104564082Y-83720563D01*
X104473624Y-83576600D01*
X104353400Y-83456376D01*
X104328172Y-83440524D01*
X104209439Y-83365919D01*
X104209438Y-83365918D01*
X104209437Y-83365918D01*
X104147030Y-83344081D01*
X104048951Y-83309761D01*
X103880003Y-83290726D01*
X103879997Y-83290726D01*
X103711048Y-83309761D01*
X103550560Y-83365919D01*
X103406599Y-83456376D01*
X103282681Y-83580295D01*
X103221358Y-83613780D01*
X103151666Y-83608796D01*
X103107319Y-83580295D01*
X103013400Y-83486376D01*
X102869439Y-83395919D01*
X102869438Y-83395918D01*
X102869437Y-83395918D01*
X102830816Y-83382404D01*
X102708951Y-83339761D01*
X102540003Y-83320726D01*
X102539997Y-83320726D01*
X102371048Y-83339761D01*
X102210560Y-83395919D01*
X102066599Y-83486376D01*
X101946376Y-83606599D01*
X101855919Y-83750560D01*
X101799761Y-83911048D01*
X101780726Y-84079997D01*
X83888378Y-84079997D01*
X83864082Y-84010563D01*
X83773624Y-83866600D01*
X83653400Y-83746376D01*
X83509437Y-83655918D01*
X83470912Y-83642437D01*
X83348951Y-83599761D01*
X83180003Y-83580726D01*
X83179997Y-83580726D01*
X83011048Y-83599761D01*
X82850560Y-83655919D01*
X82706599Y-83746376D01*
X82586376Y-83866599D01*
X82495919Y-84010560D01*
X82439761Y-84171048D01*
X82420726Y-84339997D01*
X80764500Y-84339997D01*
X80764500Y-74169997D01*
X82130726Y-74169997D01*
X82130726Y-74170002D01*
X82149761Y-74338951D01*
X82189494Y-74452499D01*
X82202372Y-74489304D01*
X82205919Y-74499439D01*
X82229769Y-74537396D01*
X82296376Y-74643400D01*
X82416600Y-74763624D01*
X82560563Y-74854082D01*
X82682521Y-74896756D01*
X82721048Y-74910238D01*
X82889997Y-74929274D01*
X82890000Y-74929274D01*
X82890003Y-74929274D01*
X83058951Y-74910238D01*
X83058954Y-74910237D01*
X83219437Y-74854082D01*
X83363400Y-74763624D01*
X83420677Y-74706347D01*
X89234491Y-74706347D01*
X89234491Y-74706352D01*
X89253526Y-74875301D01*
X89295089Y-74994080D01*
X89304808Y-75021856D01*
X89309684Y-75035789D01*
X89313907Y-75042510D01*
X89332907Y-75109747D01*
X89325955Y-75149435D01*
X89298013Y-75229290D01*
X89298011Y-75229297D01*
X89278976Y-75398244D01*
X89278976Y-75398249D01*
X89298011Y-75567198D01*
X89354169Y-75727686D01*
X89444626Y-75871647D01*
X89448967Y-75877090D01*
X89447580Y-75878196D01*
X89476741Y-75931600D01*
X89478795Y-75971841D01*
X89469184Y-76057142D01*
X89469184Y-76057147D01*
X89488219Y-76226094D01*
X89488220Y-76226098D01*
X89498032Y-76254138D01*
X89501593Y-76323917D01*
X89485984Y-76361063D01*
X89456577Y-76407864D01*
X89400419Y-76568352D01*
X89381384Y-76737301D01*
X89381384Y-76737306D01*
X89400419Y-76906255D01*
X89456577Y-77066743D01*
X89477472Y-77099997D01*
X89547034Y-77210704D01*
X89667258Y-77330928D01*
X89811221Y-77421386D01*
X89933179Y-77464060D01*
X89971706Y-77477542D01*
X90140655Y-77496578D01*
X90140658Y-77496578D01*
X90140661Y-77496578D01*
X90309609Y-77477542D01*
X90309612Y-77477541D01*
X90470095Y-77421386D01*
X90614058Y-77330928D01*
X90734282Y-77210704D01*
X90824740Y-77066741D01*
X90880895Y-76906258D01*
X90880895Y-76906257D01*
X90880896Y-76906255D01*
X90899932Y-76737306D01*
X90899932Y-76737301D01*
X90880896Y-76568352D01*
X90871084Y-76540312D01*
X90867522Y-76470533D01*
X90883132Y-76433384D01*
X90899166Y-76407867D01*
X90912540Y-76386582D01*
X90968695Y-76226099D01*
X90968695Y-76226098D01*
X90968696Y-76226096D01*
X90983852Y-76091582D01*
X100222500Y-76091582D01*
X100222500Y-76308417D01*
X100256418Y-76522566D01*
X100323418Y-76728774D01*
X100344711Y-76770563D01*
X100421856Y-76921968D01*
X100549301Y-77097381D01*
X100702619Y-77250699D01*
X100878032Y-77378144D01*
X101055355Y-77468495D01*
X101071225Y-77476581D01*
X101174329Y-77510081D01*
X101277435Y-77543582D01*
X101376619Y-77559291D01*
X101491583Y-77577500D01*
X101491588Y-77577500D01*
X101708417Y-77577500D01*
X101812233Y-77561056D01*
X101922565Y-77543582D01*
X102128777Y-77476580D01*
X102321968Y-77378144D01*
X102497381Y-77250699D01*
X102650699Y-77097381D01*
X102778144Y-76921968D01*
X102876580Y-76728777D01*
X102943582Y-76522565D01*
X102965224Y-76385919D01*
X102977500Y-76308417D01*
X102977500Y-76091582D01*
X102952957Y-75936628D01*
X102943582Y-75877435D01*
X102910081Y-75774329D01*
X102876581Y-75671225D01*
X102846008Y-75611223D01*
X102778144Y-75478032D01*
X102650699Y-75302619D01*
X102497381Y-75149301D01*
X102321968Y-75021856D01*
X102204212Y-74961856D01*
X102128774Y-74923418D01*
X101922566Y-74856418D01*
X101708417Y-74822500D01*
X101708412Y-74822500D01*
X101491588Y-74822500D01*
X101491583Y-74822500D01*
X101277433Y-74856418D01*
X101071225Y-74923418D01*
X100878031Y-75021856D01*
X100785202Y-75089301D01*
X100702619Y-75149301D01*
X100702617Y-75149303D01*
X100702616Y-75149303D01*
X100549303Y-75302616D01*
X100549303Y-75302617D01*
X100549301Y-75302619D01*
X100520809Y-75341835D01*
X100421856Y-75478031D01*
X100323418Y-75671225D01*
X100256418Y-75877433D01*
X100222500Y-76091582D01*
X90983852Y-76091582D01*
X90987732Y-76057147D01*
X90987732Y-76057142D01*
X90968696Y-75888193D01*
X90947331Y-75827136D01*
X90912540Y-75727708D01*
X90822082Y-75583745D01*
X90822081Y-75583744D01*
X90817741Y-75578302D01*
X90819127Y-75577196D01*
X90789966Y-75523791D01*
X90787912Y-75483548D01*
X90797524Y-75398247D01*
X90797524Y-75398244D01*
X90783246Y-75271531D01*
X90778487Y-75229293D01*
X90748261Y-75142913D01*
X90722333Y-75068812D01*
X90718105Y-75062083D01*
X90699106Y-74994846D01*
X90706058Y-74955162D01*
X90734002Y-74875304D01*
X90735342Y-74863418D01*
X90753039Y-74706352D01*
X90753039Y-74706347D01*
X90734002Y-74537395D01*
X90734002Y-74537393D01*
X90694706Y-74425092D01*
X90691144Y-74355313D01*
X90694702Y-74343193D01*
X90729459Y-74243863D01*
X90748428Y-74189655D01*
X90748428Y-74189654D01*
X90764446Y-74047497D01*
X94744726Y-74047497D01*
X94744726Y-74047502D01*
X94763761Y-74216451D01*
X94806437Y-74338412D01*
X94815896Y-74365444D01*
X94819919Y-74376939D01*
X94890523Y-74489304D01*
X94910376Y-74520900D01*
X95030600Y-74641124D01*
X95174563Y-74731582D01*
X95296521Y-74774256D01*
X95335048Y-74787738D01*
X95503997Y-74806774D01*
X95504000Y-74806774D01*
X95504003Y-74806774D01*
X95672951Y-74787738D01*
X95672954Y-74787737D01*
X95833437Y-74731582D01*
X95977400Y-74641124D01*
X96097624Y-74520900D01*
X96188082Y-74376937D01*
X96244237Y-74216454D01*
X96244237Y-74216453D01*
X96244238Y-74216451D01*
X96263274Y-74047502D01*
X96263274Y-74047497D01*
X96244238Y-73878548D01*
X96225619Y-73825339D01*
X96188082Y-73718063D01*
X96097624Y-73574100D01*
X95977400Y-73453876D01*
X95833439Y-73363419D01*
X95833438Y-73363418D01*
X95833437Y-73363418D01*
X95794912Y-73349937D01*
X95672951Y-73307261D01*
X95504003Y-73288226D01*
X95503997Y-73288226D01*
X95335048Y-73307261D01*
X95174560Y-73363419D01*
X95030599Y-73453876D01*
X94910376Y-73574099D01*
X94819919Y-73718060D01*
X94763761Y-73878548D01*
X94744726Y-74047497D01*
X90764446Y-74047497D01*
X90767465Y-74020702D01*
X90767465Y-74020697D01*
X90748429Y-73851748D01*
X90706723Y-73732560D01*
X90703162Y-73662781D01*
X90718772Y-73625632D01*
X90747797Y-73579439D01*
X90754082Y-73569437D01*
X90810237Y-73408954D01*
X90810237Y-73408953D01*
X90810238Y-73408951D01*
X90829274Y-73240002D01*
X90829274Y-73239997D01*
X90810238Y-73071048D01*
X90796756Y-73032521D01*
X90754082Y-72910563D01*
X90663624Y-72766600D01*
X90543400Y-72646376D01*
X90399439Y-72555919D01*
X90399438Y-72555918D01*
X90399437Y-72555918D01*
X90360912Y-72542437D01*
X90238951Y-72499761D01*
X90070003Y-72480726D01*
X90069997Y-72480726D01*
X89901048Y-72499761D01*
X89740560Y-72555919D01*
X89596599Y-72646376D01*
X89476376Y-72766599D01*
X89385919Y-72910560D01*
X89329761Y-73071048D01*
X89310726Y-73239997D01*
X89310726Y-73240002D01*
X89329762Y-73408952D01*
X89371467Y-73528140D01*
X89375028Y-73597919D01*
X89359420Y-73635064D01*
X89324109Y-73691261D01*
X89267952Y-73851748D01*
X89248917Y-74020697D01*
X89248917Y-74020702D01*
X89267953Y-74189652D01*
X89307250Y-74301957D01*
X89310811Y-74371735D01*
X89307250Y-74383865D01*
X89253527Y-74537397D01*
X89234491Y-74706347D01*
X83420677Y-74706347D01*
X83483624Y-74643400D01*
X83574082Y-74499437D01*
X83630237Y-74338954D01*
X83630237Y-74338953D01*
X83630238Y-74338951D01*
X83649274Y-74170002D01*
X83649274Y-74169997D01*
X83630238Y-74001048D01*
X83609026Y-73940429D01*
X83574082Y-73840563D01*
X83483624Y-73696600D01*
X83363400Y-73576376D01*
X83359776Y-73574099D01*
X83219439Y-73485919D01*
X83219438Y-73485918D01*
X83219437Y-73485918D01*
X83180912Y-73472437D01*
X83058951Y-73429761D01*
X82890003Y-73410726D01*
X82889997Y-73410726D01*
X82721048Y-73429761D01*
X82560560Y-73485919D01*
X82416599Y-73576376D01*
X82296376Y-73696599D01*
X82205919Y-73840560D01*
X82149761Y-74001048D01*
X82130726Y-74169997D01*
X80764500Y-74169997D01*
X80764500Y-70819997D01*
X83550726Y-70819997D01*
X83550726Y-70820002D01*
X83569761Y-70988951D01*
X83612437Y-71110912D01*
X83625918Y-71149437D01*
X83716376Y-71293400D01*
X83836600Y-71413624D01*
X83980563Y-71504082D01*
X84102521Y-71546756D01*
X84141048Y-71560238D01*
X84309997Y-71579274D01*
X84310000Y-71579274D01*
X84310003Y-71579274D01*
X84478951Y-71560238D01*
X84478954Y-71560237D01*
X84639437Y-71504082D01*
X84783400Y-71413624D01*
X84903624Y-71293400D01*
X84994082Y-71149437D01*
X85050237Y-70988954D01*
X85050237Y-70988953D01*
X85050238Y-70988951D01*
X85069274Y-70820002D01*
X85069274Y-70819997D01*
X85050238Y-70651048D01*
X85032644Y-70600767D01*
X84994082Y-70490563D01*
X84903624Y-70346600D01*
X84783400Y-70226376D01*
X84639437Y-70135918D01*
X84600912Y-70122437D01*
X84478951Y-70079761D01*
X84310003Y-70060726D01*
X84309997Y-70060726D01*
X84141048Y-70079761D01*
X83980560Y-70135919D01*
X83836599Y-70226376D01*
X83716376Y-70346599D01*
X83625919Y-70490560D01*
X83569761Y-70651048D01*
X83550726Y-70819997D01*
X80764500Y-70819997D01*
X80764500Y-69204500D01*
X80784185Y-69137461D01*
X80836989Y-69091706D01*
X80888500Y-69080500D01*
X129139651Y-69080500D01*
X129206690Y-69100185D01*
G37*
%TD.AperFunction*%
%TA.AperFunction,Conductor*%
G36*
X153428279Y-88924727D02*
G01*
X153439466Y-88923567D01*
X153469035Y-88898331D01*
X153538266Y-88888906D01*
X153601602Y-88918406D01*
X153623508Y-88943685D01*
X153651327Y-88986265D01*
X153812731Y-89161597D01*
X153842607Y-89184850D01*
X153954765Y-89272147D01*
X153995578Y-89328857D01*
X153999252Y-89398630D01*
X153964620Y-89459313D01*
X153954765Y-89467853D01*
X153812733Y-89578401D01*
X153812731Y-89578402D01*
X153812731Y-89578403D01*
X153793815Y-89598951D01*
X153651322Y-89753740D01*
X153623809Y-89795854D01*
X153570662Y-89841211D01*
X153501431Y-89850635D01*
X153438095Y-89821133D01*
X153416191Y-89795854D01*
X153388677Y-89753740D01*
X153388674Y-89753737D01*
X153388673Y-89753735D01*
X153227269Y-89578403D01*
X153227264Y-89578399D01*
X153227262Y-89578397D01*
X153084828Y-89467536D01*
X153044015Y-89410826D01*
X153040340Y-89341053D01*
X153074972Y-89280370D01*
X153075466Y-89279941D01*
X153075520Y-89279073D01*
X152478354Y-88681907D01*
X152546048Y-88653868D01*
X152648414Y-88585469D01*
X152735469Y-88498414D01*
X152803868Y-88396048D01*
X152831907Y-88328355D01*
X153428279Y-88924727D01*
G37*
%TD.AperFunction*%
%TD*%
M02*
